%FSLAX45Y45*%
G04 Gerber Fmt 4.5, Leading zero omitted, Abs format (unit mm)*
G04 Created by KiCad (PCBNEW (5.99.0-10444-g64d35ecebc)) date 2021-06-19 10:51:50*
%MOMM*%
%LPD*%
G01*
G04 APERTURE LIST*
%TA.AperFunction,Profile*%
%ADD10C,0.150000*%
%TD*%
%ADD11C,0.200000*%
%ADD12C,0.040000*%
%ADD13C,0.050000*%
%ADD14C,0.060000*%
%ADD15C,0.220000*%
G04 APERTURE END LIST*
D10*
X36249995Y-2443251D02*
G75*
G02*
X36449995Y-2643251I0J-200000D01*
G01*
X2741250Y-12920750D02*
G75*
G02*
X2541250Y-12720750I0J200000D01*
G01*
X2541250Y-2643251D02*
X2541250Y-12720750D01*
X24811000Y-12920750D02*
X36249995Y-12920750D01*
X2741250Y-12920750D02*
X10312670Y-12920750D01*
X16860000Y-14312523D02*
X18263000Y-14312523D01*
X10312670Y-12920750D02*
X16860000Y-14312523D01*
X2741250Y-2443251D02*
G75*
G03*
X2541250Y-2643251I0J-200000D01*
G01*
X18263000Y-14312523D02*
X24811000Y-12920750D01*
X36449995Y-2643251D02*
X36449995Y-12720750D01*
X17037500Y-2397279D02*
X17037500Y-2261081D01*
X17037500Y-2261081D02*
G75*
G02*
X17088091Y-2214880I50591J-4599D01*
G01*
X36249995Y-12920750D02*
G75*
G03*
X36449995Y-12720750I0J200000D01*
G01*
X18117207Y-2443281D02*
X36249995Y-2443251D01*
X17037500Y-2397279D02*
G75*
G02*
X16986909Y-2443480I-50591J4599D01*
G01*
X18018799Y-2215000D02*
G75*
G02*
X18065000Y-2265591I-4599J-50591D01*
G01*
X16986909Y-2443480D02*
X2741250Y-2443251D01*
X18117207Y-2443281D02*
G75*
G02*
X18065000Y-2392500I-1407J50781D01*
G01*
X18018799Y-2215000D02*
X17088091Y-2214880D01*
X18065000Y-2392500D02*
X18065000Y-2265591D01*
D11*
D12*
X2710500Y-10259380D02*
X2750500Y-10299380D01*
X2750500Y-10259380D02*
X2710500Y-10299380D01*
X2713040Y-3393760D02*
X2753040Y-3433760D01*
X2753040Y-3393760D02*
X2713040Y-3433760D01*
X3094040Y-3774760D02*
X3134040Y-3814760D01*
X3134040Y-3774760D02*
X3094040Y-3814760D01*
X3134680Y-10683560D02*
X3174680Y-10723560D01*
X3174680Y-10683560D02*
X3134680Y-10723560D01*
X4539300Y-10965500D02*
X4579300Y-11005500D01*
X4579300Y-10965500D02*
X4539300Y-11005500D01*
X5187000Y-7155500D02*
X5227000Y-7195500D01*
X5227000Y-7155500D02*
X5187000Y-7195500D01*
X5250500Y-9060500D02*
X5290500Y-9100500D01*
X5290500Y-9060500D02*
X5250500Y-9100500D01*
X5301300Y-3345500D02*
X5341300Y-3385500D01*
X5341300Y-3345500D02*
X5301300Y-3385500D01*
X5352100Y-5250500D02*
X5392100Y-5290500D01*
X5392100Y-5250500D02*
X5352100Y-5290500D01*
X6142040Y-3022920D02*
X6182040Y-3062920D01*
X6182040Y-3022920D02*
X6142040Y-3062920D01*
X6550980Y-2609590D02*
X6590980Y-2649590D01*
X6590980Y-2609590D02*
X6550980Y-2649590D01*
X7206300Y-3345500D02*
X7246300Y-3385500D01*
X7246300Y-3345500D02*
X7206300Y-3385500D01*
X7739700Y-5250500D02*
X7779700Y-5290500D01*
X7779700Y-5250500D02*
X7739700Y-5290500D01*
X7803200Y-7155500D02*
X7843200Y-7195500D01*
X7843200Y-7155500D02*
X7803200Y-7195500D01*
X8349300Y-9060500D02*
X8389300Y-9100500D01*
X8389300Y-9060500D02*
X8349300Y-9100500D01*
X8679500Y-12733340D02*
X8719500Y-12773340D01*
X8719500Y-12733340D02*
X8679500Y-12773340D01*
X9111300Y-3193100D02*
X9151300Y-3233100D01*
X9151300Y-3193100D02*
X9111300Y-3233100D01*
X9876225Y-5410948D02*
X9916225Y-5450948D01*
X9916225Y-5410948D02*
X9876225Y-5450948D01*
X9953453Y-7376963D02*
X9993453Y-7416963D01*
X9993453Y-7376963D02*
X9953453Y-7416963D01*
X10486853Y-9434363D02*
X10526853Y-9474363D01*
X10526853Y-9434363D02*
X10486853Y-9474363D01*
X10563053Y-11402863D02*
X10603053Y-11442863D01*
X10603053Y-11402863D02*
X10563053Y-11442863D01*
X10581960Y-2984820D02*
X10621960Y-3024820D01*
X10621960Y-2984820D02*
X10581960Y-3024820D01*
X10952800Y-2613980D02*
X10992800Y-2653980D01*
X10992800Y-2613980D02*
X10952800Y-2653980D01*
X11210753Y-3744763D02*
X11250753Y-3784763D01*
X11250753Y-3744763D02*
X11210753Y-3784763D01*
X11744153Y-5802163D02*
X11784153Y-5842163D01*
X11784153Y-5802163D02*
X11744153Y-5842163D01*
X11820353Y-7770663D02*
X11860353Y-7810663D01*
X11860353Y-7770663D02*
X11820353Y-7810663D01*
X12353753Y-9828063D02*
X12393753Y-9868063D01*
X12393753Y-9828063D02*
X12353753Y-9868063D01*
X13010200Y-3015300D02*
X13050200Y-3055300D01*
X13050200Y-3015300D02*
X13010200Y-3055300D01*
X13077653Y-4151163D02*
X13117653Y-4191163D01*
X13117653Y-4151163D02*
X13077653Y-4191163D01*
X13556300Y-3015300D02*
X13596300Y-3055300D01*
X13596300Y-3015300D02*
X13556300Y-3055300D01*
X13611053Y-6208563D02*
X13651053Y-6248563D01*
X13651053Y-6208563D02*
X13611053Y-6248563D01*
X13687253Y-8164363D02*
X13727253Y-8204363D01*
X13727253Y-8164363D02*
X13687253Y-8204363D01*
X13814253Y-12088663D02*
X13854253Y-12128663D01*
X13854253Y-12088663D02*
X13814253Y-12128663D01*
X14102400Y-3015300D02*
X14142400Y-3055300D01*
X14142400Y-3015300D02*
X14102400Y-3055300D01*
X14173520Y-13629960D02*
X14213520Y-13669960D01*
X14213520Y-13629960D02*
X14173520Y-13669960D01*
X14207953Y-10234463D02*
X14247953Y-10274463D01*
X14247953Y-10234463D02*
X14207953Y-10274463D01*
X14295440Y-3551240D02*
X14335440Y-3591240D01*
X14335440Y-3551240D02*
X14295440Y-3591240D01*
X14630720Y-13254040D02*
X14670720Y-13294040D01*
X14670720Y-13254040D02*
X14630720Y-13294040D01*
X14927892Y-4548824D02*
X14967892Y-4588824D01*
X14967892Y-4548824D02*
X14927892Y-4588824D01*
X14945680Y-3406460D02*
X14985680Y-3446460D01*
X14985680Y-3406460D02*
X14945680Y-3446460D01*
X15056310Y-4310728D02*
X15096310Y-4350728D01*
X15096310Y-4310728D02*
X15056310Y-4350728D01*
X15118401Y-4183700D02*
X15158401Y-4223700D01*
X15158401Y-4183700D02*
X15118401Y-4223700D01*
X15163911Y-4321974D02*
X15203911Y-4361974D01*
X15203911Y-4321974D02*
X15163911Y-4361974D01*
X15232700Y-4196400D02*
X15272700Y-4236400D01*
X15272700Y-4196400D02*
X15232700Y-4236400D01*
X15385100Y-3307400D02*
X15425100Y-3347400D01*
X15425100Y-3307400D02*
X15385100Y-3347400D01*
X15477953Y-6602263D02*
X15517953Y-6642263D01*
X15517953Y-6602263D02*
X15477953Y-6642263D01*
X15541453Y-8558063D02*
X15581453Y-8598063D01*
X15581453Y-8558063D02*
X15541453Y-8598063D01*
X16070900Y-3955100D02*
X16110900Y-3995100D01*
X16110900Y-3955100D02*
X16070900Y-3995100D01*
X16074853Y-10628163D02*
X16114853Y-10668163D01*
X16114853Y-10628163D02*
X16074853Y-10668163D01*
X16210600Y-2875600D02*
X16250600Y-2915600D01*
X16250600Y-2875600D02*
X16210600Y-2915600D01*
X16210600Y-3078800D02*
X16250600Y-3118800D01*
X16250600Y-3078800D02*
X16210600Y-3118800D01*
X16620953Y-12685563D02*
X16660953Y-12725563D01*
X16660953Y-12685563D02*
X16620953Y-12725563D01*
X16731300Y-3459800D02*
X16771300Y-3499800D01*
X16771300Y-3459800D02*
X16731300Y-3499800D01*
X16794800Y-4932998D02*
X16834800Y-4972998D01*
X16834800Y-4932998D02*
X16794800Y-4972998D01*
X16959900Y-3663000D02*
X16999900Y-3703000D01*
X16999900Y-3663000D02*
X16959900Y-3703000D01*
X17046258Y-5761042D02*
X17086258Y-5801042D01*
X17086258Y-5761042D02*
X17046258Y-5801042D01*
X17122460Y-7996240D02*
X17162460Y-8036240D01*
X17162460Y-7996240D02*
X17122460Y-8036240D01*
X17353600Y-3165160D02*
X17393600Y-3205160D01*
X17393600Y-3165160D02*
X17353600Y-3205160D01*
X17556800Y-7993700D02*
X17596800Y-8033700D01*
X17596800Y-7993700D02*
X17556800Y-8033700D01*
X17597442Y-5761042D02*
X17637442Y-5801042D01*
X17637442Y-5761042D02*
X17597442Y-5801042D01*
X17664850Y-3245270D02*
X17704850Y-3285270D01*
X17704850Y-3245270D02*
X17664850Y-3285270D01*
X17763175Y-5380675D02*
X17803175Y-5420675D01*
X17803175Y-5380675D02*
X17763175Y-5420675D01*
X17798100Y-4590100D02*
X17838100Y-4630100D01*
X17838100Y-4590100D02*
X17798100Y-4630100D01*
X17899700Y-4590100D02*
X17939700Y-4630100D01*
X17939700Y-4590100D02*
X17899700Y-4630100D01*
X17912400Y-5644200D02*
X17952400Y-5684200D01*
X17952400Y-5644200D02*
X17912400Y-5684200D01*
X18306100Y-3456101D02*
X18346100Y-3496101D01*
X18346100Y-3456101D02*
X18306100Y-3496101D01*
X18420400Y-3456101D02*
X18460400Y-3496101D01*
X18460400Y-3456101D02*
X18420400Y-3496101D01*
X18534673Y-3455872D02*
X18574673Y-3495872D01*
X18574673Y-3455872D02*
X18534673Y-3495872D01*
X18678901Y-3197600D02*
X18718901Y-3237600D01*
X18718901Y-3197600D02*
X18678901Y-3237600D01*
X18877600Y-3111820D02*
X18917600Y-3151820D01*
X18917600Y-3111820D02*
X18877600Y-3151820D01*
X18877601Y-6749100D02*
X18917601Y-6789100D01*
X18917601Y-6749100D02*
X18877601Y-6789100D01*
X19024920Y-13967780D02*
X19064920Y-14007780D01*
X19064920Y-13967780D02*
X19024920Y-14007780D01*
X19233200Y-3447100D02*
X19273200Y-3487100D01*
X19273200Y-3447100D02*
X19233200Y-3487100D01*
X19406915Y-4695639D02*
X19446915Y-4735639D01*
X19446915Y-4695639D02*
X19406915Y-4735639D01*
X19588800Y-4539902D02*
X19628800Y-4579902D01*
X19628800Y-4539902D02*
X19588800Y-4579902D01*
X19703100Y-4539300D02*
X19743100Y-4579300D01*
X19743100Y-4539300D02*
X19703100Y-4579300D01*
X19737115Y-8518339D02*
X19777115Y-8558339D01*
X19777115Y-8518339D02*
X19737115Y-8558339D01*
X19817400Y-4539300D02*
X19857400Y-4579300D01*
X19857400Y-4539300D02*
X19817400Y-4579300D01*
X20293650Y-3656650D02*
X20333650Y-3696650D01*
X20333650Y-3656650D02*
X20293650Y-3696650D01*
X20600715Y-10283639D02*
X20640715Y-10323639D01*
X20640715Y-10283639D02*
X20600715Y-10323639D01*
X20645440Y-5669600D02*
X20685440Y-5709600D01*
X20685440Y-5669600D02*
X20645440Y-5709600D01*
X20740415Y-6359339D02*
X20780415Y-6399339D01*
X20780415Y-6359339D02*
X20740415Y-6399339D01*
X21261115Y-4301939D02*
X21301115Y-4341939D01*
X21301115Y-4301939D02*
X21261115Y-4341939D01*
X21608101Y-8120700D02*
X21648101Y-8160700D01*
X21648101Y-8120700D02*
X21608101Y-8160700D01*
X21692915Y-11998139D02*
X21732915Y-12038139D01*
X21732915Y-11998139D02*
X21692915Y-12038139D01*
X21737640Y-2613980D02*
X21777640Y-2653980D01*
X21777640Y-2613980D02*
X21737640Y-2653980D01*
X21752827Y-7074273D02*
X21792827Y-7114273D01*
X21792827Y-7074273D02*
X21752827Y-7114273D01*
X22004340Y-2735900D02*
X22044340Y-2775900D01*
X22044340Y-2735900D02*
X22004340Y-2775900D01*
X22467615Y-9889939D02*
X22507615Y-9929939D01*
X22507615Y-9889939D02*
X22467615Y-9929939D01*
X22607315Y-5952939D02*
X22647315Y-5992939D01*
X22647315Y-5952939D02*
X22607315Y-5992939D01*
X22631720Y-9093520D02*
X22671720Y-9133520D01*
X22671720Y-9093520D02*
X22631720Y-9133520D01*
X22827300Y-12565700D02*
X22867300Y-12605700D01*
X22867300Y-12565700D02*
X22827300Y-12605700D01*
X22892701Y-11256434D02*
X22932701Y-11296434D01*
X22932701Y-11256434D02*
X22892701Y-11296434D01*
X23140715Y-3895539D02*
X23180715Y-3935539D01*
X23180715Y-3895539D02*
X23140715Y-3935539D01*
X23470915Y-7718239D02*
X23510915Y-7758239D01*
X23510915Y-7718239D02*
X23470915Y-7758239D01*
X24321815Y-9483539D02*
X24361815Y-9523539D01*
X24361815Y-9483539D02*
X24321815Y-9523539D01*
X24461515Y-5571939D02*
X24501515Y-5611939D01*
X24501515Y-5571939D02*
X24461515Y-5611939D01*
X24994915Y-3501839D02*
X25034915Y-3541839D01*
X25034915Y-3501839D02*
X24994915Y-3541839D01*
X25325115Y-7337239D02*
X25365115Y-7377239D01*
X25365115Y-7337239D02*
X25325115Y-7377239D01*
X25598440Y-12740960D02*
X25638440Y-12780960D01*
X25638440Y-12740960D02*
X25598440Y-12780960D01*
X25642615Y-11159939D02*
X25682615Y-11199939D01*
X25682615Y-11159939D02*
X25642615Y-11199939D01*
X26176015Y-9089839D02*
X26216015Y-9129839D01*
X26216015Y-9089839D02*
X26176015Y-9129839D01*
X26315715Y-5178239D02*
X26355715Y-5218239D01*
X26355715Y-5178239D02*
X26315715Y-5218239D01*
X26794780Y-2558100D02*
X26834780Y-2598100D01*
X26834780Y-2558100D02*
X26794780Y-2598100D01*
X26794780Y-2771460D02*
X26834780Y-2811460D01*
X26834780Y-2771460D02*
X26794780Y-2811460D01*
X27113550Y-3205800D02*
X27153550Y-3245800D01*
X27153550Y-3205800D02*
X27113550Y-3245800D01*
X27488200Y-7155500D02*
X27528200Y-7195500D01*
X27528200Y-7155500D02*
X27488200Y-7195500D01*
X28440700Y-9060500D02*
X28480700Y-9100500D01*
X28480700Y-9060500D02*
X28440700Y-9100500D01*
X28491500Y-5250500D02*
X28531500Y-5290500D01*
X28531500Y-5250500D02*
X28491500Y-5290500D01*
X29024900Y-3345500D02*
X29064900Y-3385500D01*
X29064900Y-3345500D02*
X29024900Y-3385500D01*
X29393200Y-7155500D02*
X29433200Y-7195500D01*
X29433200Y-7155500D02*
X29393200Y-7195500D01*
X30068840Y-12740960D02*
X30108840Y-12780960D01*
X30108840Y-12740960D02*
X30068840Y-12780960D01*
X30396500Y-5250500D02*
X30436500Y-5290500D01*
X30436500Y-5250500D02*
X30396500Y-5290500D01*
X31056900Y-9060500D02*
X31096900Y-9100500D01*
X31096900Y-9060500D02*
X31056900Y-9100500D01*
X31882400Y-3345500D02*
X31922400Y-3385500D01*
X31922400Y-3345500D02*
X31882400Y-3385500D01*
X32250700Y-11435400D02*
X32290700Y-11475400D01*
X32290700Y-11435400D02*
X32250700Y-11475400D01*
X32492000Y-7155500D02*
X32532000Y-7195500D01*
X32532000Y-7155500D02*
X32492000Y-7195500D01*
X32563120Y-2563180D02*
X32603120Y-2603180D01*
X32603120Y-2563180D02*
X32563120Y-2603180D01*
X32784100Y-5250499D02*
X32824100Y-5290499D01*
X32824100Y-5250499D02*
X32784100Y-5290499D01*
X33311150Y-5910900D02*
X33351150Y-5950900D01*
X33351150Y-5910900D02*
X33311150Y-5950900D01*
X33675640Y-2613980D02*
X33715640Y-2653980D01*
X33715640Y-2613980D02*
X33675640Y-2653980D01*
X34155700Y-9543100D02*
X34195700Y-9583100D01*
X34195700Y-9543100D02*
X34155700Y-9583100D01*
X34155700Y-11435400D02*
X34195700Y-11475400D01*
X34195700Y-11435400D02*
X34155700Y-11475400D01*
X35222500Y-2862900D02*
X35262500Y-2902900D01*
X35262500Y-2862900D02*
X35222500Y-2902900D01*
X35641600Y-4767900D02*
X35681600Y-4807900D01*
X35681600Y-4767900D02*
X35641600Y-4807900D01*
X35816860Y-4074480D02*
X35856860Y-4114480D01*
X35856860Y-4074480D02*
X35816860Y-4114480D01*
X35832100Y-10284780D02*
X35872100Y-10324780D01*
X35872100Y-10284780D02*
X35832100Y-10324780D01*
X35923540Y-5075240D02*
X35963540Y-5115240D01*
X35963540Y-5075240D02*
X35923540Y-5115240D01*
X35924810Y-5356598D02*
X35964810Y-5396598D01*
X35964810Y-5356598D02*
X35924810Y-5396598D01*
X35990160Y-5423220D02*
X36030160Y-5463220D01*
X36030160Y-5423220D02*
X35990160Y-5463220D01*
X35996510Y-5134596D02*
X36036510Y-5174596D01*
X36036510Y-5134596D02*
X35996510Y-5174596D01*
X36060700Y-6672900D02*
X36100700Y-6712900D01*
X36100700Y-6672900D02*
X36060700Y-6712900D01*
X36060700Y-11435400D02*
X36100700Y-11475400D01*
X36100700Y-11435400D02*
X36060700Y-11475400D01*
X36215640Y-11173780D02*
X36255640Y-11213780D01*
X36255640Y-11173780D02*
X36215640Y-11213780D01*
D13*
X2948540Y-11407140D02*
G75*
G03*
X2948540Y-11407140I-25000J0D01*
G01*
X8610200Y-2804160D02*
G75*
G03*
X8610200Y-2804160I-25000J0D01*
G01*
X10266280Y-3187700D02*
G75*
G03*
X10266280Y-3187700I-25000J0D01*
G01*
X12620393Y-2924600D02*
G75*
G03*
X12620393Y-2924600I-25000J0D01*
G01*
X13205562Y-2924463D02*
G75*
G03*
X13205562Y-2924463I-25000J0D01*
G01*
X13754216Y-2924626D02*
G75*
G03*
X13754216Y-2924626I-25000J0D01*
G01*
X14792560Y-3004820D02*
G75*
G03*
X14792560Y-3004820I-25000J0D01*
G01*
X15607900Y-3835400D02*
G75*
G03*
X15607900Y-3835400I-25000J0D01*
G01*
X15722199Y-2628900D02*
G75*
G03*
X15722199Y-2628900I-25000J0D01*
G01*
X16072720Y-4572000D02*
G75*
G03*
X16072720Y-4572000I-25000J0D01*
G01*
X16293700Y-3721100D02*
G75*
G03*
X16293700Y-3721100I-25000J0D01*
G01*
X16293700Y-3949700D02*
G75*
G03*
X16293700Y-3949700I-25000J0D01*
G01*
X16928700Y-3213100D02*
G75*
G03*
X16928700Y-3213100I-25000J0D01*
G01*
X17119200Y-5473700D02*
G75*
G03*
X17119200Y-5473700I-25000J0D01*
G01*
X17182700Y-4610100D02*
G75*
G03*
X17182700Y-4610100I-25000J0D01*
G01*
X17220800Y-3898900D02*
G75*
G03*
X17220800Y-3898900I-25000J0D01*
G01*
X17220800Y-4445000D02*
G75*
G03*
X17220800Y-4445000I-25000J0D01*
G01*
X17330020Y-3101340D02*
G75*
G03*
X17330020Y-3101340I-25000J0D01*
G01*
X17487500Y-3365500D02*
G75*
G03*
X17487500Y-3365500I-25000J0D01*
G01*
X17487500Y-3898900D02*
G75*
G03*
X17487500Y-3898900I-25000J0D01*
G01*
X17820240Y-3101340D02*
G75*
G03*
X17820240Y-3101340I-25000J0D01*
G01*
X17957400Y-4997450D02*
G75*
G03*
X17957400Y-4997450I-25000J0D01*
G01*
X18122500Y-4787900D02*
G75*
G03*
X18122500Y-4787900I-25000J0D01*
G01*
X18221560Y-3474720D02*
G75*
G03*
X18221560Y-3474720I-25000J0D01*
G01*
X18274900Y-2679700D02*
G75*
G03*
X18274900Y-2679700I-25000J0D01*
G01*
X18333300Y-4056400D02*
G75*
G03*
X18333300Y-4056400I-25000J0D01*
G01*
X18389200Y-3162300D02*
G75*
G03*
X18389200Y-3162300I-25000J0D01*
G01*
X18503500Y-2679700D02*
G75*
G03*
X18503500Y-2679700I-25000J0D01*
G01*
X18696540Y-3581400D02*
G75*
G03*
X18696540Y-3581400I-25000J0D01*
G01*
X19125800Y-2928620D02*
G75*
G03*
X19125800Y-2928620I-25000J0D01*
G01*
X19125800Y-3152140D02*
G75*
G03*
X19125800Y-3152140I-25000J0D01*
G01*
X19219080Y-2782000D02*
G75*
G03*
X19219080Y-2782000I-25000J0D01*
G01*
X32608120Y-2811780D02*
G75*
G03*
X32608120Y-2811780I-25000J0D01*
G01*
X35879640Y-10881360D02*
G75*
G03*
X35879640Y-10881360I-25000J0D01*
G01*
D14*
X17118000Y-2299000D02*
X17118000Y-2359000D01*
X17088000Y-2329000D02*
X17148000Y-2329000D01*
D11*
X17098000Y-2299000D02*
X17098000Y-2359000D01*
X17138000Y-2299000D02*
X17138000Y-2359000D01*
X17098000Y-2359000D02*
G75*
G03*
X17138000Y-2359000I20000J0D01*
G01*
X17138000Y-2299000D02*
G75*
G03*
X17098000Y-2299000I-20000J0D01*
G01*
D14*
X17118000Y-2717000D02*
X17118000Y-2777000D01*
X17088000Y-2747000D02*
X17148000Y-2747000D01*
D11*
X17098000Y-2692000D02*
X17098000Y-2802000D01*
X17138000Y-2692000D02*
X17138000Y-2802000D01*
X17098000Y-2802000D02*
G75*
G03*
X17138000Y-2802000I20000J0D01*
G01*
X17138000Y-2692000D02*
G75*
G03*
X17098000Y-2692000I-20000J0D01*
G01*
D14*
X17982000Y-2299000D02*
X17982000Y-2359000D01*
X17952000Y-2329000D02*
X18012000Y-2329000D01*
D11*
X17962000Y-2299000D02*
X17962000Y-2359000D01*
X18002000Y-2299000D02*
X18002000Y-2359000D01*
X17962000Y-2359000D02*
G75*
G03*
X18002000Y-2359000I20000J0D01*
G01*
X18002000Y-2299000D02*
G75*
G03*
X17962000Y-2299000I-20000J0D01*
G01*
D14*
X17982000Y-2717000D02*
X17982000Y-2777000D01*
X17952000Y-2747000D02*
X18012000Y-2747000D01*
D11*
X17962000Y-2692000D02*
X17962000Y-2802000D01*
X18002000Y-2692000D02*
X18002000Y-2802000D01*
X17962000Y-2802000D02*
G75*
G03*
X18002000Y-2802000I20000J0D01*
G01*
X18002000Y-2692000D02*
G75*
G03*
X17962000Y-2692000I-20000J0D01*
G01*
D15*
X5197533Y-11569782D02*
X5197533Y-11414217D01*
X5041968Y-11414217D01*
X5041968Y-11569782D01*
X5197533Y-11569782D01*
X5764282Y-4902283D02*
X5764282Y-4746718D01*
X5608717Y-4746718D01*
X5608717Y-4902283D01*
X5764282Y-4902283D01*
X11073726Y-12138719D02*
X11073726Y-11983154D01*
X10918161Y-11983154D01*
X10918161Y-12138719D01*
X11073726Y-12138719D01*
X12260504Y-2871033D02*
X12260504Y-2715468D01*
X12104939Y-2715468D01*
X12104939Y-2871033D01*
X12260504Y-2871033D01*
X22997061Y-2871033D02*
X22997061Y-2715468D01*
X22841496Y-2715468D01*
X22841496Y-2871033D01*
X22997061Y-2871033D01*
X24183809Y-12138654D02*
X24183809Y-11983089D01*
X24028244Y-11983089D01*
X24028244Y-12138654D01*
X24183809Y-12138654D01*
X34195783Y-4426034D02*
X34195783Y-4270469D01*
X34040218Y-4270469D01*
X34040218Y-4426034D01*
X34195783Y-4426034D01*
X34622777Y-11093533D02*
X34622777Y-10937968D01*
X34467212Y-10937968D01*
X34467212Y-11093533D01*
X34622777Y-11093533D01*
D11*
X2776369Y-14630499D02*
X2776369Y-14430499D01*
X2823988Y-14430499D01*
X2852559Y-14440023D01*
X2871607Y-14459071D01*
X2881131Y-14478118D01*
X2890655Y-14516214D01*
X2890655Y-14544785D01*
X2881131Y-14582880D01*
X2871607Y-14601928D01*
X2852559Y-14620975D01*
X2823988Y-14630499D01*
X2776369Y-14630499D01*
X2976369Y-14630499D02*
X2976369Y-14497166D01*
X2976369Y-14535261D02*
X2985893Y-14516214D01*
X2995417Y-14506690D01*
X3014464Y-14497166D01*
X3033512Y-14497166D01*
X3100178Y-14630499D02*
X3100178Y-14497166D01*
X3100178Y-14430499D02*
X3090655Y-14440023D01*
X3100178Y-14449547D01*
X3109702Y-14440023D01*
X3100178Y-14430499D01*
X3100178Y-14449547D01*
X3223988Y-14630499D02*
X3204940Y-14620975D01*
X3195417Y-14601928D01*
X3195417Y-14430499D01*
X3328750Y-14630499D02*
X3309702Y-14620975D01*
X3300178Y-14601928D01*
X3300178Y-14430499D01*
X3557321Y-14630499D02*
X3557321Y-14430499D01*
X3623988Y-14573356D01*
X3690655Y-14430499D01*
X3690655Y-14630499D01*
X3871607Y-14630499D02*
X3871607Y-14525737D01*
X3862083Y-14506690D01*
X3843036Y-14497166D01*
X3804940Y-14497166D01*
X3785893Y-14506690D01*
X3871607Y-14620975D02*
X3852559Y-14630499D01*
X3804940Y-14630499D01*
X3785893Y-14620975D01*
X3776369Y-14601928D01*
X3776369Y-14582880D01*
X3785893Y-14563833D01*
X3804940Y-14554309D01*
X3852559Y-14554309D01*
X3871607Y-14544785D01*
X3966845Y-14497166D02*
X3966845Y-14697166D01*
X3966845Y-14506690D02*
X3985893Y-14497166D01*
X4023988Y-14497166D01*
X4043036Y-14506690D01*
X4052559Y-14516214D01*
X4062083Y-14535261D01*
X4062083Y-14592404D01*
X4052559Y-14611452D01*
X4043036Y-14620975D01*
X4023988Y-14630499D01*
X3985893Y-14630499D01*
X3966845Y-14620975D01*
X4147798Y-14611452D02*
X4157321Y-14620975D01*
X4147798Y-14630499D01*
X4138274Y-14620975D01*
X4147798Y-14611452D01*
X4147798Y-14630499D01*
X4147798Y-14506690D02*
X4157321Y-14516214D01*
X4147798Y-14525737D01*
X4138274Y-14516214D01*
X4147798Y-14506690D01*
X4147798Y-14525737D01*
D12*
X2478750Y-14940023D02*
X2518750Y-14980023D01*
X2518750Y-14940023D02*
X2478750Y-14980023D01*
D11*
X2814464Y-14850499D02*
X2833512Y-14850499D01*
X2852559Y-14860023D01*
X2862083Y-14869547D01*
X2871607Y-14888595D01*
X2881131Y-14926690D01*
X2881131Y-14974309D01*
X2871607Y-15012404D01*
X2862083Y-15031452D01*
X2852559Y-15040975D01*
X2833512Y-15050499D01*
X2814464Y-15050499D01*
X2795417Y-15040975D01*
X2785893Y-15031452D01*
X2776369Y-15012404D01*
X2766845Y-14974309D01*
X2766845Y-14926690D01*
X2776369Y-14888595D01*
X2785893Y-14869547D01*
X2795417Y-14860023D01*
X2814464Y-14850499D01*
X2966845Y-15031452D02*
X2976369Y-15040975D01*
X2966845Y-15050499D01*
X2957321Y-15040975D01*
X2966845Y-15031452D01*
X2966845Y-15050499D01*
X3147798Y-14917166D02*
X3147798Y-15050499D01*
X3100178Y-14840975D02*
X3052559Y-14983833D01*
X3176369Y-14983833D01*
X3290655Y-14850499D02*
X3309702Y-14850499D01*
X3328750Y-14860023D01*
X3338274Y-14869547D01*
X3347798Y-14888595D01*
X3357321Y-14926690D01*
X3357321Y-14974309D01*
X3347798Y-15012404D01*
X3338274Y-15031452D01*
X3328750Y-15040975D01*
X3309702Y-15050499D01*
X3290655Y-15050499D01*
X3271607Y-15040975D01*
X3262083Y-15031452D01*
X3252559Y-15012404D01*
X3243036Y-14974309D01*
X3243036Y-14926690D01*
X3252559Y-14888595D01*
X3262083Y-14869547D01*
X3271607Y-14860023D01*
X3290655Y-14850499D01*
X3481131Y-14850499D02*
X3500178Y-14850499D01*
X3519226Y-14860023D01*
X3528750Y-14869547D01*
X3538274Y-14888595D01*
X3547798Y-14926690D01*
X3547798Y-14974309D01*
X3538274Y-15012404D01*
X3528750Y-15031452D01*
X3519226Y-15040975D01*
X3500178Y-15050499D01*
X3481131Y-15050499D01*
X3462083Y-15040975D01*
X3452559Y-15031452D01*
X3443036Y-15012404D01*
X3433512Y-14974309D01*
X3433512Y-14926690D01*
X3443036Y-14888595D01*
X3452559Y-14869547D01*
X3462083Y-14860023D01*
X3481131Y-14850499D01*
X3633512Y-15050499D02*
X3633512Y-14917166D01*
X3633512Y-14936214D02*
X3643036Y-14926690D01*
X3662083Y-14917166D01*
X3690655Y-14917166D01*
X3709702Y-14926690D01*
X3719226Y-14945737D01*
X3719226Y-15050499D01*
X3719226Y-14945737D02*
X3728750Y-14926690D01*
X3747798Y-14917166D01*
X3776369Y-14917166D01*
X3795417Y-14926690D01*
X3804940Y-14945737D01*
X3804940Y-15050499D01*
X3900178Y-15050499D02*
X3900178Y-14917166D01*
X3900178Y-14936214D02*
X3909702Y-14926690D01*
X3928750Y-14917166D01*
X3957321Y-14917166D01*
X3976369Y-14926690D01*
X3985893Y-14945737D01*
X3985893Y-15050499D01*
X3985893Y-14945737D02*
X3995417Y-14926690D01*
X4014464Y-14917166D01*
X4043036Y-14917166D01*
X4062083Y-14926690D01*
X4071607Y-14945737D01*
X4071607Y-15050499D01*
X4462083Y-14840975D02*
X4290655Y-15098118D01*
X4719226Y-14850499D02*
X4738274Y-14850499D01*
X4757321Y-14860023D01*
X4766845Y-14869547D01*
X4776369Y-14888595D01*
X4785893Y-14926690D01*
X4785893Y-14974309D01*
X4776369Y-15012404D01*
X4766845Y-15031452D01*
X4757321Y-15040975D01*
X4738274Y-15050499D01*
X4719226Y-15050499D01*
X4700179Y-15040975D01*
X4690655Y-15031452D01*
X4681131Y-15012404D01*
X4671607Y-14974309D01*
X4671607Y-14926690D01*
X4681131Y-14888595D01*
X4690655Y-14869547D01*
X4700179Y-14860023D01*
X4719226Y-14850499D01*
X4871607Y-15031452D02*
X4881131Y-15040975D01*
X4871607Y-15050499D01*
X4862083Y-15040975D01*
X4871607Y-15031452D01*
X4871607Y-15050499D01*
X5004940Y-14850499D02*
X5023988Y-14850499D01*
X5043036Y-14860023D01*
X5052560Y-14869547D01*
X5062083Y-14888595D01*
X5071607Y-14926690D01*
X5071607Y-14974309D01*
X5062083Y-15012404D01*
X5052560Y-15031452D01*
X5043036Y-15040975D01*
X5023988Y-15050499D01*
X5004940Y-15050499D01*
X4985893Y-15040975D01*
X4976369Y-15031452D01*
X4966845Y-15012404D01*
X4957321Y-14974309D01*
X4957321Y-14926690D01*
X4966845Y-14888595D01*
X4976369Y-14869547D01*
X4985893Y-14860023D01*
X5004940Y-14850499D01*
X5262083Y-15050499D02*
X5147798Y-15050499D01*
X5204940Y-15050499D02*
X5204940Y-14850499D01*
X5185893Y-14879071D01*
X5166845Y-14898118D01*
X5147798Y-14907642D01*
X5443036Y-14850499D02*
X5347798Y-14850499D01*
X5338274Y-14945737D01*
X5347798Y-14936214D01*
X5366845Y-14926690D01*
X5414464Y-14926690D01*
X5433512Y-14936214D01*
X5443036Y-14945737D01*
X5452560Y-14964785D01*
X5452560Y-15012404D01*
X5443036Y-15031452D01*
X5433512Y-15040975D01*
X5414464Y-15050499D01*
X5366845Y-15050499D01*
X5347798Y-15040975D01*
X5338274Y-15031452D01*
X5519226Y-14850499D02*
X5652559Y-14850499D01*
X5566845Y-15050499D01*
X5719226Y-14850499D02*
X5719226Y-14888595D01*
X5795417Y-14850499D02*
X5795417Y-14888595D01*
X6090655Y-15126690D02*
X6081131Y-15117166D01*
X6062083Y-15088595D01*
X6052559Y-15069547D01*
X6043036Y-15040975D01*
X6033512Y-14993356D01*
X6033512Y-14955261D01*
X6043036Y-14907642D01*
X6052559Y-14879071D01*
X6062083Y-14860023D01*
X6081131Y-14831452D01*
X6090655Y-14821928D01*
X6271607Y-15050499D02*
X6157321Y-15050499D01*
X6214464Y-15050499D02*
X6214464Y-14850499D01*
X6195417Y-14879071D01*
X6176369Y-14898118D01*
X6157321Y-14907642D01*
X6338274Y-14850499D02*
X6462083Y-14850499D01*
X6395417Y-14926690D01*
X6423988Y-14926690D01*
X6443036Y-14936214D01*
X6452559Y-14945737D01*
X6462083Y-14964785D01*
X6462083Y-15012404D01*
X6452559Y-15031452D01*
X6443036Y-15040975D01*
X6423988Y-15050499D01*
X6366845Y-15050499D01*
X6347798Y-15040975D01*
X6338274Y-15031452D01*
X6633512Y-14917166D02*
X6633512Y-15050499D01*
X6585893Y-14840975D02*
X6538274Y-14983833D01*
X6662083Y-14983833D01*
X6890655Y-15050499D02*
X6890655Y-14850499D01*
X6976369Y-15050499D02*
X6976369Y-14945737D01*
X6966845Y-14926690D01*
X6947798Y-14917166D01*
X6919226Y-14917166D01*
X6900178Y-14926690D01*
X6890655Y-14936214D01*
X7100178Y-15050499D02*
X7081131Y-15040975D01*
X7071607Y-15031452D01*
X7062083Y-15012404D01*
X7062083Y-14955261D01*
X7071607Y-14936214D01*
X7081131Y-14926690D01*
X7100178Y-14917166D01*
X7128750Y-14917166D01*
X7147798Y-14926690D01*
X7157321Y-14936214D01*
X7166845Y-14955261D01*
X7166845Y-15012404D01*
X7157321Y-15031452D01*
X7147798Y-15040975D01*
X7128750Y-15050499D01*
X7100178Y-15050499D01*
X7281131Y-15050499D02*
X7262083Y-15040975D01*
X7252559Y-15021928D01*
X7252559Y-14850499D01*
X7433512Y-15040975D02*
X7414464Y-15050499D01*
X7376369Y-15050499D01*
X7357321Y-15040975D01*
X7347798Y-15021928D01*
X7347798Y-14945737D01*
X7357321Y-14926690D01*
X7376369Y-14917166D01*
X7414464Y-14917166D01*
X7433512Y-14926690D01*
X7443036Y-14945737D01*
X7443036Y-14964785D01*
X7347798Y-14983833D01*
X7519226Y-15040975D02*
X7538274Y-15050499D01*
X7576369Y-15050499D01*
X7595417Y-15040975D01*
X7604940Y-15021928D01*
X7604940Y-15012404D01*
X7595417Y-14993356D01*
X7576369Y-14983833D01*
X7547798Y-14983833D01*
X7528750Y-14974309D01*
X7519226Y-14955261D01*
X7519226Y-14945737D01*
X7528750Y-14926690D01*
X7547798Y-14917166D01*
X7576369Y-14917166D01*
X7595417Y-14926690D01*
X7671607Y-15126690D02*
X7681131Y-15117166D01*
X7700178Y-15088595D01*
X7709702Y-15069547D01*
X7719226Y-15040975D01*
X7728750Y-14993356D01*
X7728750Y-14955261D01*
X7719226Y-14907642D01*
X7709702Y-14879071D01*
X7700178Y-14860023D01*
X7681131Y-14831452D01*
X7671607Y-14821928D01*
D13*
X2518750Y-15224023D02*
G75*
G03*
X2518750Y-15224023I-25000J0D01*
G01*
D11*
X2814464Y-15114499D02*
X2833512Y-15114499D01*
X2852559Y-15124023D01*
X2862083Y-15133547D01*
X2871607Y-15152595D01*
X2881131Y-15190690D01*
X2881131Y-15238309D01*
X2871607Y-15276404D01*
X2862083Y-15295452D01*
X2852559Y-15304975D01*
X2833512Y-15314499D01*
X2814464Y-15314499D01*
X2795417Y-15304975D01*
X2785893Y-15295452D01*
X2776369Y-15276404D01*
X2766845Y-15238309D01*
X2766845Y-15190690D01*
X2776369Y-15152595D01*
X2785893Y-15133547D01*
X2795417Y-15124023D01*
X2814464Y-15114499D01*
X2966845Y-15295452D02*
X2976369Y-15304975D01*
X2966845Y-15314499D01*
X2957321Y-15304975D01*
X2966845Y-15295452D01*
X2966845Y-15314499D01*
X3157321Y-15114499D02*
X3062083Y-15114499D01*
X3052559Y-15209737D01*
X3062083Y-15200214D01*
X3081131Y-15190690D01*
X3128750Y-15190690D01*
X3147798Y-15200214D01*
X3157321Y-15209737D01*
X3166845Y-15228785D01*
X3166845Y-15276404D01*
X3157321Y-15295452D01*
X3147798Y-15304975D01*
X3128750Y-15314499D01*
X3081131Y-15314499D01*
X3062083Y-15304975D01*
X3052559Y-15295452D01*
X3290655Y-15114499D02*
X3309702Y-15114499D01*
X3328750Y-15124023D01*
X3338274Y-15133547D01*
X3347798Y-15152595D01*
X3357321Y-15190690D01*
X3357321Y-15238309D01*
X3347798Y-15276404D01*
X3338274Y-15295452D01*
X3328750Y-15304975D01*
X3309702Y-15314499D01*
X3290655Y-15314499D01*
X3271607Y-15304975D01*
X3262083Y-15295452D01*
X3252559Y-15276404D01*
X3243036Y-15238309D01*
X3243036Y-15190690D01*
X3252559Y-15152595D01*
X3262083Y-15133547D01*
X3271607Y-15124023D01*
X3290655Y-15114499D01*
X3481131Y-15114499D02*
X3500178Y-15114499D01*
X3519226Y-15124023D01*
X3528750Y-15133547D01*
X3538274Y-15152595D01*
X3547798Y-15190690D01*
X3547798Y-15238309D01*
X3538274Y-15276404D01*
X3528750Y-15295452D01*
X3519226Y-15304975D01*
X3500178Y-15314499D01*
X3481131Y-15314499D01*
X3462083Y-15304975D01*
X3452559Y-15295452D01*
X3443036Y-15276404D01*
X3433512Y-15238309D01*
X3433512Y-15190690D01*
X3443036Y-15152595D01*
X3452559Y-15133547D01*
X3462083Y-15124023D01*
X3481131Y-15114499D01*
X3633512Y-15314499D02*
X3633512Y-15181166D01*
X3633512Y-15200214D02*
X3643036Y-15190690D01*
X3662083Y-15181166D01*
X3690655Y-15181166D01*
X3709702Y-15190690D01*
X3719226Y-15209737D01*
X3719226Y-15314499D01*
X3719226Y-15209737D02*
X3728750Y-15190690D01*
X3747798Y-15181166D01*
X3776369Y-15181166D01*
X3795417Y-15190690D01*
X3804940Y-15209737D01*
X3804940Y-15314499D01*
X3900178Y-15314499D02*
X3900178Y-15181166D01*
X3900178Y-15200214D02*
X3909702Y-15190690D01*
X3928750Y-15181166D01*
X3957321Y-15181166D01*
X3976369Y-15190690D01*
X3985893Y-15209737D01*
X3985893Y-15314499D01*
X3985893Y-15209737D02*
X3995417Y-15190690D01*
X4014464Y-15181166D01*
X4043036Y-15181166D01*
X4062083Y-15190690D01*
X4071607Y-15209737D01*
X4071607Y-15314499D01*
X4462083Y-15104975D02*
X4290655Y-15362118D01*
X4719226Y-15114499D02*
X4738274Y-15114499D01*
X4757321Y-15124023D01*
X4766845Y-15133547D01*
X4776369Y-15152595D01*
X4785893Y-15190690D01*
X4785893Y-15238309D01*
X4776369Y-15276404D01*
X4766845Y-15295452D01*
X4757321Y-15304975D01*
X4738274Y-15314499D01*
X4719226Y-15314499D01*
X4700179Y-15304975D01*
X4690655Y-15295452D01*
X4681131Y-15276404D01*
X4671607Y-15238309D01*
X4671607Y-15190690D01*
X4681131Y-15152595D01*
X4690655Y-15133547D01*
X4700179Y-15124023D01*
X4719226Y-15114499D01*
X4871607Y-15295452D02*
X4881131Y-15304975D01*
X4871607Y-15314499D01*
X4862083Y-15304975D01*
X4871607Y-15295452D01*
X4871607Y-15314499D01*
X5004940Y-15114499D02*
X5023988Y-15114499D01*
X5043036Y-15124023D01*
X5052560Y-15133547D01*
X5062083Y-15152595D01*
X5071607Y-15190690D01*
X5071607Y-15238309D01*
X5062083Y-15276404D01*
X5052560Y-15295452D01*
X5043036Y-15304975D01*
X5023988Y-15314499D01*
X5004940Y-15314499D01*
X4985893Y-15304975D01*
X4976369Y-15295452D01*
X4966845Y-15276404D01*
X4957321Y-15238309D01*
X4957321Y-15190690D01*
X4966845Y-15152595D01*
X4976369Y-15133547D01*
X4985893Y-15124023D01*
X5004940Y-15114499D01*
X5262083Y-15314499D02*
X5147798Y-15314499D01*
X5204940Y-15314499D02*
X5204940Y-15114499D01*
X5185893Y-15143071D01*
X5166845Y-15162118D01*
X5147798Y-15171642D01*
X5357321Y-15314499D02*
X5395417Y-15314499D01*
X5414464Y-15304975D01*
X5423988Y-15295452D01*
X5443036Y-15266880D01*
X5452560Y-15228785D01*
X5452560Y-15152595D01*
X5443036Y-15133547D01*
X5433512Y-15124023D01*
X5414464Y-15114499D01*
X5376369Y-15114499D01*
X5357321Y-15124023D01*
X5347798Y-15133547D01*
X5338274Y-15152595D01*
X5338274Y-15200214D01*
X5347798Y-15219261D01*
X5357321Y-15228785D01*
X5376369Y-15238309D01*
X5414464Y-15238309D01*
X5433512Y-15228785D01*
X5443036Y-15219261D01*
X5452560Y-15200214D01*
X5519226Y-15114499D02*
X5652559Y-15114499D01*
X5566845Y-15314499D01*
X5719226Y-15114499D02*
X5719226Y-15152595D01*
X5795417Y-15114499D02*
X5795417Y-15152595D01*
X6090655Y-15390690D02*
X6081131Y-15381166D01*
X6062083Y-15352595D01*
X6052559Y-15333547D01*
X6043036Y-15304975D01*
X6033512Y-15257356D01*
X6033512Y-15219261D01*
X6043036Y-15171642D01*
X6052559Y-15143071D01*
X6062083Y-15124023D01*
X6081131Y-15095452D01*
X6090655Y-15085928D01*
X6147798Y-15114499D02*
X6271607Y-15114499D01*
X6204940Y-15190690D01*
X6233512Y-15190690D01*
X6252559Y-15200214D01*
X6262083Y-15209737D01*
X6271607Y-15228785D01*
X6271607Y-15276404D01*
X6262083Y-15295452D01*
X6252559Y-15304975D01*
X6233512Y-15314499D01*
X6176369Y-15314499D01*
X6157321Y-15304975D01*
X6147798Y-15295452D01*
X6443036Y-15181166D02*
X6443036Y-15314499D01*
X6395417Y-15104975D02*
X6347798Y-15247833D01*
X6471607Y-15247833D01*
X6700178Y-15314499D02*
X6700178Y-15114499D01*
X6785893Y-15314499D02*
X6785893Y-15209737D01*
X6776369Y-15190690D01*
X6757321Y-15181166D01*
X6728750Y-15181166D01*
X6709702Y-15190690D01*
X6700178Y-15200214D01*
X6909702Y-15314499D02*
X6890655Y-15304975D01*
X6881131Y-15295452D01*
X6871607Y-15276404D01*
X6871607Y-15219261D01*
X6881131Y-15200214D01*
X6890655Y-15190690D01*
X6909702Y-15181166D01*
X6938274Y-15181166D01*
X6957321Y-15190690D01*
X6966845Y-15200214D01*
X6976369Y-15219261D01*
X6976369Y-15276404D01*
X6966845Y-15295452D01*
X6957321Y-15304975D01*
X6938274Y-15314499D01*
X6909702Y-15314499D01*
X7090655Y-15314499D02*
X7071607Y-15304975D01*
X7062083Y-15285928D01*
X7062083Y-15114499D01*
X7243036Y-15304975D02*
X7223988Y-15314499D01*
X7185893Y-15314499D01*
X7166845Y-15304975D01*
X7157321Y-15285928D01*
X7157321Y-15209737D01*
X7166845Y-15190690D01*
X7185893Y-15181166D01*
X7223988Y-15181166D01*
X7243036Y-15190690D01*
X7252559Y-15209737D01*
X7252559Y-15228785D01*
X7157321Y-15247833D01*
X7328750Y-15304975D02*
X7347798Y-15314499D01*
X7385893Y-15314499D01*
X7404940Y-15304975D01*
X7414464Y-15285928D01*
X7414464Y-15276404D01*
X7404940Y-15257356D01*
X7385893Y-15247833D01*
X7357321Y-15247833D01*
X7338274Y-15238309D01*
X7328750Y-15219261D01*
X7328750Y-15209737D01*
X7338274Y-15190690D01*
X7357321Y-15181166D01*
X7385893Y-15181166D01*
X7404940Y-15190690D01*
X7481131Y-15390690D02*
X7490655Y-15381166D01*
X7509702Y-15352595D01*
X7519226Y-15333547D01*
X7528750Y-15304975D01*
X7538274Y-15257356D01*
X7538274Y-15219261D01*
X7528750Y-15171642D01*
X7519226Y-15143071D01*
X7509702Y-15124023D01*
X7490655Y-15095452D01*
X7481131Y-15085928D01*
D14*
X2488750Y-15458023D02*
X2488750Y-15518023D01*
X2458750Y-15488023D02*
X2518750Y-15488023D01*
D11*
X2814464Y-15378499D02*
X2833512Y-15378499D01*
X2852559Y-15388023D01*
X2862083Y-15397547D01*
X2871607Y-15416595D01*
X2881131Y-15454690D01*
X2881131Y-15502309D01*
X2871607Y-15540404D01*
X2862083Y-15559452D01*
X2852559Y-15568975D01*
X2833512Y-15578499D01*
X2814464Y-15578499D01*
X2795417Y-15568975D01*
X2785893Y-15559452D01*
X2776369Y-15540404D01*
X2766845Y-15502309D01*
X2766845Y-15454690D01*
X2776369Y-15416595D01*
X2785893Y-15397547D01*
X2795417Y-15388023D01*
X2814464Y-15378499D01*
X2966845Y-15559452D02*
X2976369Y-15568975D01*
X2966845Y-15578499D01*
X2957321Y-15568975D01*
X2966845Y-15559452D01*
X2966845Y-15578499D01*
X3147798Y-15378499D02*
X3109702Y-15378499D01*
X3090655Y-15388023D01*
X3081131Y-15397547D01*
X3062083Y-15426118D01*
X3052559Y-15464214D01*
X3052559Y-15540404D01*
X3062083Y-15559452D01*
X3071607Y-15568975D01*
X3090655Y-15578499D01*
X3128750Y-15578499D01*
X3147798Y-15568975D01*
X3157321Y-15559452D01*
X3166845Y-15540404D01*
X3166845Y-15492785D01*
X3157321Y-15473737D01*
X3147798Y-15464214D01*
X3128750Y-15454690D01*
X3090655Y-15454690D01*
X3071607Y-15464214D01*
X3062083Y-15473737D01*
X3052559Y-15492785D01*
X3290655Y-15378499D02*
X3309702Y-15378499D01*
X3328750Y-15388023D01*
X3338274Y-15397547D01*
X3347798Y-15416595D01*
X3357321Y-15454690D01*
X3357321Y-15502309D01*
X3347798Y-15540404D01*
X3338274Y-15559452D01*
X3328750Y-15568975D01*
X3309702Y-15578499D01*
X3290655Y-15578499D01*
X3271607Y-15568975D01*
X3262083Y-15559452D01*
X3252559Y-15540404D01*
X3243036Y-15502309D01*
X3243036Y-15454690D01*
X3252559Y-15416595D01*
X3262083Y-15397547D01*
X3271607Y-15388023D01*
X3290655Y-15378499D01*
X3481131Y-15378499D02*
X3500178Y-15378499D01*
X3519226Y-15388023D01*
X3528750Y-15397547D01*
X3538274Y-15416595D01*
X3547798Y-15454690D01*
X3547798Y-15502309D01*
X3538274Y-15540404D01*
X3528750Y-15559452D01*
X3519226Y-15568975D01*
X3500178Y-15578499D01*
X3481131Y-15578499D01*
X3462083Y-15568975D01*
X3452559Y-15559452D01*
X3443036Y-15540404D01*
X3433512Y-15502309D01*
X3433512Y-15454690D01*
X3443036Y-15416595D01*
X3452559Y-15397547D01*
X3462083Y-15388023D01*
X3481131Y-15378499D01*
X3633512Y-15578499D02*
X3633512Y-15445166D01*
X3633512Y-15464214D02*
X3643036Y-15454690D01*
X3662083Y-15445166D01*
X3690655Y-15445166D01*
X3709702Y-15454690D01*
X3719226Y-15473737D01*
X3719226Y-15578499D01*
X3719226Y-15473737D02*
X3728750Y-15454690D01*
X3747798Y-15445166D01*
X3776369Y-15445166D01*
X3795417Y-15454690D01*
X3804940Y-15473737D01*
X3804940Y-15578499D01*
X3900178Y-15578499D02*
X3900178Y-15445166D01*
X3900178Y-15464214D02*
X3909702Y-15454690D01*
X3928750Y-15445166D01*
X3957321Y-15445166D01*
X3976369Y-15454690D01*
X3985893Y-15473737D01*
X3985893Y-15578499D01*
X3985893Y-15473737D02*
X3995417Y-15454690D01*
X4014464Y-15445166D01*
X4043036Y-15445166D01*
X4062083Y-15454690D01*
X4071607Y-15473737D01*
X4071607Y-15578499D01*
X4462083Y-15368975D02*
X4290655Y-15626118D01*
X4719226Y-15378499D02*
X4738274Y-15378499D01*
X4757321Y-15388023D01*
X4766845Y-15397547D01*
X4776369Y-15416595D01*
X4785893Y-15454690D01*
X4785893Y-15502309D01*
X4776369Y-15540404D01*
X4766845Y-15559452D01*
X4757321Y-15568975D01*
X4738274Y-15578499D01*
X4719226Y-15578499D01*
X4700179Y-15568975D01*
X4690655Y-15559452D01*
X4681131Y-15540404D01*
X4671607Y-15502309D01*
X4671607Y-15454690D01*
X4681131Y-15416595D01*
X4690655Y-15397547D01*
X4700179Y-15388023D01*
X4719226Y-15378499D01*
X4871607Y-15559452D02*
X4881131Y-15568975D01*
X4871607Y-15578499D01*
X4862083Y-15568975D01*
X4871607Y-15559452D01*
X4871607Y-15578499D01*
X5004940Y-15378499D02*
X5023988Y-15378499D01*
X5043036Y-15388023D01*
X5052560Y-15397547D01*
X5062083Y-15416595D01*
X5071607Y-15454690D01*
X5071607Y-15502309D01*
X5062083Y-15540404D01*
X5052560Y-15559452D01*
X5043036Y-15568975D01*
X5023988Y-15578499D01*
X5004940Y-15578499D01*
X4985893Y-15568975D01*
X4976369Y-15559452D01*
X4966845Y-15540404D01*
X4957321Y-15502309D01*
X4957321Y-15454690D01*
X4966845Y-15416595D01*
X4976369Y-15397547D01*
X4985893Y-15388023D01*
X5004940Y-15378499D01*
X5147798Y-15397547D02*
X5157321Y-15388023D01*
X5176369Y-15378499D01*
X5223988Y-15378499D01*
X5243036Y-15388023D01*
X5252560Y-15397547D01*
X5262083Y-15416595D01*
X5262083Y-15435642D01*
X5252560Y-15464214D01*
X5138274Y-15578499D01*
X5262083Y-15578499D01*
X5328750Y-15378499D02*
X5452560Y-15378499D01*
X5385893Y-15454690D01*
X5414464Y-15454690D01*
X5433512Y-15464214D01*
X5443036Y-15473737D01*
X5452560Y-15492785D01*
X5452560Y-15540404D01*
X5443036Y-15559452D01*
X5433512Y-15568975D01*
X5414464Y-15578499D01*
X5357321Y-15578499D01*
X5338274Y-15568975D01*
X5328750Y-15559452D01*
X5623988Y-15378499D02*
X5585893Y-15378499D01*
X5566845Y-15388023D01*
X5557321Y-15397547D01*
X5538274Y-15426118D01*
X5528750Y-15464214D01*
X5528750Y-15540404D01*
X5538274Y-15559452D01*
X5547798Y-15568975D01*
X5566845Y-15578499D01*
X5604940Y-15578499D01*
X5623988Y-15568975D01*
X5633512Y-15559452D01*
X5643036Y-15540404D01*
X5643036Y-15492785D01*
X5633512Y-15473737D01*
X5623988Y-15464214D01*
X5604940Y-15454690D01*
X5566845Y-15454690D01*
X5547798Y-15464214D01*
X5538274Y-15473737D01*
X5528750Y-15492785D01*
X5719226Y-15378499D02*
X5719226Y-15416595D01*
X5795417Y-15378499D02*
X5795417Y-15416595D01*
X6090655Y-15654690D02*
X6081131Y-15645166D01*
X6062083Y-15616595D01*
X6052559Y-15597547D01*
X6043036Y-15568975D01*
X6033512Y-15521356D01*
X6033512Y-15483261D01*
X6043036Y-15435642D01*
X6052559Y-15407071D01*
X6062083Y-15388023D01*
X6081131Y-15359452D01*
X6090655Y-15349928D01*
X6204940Y-15378499D02*
X6223988Y-15378499D01*
X6243036Y-15388023D01*
X6252559Y-15397547D01*
X6262083Y-15416595D01*
X6271607Y-15454690D01*
X6271607Y-15502309D01*
X6262083Y-15540404D01*
X6252559Y-15559452D01*
X6243036Y-15568975D01*
X6223988Y-15578499D01*
X6204940Y-15578499D01*
X6185893Y-15568975D01*
X6176369Y-15559452D01*
X6166845Y-15540404D01*
X6157321Y-15502309D01*
X6157321Y-15454690D01*
X6166845Y-15416595D01*
X6176369Y-15397547D01*
X6185893Y-15388023D01*
X6204940Y-15378499D01*
X6509702Y-15578499D02*
X6509702Y-15378499D01*
X6595417Y-15578499D02*
X6595417Y-15473737D01*
X6585893Y-15454690D01*
X6566845Y-15445166D01*
X6538274Y-15445166D01*
X6519226Y-15454690D01*
X6509702Y-15464214D01*
X6719226Y-15578499D02*
X6700178Y-15568975D01*
X6690655Y-15559452D01*
X6681131Y-15540404D01*
X6681131Y-15483261D01*
X6690655Y-15464214D01*
X6700178Y-15454690D01*
X6719226Y-15445166D01*
X6747798Y-15445166D01*
X6766845Y-15454690D01*
X6776369Y-15464214D01*
X6785893Y-15483261D01*
X6785893Y-15540404D01*
X6776369Y-15559452D01*
X6766845Y-15568975D01*
X6747798Y-15578499D01*
X6719226Y-15578499D01*
X6900178Y-15578499D02*
X6881131Y-15568975D01*
X6871607Y-15549928D01*
X6871607Y-15378499D01*
X7052559Y-15568975D02*
X7033512Y-15578499D01*
X6995417Y-15578499D01*
X6976369Y-15568975D01*
X6966845Y-15549928D01*
X6966845Y-15473737D01*
X6976369Y-15454690D01*
X6995417Y-15445166D01*
X7033512Y-15445166D01*
X7052559Y-15454690D01*
X7062083Y-15473737D01*
X7062083Y-15492785D01*
X6966845Y-15511833D01*
X7138274Y-15568975D02*
X7157321Y-15578499D01*
X7195417Y-15578499D01*
X7214464Y-15568975D01*
X7223988Y-15549928D01*
X7223988Y-15540404D01*
X7214464Y-15521356D01*
X7195417Y-15511833D01*
X7166845Y-15511833D01*
X7147798Y-15502309D01*
X7138274Y-15483261D01*
X7138274Y-15473737D01*
X7147798Y-15454690D01*
X7166845Y-15445166D01*
X7195417Y-15445166D01*
X7214464Y-15454690D01*
X7462083Y-15502309D02*
X7614464Y-15502309D01*
X7538274Y-15578499D02*
X7538274Y-15426118D01*
X7947798Y-15445166D02*
X7947798Y-15578499D01*
X7900178Y-15368975D02*
X7852559Y-15511833D01*
X7976369Y-15511833D01*
X8195417Y-15568975D02*
X8214464Y-15578499D01*
X8252559Y-15578499D01*
X8271607Y-15568975D01*
X8281131Y-15549928D01*
X8281131Y-15540404D01*
X8271607Y-15521356D01*
X8252559Y-15511833D01*
X8223988Y-15511833D01*
X8204940Y-15502309D01*
X8195417Y-15483261D01*
X8195417Y-15473737D01*
X8204940Y-15454690D01*
X8223988Y-15445166D01*
X8252559Y-15445166D01*
X8271607Y-15454690D01*
X8395417Y-15578499D02*
X8376369Y-15568975D01*
X8366845Y-15549928D01*
X8366845Y-15378499D01*
X8500179Y-15578499D02*
X8481131Y-15568975D01*
X8471607Y-15559452D01*
X8462083Y-15540404D01*
X8462083Y-15483261D01*
X8471607Y-15464214D01*
X8481131Y-15454690D01*
X8500179Y-15445166D01*
X8528750Y-15445166D01*
X8547798Y-15454690D01*
X8557321Y-15464214D01*
X8566845Y-15483261D01*
X8566845Y-15540404D01*
X8557321Y-15559452D01*
X8547798Y-15568975D01*
X8528750Y-15578499D01*
X8500179Y-15578499D01*
X8623988Y-15445166D02*
X8700179Y-15445166D01*
X8652560Y-15378499D02*
X8652560Y-15549928D01*
X8662083Y-15568975D01*
X8681131Y-15578499D01*
X8700179Y-15578499D01*
X8757321Y-15568975D02*
X8776369Y-15578499D01*
X8814464Y-15578499D01*
X8833512Y-15568975D01*
X8843036Y-15549928D01*
X8843036Y-15540404D01*
X8833512Y-15521356D01*
X8814464Y-15511833D01*
X8785893Y-15511833D01*
X8766845Y-15502309D01*
X8757321Y-15483261D01*
X8757321Y-15473737D01*
X8766845Y-15454690D01*
X8785893Y-15445166D01*
X8814464Y-15445166D01*
X8833512Y-15454690D01*
X8909702Y-15654690D02*
X8919226Y-15645166D01*
X8938274Y-15616595D01*
X8947798Y-15597547D01*
X8957321Y-15568975D01*
X8966845Y-15521356D01*
X8966845Y-15483261D01*
X8957321Y-15435642D01*
X8947798Y-15407071D01*
X8938274Y-15388023D01*
X8919226Y-15359452D01*
X8909702Y-15349928D01*
X2489461Y-15822735D02*
X2489461Y-15681312D01*
X2348039Y-15681312D01*
X2348039Y-15822735D01*
X2489461Y-15822735D01*
X2766845Y-15661547D02*
X2776369Y-15652023D01*
X2795417Y-15642499D01*
X2843036Y-15642499D01*
X2862083Y-15652023D01*
X2871607Y-15661547D01*
X2881131Y-15680595D01*
X2881131Y-15699642D01*
X2871607Y-15728214D01*
X2757321Y-15842499D01*
X2881131Y-15842499D01*
X2966845Y-15823452D02*
X2976369Y-15832975D01*
X2966845Y-15842499D01*
X2957321Y-15832975D01*
X2966845Y-15823452D01*
X2966845Y-15842499D01*
X3052559Y-15661547D02*
X3062083Y-15652023D01*
X3081131Y-15642499D01*
X3128750Y-15642499D01*
X3147798Y-15652023D01*
X3157321Y-15661547D01*
X3166845Y-15680595D01*
X3166845Y-15699642D01*
X3157321Y-15728214D01*
X3043036Y-15842499D01*
X3166845Y-15842499D01*
X3290655Y-15642499D02*
X3309702Y-15642499D01*
X3328750Y-15652023D01*
X3338274Y-15661547D01*
X3347798Y-15680595D01*
X3357321Y-15718690D01*
X3357321Y-15766309D01*
X3347798Y-15804404D01*
X3338274Y-15823452D01*
X3328750Y-15832975D01*
X3309702Y-15842499D01*
X3290655Y-15842499D01*
X3271607Y-15832975D01*
X3262083Y-15823452D01*
X3252559Y-15804404D01*
X3243036Y-15766309D01*
X3243036Y-15718690D01*
X3252559Y-15680595D01*
X3262083Y-15661547D01*
X3271607Y-15652023D01*
X3290655Y-15642499D01*
X3481131Y-15642499D02*
X3500178Y-15642499D01*
X3519226Y-15652023D01*
X3528750Y-15661547D01*
X3538274Y-15680595D01*
X3547798Y-15718690D01*
X3547798Y-15766309D01*
X3538274Y-15804404D01*
X3528750Y-15823452D01*
X3519226Y-15832975D01*
X3500178Y-15842499D01*
X3481131Y-15842499D01*
X3462083Y-15832975D01*
X3452559Y-15823452D01*
X3443036Y-15804404D01*
X3433512Y-15766309D01*
X3433512Y-15718690D01*
X3443036Y-15680595D01*
X3452559Y-15661547D01*
X3462083Y-15652023D01*
X3481131Y-15642499D01*
X3633512Y-15842499D02*
X3633512Y-15709166D01*
X3633512Y-15728214D02*
X3643036Y-15718690D01*
X3662083Y-15709166D01*
X3690655Y-15709166D01*
X3709702Y-15718690D01*
X3719226Y-15737737D01*
X3719226Y-15842499D01*
X3719226Y-15737737D02*
X3728750Y-15718690D01*
X3747798Y-15709166D01*
X3776369Y-15709166D01*
X3795417Y-15718690D01*
X3804940Y-15737737D01*
X3804940Y-15842499D01*
X3900178Y-15842499D02*
X3900178Y-15709166D01*
X3900178Y-15728214D02*
X3909702Y-15718690D01*
X3928750Y-15709166D01*
X3957321Y-15709166D01*
X3976369Y-15718690D01*
X3985893Y-15737737D01*
X3985893Y-15842499D01*
X3985893Y-15737737D02*
X3995417Y-15718690D01*
X4014464Y-15709166D01*
X4043036Y-15709166D01*
X4062083Y-15718690D01*
X4071607Y-15737737D01*
X4071607Y-15842499D01*
X4462083Y-15632975D02*
X4290655Y-15890118D01*
X4719226Y-15642499D02*
X4738274Y-15642499D01*
X4757321Y-15652023D01*
X4766845Y-15661547D01*
X4776369Y-15680595D01*
X4785893Y-15718690D01*
X4785893Y-15766309D01*
X4776369Y-15804404D01*
X4766845Y-15823452D01*
X4757321Y-15832975D01*
X4738274Y-15842499D01*
X4719226Y-15842499D01*
X4700179Y-15832975D01*
X4690655Y-15823452D01*
X4681131Y-15804404D01*
X4671607Y-15766309D01*
X4671607Y-15718690D01*
X4681131Y-15680595D01*
X4690655Y-15661547D01*
X4700179Y-15652023D01*
X4719226Y-15642499D01*
X4871607Y-15823452D02*
X4881131Y-15832975D01*
X4871607Y-15842499D01*
X4862083Y-15832975D01*
X4871607Y-15823452D01*
X4871607Y-15842499D01*
X5004940Y-15642499D02*
X5023988Y-15642499D01*
X5043036Y-15652023D01*
X5052560Y-15661547D01*
X5062083Y-15680595D01*
X5071607Y-15718690D01*
X5071607Y-15766309D01*
X5062083Y-15804404D01*
X5052560Y-15823452D01*
X5043036Y-15832975D01*
X5023988Y-15842499D01*
X5004940Y-15842499D01*
X4985893Y-15832975D01*
X4976369Y-15823452D01*
X4966845Y-15804404D01*
X4957321Y-15766309D01*
X4957321Y-15718690D01*
X4966845Y-15680595D01*
X4976369Y-15661547D01*
X4985893Y-15652023D01*
X5004940Y-15642499D01*
X5185893Y-15728214D02*
X5166845Y-15718690D01*
X5157321Y-15709166D01*
X5147798Y-15690118D01*
X5147798Y-15680595D01*
X5157321Y-15661547D01*
X5166845Y-15652023D01*
X5185893Y-15642499D01*
X5223988Y-15642499D01*
X5243036Y-15652023D01*
X5252560Y-15661547D01*
X5262083Y-15680595D01*
X5262083Y-15690118D01*
X5252560Y-15709166D01*
X5243036Y-15718690D01*
X5223988Y-15728214D01*
X5185893Y-15728214D01*
X5166845Y-15737737D01*
X5157321Y-15747261D01*
X5147798Y-15766309D01*
X5147798Y-15804404D01*
X5157321Y-15823452D01*
X5166845Y-15832975D01*
X5185893Y-15842499D01*
X5223988Y-15842499D01*
X5243036Y-15832975D01*
X5252560Y-15823452D01*
X5262083Y-15804404D01*
X5262083Y-15766309D01*
X5252560Y-15747261D01*
X5243036Y-15737737D01*
X5223988Y-15728214D01*
X5433512Y-15642499D02*
X5395417Y-15642499D01*
X5376369Y-15652023D01*
X5366845Y-15661547D01*
X5347798Y-15690118D01*
X5338274Y-15728214D01*
X5338274Y-15804404D01*
X5347798Y-15823452D01*
X5357321Y-15832975D01*
X5376369Y-15842499D01*
X5414464Y-15842499D01*
X5433512Y-15832975D01*
X5443036Y-15823452D01*
X5452560Y-15804404D01*
X5452560Y-15756785D01*
X5443036Y-15737737D01*
X5433512Y-15728214D01*
X5414464Y-15718690D01*
X5376369Y-15718690D01*
X5357321Y-15728214D01*
X5347798Y-15737737D01*
X5338274Y-15756785D01*
X5623988Y-15642499D02*
X5585893Y-15642499D01*
X5566845Y-15652023D01*
X5557321Y-15661547D01*
X5538274Y-15690118D01*
X5528750Y-15728214D01*
X5528750Y-15804404D01*
X5538274Y-15823452D01*
X5547798Y-15832975D01*
X5566845Y-15842499D01*
X5604940Y-15842499D01*
X5623988Y-15832975D01*
X5633512Y-15823452D01*
X5643036Y-15804404D01*
X5643036Y-15756785D01*
X5633512Y-15737737D01*
X5623988Y-15728214D01*
X5604940Y-15718690D01*
X5566845Y-15718690D01*
X5547798Y-15728214D01*
X5538274Y-15737737D01*
X5528750Y-15756785D01*
X5719226Y-15642499D02*
X5719226Y-15680595D01*
X5795417Y-15642499D02*
X5795417Y-15680595D01*
X6090655Y-15918690D02*
X6081131Y-15909166D01*
X6062083Y-15880595D01*
X6052559Y-15861547D01*
X6043036Y-15832975D01*
X6033512Y-15785356D01*
X6033512Y-15747261D01*
X6043036Y-15699642D01*
X6052559Y-15671071D01*
X6062083Y-15652023D01*
X6081131Y-15623452D01*
X6090655Y-15613928D01*
X6195417Y-15728214D02*
X6176369Y-15718690D01*
X6166845Y-15709166D01*
X6157321Y-15690118D01*
X6157321Y-15680595D01*
X6166845Y-15661547D01*
X6176369Y-15652023D01*
X6195417Y-15642499D01*
X6233512Y-15642499D01*
X6252559Y-15652023D01*
X6262083Y-15661547D01*
X6271607Y-15680595D01*
X6271607Y-15690118D01*
X6262083Y-15709166D01*
X6252559Y-15718690D01*
X6233512Y-15728214D01*
X6195417Y-15728214D01*
X6176369Y-15737737D01*
X6166845Y-15747261D01*
X6157321Y-15766309D01*
X6157321Y-15804404D01*
X6166845Y-15823452D01*
X6176369Y-15832975D01*
X6195417Y-15842499D01*
X6233512Y-15842499D01*
X6252559Y-15832975D01*
X6262083Y-15823452D01*
X6271607Y-15804404D01*
X6271607Y-15766309D01*
X6262083Y-15747261D01*
X6252559Y-15737737D01*
X6233512Y-15728214D01*
X6509702Y-15842499D02*
X6509702Y-15642499D01*
X6595417Y-15842499D02*
X6595417Y-15737737D01*
X6585893Y-15718690D01*
X6566845Y-15709166D01*
X6538274Y-15709166D01*
X6519226Y-15718690D01*
X6509702Y-15728214D01*
X6719226Y-15842499D02*
X6700178Y-15832975D01*
X6690655Y-15823452D01*
X6681131Y-15804404D01*
X6681131Y-15747261D01*
X6690655Y-15728214D01*
X6700178Y-15718690D01*
X6719226Y-15709166D01*
X6747798Y-15709166D01*
X6766845Y-15718690D01*
X6776369Y-15728214D01*
X6785893Y-15747261D01*
X6785893Y-15804404D01*
X6776369Y-15823452D01*
X6766845Y-15832975D01*
X6747798Y-15842499D01*
X6719226Y-15842499D01*
X6900178Y-15842499D02*
X6881131Y-15832975D01*
X6871607Y-15813928D01*
X6871607Y-15642499D01*
X7052559Y-15832975D02*
X7033512Y-15842499D01*
X6995417Y-15842499D01*
X6976369Y-15832975D01*
X6966845Y-15813928D01*
X6966845Y-15737737D01*
X6976369Y-15718690D01*
X6995417Y-15709166D01*
X7033512Y-15709166D01*
X7052559Y-15718690D01*
X7062083Y-15737737D01*
X7062083Y-15756785D01*
X6966845Y-15775833D01*
X7138274Y-15832975D02*
X7157321Y-15842499D01*
X7195417Y-15842499D01*
X7214464Y-15832975D01*
X7223988Y-15813928D01*
X7223988Y-15804404D01*
X7214464Y-15785356D01*
X7195417Y-15775833D01*
X7166845Y-15775833D01*
X7147798Y-15766309D01*
X7138274Y-15747261D01*
X7138274Y-15737737D01*
X7147798Y-15718690D01*
X7166845Y-15709166D01*
X7195417Y-15709166D01*
X7214464Y-15718690D01*
X7290655Y-15918690D02*
X7300178Y-15909166D01*
X7319226Y-15880595D01*
X7328750Y-15861547D01*
X7338274Y-15832975D01*
X7347798Y-15785356D01*
X7347798Y-15747261D01*
X7338274Y-15699642D01*
X7328750Y-15671071D01*
X7319226Y-15652023D01*
X7300178Y-15623452D01*
X7290655Y-15613928D01*
M02*
