M48
; DRILL file {KiCad (5.99.0-11496-g396213fa30)} date Fri Jul 23 07:48:56 2021
; FORMAT={-:-/ absolute / metric / decimal}
; #@! TF.CreationDate,2021-07-23T07:48:56-04:00
; #@! TF.GenerationSoftware,Kicad,Pcbnew,(5.99.0-11496-g396213fa30)
; #@! TF.FileFunction,NonPlated,1,2,NPTH
FMAT,2
METRIC
; #@! TA.AperFunction,NonPlated,NPTH,ComponentDrill
T1C0.650
; #@! TA.AperFunction,NonPlated,NPTH,ComponentDrill
T2C1.750
; #@! TA.AperFunction,NonPlated,NPTH,ComponentDrill
T3C2.400
; #@! TA.AperFunction,NonPlated,NPTH,ComponentDrill
T4C3.000
; #@! TA.AperFunction,NonPlated,NPTH,ComponentDrill
T5C3.048
; #@! TA.AperFunction,NonPlated,NPTH,ComponentDrill
T6C3.988
; #@! TA.AperFunction,NonPlated,NPTH,ComponentDrill
T7C4.000
%
G90
G05
T1
X172.61Y-26.94
X178.39Y-26.94
T2
X34.671Y-114.935
X41.148Y-76.835
X41.783Y-95.885
X42.291Y-38.735
X42.799Y-57.785
X44.831Y-114.935
X51.308Y-76.835
X51.943Y-95.885
X52.451Y-38.735
X52.959Y-57.785
X61.341Y-38.735
X66.675Y-57.785
X67.31Y-76.835
X71.501Y-38.735
X72.771Y-95.885
X76.835Y-57.785
X77.47Y-76.835
X80.391Y-37.211
X82.931Y-95.885
X87.223Y-57.008
X88.023Y-76.641
X90.551Y-37.211
X93.293Y-97.267
X94.044Y-116.928
X97.161Y-59.12
X97.961Y-78.753
X100.568Y-40.346
X103.231Y-99.38
X103.982Y-119.04
X105.921Y-60.959
X106.667Y-80.615
X110.506Y-42.458
X111.908Y-101.237
X115.859Y-63.071
X116.605Y-82.727
X119.222Y-44.304
X121.846Y-103.349
X124.567Y-64.931
X125.312Y-84.582
X126.687Y-123.848
X129.16Y-46.416
X130.549Y-105.18
X134.505Y-67.044
X135.25Y-86.694
X136.625Y-125.96
X137.844Y-48.253
X140.487Y-107.292
X143.212Y-68.899
X143.957Y-88.568
X147.782Y-50.365
X149.217Y-109.123
X153.15Y-71.011
X153.895Y-90.68
X154.662Y-129.775
X156.494Y-52.208
X159.155Y-111.235
X164.6Y-131.888
X166.432Y-54.321
X179.34Y-75.037
X184.677Y-54.423
X187.907Y-92.675
X189.278Y-72.925
X194.615Y-52.311
X196.472Y-110.312
X197.845Y-90.562
X197.994Y-71.069
X203.304Y-50.468
X206.41Y-108.2
X206.552Y-88.703
X207.577Y-127.462
X207.932Y-68.957
X213.242Y-48.355
X215.095Y-106.361
X216.49Y-86.591
X216.618Y-67.086
X217.515Y-125.349
X221.91Y-46.512
X225.033Y-104.249
X225.166Y-84.758
X226.556Y-64.973
X231.848Y-44.4
X233.75Y-102.421
X235.104Y-82.645
X235.244Y-63.149
X240.51Y-42.541
X243.688Y-100.309
X243.824Y-80.812
X245.182Y-61.037
X247.007Y-119.109
X250.448Y-40.429
X252.372Y-98.45
X253.762Y-78.7
X253.872Y-59.171
X256.945Y-116.997
X260.503Y-37.209
X262.31Y-96.338
X263.81Y-57.059
X264.16Y-76.835
X270.663Y-37.209
X273.685Y-95.885
X274.193Y-57.785
X274.32Y-76.835
X279.527Y-38.735
X283.21Y-76.835
X283.845Y-95.885
X284.353Y-57.785
X289.687Y-38.735
X293.243Y-57.785
X293.37Y-76.835
X299.847Y-95.885
X303.403Y-57.785
X308.102Y-38.735
X310.007Y-95.885
X311.785Y-119.634
X314.198Y-76.835
X317.057Y-57.777
X318.262Y-38.735
X321.945Y-119.634
X324.358Y-76.835
X327.217Y-57.777
X330.835Y-100.711
X330.835Y-119.634
X340.995Y-100.711
X340.995Y-119.634
X341.503Y-33.909
X345.694Y-52.959
X349.885Y-72.009
X349.885Y-119.634
X351.663Y-33.909
X355.854Y-52.959
X360.045Y-72.009
X360.045Y-119.634
T3
X127.762Y-27.686
X133.223Y-27.686
X138.684Y-27.686
T4
X35.941Y-112.395
X42.291Y-109.855
X42.418Y-74.295
X43.053Y-93.345
X43.561Y-36.195
X44.069Y-55.245
X48.768Y-71.755
X49.403Y-90.805
X49.911Y-33.655
X50.419Y-52.705
X62.611Y-36.195
X67.945Y-55.245
X68.58Y-74.295
X68.961Y-33.655
X74.041Y-93.345
X74.295Y-52.705
X74.93Y-71.755
X80.391Y-90.805
X81.661Y-34.671
X88.011Y-32.131
X88.993Y-54.787
X89.793Y-74.42
X95.064Y-95.047
X95.732Y-53.623
X95.815Y-114.707
X96.532Y-73.256
X101.803Y-93.883
X102.338Y-38.125
X102.554Y-113.543
X107.691Y-58.739
X108.437Y-78.394
X109.078Y-36.961
X113.678Y-99.017
X114.43Y-57.574
X115.177Y-77.23
X120.417Y-97.852
X120.993Y-42.083
X126.337Y-62.711
X127.082Y-82.362
X127.732Y-40.919
X128.457Y-121.627
X132.319Y-102.959
X133.076Y-61.547
X133.822Y-81.197
X135.196Y-120.463
X139.059Y-101.795
X139.614Y-46.033
X144.982Y-66.678
X145.727Y-86.348
X146.354Y-44.868
X150.987Y-106.902
X151.721Y-65.514
X152.466Y-85.183
X156.432Y-127.555
X157.726Y-105.738
X158.264Y-49.988
X163.171Y-126.391
X165.004Y-48.824
X180.054Y-72.289
X185.391Y-51.675
X185.737Y-68.484
X188.621Y-89.926
X191.074Y-47.87
X194.304Y-86.122
X197.186Y-107.563
X198.709Y-68.321
X202.87Y-103.759
X204.019Y-47.719
X204.392Y-64.516
X207.266Y-85.955
X208.291Y-124.713
X209.702Y-43.915
X212.949Y-82.15
X213.974Y-120.908
X215.809Y-103.613
X217.332Y-64.337
X221.492Y-99.808
X222.624Y-43.764
X223.015Y-60.533
X225.881Y-82.009
X228.307Y-39.959
X231.564Y-78.204
X234.464Y-99.673
X235.958Y-60.4
X240.147Y-95.868
X241.224Y-39.793
X241.641Y-56.596
X244.538Y-78.064
X246.907Y-35.988
X247.721Y-116.36
X250.221Y-74.259
X253.086Y-95.701
X253.404Y-112.556
X254.586Y-56.423
X258.769Y-91.897
X260.269Y-52.618
X261.773Y-34.669
X265.43Y-74.295
X268.123Y-32.129
X271.78Y-71.755
X274.955Y-93.345
X275.463Y-55.245
X280.797Y-36.195
X281.305Y-90.805
X281.813Y-52.705
X284.48Y-74.295
X287.147Y-33.655
X290.83Y-71.755
X294.513Y-55.245
X300.863Y-52.705
X301.117Y-93.345
X307.467Y-90.805
X309.372Y-36.195
X313.055Y-117.094
X315.468Y-74.295
X315.722Y-33.655
X318.327Y-55.237
X319.405Y-114.554
X321.818Y-71.755
X324.677Y-52.697
X332.105Y-98.171
X332.105Y-117.094
X338.455Y-95.631
X338.455Y-114.554
X342.773Y-31.369
X346.964Y-50.419
X349.123Y-28.829
X351.155Y-69.469
X351.155Y-117.094
X353.314Y-47.879
X357.505Y-66.929
X357.505Y-114.554
T5
X34.925Y-88.9
X58.801Y-88.9
X118.526Y-129.254
X141.88Y-134.218
X202.321Y-135.72
X225.675Y-130.756
X301.244Y-31.496
X307.34Y-83.82
X325.12Y-31.496
X331.216Y-83.82
T6
X34.925Y-104.14
X58.801Y-104.14
X121.695Y-114.347
X145.049Y-119.311
X199.152Y-120.813
X222.506Y-115.849
X301.244Y-46.736
X307.34Y-68.58
X325.12Y-46.736
X331.216Y-68.58
T7
X39.751Y-114.935
X46.228Y-76.835
X46.863Y-95.885
X47.371Y-38.735
X47.879Y-57.785
X66.421Y-38.735
X71.755Y-57.785
X72.39Y-76.835
X77.851Y-95.885
X85.471Y-37.211
X92.192Y-58.064
X92.992Y-77.697
X98.262Y-98.324
X99.013Y-117.984
X105.537Y-41.402
X110.89Y-62.015
X111.636Y-81.671
X116.877Y-102.293
X124.191Y-45.36
X129.536Y-65.988
X130.281Y-85.638
X131.656Y-124.904
X135.518Y-106.236
X142.813Y-49.309
X148.181Y-69.955
X148.926Y-89.624
X154.186Y-110.179
X159.631Y-130.832
X161.463Y-53.265
X184.309Y-73.981
X189.646Y-53.367
X192.876Y-91.619
X201.441Y-109.256
X202.963Y-70.013
X208.273Y-49.412
X211.521Y-87.647
X212.546Y-126.405
X220.064Y-105.305
X221.587Y-66.03
X226.879Y-45.456
X230.135Y-83.701
X238.719Y-101.365
X240.213Y-62.093
X245.479Y-41.485
X248.793Y-79.756
X251.976Y-118.053
X257.341Y-97.394
X258.841Y-58.115
X265.583Y-37.209
X269.24Y-76.835
X278.765Y-95.885
X279.273Y-57.785
X284.607Y-38.735
X288.29Y-76.835
X298.323Y-57.785
X304.927Y-95.885
X313.182Y-38.735
X316.865Y-119.634
X319.278Y-76.835
X322.137Y-57.777
X335.915Y-100.711
X335.915Y-119.634
X346.583Y-33.909
X350.774Y-52.959
X354.965Y-72.009
X354.965Y-119.634
T0
M30
