%TF.GenerationSoftware,KiCad,Pcbnew,(5.99.0-11496-g396213fa30)*%
%TF.CreationDate,2021-07-23T07:47:41-04:00*%
%TF.ProjectId,arisutea-pcb,61726973-7574-4656-912d-7063622e6b69,0.4*%
%TF.SameCoordinates,Original*%
%TF.FileFunction,Paste,Top*%
%TF.FilePolarity,Positive*%
%FSLAX46Y46*%
G04 Gerber Fmt 4.6, Leading zero omitted, Abs format (unit mm)*
G04 Created by KiCad (PCBNEW (5.99.0-11496-g396213fa30)) date 2021-07-23 07:47:41*
%MOMM*%
%LPD*%
G01*
G04 APERTURE LIST*
G04 Aperture macros list*
%AMRoundRect*
0 Rectangle with rounded corners*
0 $1 Rounding radius*
0 $2 $3 $4 $5 $6 $7 $8 $9 X,Y pos of 4 corners*
0 Add a 4 corners polygon primitive as box body*
4,1,4,$2,$3,$4,$5,$6,$7,$8,$9,$2,$3,0*
0 Add four circle primitives for the rounded corners*
1,1,$1+$1,$2,$3*
1,1,$1+$1,$4,$5*
1,1,$1+$1,$6,$7*
1,1,$1+$1,$8,$9*
0 Add four rect primitives between the rounded corners*
20,1,$1+$1,$2,$3,$4,$5,0*
20,1,$1+$1,$4,$5,$6,$7,0*
20,1,$1+$1,$6,$7,$8,$9,0*
20,1,$1+$1,$8,$9,$2,$3,0*%
G04 Aperture macros list end*
%ADD10RoundRect,0.250000X0.337500X0.475000X-0.337500X0.475000X-0.337500X-0.475000X0.337500X-0.475000X0*%
%ADD11RoundRect,0.250000X0.475000X-0.337500X0.475000X0.337500X-0.475000X0.337500X-0.475000X-0.337500X0*%
%ADD12RoundRect,0.250000X0.428883X0.394450X-0.231367X0.534790X-0.428883X-0.394450X0.231367X-0.534790X0*%
%ADD13RoundRect,0.250000X-0.534790X0.231367X-0.394450X-0.428883X0.534790X-0.231367X0.394450X0.428883X0*%
%ADD14RoundRect,0.250000X-0.428883X-0.394450X0.231367X-0.534790X0.428883X0.394450X-0.231367X0.534790X0*%
%ADD15RoundRect,0.250000X-0.337500X-0.475000X0.337500X-0.475000X0.337500X0.475000X-0.337500X0.475000X0*%
%ADD16RoundRect,0.250000X-0.475000X0.337500X-0.475000X-0.337500X0.475000X-0.337500X0.475000X0.337500X0*%
%ADD17RoundRect,0.082000X0.328000X0.718000X-0.328000X0.718000X-0.328000X-0.718000X0.328000X-0.718000X0*%
%ADD18RoundRect,0.082000X-0.718000X0.328000X-0.718000X-0.328000X0.718000X-0.328000X0.718000X0.328000X0*%
%ADD19RoundRect,0.082000X-0.770505X0.171552X-0.634115X-0.470113X0.770505X-0.171552X0.634115X0.470113X0*%
%ADD20RoundRect,0.082000X0.718000X-0.328000X0.718000X0.328000X-0.718000X0.328000X-0.718000X-0.328000X0*%
%ADD21RoundRect,0.082000X-0.328000X-0.718000X0.328000X-0.718000X0.328000X0.718000X-0.328000X0.718000X0*%
%ADD22RoundRect,0.082000X-0.634115X0.470113X-0.770505X-0.171552X0.634115X-0.470113X0.770505X0.171552X0*%
G04 APERTURE END LIST*
D10*
X267161500Y-123447200D03*
X265086500Y-123447200D03*
X79637500Y-123700000D03*
X77562500Y-123700000D03*
D11*
X31165800Y-41829900D03*
X31165800Y-39754900D03*
D12*
X150265228Y-133540308D03*
X148235572Y-133108892D03*
D13*
X239184292Y-127685172D03*
X239615708Y-129714828D03*
D11*
X358521000Y-106752300D03*
X358521000Y-104677300D03*
D14*
X112485172Y-125584292D03*
X114514828Y-126015708D03*
D15*
X58195300Y-30454600D03*
X60270300Y-30454600D03*
D11*
X31400000Y-110637500D03*
X31400000Y-108562500D03*
D16*
X145364200Y-30458500D03*
X145364200Y-32533500D03*
D11*
X149656800Y-32685900D03*
X149656800Y-30610900D03*
X327558400Y-28012300D03*
X327558400Y-25937300D03*
D13*
X195784292Y-136885172D03*
X196215708Y-138914828D03*
D16*
X358600000Y-80242905D03*
X358600000Y-82317905D03*
D10*
X40712300Y-123700000D03*
X38637300Y-123700000D03*
D15*
X102340500Y-30200000D03*
X104415500Y-30200000D03*
D16*
X358368600Y-37570500D03*
X358368600Y-39645500D03*
D11*
X290500000Y-27937500D03*
X290500000Y-25862500D03*
X248000000Y-27935900D03*
X248000000Y-25860900D03*
X208300000Y-27937500D03*
X208300000Y-25862500D03*
D10*
X307818700Y-123469400D03*
X305743700Y-123469400D03*
D11*
X31400000Y-77137500D03*
X31400000Y-75062500D03*
D17*
X28829000Y-41462000D03*
X27329000Y-41462000D03*
X27329000Y-36262000D03*
X28829000Y-36262000D03*
D18*
X44214500Y-126034800D03*
X44214500Y-127534800D03*
X39014500Y-127534800D03*
X39014500Y-126034800D03*
D19*
X193584755Y-137514081D03*
X193896623Y-138981303D03*
X188810255Y-140062443D03*
X188498388Y-138595222D03*
D20*
X330232300Y-27838400D03*
X330232300Y-26338400D03*
X335432300Y-26338400D03*
X335432300Y-27838400D03*
X250200000Y-27762000D03*
X250200000Y-26262000D03*
X255400000Y-26262000D03*
X255400000Y-27762000D03*
D21*
X360857800Y-105019800D03*
X362357800Y-105019800D03*
X362357800Y-110219800D03*
X360857800Y-110219800D03*
D20*
X292800000Y-27762000D03*
X292800000Y-26262000D03*
X298000000Y-26262000D03*
X298000000Y-27762000D03*
D22*
X149742212Y-135863022D03*
X149430345Y-137330243D03*
X144343977Y-136249103D03*
X144655845Y-134781881D03*
D18*
X307933400Y-126111000D03*
X307933400Y-127611000D03*
X302733400Y-127611000D03*
X302733400Y-126111000D03*
D20*
X145371100Y-27838400D03*
X145371100Y-26338400D03*
X150571100Y-26338400D03*
X150571100Y-27838400D03*
D19*
X236984755Y-128314081D03*
X237296623Y-129781303D03*
X232210255Y-130862443D03*
X231898388Y-129395222D03*
D20*
X58045900Y-27838400D03*
X58045900Y-26338400D03*
X63245900Y-26338400D03*
X63245900Y-27838400D03*
D17*
X28962000Y-76800000D03*
X27462000Y-76800000D03*
X27462000Y-71600000D03*
X28962000Y-71600000D03*
D21*
X360908600Y-37887600D03*
X362408600Y-37887600D03*
X362408600Y-43087600D03*
X360908600Y-43087600D03*
D17*
X28829000Y-110317500D03*
X27329000Y-110317500D03*
X27329000Y-105117500D03*
X28829000Y-105117500D03*
D20*
X210600000Y-27762000D03*
X210600000Y-26262000D03*
X215800000Y-26262000D03*
X215800000Y-27762000D03*
D18*
X267200000Y-126038000D03*
X267200000Y-127538000D03*
X262000000Y-127538000D03*
X262000000Y-126038000D03*
D20*
X102302000Y-27838400D03*
X102302000Y-26338400D03*
X107502000Y-26338400D03*
X107502000Y-27838400D03*
D18*
X79312500Y-126050000D03*
X79312500Y-127550000D03*
X74112500Y-127550000D03*
X74112500Y-126050000D03*
D22*
X113701612Y-128195222D03*
X113389745Y-129662443D03*
X108303377Y-128581303D03*
X108615245Y-127114081D03*
D21*
X360938000Y-80600000D03*
X362438000Y-80600000D03*
X362438000Y-85800000D03*
X360938000Y-85800000D03*
M02*
