%FSLAX45Y45*%
G04 Gerber Fmt 4.5, Leading zero omitted, Abs format (unit mm)*
G04 Created by KiCad (PCBNEW (5.99.0-11496-g396213fa30)) date 2021-07-23 07:49:52*
%MOMM*%
%LPD*%
G01*
G04 APERTURE LIST*
%TA.AperFunction,Profile*%
%ADD10C,0.150000*%
%TD*%
%ADD11C,0.200000*%
%ADD12C,0.065000*%
%ADD13C,0.175000*%
%ADD14C,0.240000*%
%ADD15C,0.300000*%
%ADD16C,0.304800*%
%ADD17C,0.398780*%
%ADD18C,0.400000*%
G04 APERTURE END LIST*
D10*
X36249995Y-2443251D02*
G75*
G02*
X36449995Y-2643251I0J-200000D01*
G01*
X2741250Y-12920750D02*
G75*
G02*
X2541250Y-12720750I0J200000D01*
G01*
X2541250Y-2643251D02*
X2541250Y-12720750D01*
X24811000Y-12920750D02*
X36249995Y-12920750D01*
X2741250Y-12920750D02*
X10312670Y-12920750D01*
X16860000Y-14312523D02*
X18263000Y-14312523D01*
X10312670Y-12920750D02*
X16860000Y-14312523D01*
X2741250Y-2443251D02*
G75*
G03*
X2541250Y-2643251I0J-200000D01*
G01*
X18263000Y-14312523D02*
X24811000Y-12920750D01*
X36449995Y-2643251D02*
X36449995Y-12720750D01*
X17037500Y-2397279D02*
X17037500Y-2261081D01*
X17037500Y-2261081D02*
G75*
G02*
X17088091Y-2214880I50591J-4599D01*
G01*
X36249995Y-12920750D02*
G75*
G03*
X36449995Y-12720750I0J200000D01*
G01*
X18117207Y-2443281D02*
X36249995Y-2443251D01*
X17037500Y-2397279D02*
G75*
G02*
X16986909Y-2443480I-50591J4599D01*
G01*
X18018799Y-2215000D02*
G75*
G02*
X18065000Y-2265591I-4599J-50591D01*
G01*
X16986909Y-2443480D02*
X2741250Y-2443251D01*
X18117207Y-2443281D02*
G75*
G02*
X18065000Y-2392500I-1407J50781D01*
G01*
X18018799Y-2215000D02*
X17088091Y-2214880D01*
X18065000Y-2392500D02*
X18065000Y-2265591D01*
D11*
D12*
X17228500Y-2661500D02*
X17293500Y-2726500D01*
X17293500Y-2661500D02*
X17228500Y-2726500D01*
X17806500Y-2661500D02*
X17871500Y-2726500D01*
X17871500Y-2661500D02*
X17806500Y-2726500D01*
D13*
X3554600Y-11493500D02*
G75*
G03*
X3554600Y-11493500I-87500J0D01*
G01*
X4202300Y-7683500D02*
G75*
G03*
X4202300Y-7683500I-87500J0D01*
G01*
X4265800Y-9588500D02*
G75*
G03*
X4265800Y-9588500I-87500J0D01*
G01*
X4316600Y-3873500D02*
G75*
G03*
X4316600Y-3873500I-87500J0D01*
G01*
X4367400Y-5778500D02*
G75*
G03*
X4367400Y-5778500I-87500J0D01*
G01*
X4570600Y-11493500D02*
G75*
G03*
X4570600Y-11493500I-87500J0D01*
G01*
X5218300Y-7683500D02*
G75*
G03*
X5218300Y-7683500I-87500J0D01*
G01*
X5281800Y-9588500D02*
G75*
G03*
X5281800Y-9588500I-87500J0D01*
G01*
X5332600Y-3873500D02*
G75*
G03*
X5332600Y-3873500I-87500J0D01*
G01*
X5383400Y-5778500D02*
G75*
G03*
X5383400Y-5778500I-87500J0D01*
G01*
X6221600Y-3873500D02*
G75*
G03*
X6221600Y-3873500I-87500J0D01*
G01*
X6755000Y-5778500D02*
G75*
G03*
X6755000Y-5778500I-87500J0D01*
G01*
X6818500Y-7683500D02*
G75*
G03*
X6818500Y-7683500I-87500J0D01*
G01*
X7237600Y-3873500D02*
G75*
G03*
X7237600Y-3873500I-87500J0D01*
G01*
X7364600Y-9588500D02*
G75*
G03*
X7364600Y-9588500I-87500J0D01*
G01*
X7771000Y-5778500D02*
G75*
G03*
X7771000Y-5778500I-87500J0D01*
G01*
X7834500Y-7683500D02*
G75*
G03*
X7834500Y-7683500I-87500J0D01*
G01*
X8126600Y-3721100D02*
G75*
G03*
X8126600Y-3721100I-87500J0D01*
G01*
X8380600Y-9588500D02*
G75*
G03*
X8380600Y-9588500I-87500J0D01*
G01*
X8809773Y-5700766D02*
G75*
G03*
X8809773Y-5700766I-87500J0D01*
G01*
X8889762Y-7664072D02*
G75*
G03*
X8889762Y-7664072I-87500J0D01*
G01*
X9142600Y-3721100D02*
G75*
G03*
X9142600Y-3721100I-87500J0D01*
G01*
X9416849Y-9726743D02*
G75*
G03*
X9416849Y-9726743I-87500J0D01*
G01*
X9491950Y-11692776D02*
G75*
G03*
X9491950Y-11692776I-87500J0D01*
G01*
X9803571Y-5912004D02*
G75*
G03*
X9803571Y-5912004I-87500J0D01*
G01*
X9883560Y-7875311D02*
G75*
G03*
X9883560Y-7875311I-87500J0D01*
G01*
X10144301Y-4034581D02*
G75*
G03*
X10144301Y-4034581I-87500J0D01*
G01*
X10410647Y-9937981D02*
G75*
G03*
X10410647Y-9937981I-87500J0D01*
G01*
X10485748Y-11904015D02*
G75*
G03*
X10485748Y-11904015I-87500J0D01*
G01*
X10679579Y-6095898D02*
G75*
G03*
X10679579Y-6095898I-87500J0D01*
G01*
X10754200Y-8061458D02*
G75*
G03*
X10754200Y-8061458I-87500J0D01*
G01*
X11138099Y-4245819D02*
G75*
G03*
X11138099Y-4245819I-87500J0D01*
G01*
X11278277Y-10123705D02*
G75*
G03*
X11278277Y-10123705I-87500J0D01*
G01*
X11673377Y-6307136D02*
G75*
G03*
X11673377Y-6307136I-87500J0D01*
G01*
X11747998Y-8272696D02*
G75*
G03*
X11747998Y-8272696I-87500J0D01*
G01*
X12009735Y-4430374D02*
G75*
G03*
X12009735Y-4430374I-87500J0D01*
G01*
X12272075Y-10334943D02*
G75*
G03*
X12272075Y-10334943I-87500J0D01*
G01*
X12544179Y-6493131D02*
G75*
G03*
X12544179Y-6493131I-87500J0D01*
G01*
X12618684Y-8458196D02*
G75*
G03*
X12618684Y-8458196I-87500J0D01*
G01*
X12756155Y-12384777D02*
G75*
G03*
X12756155Y-12384777I-87500J0D01*
G01*
X13003533Y-4641613D02*
G75*
G03*
X13003533Y-4641613I-87500J0D01*
G01*
X13142388Y-10517984D02*
G75*
G03*
X13142388Y-10517984I-87500J0D01*
G01*
X13537977Y-6704369D02*
G75*
G03*
X13537977Y-6704369I-87500J0D01*
G01*
X13612482Y-8669434D02*
G75*
G03*
X13612482Y-8669434I-87500J0D01*
G01*
X13749953Y-12596015D02*
G75*
G03*
X13749953Y-12596015I-87500J0D01*
G01*
X13871901Y-4825307D02*
G75*
G03*
X13871901Y-4825307I-87500J0D01*
G01*
X14136186Y-10729223D02*
G75*
G03*
X14136186Y-10729223I-87500J0D01*
G01*
X14408662Y-6889869D02*
G75*
G03*
X14408662Y-6889869I-87500J0D01*
G01*
X14483167Y-8856797D02*
G75*
G03*
X14483167Y-8856797I-87500J0D01*
G01*
X14865699Y-5036545D02*
G75*
G03*
X14865699Y-5036545I-87500J0D01*
G01*
X15009181Y-10912264D02*
G75*
G03*
X15009181Y-10912264I-87500J0D01*
G01*
X15402460Y-7101108D02*
G75*
G03*
X15402460Y-7101108I-87500J0D01*
G01*
X15476965Y-9068035D02*
G75*
G03*
X15476965Y-9068035I-87500J0D01*
G01*
X15553662Y-12977538D02*
G75*
G03*
X15553662Y-12977538I-87500J0D01*
G01*
X15736894Y-5220844D02*
G75*
G03*
X15736894Y-5220844I-87500J0D01*
G01*
X16002979Y-11123502D02*
G75*
G03*
X16002979Y-11123502I-87500J0D01*
G01*
X16547460Y-13188776D02*
G75*
G03*
X16547460Y-13188776I-87500J0D01*
G01*
X16730692Y-5432082D02*
G75*
G03*
X16730692Y-5432082I-87500J0D01*
G01*
X18021487Y-7503726D02*
G75*
G03*
X18021487Y-7503726I-87500J0D01*
G01*
X18555156Y-5442317D02*
G75*
G03*
X18555156Y-5442317I-87500J0D01*
G01*
X18878203Y-9267483D02*
G75*
G03*
X18878203Y-9267483I-87500J0D01*
G01*
X19015285Y-7292488D02*
G75*
G03*
X19015285Y-7292488I-87500J0D01*
G01*
X19548954Y-5231079D02*
G75*
G03*
X19548954Y-5231079I-87500J0D01*
G01*
X19734722Y-11031197D02*
G75*
G03*
X19734722Y-11031197I-87500J0D01*
G01*
X19872001Y-9056245D02*
G75*
G03*
X19872001Y-9056245I-87500J0D01*
G01*
X19886947Y-7106947D02*
G75*
G03*
X19886947Y-7106947I-87500J0D01*
G01*
X20417939Y-5046780D02*
G75*
G03*
X20417939Y-5046780I-87500J0D01*
G01*
X20728520Y-10819959D02*
G75*
G03*
X20728520Y-10819959I-87500J0D01*
G01*
X20742689Y-8870321D02*
G75*
G03*
X20742689Y-8870321I-87500J0D01*
G01*
X20845168Y-12746166D02*
G75*
G03*
X20845168Y-12746166I-87500J0D01*
G01*
X20880745Y-6895709D02*
G75*
G03*
X20880745Y-6895709I-87500J0D01*
G01*
X21411737Y-4835541D02*
G75*
G03*
X21411737Y-4835541I-87500J0D01*
G01*
X21596955Y-10636119D02*
G75*
G03*
X21596955Y-10636119I-87500J0D01*
G01*
X21736487Y-8659083D02*
G75*
G03*
X21736487Y-8659083I-87500J0D01*
G01*
X21749304Y-6708585D02*
G75*
G03*
X21749304Y-6708585I-87500J0D01*
G01*
X21838966Y-12534928D02*
G75*
G03*
X21838966Y-12534928I-87500J0D01*
G01*
X22278511Y-4651242D02*
G75*
G03*
X22278511Y-4651242I-87500J0D01*
G01*
X22590752Y-10424881D02*
G75*
G03*
X22590752Y-10424881I-87500J0D01*
G01*
X22604145Y-8475756D02*
G75*
G03*
X22604145Y-8475756I-87500J0D01*
G01*
X22743102Y-6497347D02*
G75*
G03*
X22743102Y-6497347I-87500J0D01*
G01*
X23272309Y-4440004D02*
G75*
G03*
X23272309Y-4440004I-87500J0D01*
G01*
X23462479Y-10242126D02*
G75*
G03*
X23462479Y-10242126I-87500J0D01*
G01*
X23597943Y-8264518D02*
G75*
G03*
X23597943Y-8264518I-87500J0D01*
G01*
X23611895Y-6314896D02*
G75*
G03*
X23611895Y-6314896I-87500J0D01*
G01*
X24138457Y-4254123D02*
G75*
G03*
X24138457Y-4254123I-87500J0D01*
G01*
X24456277Y-10030888D02*
G75*
G03*
X24456277Y-10030888I-87500J0D01*
G01*
X24469901Y-8081219D02*
G75*
G03*
X24469901Y-8081219I-87500J0D01*
G01*
X24605693Y-6103657D02*
G75*
G03*
X24605693Y-6103657I-87500J0D01*
G01*
X24788168Y-11910897D02*
G75*
G03*
X24788168Y-11910897I-87500J0D01*
G01*
X25132255Y-4042885D02*
G75*
G03*
X25132255Y-4042885I-87500J0D01*
G01*
X25324687Y-9844993D02*
G75*
G03*
X25324687Y-9844993I-87500J0D01*
G01*
X25463699Y-7869981D02*
G75*
G03*
X25463699Y-7869981I-87500J0D01*
G01*
X25474677Y-5917148D02*
G75*
G03*
X25474677Y-5917148I-87500J0D01*
G01*
X25781966Y-11699659D02*
G75*
G03*
X25781966Y-11699659I-87500J0D01*
G01*
X26137827Y-3720880D02*
G75*
G03*
X26137827Y-3720880I-87500J0D01*
G01*
X26318485Y-9633755D02*
G75*
G03*
X26318485Y-9633755I-87500J0D01*
G01*
X26468475Y-5705910D02*
G75*
G03*
X26468475Y-5705910I-87500J0D01*
G01*
X26503500Y-7683500D02*
G75*
G03*
X26503500Y-7683500I-87500J0D01*
G01*
X27153827Y-3720880D02*
G75*
G03*
X27153827Y-3720880I-87500J0D01*
G01*
X27456000Y-9588500D02*
G75*
G03*
X27456000Y-9588500I-87500J0D01*
G01*
X27506800Y-5778500D02*
G75*
G03*
X27506800Y-5778500I-87500J0D01*
G01*
X27519500Y-7683500D02*
G75*
G03*
X27519500Y-7683500I-87500J0D01*
G01*
X28040200Y-3873500D02*
G75*
G03*
X28040200Y-3873500I-87500J0D01*
G01*
X28408500Y-7683500D02*
G75*
G03*
X28408500Y-7683500I-87500J0D01*
G01*
X28472000Y-9588500D02*
G75*
G03*
X28472000Y-9588500I-87500J0D01*
G01*
X28522800Y-5778500D02*
G75*
G03*
X28522800Y-5778500I-87500J0D01*
G01*
X29056200Y-3873500D02*
G75*
G03*
X29056200Y-3873500I-87500J0D01*
G01*
X29411800Y-5778500D02*
G75*
G03*
X29411800Y-5778500I-87500J0D01*
G01*
X29424500Y-7683500D02*
G75*
G03*
X29424500Y-7683500I-87500J0D01*
G01*
X30072200Y-9588500D02*
G75*
G03*
X30072200Y-9588500I-87500J0D01*
G01*
X30427800Y-5778500D02*
G75*
G03*
X30427800Y-5778500I-87500J0D01*
G01*
X30897700Y-3873500D02*
G75*
G03*
X30897700Y-3873500I-87500J0D01*
G01*
X31088200Y-9588500D02*
G75*
G03*
X31088200Y-9588500I-87500J0D01*
G01*
X31266000Y-11963400D02*
G75*
G03*
X31266000Y-11963400I-87500J0D01*
G01*
X31507300Y-7683500D02*
G75*
G03*
X31507300Y-7683500I-87500J0D01*
G01*
X31793188Y-5777662D02*
G75*
G03*
X31793188Y-5777662I-87500J0D01*
G01*
X31913700Y-3873500D02*
G75*
G03*
X31913700Y-3873500I-87500J0D01*
G01*
X32282000Y-11963400D02*
G75*
G03*
X32282000Y-11963400I-87500J0D01*
G01*
X32523300Y-7683500D02*
G75*
G03*
X32523300Y-7683500I-87500J0D01*
G01*
X32809188Y-5777662D02*
G75*
G03*
X32809188Y-5777662I-87500J0D01*
G01*
X33171000Y-10071100D02*
G75*
G03*
X33171000Y-10071100I-87500J0D01*
G01*
X33171000Y-11963400D02*
G75*
G03*
X33171000Y-11963400I-87500J0D01*
G01*
X34187000Y-10071100D02*
G75*
G03*
X34187000Y-10071100I-87500J0D01*
G01*
X34187000Y-11963400D02*
G75*
G03*
X34187000Y-11963400I-87500J0D01*
G01*
X34237800Y-3390900D02*
G75*
G03*
X34237800Y-3390900I-87500J0D01*
G01*
X34656900Y-5295900D02*
G75*
G03*
X34656900Y-5295900I-87500J0D01*
G01*
X35076000Y-7200900D02*
G75*
G03*
X35076000Y-7200900I-87500J0D01*
G01*
X35076000Y-11963400D02*
G75*
G03*
X35076000Y-11963400I-87500J0D01*
G01*
X35253800Y-3390900D02*
G75*
G03*
X35253800Y-3390900I-87500J0D01*
G01*
X35672900Y-5295900D02*
G75*
G03*
X35672900Y-5295900I-87500J0D01*
G01*
X36092000Y-7200900D02*
G75*
G03*
X36092000Y-7200900I-87500J0D01*
G01*
X36092000Y-11963400D02*
G75*
G03*
X36092000Y-11963400I-87500J0D01*
G01*
D14*
X12776200Y-2648600D02*
X12776200Y-2888600D01*
X12656200Y-2768600D02*
X12896200Y-2768600D01*
X13322300Y-2648600D02*
X13322300Y-2888600D01*
X13202300Y-2768600D02*
X13442300Y-2768600D01*
X13868400Y-2648600D02*
X13868400Y-2888600D01*
X13748400Y-2768600D02*
X13988400Y-2768600D01*
D15*
X3700167Y-11345567D02*
X3700167Y-11133433D01*
X3488033Y-11133433D01*
X3488033Y-11345567D01*
X3700167Y-11345567D01*
X4335167Y-11091567D02*
X4335167Y-10879433D01*
X4123033Y-10879433D01*
X4123033Y-11091567D01*
X4335167Y-11091567D01*
X4347867Y-7535567D02*
X4347867Y-7323433D01*
X4135733Y-7323433D01*
X4135733Y-7535567D01*
X4347867Y-7535567D01*
X4411367Y-9440567D02*
X4411367Y-9228433D01*
X4199233Y-9228433D01*
X4199233Y-9440567D01*
X4411367Y-9440567D01*
X4462167Y-3725567D02*
X4462167Y-3513433D01*
X4250033Y-3513433D01*
X4250033Y-3725567D01*
X4462167Y-3725567D01*
X4512967Y-5630567D02*
X4512967Y-5418433D01*
X4300833Y-5418433D01*
X4300833Y-5630567D01*
X4512967Y-5630567D01*
X4982867Y-7281567D02*
X4982867Y-7069433D01*
X4770733Y-7069433D01*
X4770733Y-7281567D01*
X4982867Y-7281567D01*
X5046367Y-9186567D02*
X5046367Y-8974433D01*
X4834233Y-8974433D01*
X4834233Y-9186567D01*
X5046367Y-9186567D01*
X5097167Y-3471567D02*
X5097167Y-3259433D01*
X4885033Y-3259433D01*
X4885033Y-3471567D01*
X5097167Y-3471567D01*
X5147967Y-5376567D02*
X5147967Y-5164433D01*
X4935833Y-5164433D01*
X4935833Y-5376567D01*
X5147967Y-5376567D01*
X6367167Y-3725567D02*
X6367167Y-3513433D01*
X6155033Y-3513433D01*
X6155033Y-3725567D01*
X6367167Y-3725567D01*
X6900567Y-5630567D02*
X6900567Y-5418433D01*
X6688433Y-5418433D01*
X6688433Y-5630567D01*
X6900567Y-5630567D01*
X6964067Y-7535567D02*
X6964067Y-7323433D01*
X6751933Y-7323433D01*
X6751933Y-7535567D01*
X6964067Y-7535567D01*
X7002167Y-3471567D02*
X7002167Y-3259433D01*
X6790033Y-3259433D01*
X6790033Y-3471567D01*
X7002167Y-3471567D01*
X7510167Y-9440567D02*
X7510167Y-9228433D01*
X7298033Y-9228433D01*
X7298033Y-9440567D01*
X7510167Y-9440567D01*
X7535567Y-5376567D02*
X7535567Y-5164433D01*
X7323433Y-5164433D01*
X7323433Y-5376567D01*
X7535567Y-5376567D01*
X7599067Y-7281567D02*
X7599067Y-7069433D01*
X7386933Y-7069433D01*
X7386933Y-7281567D01*
X7599067Y-7281567D01*
X8145167Y-9186567D02*
X8145167Y-8974433D01*
X7933033Y-8974433D01*
X7933033Y-9186567D01*
X8145167Y-9186567D01*
X8272167Y-3573167D02*
X8272167Y-3361033D01*
X8060033Y-3361033D01*
X8060033Y-3573167D01*
X8272167Y-3573167D01*
X8907167Y-3319167D02*
X8907167Y-3107033D01*
X8695033Y-3107033D01*
X8695033Y-3319167D01*
X8907167Y-3319167D01*
X9005374Y-5584788D02*
X9005374Y-5372654D01*
X8793240Y-5372654D01*
X8793240Y-5584788D01*
X9005374Y-5584788D01*
X9085363Y-7548095D02*
X9085363Y-7335961D01*
X8873229Y-7335961D01*
X8873229Y-7548095D01*
X9085363Y-7548095D01*
X9612450Y-9610765D02*
X9612450Y-9398631D01*
X9400316Y-9398631D01*
X9400316Y-9610765D01*
X9612450Y-9610765D01*
X9679308Y-5468363D02*
X9679308Y-5256229D01*
X9467174Y-5256229D01*
X9467174Y-5468363D01*
X9679308Y-5468363D01*
X9687551Y-11576799D02*
X9687551Y-11364665D01*
X9475417Y-11364665D01*
X9475417Y-11576799D01*
X9687551Y-11576799D01*
X9759296Y-7431669D02*
X9759296Y-7219535D01*
X9547162Y-7219535D01*
X9547162Y-7431669D01*
X9759296Y-7431669D01*
X10286383Y-9494340D02*
X10286383Y-9282206D01*
X10074249Y-9282206D01*
X10074249Y-9494340D01*
X10286383Y-9494340D01*
X10339902Y-3918603D02*
X10339902Y-3706469D01*
X10127768Y-3706469D01*
X10127768Y-3918603D01*
X10339902Y-3918603D01*
X10361484Y-11460373D02*
X10361484Y-11248239D01*
X10149350Y-11248239D01*
X10149350Y-11460373D01*
X10361484Y-11460373D01*
X10875180Y-5979920D02*
X10875180Y-5767786D01*
X10663046Y-5767786D01*
X10663046Y-5979920D01*
X10875180Y-5979920D01*
X10949802Y-7945480D02*
X10949802Y-7733346D01*
X10737668Y-7733346D01*
X10737668Y-7945480D01*
X10949802Y-7945480D01*
X11013836Y-3802178D02*
X11013836Y-3590044D01*
X10801702Y-3590044D01*
X10801702Y-3802178D01*
X11013836Y-3802178D01*
X11473879Y-10007727D02*
X11473879Y-9795593D01*
X11261745Y-9795593D01*
X11261745Y-10007727D01*
X11473879Y-10007727D01*
X11549113Y-5863495D02*
X11549113Y-5651361D01*
X11336979Y-5651361D01*
X11336979Y-5863495D01*
X11549113Y-5863495D01*
X11623735Y-7829055D02*
X11623735Y-7616921D01*
X11411601Y-7616921D01*
X11411601Y-7829055D01*
X11623735Y-7829055D01*
X12147812Y-9891302D02*
X12147812Y-9679168D01*
X11935678Y-9679168D01*
X11935678Y-9891302D01*
X12147812Y-9891302D01*
X12205337Y-4314397D02*
X12205337Y-4102263D01*
X11993203Y-4102263D01*
X11993203Y-4314397D01*
X12205337Y-4314397D01*
X12739780Y-6377154D02*
X12739780Y-6165020D01*
X12527646Y-6165020D01*
X12527646Y-6377154D01*
X12739780Y-6377154D01*
X12814285Y-8342218D02*
X12814285Y-8130084D01*
X12602151Y-8130084D01*
X12602151Y-8342218D01*
X12814285Y-8342218D01*
X12879270Y-4197971D02*
X12879270Y-3985837D01*
X12667136Y-3985837D01*
X12667136Y-4197971D01*
X12879270Y-4197971D01*
X12951756Y-12268800D02*
X12951756Y-12056666D01*
X12739622Y-12056666D01*
X12739622Y-12268800D01*
X12951756Y-12268800D01*
X13337989Y-10402007D02*
X13337989Y-10189873D01*
X13125855Y-10189873D01*
X13125855Y-10402007D01*
X13337989Y-10402007D01*
X13413713Y-6260728D02*
X13413713Y-6048594D01*
X13201579Y-6048594D01*
X13201579Y-6260728D01*
X13413713Y-6260728D01*
X13488218Y-8225793D02*
X13488218Y-8013659D01*
X13276084Y-8013659D01*
X13276084Y-8225793D01*
X13488218Y-8225793D01*
X13625690Y-12152374D02*
X13625690Y-11940240D01*
X13413556Y-11940240D01*
X13413556Y-12152374D01*
X13625690Y-12152374D01*
X14011923Y-10285581D02*
X14011923Y-10073447D01*
X13799789Y-10073447D01*
X13799789Y-10285581D01*
X14011923Y-10285581D01*
X14067503Y-4709329D02*
X14067503Y-4497195D01*
X13855369Y-4497195D01*
X13855369Y-4709329D01*
X14067503Y-4709329D01*
X14604263Y-6773892D02*
X14604263Y-6561758D01*
X14392129Y-6561758D01*
X14392129Y-6773892D01*
X14604263Y-6773892D01*
X14678768Y-8740819D02*
X14678768Y-8528685D01*
X14466634Y-8528685D01*
X14466634Y-8740819D01*
X14678768Y-8740819D01*
X14741436Y-4592903D02*
X14741436Y-4380769D01*
X14529302Y-4380769D01*
X14529302Y-4592903D01*
X14741436Y-4592903D01*
X15204782Y-10796286D02*
X15204782Y-10584152D01*
X14992648Y-10584152D01*
X14992648Y-10796286D01*
X15204782Y-10796286D01*
X15278197Y-6657466D02*
X15278197Y-6445332D01*
X15066063Y-6445332D01*
X15066063Y-6657466D01*
X15278197Y-6657466D01*
X15352702Y-8624394D02*
X15352702Y-8412260D01*
X15140568Y-8412260D01*
X15140568Y-8624394D01*
X15352702Y-8624394D01*
X15749264Y-12861560D02*
X15749264Y-12649426D01*
X15537130Y-12649426D01*
X15537130Y-12861560D01*
X15749264Y-12861560D01*
X15878716Y-10679861D02*
X15878716Y-10467727D01*
X15666582Y-10467727D01*
X15666582Y-10679861D01*
X15878716Y-10679861D01*
X15932495Y-5104866D02*
X15932495Y-4892732D01*
X15720361Y-4892732D01*
X15720361Y-5104866D01*
X15932495Y-5104866D01*
X16423197Y-12745134D02*
X16423197Y-12533000D01*
X16211063Y-12533000D01*
X16211063Y-12745134D01*
X16423197Y-12745134D01*
X16606428Y-4988441D02*
X16606428Y-4776307D01*
X16394294Y-4776307D01*
X16394294Y-4988441D01*
X16606428Y-4988441D01*
X18111469Y-7334939D02*
X18111469Y-7122805D01*
X17899335Y-7122805D01*
X17899335Y-7334939D01*
X18111469Y-7334939D01*
X18645138Y-5273530D02*
X18645138Y-5061396D01*
X18433004Y-5061396D01*
X18433004Y-5273530D01*
X18645138Y-5273530D01*
X18679784Y-6954465D02*
X18679784Y-6742331D01*
X18467650Y-6742331D01*
X18467650Y-6954465D01*
X18679784Y-6954465D01*
X18968185Y-9098696D02*
X18968185Y-8886562D01*
X18756051Y-8886562D01*
X18756051Y-9098696D01*
X18968185Y-9098696D01*
X19213453Y-4893056D02*
X19213453Y-4680922D01*
X19001319Y-4680922D01*
X19001319Y-4893056D01*
X19213453Y-4893056D01*
X19536499Y-8718222D02*
X19536499Y-8506088D01*
X19324365Y-8506088D01*
X19324365Y-8718222D01*
X19536499Y-8718222D01*
X19824704Y-10862410D02*
X19824704Y-10650276D01*
X19612570Y-10650276D01*
X19612570Y-10862410D01*
X19824704Y-10862410D01*
X19976929Y-6938160D02*
X19976929Y-6726026D01*
X19764795Y-6726026D01*
X19764795Y-6938160D01*
X19976929Y-6938160D01*
X20393019Y-10481937D02*
X20393019Y-10269803D01*
X20180885Y-10269803D01*
X20180885Y-10481937D01*
X20393019Y-10481937D01*
X20507921Y-4877992D02*
X20507921Y-4665858D01*
X20295787Y-4665858D01*
X20295787Y-4877992D01*
X20507921Y-4877992D01*
X20545243Y-6557686D02*
X20545243Y-6345552D01*
X20333109Y-6345552D01*
X20333109Y-6557686D01*
X20545243Y-6557686D01*
X20832671Y-8701534D02*
X20832671Y-8489400D01*
X20620537Y-8489400D01*
X20620537Y-8701534D01*
X20832671Y-8701534D01*
X20935150Y-12577379D02*
X20935150Y-12365245D01*
X20723016Y-12365245D01*
X20723016Y-12577379D01*
X20935150Y-12577379D01*
X21076235Y-4497519D02*
X21076235Y-4285385D01*
X20864101Y-4285385D01*
X20864101Y-4497519D01*
X21076235Y-4497519D01*
X21400985Y-8321061D02*
X21400985Y-8108927D01*
X21188851Y-8108927D01*
X21188851Y-8321061D01*
X21400985Y-8321061D01*
X21503464Y-12196905D02*
X21503464Y-11984771D01*
X21291330Y-11984771D01*
X21291330Y-12196905D01*
X21503464Y-12196905D01*
X21686937Y-10467332D02*
X21686937Y-10255198D01*
X21474803Y-10255198D01*
X21474803Y-10467332D01*
X21686937Y-10467332D01*
X21839287Y-6539798D02*
X21839287Y-6327664D01*
X21627153Y-6327664D01*
X21627153Y-6539798D01*
X21839287Y-6539798D01*
X22255251Y-10086859D02*
X22255251Y-9874725D01*
X22043117Y-9874725D01*
X22043117Y-10086859D01*
X22255251Y-10086859D01*
X22368493Y-4482455D02*
X22368493Y-4270321D01*
X22156359Y-4270321D01*
X22156359Y-4482455D01*
X22368493Y-4482455D01*
X22407601Y-6159324D02*
X22407601Y-5947190D01*
X22195467Y-5947190D01*
X22195467Y-6159324D01*
X22407601Y-6159324D01*
X22694128Y-8306969D02*
X22694128Y-8094835D01*
X22481994Y-8094835D01*
X22481994Y-8306969D01*
X22694128Y-8306969D01*
X22936808Y-4101981D02*
X22936808Y-3889847D01*
X22724674Y-3889847D01*
X22724674Y-4101981D01*
X22936808Y-4101981D01*
X23262442Y-7926496D02*
X23262442Y-7714362D01*
X23050308Y-7714362D01*
X23050308Y-7926496D01*
X23262442Y-7926496D01*
X23552462Y-10073339D02*
X23552462Y-9861205D01*
X23340328Y-9861205D01*
X23340328Y-10073339D01*
X23552462Y-10073339D01*
X23701877Y-6146108D02*
X23701877Y-5933974D01*
X23489743Y-5933974D01*
X23489743Y-6146108D01*
X23701877Y-6146108D01*
X24120776Y-9692865D02*
X24120776Y-9480731D01*
X23908642Y-9480731D01*
X23908642Y-9692865D01*
X24120776Y-9692865D01*
X24228439Y-4085336D02*
X24228439Y-3873202D01*
X24016305Y-3873202D01*
X24016305Y-4085336D01*
X24228439Y-4085336D01*
X24270191Y-5765635D02*
X24270191Y-5553501D01*
X24058057Y-5553501D01*
X24058057Y-5765635D01*
X24270191Y-5765635D01*
X24559883Y-7912432D02*
X24559883Y-7700298D01*
X24347749Y-7700298D01*
X24347749Y-7912432D01*
X24559883Y-7912432D01*
X24796753Y-3704862D02*
X24796753Y-3492728D01*
X24584619Y-3492728D01*
X24584619Y-3704862D01*
X24796753Y-3704862D01*
X24878150Y-11742110D02*
X24878150Y-11529976D01*
X24666016Y-11529976D01*
X24666016Y-11742110D01*
X24878150Y-11742110D01*
X25128197Y-7531958D02*
X25128197Y-7319824D01*
X24916063Y-7319824D01*
X24916063Y-7531958D01*
X25128197Y-7531958D01*
X25414669Y-9676206D02*
X25414669Y-9464072D01*
X25202535Y-9464072D01*
X25202535Y-9676206D01*
X25414669Y-9676206D01*
X25446464Y-11361636D02*
X25446464Y-11149503D01*
X25234330Y-11149503D01*
X25234330Y-11361636D01*
X25446464Y-11361636D01*
X25564659Y-5748361D02*
X25564659Y-5536227D01*
X25352525Y-5536227D01*
X25352525Y-5748361D01*
X25564659Y-5748361D01*
X25982984Y-9295733D02*
X25982984Y-9083599D01*
X25770850Y-9083599D01*
X25770850Y-9295733D01*
X25982984Y-9295733D01*
X26132973Y-5367888D02*
X26132973Y-5155754D01*
X25920839Y-5155754D01*
X25920839Y-5367888D01*
X26132973Y-5367888D01*
X26283394Y-3572947D02*
X26283394Y-3360813D01*
X26071260Y-3360813D01*
X26071260Y-3572947D01*
X26283394Y-3572947D01*
X26649067Y-7535567D02*
X26649067Y-7323433D01*
X26436933Y-7323433D01*
X26436933Y-7535567D01*
X26649067Y-7535567D01*
X26918394Y-3318947D02*
X26918394Y-3106813D01*
X26706260Y-3106813D01*
X26706260Y-3318947D01*
X26918394Y-3318947D01*
X27284067Y-7281567D02*
X27284067Y-7069433D01*
X27071933Y-7069433D01*
X27071933Y-7281567D01*
X27284067Y-7281567D01*
X27601567Y-9440567D02*
X27601567Y-9228433D01*
X27389433Y-9228433D01*
X27389433Y-9440567D01*
X27601567Y-9440567D01*
X27652367Y-5630567D02*
X27652367Y-5418433D01*
X27440233Y-5418433D01*
X27440233Y-5630567D01*
X27652367Y-5630567D01*
X28185767Y-3725567D02*
X28185767Y-3513433D01*
X27973633Y-3513433D01*
X27973633Y-3725567D01*
X28185767Y-3725567D01*
X28236567Y-9186567D02*
X28236567Y-8974433D01*
X28024433Y-8974433D01*
X28024433Y-9186567D01*
X28236567Y-9186567D01*
X28287367Y-5376567D02*
X28287367Y-5164433D01*
X28075233Y-5164433D01*
X28075233Y-5376567D01*
X28287367Y-5376567D01*
X28554067Y-7535567D02*
X28554067Y-7323433D01*
X28341933Y-7323433D01*
X28341933Y-7535567D01*
X28554067Y-7535567D01*
X28820767Y-3471567D02*
X28820767Y-3259433D01*
X28608633Y-3259433D01*
X28608633Y-3471567D01*
X28820767Y-3471567D01*
X29189067Y-7281567D02*
X29189067Y-7069433D01*
X28976933Y-7069433D01*
X28976933Y-7281567D01*
X29189067Y-7281567D01*
X29557367Y-5630567D02*
X29557367Y-5418433D01*
X29345233Y-5418433D01*
X29345233Y-5630567D01*
X29557367Y-5630567D01*
X30192367Y-5376567D02*
X30192367Y-5164433D01*
X29980233Y-5164433D01*
X29980233Y-5376567D01*
X30192367Y-5376567D01*
X30217767Y-9440567D02*
X30217767Y-9228433D01*
X30005633Y-9228433D01*
X30005633Y-9440567D01*
X30217767Y-9440567D01*
X30852767Y-9186567D02*
X30852767Y-8974433D01*
X30640633Y-8974433D01*
X30640633Y-9186567D01*
X30852767Y-9186567D01*
X31043267Y-3725567D02*
X31043267Y-3513433D01*
X30831133Y-3513433D01*
X30831133Y-3725567D01*
X31043267Y-3725567D01*
X31411567Y-11815467D02*
X31411567Y-11603333D01*
X31199433Y-11603333D01*
X31199433Y-11815467D01*
X31411567Y-11815467D01*
X31652867Y-7535567D02*
X31652867Y-7323433D01*
X31440733Y-7323433D01*
X31440733Y-7535567D01*
X31652867Y-7535567D01*
X31678267Y-3471567D02*
X31678267Y-3259433D01*
X31466133Y-3259433D01*
X31466133Y-3471567D01*
X31678267Y-3471567D01*
X31938755Y-5629729D02*
X31938755Y-5417596D01*
X31726621Y-5417596D01*
X31726621Y-5629729D01*
X31938755Y-5629729D01*
X32046567Y-11561467D02*
X32046567Y-11349333D01*
X31834433Y-11349333D01*
X31834433Y-11561467D01*
X32046567Y-11561467D01*
X32287867Y-7281567D02*
X32287867Y-7069433D01*
X32075733Y-7069433D01*
X32075733Y-7281567D01*
X32287867Y-7281567D01*
X32573755Y-5375730D02*
X32573755Y-5163596D01*
X32361621Y-5163596D01*
X32361621Y-5375730D01*
X32573755Y-5375730D01*
X33316567Y-9923167D02*
X33316567Y-9711033D01*
X33104433Y-9711033D01*
X33104433Y-9923167D01*
X33316567Y-9923167D01*
X33316567Y-11815467D02*
X33316567Y-11603333D01*
X33104433Y-11603333D01*
X33104433Y-11815467D01*
X33316567Y-11815467D01*
X33951567Y-9669167D02*
X33951567Y-9457033D01*
X33739433Y-9457033D01*
X33739433Y-9669167D01*
X33951567Y-9669167D01*
X33951567Y-11561467D02*
X33951567Y-11349333D01*
X33739433Y-11349333D01*
X33739433Y-11561467D01*
X33951567Y-11561467D01*
X34383367Y-3242967D02*
X34383367Y-3030833D01*
X34171233Y-3030833D01*
X34171233Y-3242967D01*
X34383367Y-3242967D01*
X34802467Y-5147967D02*
X34802467Y-4935833D01*
X34590333Y-4935833D01*
X34590333Y-5147967D01*
X34802467Y-5147967D01*
X35018367Y-2988967D02*
X35018367Y-2776833D01*
X34806233Y-2776833D01*
X34806233Y-2988967D01*
X35018367Y-2988967D01*
X35221567Y-7052967D02*
X35221567Y-6840833D01*
X35009433Y-6840833D01*
X35009433Y-7052967D01*
X35221567Y-7052967D01*
X35221567Y-11815467D02*
X35221567Y-11603333D01*
X35009433Y-11603333D01*
X35009433Y-11815467D01*
X35221567Y-11815467D01*
X35437467Y-4893967D02*
X35437467Y-4681833D01*
X35225333Y-4681833D01*
X35225333Y-4893967D01*
X35437467Y-4893967D01*
X35856567Y-6798967D02*
X35856567Y-6586833D01*
X35644433Y-6586833D01*
X35644433Y-6798967D01*
X35856567Y-6798967D01*
X35856567Y-11561467D02*
X35856567Y-11349333D01*
X35644433Y-11349333D01*
X35644433Y-11561467D01*
X35856567Y-11561467D01*
D16*
X3492500Y-9042400D02*
X3644900Y-8890000D01*
X3492500Y-8737600D01*
X3340100Y-8890000D01*
X3492500Y-9042400D01*
X5880100Y-9042400D02*
X6032500Y-8890000D01*
X5880100Y-8737600D01*
X5727700Y-8890000D01*
X5880100Y-9042400D01*
X11852615Y-13077827D02*
X12005015Y-12925427D01*
X11852615Y-12773027D01*
X11700215Y-12925427D01*
X11852615Y-13077827D01*
X14188040Y-13574237D02*
X14340440Y-13421837D01*
X14188040Y-13269437D01*
X14035640Y-13421837D01*
X14188040Y-13574237D01*
X20232081Y-13724388D02*
X20384481Y-13571988D01*
X20232081Y-13419588D01*
X20079681Y-13571988D01*
X20232081Y-13724388D01*
X22567506Y-13227978D02*
X22719906Y-13075578D01*
X22567506Y-12923178D01*
X22415106Y-13075578D01*
X22567506Y-13227978D01*
X30124400Y-3302000D02*
X30276800Y-3149600D01*
X30124400Y-2997200D01*
X29972000Y-3149600D01*
X30124400Y-3302000D01*
X30734000Y-8534400D02*
X30886400Y-8382000D01*
X30734000Y-8229600D01*
X30581600Y-8382000D01*
X30734000Y-8534400D01*
X32512000Y-3302000D02*
X32664400Y-3149600D01*
X32512000Y-2997200D01*
X32359600Y-3149600D01*
X32512000Y-3302000D01*
X33121600Y-8534400D02*
X33274000Y-8382000D01*
X33121600Y-8229600D01*
X32969200Y-8382000D01*
X33121600Y-8534400D01*
D17*
X3293110Y-10214610D02*
X3691890Y-10613390D01*
X3691890Y-10214610D02*
X3293110Y-10613390D01*
X3691890Y-10414000D02*
G75*
G03*
X3691890Y-10414000I-199390J0D01*
G01*
X5680710Y-10214610D02*
X6079490Y-10613390D01*
X6079490Y-10214610D02*
X5680710Y-10613390D01*
X6079490Y-10414000D02*
G75*
G03*
X6079490Y-10414000I-199390J0D01*
G01*
X11970083Y-11235341D02*
X12368863Y-11634121D01*
X12368863Y-11235341D02*
X11970083Y-11634121D01*
X12368863Y-11434731D02*
G75*
G03*
X12368863Y-11434731I-199390J0D01*
G01*
X14305508Y-11731750D02*
X14704288Y-12130530D01*
X14704288Y-11731750D02*
X14305508Y-12130530D01*
X14704288Y-11931140D02*
G75*
G03*
X14704288Y-11931140I-199390J0D01*
G01*
X19715833Y-11881901D02*
X20114613Y-12280681D01*
X20114613Y-11881901D02*
X19715833Y-12280681D01*
X20114613Y-12081291D02*
G75*
G03*
X20114613Y-12081291I-199390J0D01*
G01*
X22051259Y-11385491D02*
X22450038Y-11784271D01*
X22450038Y-11385491D02*
X22051259Y-11784271D01*
X22450038Y-11584881D02*
G75*
G03*
X22450038Y-11584881I-199390J0D01*
G01*
X29925010Y-4474210D02*
X30323790Y-4872990D01*
X30323790Y-4474210D02*
X29925010Y-4872990D01*
X30323790Y-4673600D02*
G75*
G03*
X30323790Y-4673600I-199390J0D01*
G01*
X30534610Y-6658610D02*
X30933390Y-7057390D01*
X30933390Y-6658610D02*
X30534610Y-7057390D01*
X30933390Y-6858000D02*
G75*
G03*
X30933390Y-6858000I-199390J0D01*
G01*
X32312610Y-4474210D02*
X32711390Y-4872990D01*
X32711390Y-4474210D02*
X32312610Y-4872990D01*
X32711390Y-4673600D02*
G75*
G03*
X32711390Y-4673600I-199390J0D01*
G01*
X32922210Y-6658610D02*
X33320990Y-7057390D01*
X33320990Y-6658610D02*
X32922210Y-7057390D01*
X33320990Y-6858000D02*
G75*
G03*
X33320990Y-6858000I-199390J0D01*
G01*
D18*
X3775100Y-11293500D02*
X4175100Y-11693500D01*
X4175100Y-11293500D02*
X3775100Y-11693500D01*
X3975100Y-11293500D02*
X3975100Y-11693500D01*
X3775100Y-11493500D02*
X4175100Y-11493500D01*
X4422800Y-7483500D02*
X4822800Y-7883500D01*
X4822800Y-7483500D02*
X4422800Y-7883500D01*
X4622800Y-7483500D02*
X4622800Y-7883500D01*
X4422800Y-7683500D02*
X4822800Y-7683500D01*
X4486300Y-9388500D02*
X4886300Y-9788500D01*
X4886300Y-9388500D02*
X4486300Y-9788500D01*
X4686300Y-9388500D02*
X4686300Y-9788500D01*
X4486300Y-9588500D02*
X4886300Y-9588500D01*
X4537100Y-3673500D02*
X4937100Y-4073500D01*
X4937100Y-3673500D02*
X4537100Y-4073500D01*
X4737100Y-3673500D02*
X4737100Y-4073500D01*
X4537100Y-3873500D02*
X4937100Y-3873500D01*
X4587900Y-5578500D02*
X4987900Y-5978500D01*
X4987900Y-5578500D02*
X4587900Y-5978500D01*
X4787900Y-5578500D02*
X4787900Y-5978500D01*
X4587900Y-5778500D02*
X4987900Y-5778500D01*
X6442100Y-3673500D02*
X6842100Y-4073500D01*
X6842100Y-3673500D02*
X6442100Y-4073500D01*
X6642100Y-3673500D02*
X6642100Y-4073500D01*
X6442100Y-3873500D02*
X6842100Y-3873500D01*
X6975500Y-5578500D02*
X7375500Y-5978500D01*
X7375500Y-5578500D02*
X6975500Y-5978500D01*
X7175500Y-5578500D02*
X7175500Y-5978500D01*
X6975500Y-5778500D02*
X7375500Y-5778500D01*
X7039000Y-7483500D02*
X7439000Y-7883500D01*
X7439000Y-7483500D02*
X7039000Y-7883500D01*
X7239000Y-7483500D02*
X7239000Y-7883500D01*
X7039000Y-7683500D02*
X7439000Y-7683500D01*
X7585100Y-9388500D02*
X7985100Y-9788500D01*
X7985100Y-9388500D02*
X7585100Y-9788500D01*
X7785100Y-9388500D02*
X7785100Y-9788500D01*
X7585100Y-9588500D02*
X7985100Y-9588500D01*
X8347100Y-3521100D02*
X8747100Y-3921100D01*
X8747100Y-3521100D02*
X8347100Y-3921100D01*
X8547100Y-3521100D02*
X8547100Y-3921100D01*
X8347100Y-3721100D02*
X8747100Y-3721100D01*
X9019172Y-5606385D02*
X9419172Y-6006385D01*
X9419172Y-5606385D02*
X9019172Y-6006385D01*
X9219172Y-5606385D02*
X9219172Y-6006385D01*
X9019172Y-5806385D02*
X9419172Y-5806385D01*
X9099161Y-7569692D02*
X9499161Y-7969692D01*
X9499161Y-7569692D02*
X9099161Y-7969692D01*
X9299161Y-7569692D02*
X9299161Y-7969692D01*
X9099161Y-7769692D02*
X9499161Y-7769692D01*
X9626248Y-9632362D02*
X10026248Y-10032362D01*
X10026248Y-9632362D02*
X9626248Y-10032362D01*
X9826248Y-9632362D02*
X9826248Y-10032362D01*
X9626248Y-9832362D02*
X10026248Y-9832362D01*
X9701349Y-11598396D02*
X10101349Y-11998396D01*
X10101349Y-11598396D02*
X9701349Y-11998396D01*
X9901349Y-11598396D02*
X9901349Y-11998396D01*
X9701349Y-11798396D02*
X10101349Y-11798396D01*
X10353700Y-3940200D02*
X10753700Y-4340200D01*
X10753700Y-3940200D02*
X10353700Y-4340200D01*
X10553700Y-3940200D02*
X10553700Y-4340200D01*
X10353700Y-4140200D02*
X10753700Y-4140200D01*
X10888978Y-6001517D02*
X11288978Y-6401517D01*
X11288978Y-6001517D02*
X10888978Y-6401517D01*
X11088978Y-6001517D02*
X11088978Y-6401517D01*
X10888978Y-6201517D02*
X11288978Y-6201517D01*
X10963599Y-7967077D02*
X11363599Y-8367077D01*
X11363599Y-7967077D02*
X10963599Y-8367077D01*
X11163599Y-7967077D02*
X11163599Y-8367077D01*
X10963599Y-8167077D02*
X11363599Y-8167077D01*
X11487676Y-10029324D02*
X11887676Y-10429324D01*
X11887676Y-10029324D02*
X11487676Y-10429324D01*
X11687676Y-10029324D02*
X11687676Y-10429324D01*
X11487676Y-10229324D02*
X11887676Y-10229324D01*
X12219134Y-4335993D02*
X12619134Y-4735993D01*
X12619134Y-4335993D02*
X12219134Y-4735993D01*
X12419134Y-4335993D02*
X12419134Y-4735993D01*
X12219134Y-4535993D02*
X12619134Y-4535993D01*
X12753578Y-6398750D02*
X13153578Y-6798750D01*
X13153578Y-6398750D02*
X12753578Y-6798750D01*
X12953578Y-6398750D02*
X12953578Y-6798750D01*
X12753578Y-6598750D02*
X13153578Y-6598750D01*
X12828083Y-8363815D02*
X13228083Y-8763815D01*
X13228083Y-8363815D02*
X12828083Y-8763815D01*
X13028083Y-8363815D02*
X13028083Y-8763815D01*
X12828083Y-8563815D02*
X13228083Y-8563815D01*
X12965554Y-12290396D02*
X13365554Y-12690396D01*
X13365554Y-12290396D02*
X12965554Y-12690396D01*
X13165554Y-12290396D02*
X13165554Y-12690396D01*
X12965554Y-12490396D02*
X13365554Y-12490396D01*
X13351787Y-10423604D02*
X13751787Y-10823604D01*
X13751787Y-10423604D02*
X13351787Y-10823604D01*
X13551787Y-10423604D02*
X13551787Y-10823604D01*
X13351787Y-10623604D02*
X13751787Y-10623604D01*
X14081300Y-4730926D02*
X14481300Y-5130926D01*
X14481300Y-4730926D02*
X14081300Y-5130926D01*
X14281300Y-4730926D02*
X14281300Y-5130926D01*
X14081300Y-4930926D02*
X14481300Y-4930926D01*
X14618061Y-6795489D02*
X15018061Y-7195489D01*
X15018061Y-6795489D02*
X14618061Y-7195489D01*
X14818061Y-6795489D02*
X14818061Y-7195489D01*
X14618061Y-6995489D02*
X15018061Y-6995489D01*
X14692566Y-8762416D02*
X15092566Y-9162416D01*
X15092566Y-8762416D02*
X14692566Y-9162416D01*
X14892566Y-8762416D02*
X14892566Y-9162416D01*
X14692566Y-8962416D02*
X15092566Y-8962416D01*
X15218580Y-10817883D02*
X15618580Y-11217883D01*
X15618580Y-10817883D02*
X15218580Y-11217883D01*
X15418580Y-10817883D02*
X15418580Y-11217883D01*
X15218580Y-11017883D02*
X15618580Y-11017883D01*
X15763061Y-12883157D02*
X16163061Y-13283157D01*
X16163061Y-12883157D02*
X15763061Y-13283157D01*
X15963061Y-12883157D02*
X15963061Y-13283157D01*
X15763061Y-13083157D02*
X16163061Y-13083157D01*
X15946293Y-5126463D02*
X16346293Y-5526463D01*
X16346293Y-5126463D02*
X15946293Y-5526463D01*
X16146293Y-5126463D02*
X16146293Y-5526463D01*
X15946293Y-5326463D02*
X16346293Y-5326463D01*
X18230886Y-7198107D02*
X18630886Y-7598107D01*
X18630886Y-7198107D02*
X18230886Y-7598107D01*
X18430886Y-7198107D02*
X18430886Y-7598107D01*
X18230886Y-7398107D02*
X18630886Y-7398107D01*
X18764555Y-5136698D02*
X19164555Y-5536698D01*
X19164555Y-5136698D02*
X18764555Y-5536698D01*
X18964555Y-5136698D02*
X18964555Y-5536698D01*
X18764555Y-5336698D02*
X19164555Y-5336698D01*
X19087602Y-8961864D02*
X19487602Y-9361864D01*
X19487602Y-8961864D02*
X19087602Y-9361864D01*
X19287602Y-8961864D02*
X19287602Y-9361864D01*
X19087602Y-9161864D02*
X19487602Y-9161864D01*
X19944121Y-10725578D02*
X20344121Y-11125578D01*
X20344121Y-10725578D02*
X19944121Y-11125578D01*
X20144121Y-10725578D02*
X20144121Y-11125578D01*
X19944121Y-10925578D02*
X20344121Y-10925578D01*
X20096346Y-6801328D02*
X20496346Y-7201328D01*
X20496346Y-6801328D02*
X20096346Y-7201328D01*
X20296346Y-6801328D02*
X20296346Y-7201328D01*
X20096346Y-7001328D02*
X20496346Y-7001328D01*
X20627338Y-4741160D02*
X21027338Y-5141160D01*
X21027338Y-4741160D02*
X20627338Y-5141160D01*
X20827338Y-4741160D02*
X20827338Y-5141160D01*
X20627338Y-4941160D02*
X21027338Y-4941160D01*
X20952088Y-8564702D02*
X21352088Y-8964702D01*
X21352088Y-8564702D02*
X20952088Y-8964702D01*
X21152088Y-8564702D02*
X21152088Y-8964702D01*
X20952088Y-8764702D02*
X21352088Y-8764702D01*
X21054567Y-12440547D02*
X21454567Y-12840547D01*
X21454567Y-12440547D02*
X21054567Y-12840547D01*
X21254567Y-12440547D02*
X21254567Y-12840547D01*
X21054567Y-12640547D02*
X21454567Y-12640547D01*
X21806354Y-10330500D02*
X22206354Y-10730500D01*
X22206354Y-10330500D02*
X21806354Y-10730500D01*
X22006354Y-10330500D02*
X22006354Y-10730500D01*
X21806354Y-10530500D02*
X22206354Y-10530500D01*
X21958703Y-6402966D02*
X22358703Y-6802966D01*
X22358703Y-6402966D02*
X21958703Y-6802966D01*
X22158703Y-6402966D02*
X22158703Y-6802966D01*
X21958703Y-6602966D02*
X22358703Y-6602966D01*
X22487910Y-4345623D02*
X22887910Y-4745623D01*
X22887910Y-4345623D02*
X22487910Y-4745623D01*
X22687910Y-4345623D02*
X22687910Y-4745623D01*
X22487910Y-4545623D02*
X22887910Y-4545623D01*
X22813544Y-8170137D02*
X23213544Y-8570137D01*
X23213544Y-8170137D02*
X22813544Y-8570137D01*
X23013544Y-8170137D02*
X23013544Y-8570137D01*
X22813544Y-8370137D02*
X23213544Y-8370137D01*
X23671878Y-9936507D02*
X24071878Y-10336507D01*
X24071878Y-9936507D02*
X23671878Y-10336507D01*
X23871878Y-9936507D02*
X23871878Y-10336507D01*
X23671878Y-10136507D02*
X24071878Y-10136507D01*
X23821294Y-6009276D02*
X24221294Y-6409276D01*
X24221294Y-6009276D02*
X23821294Y-6409276D01*
X24021294Y-6009276D02*
X24021294Y-6409276D01*
X23821294Y-6209276D02*
X24221294Y-6209276D01*
X24347856Y-3948504D02*
X24747856Y-4348504D01*
X24747856Y-3948504D02*
X24347856Y-4348504D01*
X24547856Y-3948504D02*
X24547856Y-4348504D01*
X24347856Y-4148504D02*
X24747856Y-4148504D01*
X24679300Y-7775600D02*
X25079300Y-8175600D01*
X25079300Y-7775600D02*
X24679300Y-8175600D01*
X24879300Y-7775600D02*
X24879300Y-8175600D01*
X24679300Y-7975600D02*
X25079300Y-7975600D01*
X24997567Y-11605278D02*
X25397567Y-12005278D01*
X25397567Y-11605278D02*
X24997567Y-12005278D01*
X25197567Y-11605278D02*
X25197567Y-12005278D01*
X24997567Y-11805278D02*
X25397567Y-11805278D01*
X25534086Y-9539374D02*
X25934086Y-9939374D01*
X25934086Y-9539374D02*
X25534086Y-9939374D01*
X25734086Y-9539374D02*
X25734086Y-9939374D01*
X25534086Y-9739374D02*
X25934086Y-9739374D01*
X25684076Y-5611529D02*
X26084076Y-6011529D01*
X26084076Y-5611529D02*
X25684076Y-6011529D01*
X25884076Y-5611529D02*
X25884076Y-6011529D01*
X25684076Y-5811529D02*
X26084076Y-5811529D01*
X26358327Y-3520880D02*
X26758327Y-3920880D01*
X26758327Y-3520880D02*
X26358327Y-3920880D01*
X26558327Y-3520880D02*
X26558327Y-3920880D01*
X26358327Y-3720880D02*
X26758327Y-3720880D01*
X26724000Y-7483500D02*
X27124000Y-7883500D01*
X27124000Y-7483500D02*
X26724000Y-7883500D01*
X26924000Y-7483500D02*
X26924000Y-7883500D01*
X26724000Y-7683500D02*
X27124000Y-7683500D01*
X27676500Y-9388500D02*
X28076500Y-9788500D01*
X28076500Y-9388500D02*
X27676500Y-9788500D01*
X27876500Y-9388500D02*
X27876500Y-9788500D01*
X27676500Y-9588500D02*
X28076500Y-9588500D01*
X27727300Y-5578500D02*
X28127300Y-5978500D01*
X28127300Y-5578500D02*
X27727300Y-5978500D01*
X27927300Y-5578500D02*
X27927300Y-5978500D01*
X27727300Y-5778500D02*
X28127300Y-5778500D01*
X28260700Y-3673500D02*
X28660700Y-4073500D01*
X28660700Y-3673500D02*
X28260700Y-4073500D01*
X28460700Y-3673500D02*
X28460700Y-4073500D01*
X28260700Y-3873500D02*
X28660700Y-3873500D01*
X28629000Y-7483500D02*
X29029000Y-7883500D01*
X29029000Y-7483500D02*
X28629000Y-7883500D01*
X28829000Y-7483500D02*
X28829000Y-7883500D01*
X28629000Y-7683500D02*
X29029000Y-7683500D01*
X29632300Y-5578500D02*
X30032300Y-5978500D01*
X30032300Y-5578500D02*
X29632300Y-5978500D01*
X29832300Y-5578500D02*
X29832300Y-5978500D01*
X29632300Y-5778500D02*
X30032300Y-5778500D01*
X30292700Y-9388500D02*
X30692700Y-9788500D01*
X30692700Y-9388500D02*
X30292700Y-9788500D01*
X30492700Y-9388500D02*
X30492700Y-9788500D01*
X30292700Y-9588500D02*
X30692700Y-9588500D01*
X31118200Y-3673500D02*
X31518200Y-4073500D01*
X31518200Y-3673500D02*
X31118200Y-4073500D01*
X31318200Y-3673500D02*
X31318200Y-4073500D01*
X31118200Y-3873500D02*
X31518200Y-3873500D01*
X31486500Y-11763400D02*
X31886500Y-12163400D01*
X31886500Y-11763400D02*
X31486500Y-12163400D01*
X31686500Y-11763400D02*
X31686500Y-12163400D01*
X31486500Y-11963400D02*
X31886500Y-11963400D01*
X31727800Y-7483500D02*
X32127800Y-7883500D01*
X32127800Y-7483500D02*
X31727800Y-7883500D01*
X31927800Y-7483500D02*
X31927800Y-7883500D01*
X31727800Y-7683500D02*
X32127800Y-7683500D01*
X32013688Y-5577663D02*
X32413688Y-5977662D01*
X32413688Y-5577663D02*
X32013688Y-5977662D01*
X32213688Y-5577663D02*
X32213688Y-5977662D01*
X32013688Y-5777662D02*
X32413688Y-5777662D01*
X33391500Y-9871100D02*
X33791500Y-10271100D01*
X33791500Y-9871100D02*
X33391500Y-10271100D01*
X33591500Y-9871100D02*
X33591500Y-10271100D01*
X33391500Y-10071100D02*
X33791500Y-10071100D01*
X33391500Y-11763400D02*
X33791500Y-12163400D01*
X33791500Y-11763400D02*
X33391500Y-12163400D01*
X33591500Y-11763400D02*
X33591500Y-12163400D01*
X33391500Y-11963400D02*
X33791500Y-11963400D01*
X34458300Y-3190900D02*
X34858300Y-3590900D01*
X34858300Y-3190900D02*
X34458300Y-3590900D01*
X34658300Y-3190900D02*
X34658300Y-3590900D01*
X34458300Y-3390900D02*
X34858300Y-3390900D01*
X34877400Y-5095900D02*
X35277400Y-5495900D01*
X35277400Y-5095900D02*
X34877400Y-5495900D01*
X35077400Y-5095900D02*
X35077400Y-5495900D01*
X34877400Y-5295900D02*
X35277400Y-5295900D01*
X35296500Y-7000900D02*
X35696500Y-7400900D01*
X35696500Y-7000900D02*
X35296500Y-7400900D01*
X35496500Y-7000900D02*
X35496500Y-7400900D01*
X35296500Y-7200900D02*
X35696500Y-7200900D01*
X35296500Y-11763400D02*
X35696500Y-12163400D01*
X35696500Y-11763400D02*
X35296500Y-12163400D01*
X35496500Y-11763400D02*
X35496500Y-12163400D01*
X35296500Y-11963400D02*
X35696500Y-11963400D01*
D11*
X2776369Y-14630499D02*
X2776369Y-14430499D01*
X2823988Y-14430499D01*
X2852559Y-14440023D01*
X2871607Y-14459071D01*
X2881131Y-14478118D01*
X2890655Y-14516214D01*
X2890655Y-14544785D01*
X2881131Y-14582880D01*
X2871607Y-14601928D01*
X2852559Y-14620975D01*
X2823988Y-14630499D01*
X2776369Y-14630499D01*
X2976369Y-14630499D02*
X2976369Y-14497166D01*
X2976369Y-14535261D02*
X2985893Y-14516214D01*
X2995417Y-14506690D01*
X3014464Y-14497166D01*
X3033512Y-14497166D01*
X3100178Y-14630499D02*
X3100178Y-14497166D01*
X3100178Y-14430499D02*
X3090655Y-14440023D01*
X3100178Y-14449547D01*
X3109702Y-14440023D01*
X3100178Y-14430499D01*
X3100178Y-14449547D01*
X3223988Y-14630499D02*
X3204940Y-14620975D01*
X3195417Y-14601928D01*
X3195417Y-14430499D01*
X3328750Y-14630499D02*
X3309702Y-14620975D01*
X3300178Y-14601928D01*
X3300178Y-14430499D01*
X3557321Y-14630499D02*
X3557321Y-14430499D01*
X3623988Y-14573356D01*
X3690655Y-14430499D01*
X3690655Y-14630499D01*
X3871607Y-14630499D02*
X3871607Y-14525737D01*
X3862083Y-14506690D01*
X3843036Y-14497166D01*
X3804940Y-14497166D01*
X3785893Y-14506690D01*
X3871607Y-14620975D02*
X3852559Y-14630499D01*
X3804940Y-14630499D01*
X3785893Y-14620975D01*
X3776369Y-14601928D01*
X3776369Y-14582880D01*
X3785893Y-14563833D01*
X3804940Y-14554309D01*
X3852559Y-14554309D01*
X3871607Y-14544785D01*
X3966845Y-14497166D02*
X3966845Y-14697166D01*
X3966845Y-14506690D02*
X3985893Y-14497166D01*
X4023988Y-14497166D01*
X4043036Y-14506690D01*
X4052559Y-14516214D01*
X4062083Y-14535261D01*
X4062083Y-14592404D01*
X4052559Y-14611452D01*
X4043036Y-14620975D01*
X4023988Y-14630499D01*
X3985893Y-14630499D01*
X3966845Y-14620975D01*
X4147798Y-14611452D02*
X4157321Y-14620975D01*
X4147798Y-14630499D01*
X4138274Y-14620975D01*
X4147798Y-14611452D01*
X4147798Y-14630499D01*
X4147798Y-14506690D02*
X4157321Y-14516214D01*
X4147798Y-14525737D01*
X4138274Y-14516214D01*
X4147798Y-14506690D01*
X4147798Y-14525737D01*
D12*
X2453750Y-14927523D02*
X2518750Y-14992523D01*
X2518750Y-14927523D02*
X2453750Y-14992523D01*
D11*
X2814464Y-14850499D02*
X2833512Y-14850499D01*
X2852559Y-14860023D01*
X2862083Y-14869547D01*
X2871607Y-14888595D01*
X2881131Y-14926690D01*
X2881131Y-14974309D01*
X2871607Y-15012404D01*
X2862083Y-15031452D01*
X2852559Y-15040975D01*
X2833512Y-15050499D01*
X2814464Y-15050499D01*
X2795417Y-15040975D01*
X2785893Y-15031452D01*
X2776369Y-15012404D01*
X2766845Y-14974309D01*
X2766845Y-14926690D01*
X2776369Y-14888595D01*
X2785893Y-14869547D01*
X2795417Y-14860023D01*
X2814464Y-14850499D01*
X2966845Y-15031452D02*
X2976369Y-15040975D01*
X2966845Y-15050499D01*
X2957321Y-15040975D01*
X2966845Y-15031452D01*
X2966845Y-15050499D01*
X3147798Y-14850499D02*
X3109702Y-14850499D01*
X3090655Y-14860023D01*
X3081131Y-14869547D01*
X3062083Y-14898118D01*
X3052559Y-14936214D01*
X3052559Y-15012404D01*
X3062083Y-15031452D01*
X3071607Y-15040975D01*
X3090655Y-15050499D01*
X3128750Y-15050499D01*
X3147798Y-15040975D01*
X3157321Y-15031452D01*
X3166845Y-15012404D01*
X3166845Y-14964785D01*
X3157321Y-14945737D01*
X3147798Y-14936214D01*
X3128750Y-14926690D01*
X3090655Y-14926690D01*
X3071607Y-14936214D01*
X3062083Y-14945737D01*
X3052559Y-14964785D01*
X3347798Y-14850499D02*
X3252559Y-14850499D01*
X3243036Y-14945737D01*
X3252559Y-14936214D01*
X3271607Y-14926690D01*
X3319226Y-14926690D01*
X3338274Y-14936214D01*
X3347798Y-14945737D01*
X3357321Y-14964785D01*
X3357321Y-15012404D01*
X3347798Y-15031452D01*
X3338274Y-15040975D01*
X3319226Y-15050499D01*
X3271607Y-15050499D01*
X3252559Y-15040975D01*
X3243036Y-15031452D01*
X3481131Y-14850499D02*
X3500178Y-14850499D01*
X3519226Y-14860023D01*
X3528750Y-14869547D01*
X3538274Y-14888595D01*
X3547798Y-14926690D01*
X3547798Y-14974309D01*
X3538274Y-15012404D01*
X3528750Y-15031452D01*
X3519226Y-15040975D01*
X3500178Y-15050499D01*
X3481131Y-15050499D01*
X3462083Y-15040975D01*
X3452559Y-15031452D01*
X3443036Y-15012404D01*
X3433512Y-14974309D01*
X3433512Y-14926690D01*
X3443036Y-14888595D01*
X3452559Y-14869547D01*
X3462083Y-14860023D01*
X3481131Y-14850499D01*
X3633512Y-15050499D02*
X3633512Y-14917166D01*
X3633512Y-14936214D02*
X3643036Y-14926690D01*
X3662083Y-14917166D01*
X3690655Y-14917166D01*
X3709702Y-14926690D01*
X3719226Y-14945737D01*
X3719226Y-15050499D01*
X3719226Y-14945737D02*
X3728750Y-14926690D01*
X3747798Y-14917166D01*
X3776369Y-14917166D01*
X3795417Y-14926690D01*
X3804940Y-14945737D01*
X3804940Y-15050499D01*
X3900178Y-15050499D02*
X3900178Y-14917166D01*
X3900178Y-14936214D02*
X3909702Y-14926690D01*
X3928750Y-14917166D01*
X3957321Y-14917166D01*
X3976369Y-14926690D01*
X3985893Y-14945737D01*
X3985893Y-15050499D01*
X3985893Y-14945737D02*
X3995417Y-14926690D01*
X4014464Y-14917166D01*
X4043036Y-14917166D01*
X4062083Y-14926690D01*
X4071607Y-14945737D01*
X4071607Y-15050499D01*
X4462083Y-14840975D02*
X4290655Y-15098118D01*
X4719226Y-14850499D02*
X4738274Y-14850499D01*
X4757321Y-14860023D01*
X4766845Y-14869547D01*
X4776369Y-14888595D01*
X4785893Y-14926690D01*
X4785893Y-14974309D01*
X4776369Y-15012404D01*
X4766845Y-15031452D01*
X4757321Y-15040975D01*
X4738274Y-15050499D01*
X4719226Y-15050499D01*
X4700179Y-15040975D01*
X4690655Y-15031452D01*
X4681131Y-15012404D01*
X4671607Y-14974309D01*
X4671607Y-14926690D01*
X4681131Y-14888595D01*
X4690655Y-14869547D01*
X4700179Y-14860023D01*
X4719226Y-14850499D01*
X4871607Y-15031452D02*
X4881131Y-15040975D01*
X4871607Y-15050499D01*
X4862083Y-15040975D01*
X4871607Y-15031452D01*
X4871607Y-15050499D01*
X5004940Y-14850499D02*
X5023988Y-14850499D01*
X5043036Y-14860023D01*
X5052560Y-14869547D01*
X5062083Y-14888595D01*
X5071607Y-14926690D01*
X5071607Y-14974309D01*
X5062083Y-15012404D01*
X5052560Y-15031452D01*
X5043036Y-15040975D01*
X5023988Y-15050499D01*
X5004940Y-15050499D01*
X4985893Y-15040975D01*
X4976369Y-15031452D01*
X4966845Y-15012404D01*
X4957321Y-14974309D01*
X4957321Y-14926690D01*
X4966845Y-14888595D01*
X4976369Y-14869547D01*
X4985893Y-14860023D01*
X5004940Y-14850499D01*
X5147798Y-14869547D02*
X5157321Y-14860023D01*
X5176369Y-14850499D01*
X5223988Y-14850499D01*
X5243036Y-14860023D01*
X5252560Y-14869547D01*
X5262083Y-14888595D01*
X5262083Y-14907642D01*
X5252560Y-14936214D01*
X5138274Y-15050499D01*
X5262083Y-15050499D01*
X5443036Y-14850499D02*
X5347798Y-14850499D01*
X5338274Y-14945737D01*
X5347798Y-14936214D01*
X5366845Y-14926690D01*
X5414464Y-14926690D01*
X5433512Y-14936214D01*
X5443036Y-14945737D01*
X5452560Y-14964785D01*
X5452560Y-15012404D01*
X5443036Y-15031452D01*
X5433512Y-15040975D01*
X5414464Y-15050499D01*
X5366845Y-15050499D01*
X5347798Y-15040975D01*
X5338274Y-15031452D01*
X5623988Y-14850499D02*
X5585893Y-14850499D01*
X5566845Y-14860023D01*
X5557321Y-14869547D01*
X5538274Y-14898118D01*
X5528750Y-14936214D01*
X5528750Y-15012404D01*
X5538274Y-15031452D01*
X5547798Y-15040975D01*
X5566845Y-15050499D01*
X5604940Y-15050499D01*
X5623988Y-15040975D01*
X5633512Y-15031452D01*
X5643036Y-15012404D01*
X5643036Y-14964785D01*
X5633512Y-14945737D01*
X5623988Y-14936214D01*
X5604940Y-14926690D01*
X5566845Y-14926690D01*
X5547798Y-14936214D01*
X5538274Y-14945737D01*
X5528750Y-14964785D01*
X5719226Y-14850499D02*
X5719226Y-14888595D01*
X5795417Y-14850499D02*
X5795417Y-14888595D01*
X6090655Y-15126690D02*
X6081131Y-15117166D01*
X6062083Y-15088595D01*
X6052559Y-15069547D01*
X6043036Y-15040975D01*
X6033512Y-14993356D01*
X6033512Y-14955261D01*
X6043036Y-14907642D01*
X6052559Y-14879071D01*
X6062083Y-14860023D01*
X6081131Y-14831452D01*
X6090655Y-14821928D01*
X6157321Y-14869547D02*
X6166845Y-14860023D01*
X6185893Y-14850499D01*
X6233512Y-14850499D01*
X6252559Y-14860023D01*
X6262083Y-14869547D01*
X6271607Y-14888595D01*
X6271607Y-14907642D01*
X6262083Y-14936214D01*
X6147798Y-15050499D01*
X6271607Y-15050499D01*
X6509702Y-15050499D02*
X6509702Y-14850499D01*
X6595417Y-15050499D02*
X6595417Y-14945737D01*
X6585893Y-14926690D01*
X6566845Y-14917166D01*
X6538274Y-14917166D01*
X6519226Y-14926690D01*
X6509702Y-14936214D01*
X6719226Y-15050499D02*
X6700178Y-15040975D01*
X6690655Y-15031452D01*
X6681131Y-15012404D01*
X6681131Y-14955261D01*
X6690655Y-14936214D01*
X6700178Y-14926690D01*
X6719226Y-14917166D01*
X6747798Y-14917166D01*
X6766845Y-14926690D01*
X6776369Y-14936214D01*
X6785893Y-14955261D01*
X6785893Y-15012404D01*
X6776369Y-15031452D01*
X6766845Y-15040975D01*
X6747798Y-15050499D01*
X6719226Y-15050499D01*
X6900178Y-15050499D02*
X6881131Y-15040975D01*
X6871607Y-15021928D01*
X6871607Y-14850499D01*
X7052559Y-15040975D02*
X7033512Y-15050499D01*
X6995417Y-15050499D01*
X6976369Y-15040975D01*
X6966845Y-15021928D01*
X6966845Y-14945737D01*
X6976369Y-14926690D01*
X6995417Y-14917166D01*
X7033512Y-14917166D01*
X7052559Y-14926690D01*
X7062083Y-14945737D01*
X7062083Y-14964785D01*
X6966845Y-14983833D01*
X7138274Y-15040975D02*
X7157321Y-15050499D01*
X7195417Y-15050499D01*
X7214464Y-15040975D01*
X7223988Y-15021928D01*
X7223988Y-15012404D01*
X7214464Y-14993356D01*
X7195417Y-14983833D01*
X7166845Y-14983833D01*
X7147798Y-14974309D01*
X7138274Y-14955261D01*
X7138274Y-14945737D01*
X7147798Y-14926690D01*
X7166845Y-14917166D01*
X7195417Y-14917166D01*
X7214464Y-14926690D01*
X7290655Y-15126690D02*
X7300178Y-15117166D01*
X7319226Y-15088595D01*
X7328750Y-15069547D01*
X7338274Y-15040975D01*
X7347798Y-14993356D01*
X7347798Y-14955261D01*
X7338274Y-14907642D01*
X7328750Y-14879071D01*
X7319226Y-14860023D01*
X7300178Y-14831452D01*
X7290655Y-14821928D01*
X7652559Y-15126690D02*
X7643036Y-15117166D01*
X7623988Y-15088595D01*
X7614464Y-15069547D01*
X7604940Y-15040975D01*
X7595417Y-14993356D01*
X7595417Y-14955261D01*
X7604940Y-14907642D01*
X7614464Y-14879071D01*
X7623988Y-14860023D01*
X7643036Y-14831452D01*
X7652559Y-14821928D01*
X7728750Y-14917166D02*
X7728750Y-15050499D01*
X7728750Y-14936214D02*
X7738274Y-14926690D01*
X7757321Y-14917166D01*
X7785893Y-14917166D01*
X7804940Y-14926690D01*
X7814464Y-14945737D01*
X7814464Y-15050499D01*
X7938274Y-15050499D02*
X7919226Y-15040975D01*
X7909702Y-15031452D01*
X7900178Y-15012404D01*
X7900178Y-14955261D01*
X7909702Y-14936214D01*
X7919226Y-14926690D01*
X7938274Y-14917166D01*
X7966845Y-14917166D01*
X7985893Y-14926690D01*
X7995417Y-14936214D01*
X8004940Y-14955261D01*
X8004940Y-15012404D01*
X7995417Y-15031452D01*
X7985893Y-15040975D01*
X7966845Y-15050499D01*
X7938274Y-15050499D01*
X8062083Y-14917166D02*
X8138274Y-14917166D01*
X8090655Y-14850499D02*
X8090655Y-15021928D01*
X8100178Y-15040975D01*
X8119226Y-15050499D01*
X8138274Y-15050499D01*
X8357321Y-14917166D02*
X8357321Y-15117166D01*
X8357321Y-14926690D02*
X8376369Y-14917166D01*
X8414464Y-14917166D01*
X8433512Y-14926690D01*
X8443036Y-14936214D01*
X8452560Y-14955261D01*
X8452560Y-15012404D01*
X8443036Y-15031452D01*
X8433512Y-15040975D01*
X8414464Y-15050499D01*
X8376369Y-15050499D01*
X8357321Y-15040975D01*
X8566845Y-15050499D02*
X8547798Y-15040975D01*
X8538274Y-15021928D01*
X8538274Y-14850499D01*
X8728750Y-15050499D02*
X8728750Y-14945737D01*
X8719226Y-14926690D01*
X8700179Y-14917166D01*
X8662083Y-14917166D01*
X8643036Y-14926690D01*
X8728750Y-15040975D02*
X8709702Y-15050499D01*
X8662083Y-15050499D01*
X8643036Y-15040975D01*
X8633512Y-15021928D01*
X8633512Y-15002880D01*
X8643036Y-14983833D01*
X8662083Y-14974309D01*
X8709702Y-14974309D01*
X8728750Y-14964785D01*
X8795417Y-14917166D02*
X8871607Y-14917166D01*
X8823988Y-14850499D02*
X8823988Y-15021928D01*
X8833512Y-15040975D01*
X8852560Y-15050499D01*
X8871607Y-15050499D01*
X9014464Y-15040975D02*
X8995417Y-15050499D01*
X8957321Y-15050499D01*
X8938274Y-15040975D01*
X8928750Y-15021928D01*
X8928750Y-14945737D01*
X8938274Y-14926690D01*
X8957321Y-14917166D01*
X8995417Y-14917166D01*
X9014464Y-14926690D01*
X9023988Y-14945737D01*
X9023988Y-14964785D01*
X8928750Y-14983833D01*
X9195417Y-15050499D02*
X9195417Y-14850499D01*
X9195417Y-15040975D02*
X9176369Y-15050499D01*
X9138274Y-15050499D01*
X9119226Y-15040975D01*
X9109702Y-15031452D01*
X9100179Y-15012404D01*
X9100179Y-14955261D01*
X9109702Y-14936214D01*
X9119226Y-14926690D01*
X9138274Y-14917166D01*
X9176369Y-14917166D01*
X9195417Y-14926690D01*
X9271607Y-15126690D02*
X9281131Y-15117166D01*
X9300179Y-15088595D01*
X9309702Y-15069547D01*
X9319226Y-15040975D01*
X9328750Y-14993356D01*
X9328750Y-14955261D01*
X9319226Y-14907642D01*
X9309702Y-14879071D01*
X9300179Y-14860023D01*
X9281131Y-14831452D01*
X9271607Y-14821928D01*
D13*
X2518750Y-15224023D02*
G75*
G03*
X2518750Y-15224023I-87500J0D01*
G01*
D11*
X2881131Y-15314499D02*
X2766845Y-15314499D01*
X2823988Y-15314499D02*
X2823988Y-15114499D01*
X2804940Y-15143071D01*
X2785893Y-15162118D01*
X2766845Y-15171642D01*
X2966845Y-15295452D02*
X2976369Y-15304975D01*
X2966845Y-15314499D01*
X2957321Y-15304975D01*
X2966845Y-15295452D01*
X2966845Y-15314499D01*
X3043036Y-15114499D02*
X3176369Y-15114499D01*
X3090655Y-15314499D01*
X3347798Y-15114499D02*
X3252559Y-15114499D01*
X3243036Y-15209737D01*
X3252559Y-15200214D01*
X3271607Y-15190690D01*
X3319226Y-15190690D01*
X3338274Y-15200214D01*
X3347798Y-15209737D01*
X3357321Y-15228785D01*
X3357321Y-15276404D01*
X3347798Y-15295452D01*
X3338274Y-15304975D01*
X3319226Y-15314499D01*
X3271607Y-15314499D01*
X3252559Y-15304975D01*
X3243036Y-15295452D01*
X3481131Y-15114499D02*
X3500178Y-15114499D01*
X3519226Y-15124023D01*
X3528750Y-15133547D01*
X3538274Y-15152595D01*
X3547798Y-15190690D01*
X3547798Y-15238309D01*
X3538274Y-15276404D01*
X3528750Y-15295452D01*
X3519226Y-15304975D01*
X3500178Y-15314499D01*
X3481131Y-15314499D01*
X3462083Y-15304975D01*
X3452559Y-15295452D01*
X3443036Y-15276404D01*
X3433512Y-15238309D01*
X3433512Y-15190690D01*
X3443036Y-15152595D01*
X3452559Y-15133547D01*
X3462083Y-15124023D01*
X3481131Y-15114499D01*
X3633512Y-15314499D02*
X3633512Y-15181166D01*
X3633512Y-15200214D02*
X3643036Y-15190690D01*
X3662083Y-15181166D01*
X3690655Y-15181166D01*
X3709702Y-15190690D01*
X3719226Y-15209737D01*
X3719226Y-15314499D01*
X3719226Y-15209737D02*
X3728750Y-15190690D01*
X3747798Y-15181166D01*
X3776369Y-15181166D01*
X3795417Y-15190690D01*
X3804940Y-15209737D01*
X3804940Y-15314499D01*
X3900178Y-15314499D02*
X3900178Y-15181166D01*
X3900178Y-15200214D02*
X3909702Y-15190690D01*
X3928750Y-15181166D01*
X3957321Y-15181166D01*
X3976369Y-15190690D01*
X3985893Y-15209737D01*
X3985893Y-15314499D01*
X3985893Y-15209737D02*
X3995417Y-15190690D01*
X4014464Y-15181166D01*
X4043036Y-15181166D01*
X4062083Y-15190690D01*
X4071607Y-15209737D01*
X4071607Y-15314499D01*
X4462083Y-15104975D02*
X4290655Y-15362118D01*
X4719226Y-15114499D02*
X4738274Y-15114499D01*
X4757321Y-15124023D01*
X4766845Y-15133547D01*
X4776369Y-15152595D01*
X4785893Y-15190690D01*
X4785893Y-15238309D01*
X4776369Y-15276404D01*
X4766845Y-15295452D01*
X4757321Y-15304975D01*
X4738274Y-15314499D01*
X4719226Y-15314499D01*
X4700179Y-15304975D01*
X4690655Y-15295452D01*
X4681131Y-15276404D01*
X4671607Y-15238309D01*
X4671607Y-15190690D01*
X4681131Y-15152595D01*
X4690655Y-15133547D01*
X4700179Y-15124023D01*
X4719226Y-15114499D01*
X4871607Y-15295452D02*
X4881131Y-15304975D01*
X4871607Y-15314499D01*
X4862083Y-15304975D01*
X4871607Y-15295452D01*
X4871607Y-15314499D01*
X5004940Y-15114499D02*
X5023988Y-15114499D01*
X5043036Y-15124023D01*
X5052560Y-15133547D01*
X5062083Y-15152595D01*
X5071607Y-15190690D01*
X5071607Y-15238309D01*
X5062083Y-15276404D01*
X5052560Y-15295452D01*
X5043036Y-15304975D01*
X5023988Y-15314499D01*
X5004940Y-15314499D01*
X4985893Y-15304975D01*
X4976369Y-15295452D01*
X4966845Y-15276404D01*
X4957321Y-15238309D01*
X4957321Y-15190690D01*
X4966845Y-15152595D01*
X4976369Y-15133547D01*
X4985893Y-15124023D01*
X5004940Y-15114499D01*
X5243036Y-15114499D02*
X5204940Y-15114499D01*
X5185893Y-15124023D01*
X5176369Y-15133547D01*
X5157321Y-15162118D01*
X5147798Y-15200214D01*
X5147798Y-15276404D01*
X5157321Y-15295452D01*
X5166845Y-15304975D01*
X5185893Y-15314499D01*
X5223988Y-15314499D01*
X5243036Y-15304975D01*
X5252560Y-15295452D01*
X5262083Y-15276404D01*
X5262083Y-15228785D01*
X5252560Y-15209737D01*
X5243036Y-15200214D01*
X5223988Y-15190690D01*
X5185893Y-15190690D01*
X5166845Y-15200214D01*
X5157321Y-15209737D01*
X5147798Y-15228785D01*
X5376369Y-15200214D02*
X5357321Y-15190690D01*
X5347798Y-15181166D01*
X5338274Y-15162118D01*
X5338274Y-15152595D01*
X5347798Y-15133547D01*
X5357321Y-15124023D01*
X5376369Y-15114499D01*
X5414464Y-15114499D01*
X5433512Y-15124023D01*
X5443036Y-15133547D01*
X5452560Y-15152595D01*
X5452560Y-15162118D01*
X5443036Y-15181166D01*
X5433512Y-15190690D01*
X5414464Y-15200214D01*
X5376369Y-15200214D01*
X5357321Y-15209737D01*
X5347798Y-15219261D01*
X5338274Y-15238309D01*
X5338274Y-15276404D01*
X5347798Y-15295452D01*
X5357321Y-15304975D01*
X5376369Y-15314499D01*
X5414464Y-15314499D01*
X5433512Y-15304975D01*
X5443036Y-15295452D01*
X5452560Y-15276404D01*
X5452560Y-15238309D01*
X5443036Y-15219261D01*
X5433512Y-15209737D01*
X5414464Y-15200214D01*
X5547798Y-15314499D02*
X5585893Y-15314499D01*
X5604940Y-15304975D01*
X5614464Y-15295452D01*
X5633512Y-15266880D01*
X5643036Y-15228785D01*
X5643036Y-15152595D01*
X5633512Y-15133547D01*
X5623988Y-15124023D01*
X5604940Y-15114499D01*
X5566845Y-15114499D01*
X5547798Y-15124023D01*
X5538274Y-15133547D01*
X5528750Y-15152595D01*
X5528750Y-15200214D01*
X5538274Y-15219261D01*
X5547798Y-15228785D01*
X5566845Y-15238309D01*
X5604940Y-15238309D01*
X5623988Y-15228785D01*
X5633512Y-15219261D01*
X5643036Y-15200214D01*
X5719226Y-15114499D02*
X5719226Y-15152595D01*
X5795417Y-15114499D02*
X5795417Y-15152595D01*
X6090655Y-15390690D02*
X6081131Y-15381166D01*
X6062083Y-15352595D01*
X6052559Y-15333547D01*
X6043036Y-15304975D01*
X6033512Y-15257356D01*
X6033512Y-15219261D01*
X6043036Y-15171642D01*
X6052559Y-15143071D01*
X6062083Y-15124023D01*
X6081131Y-15095452D01*
X6090655Y-15085928D01*
X6271607Y-15314499D02*
X6157321Y-15314499D01*
X6214464Y-15314499D02*
X6214464Y-15114499D01*
X6195417Y-15143071D01*
X6176369Y-15162118D01*
X6157321Y-15171642D01*
X6338274Y-15114499D02*
X6462083Y-15114499D01*
X6395417Y-15190690D01*
X6423988Y-15190690D01*
X6443036Y-15200214D01*
X6452559Y-15209737D01*
X6462083Y-15228785D01*
X6462083Y-15276404D01*
X6452559Y-15295452D01*
X6443036Y-15304975D01*
X6423988Y-15314499D01*
X6366845Y-15314499D01*
X6347798Y-15304975D01*
X6338274Y-15295452D01*
X6538274Y-15133547D02*
X6547798Y-15124023D01*
X6566845Y-15114499D01*
X6614464Y-15114499D01*
X6633512Y-15124023D01*
X6643036Y-15133547D01*
X6652559Y-15152595D01*
X6652559Y-15171642D01*
X6643036Y-15200214D01*
X6528750Y-15314499D01*
X6652559Y-15314499D01*
X6890655Y-15314499D02*
X6890655Y-15114499D01*
X6976369Y-15314499D02*
X6976369Y-15209737D01*
X6966845Y-15190690D01*
X6947798Y-15181166D01*
X6919226Y-15181166D01*
X6900178Y-15190690D01*
X6890655Y-15200214D01*
X7100178Y-15314499D02*
X7081131Y-15304975D01*
X7071607Y-15295452D01*
X7062083Y-15276404D01*
X7062083Y-15219261D01*
X7071607Y-15200214D01*
X7081131Y-15190690D01*
X7100178Y-15181166D01*
X7128750Y-15181166D01*
X7147798Y-15190690D01*
X7157321Y-15200214D01*
X7166845Y-15219261D01*
X7166845Y-15276404D01*
X7157321Y-15295452D01*
X7147798Y-15304975D01*
X7128750Y-15314499D01*
X7100178Y-15314499D01*
X7281131Y-15314499D02*
X7262083Y-15304975D01*
X7252559Y-15285928D01*
X7252559Y-15114499D01*
X7433512Y-15304975D02*
X7414464Y-15314499D01*
X7376369Y-15314499D01*
X7357321Y-15304975D01*
X7347798Y-15285928D01*
X7347798Y-15209737D01*
X7357321Y-15190690D01*
X7376369Y-15181166D01*
X7414464Y-15181166D01*
X7433512Y-15190690D01*
X7443036Y-15209737D01*
X7443036Y-15228785D01*
X7347798Y-15247833D01*
X7519226Y-15304975D02*
X7538274Y-15314499D01*
X7576369Y-15314499D01*
X7595417Y-15304975D01*
X7604940Y-15285928D01*
X7604940Y-15276404D01*
X7595417Y-15257356D01*
X7576369Y-15247833D01*
X7547798Y-15247833D01*
X7528750Y-15238309D01*
X7519226Y-15219261D01*
X7519226Y-15209737D01*
X7528750Y-15190690D01*
X7547798Y-15181166D01*
X7576369Y-15181166D01*
X7595417Y-15190690D01*
X7671607Y-15390690D02*
X7681131Y-15381166D01*
X7700178Y-15352595D01*
X7709702Y-15333547D01*
X7719226Y-15304975D01*
X7728750Y-15257356D01*
X7728750Y-15219261D01*
X7719226Y-15171642D01*
X7709702Y-15143071D01*
X7700178Y-15124023D01*
X7681131Y-15095452D01*
X7671607Y-15085928D01*
X8033512Y-15390690D02*
X8023988Y-15381166D01*
X8004940Y-15352595D01*
X7995417Y-15333547D01*
X7985893Y-15304975D01*
X7976369Y-15257356D01*
X7976369Y-15219261D01*
X7985893Y-15171642D01*
X7995417Y-15143071D01*
X8004940Y-15124023D01*
X8023988Y-15095452D01*
X8033512Y-15085928D01*
X8109702Y-15181166D02*
X8109702Y-15314499D01*
X8109702Y-15200214D02*
X8119226Y-15190690D01*
X8138274Y-15181166D01*
X8166845Y-15181166D01*
X8185893Y-15190690D01*
X8195417Y-15209737D01*
X8195417Y-15314499D01*
X8319226Y-15314499D02*
X8300178Y-15304975D01*
X8290655Y-15295452D01*
X8281131Y-15276404D01*
X8281131Y-15219261D01*
X8290655Y-15200214D01*
X8300178Y-15190690D01*
X8319226Y-15181166D01*
X8347798Y-15181166D01*
X8366845Y-15190690D01*
X8376369Y-15200214D01*
X8385893Y-15219261D01*
X8385893Y-15276404D01*
X8376369Y-15295452D01*
X8366845Y-15304975D01*
X8347798Y-15314499D01*
X8319226Y-15314499D01*
X8443036Y-15181166D02*
X8519226Y-15181166D01*
X8471607Y-15114499D02*
X8471607Y-15285928D01*
X8481131Y-15304975D01*
X8500179Y-15314499D01*
X8519226Y-15314499D01*
X8738274Y-15181166D02*
X8738274Y-15381166D01*
X8738274Y-15190690D02*
X8757321Y-15181166D01*
X8795417Y-15181166D01*
X8814464Y-15190690D01*
X8823988Y-15200214D01*
X8833512Y-15219261D01*
X8833512Y-15276404D01*
X8823988Y-15295452D01*
X8814464Y-15304975D01*
X8795417Y-15314499D01*
X8757321Y-15314499D01*
X8738274Y-15304975D01*
X8947798Y-15314499D02*
X8928750Y-15304975D01*
X8919226Y-15285928D01*
X8919226Y-15114499D01*
X9109702Y-15314499D02*
X9109702Y-15209737D01*
X9100179Y-15190690D01*
X9081131Y-15181166D01*
X9043036Y-15181166D01*
X9023988Y-15190690D01*
X9109702Y-15304975D02*
X9090655Y-15314499D01*
X9043036Y-15314499D01*
X9023988Y-15304975D01*
X9014464Y-15285928D01*
X9014464Y-15266880D01*
X9023988Y-15247833D01*
X9043036Y-15238309D01*
X9090655Y-15238309D01*
X9109702Y-15228785D01*
X9176369Y-15181166D02*
X9252560Y-15181166D01*
X9204940Y-15114499D02*
X9204940Y-15285928D01*
X9214464Y-15304975D01*
X9233512Y-15314499D01*
X9252560Y-15314499D01*
X9395417Y-15304975D02*
X9376369Y-15314499D01*
X9338274Y-15314499D01*
X9319226Y-15304975D01*
X9309702Y-15285928D01*
X9309702Y-15209737D01*
X9319226Y-15190690D01*
X9338274Y-15181166D01*
X9376369Y-15181166D01*
X9395417Y-15190690D01*
X9404940Y-15209737D01*
X9404940Y-15228785D01*
X9309702Y-15247833D01*
X9576369Y-15314499D02*
X9576369Y-15114499D01*
X9576369Y-15304975D02*
X9557321Y-15314499D01*
X9519226Y-15314499D01*
X9500179Y-15304975D01*
X9490655Y-15295452D01*
X9481131Y-15276404D01*
X9481131Y-15219261D01*
X9490655Y-15200214D01*
X9500179Y-15190690D01*
X9519226Y-15181166D01*
X9557321Y-15181166D01*
X9576369Y-15190690D01*
X9652560Y-15390690D02*
X9662083Y-15381166D01*
X9681131Y-15352595D01*
X9690655Y-15333547D01*
X9700179Y-15304975D01*
X9709702Y-15257356D01*
X9709702Y-15219261D01*
X9700179Y-15171642D01*
X9690655Y-15143071D01*
X9681131Y-15124023D01*
X9662083Y-15095452D01*
X9652560Y-15085928D01*
X2418750Y-15419023D02*
X2418750Y-15619023D01*
X2318750Y-15519023D02*
X2518750Y-15519023D01*
X2766845Y-15428547D02*
X2776369Y-15419023D01*
X2795417Y-15409499D01*
X2843036Y-15409499D01*
X2862083Y-15419023D01*
X2871607Y-15428547D01*
X2881131Y-15447595D01*
X2881131Y-15466642D01*
X2871607Y-15495214D01*
X2757321Y-15609499D01*
X2881131Y-15609499D01*
X2966845Y-15590452D02*
X2976369Y-15599975D01*
X2966845Y-15609499D01*
X2957321Y-15599975D01*
X2966845Y-15590452D01*
X2966845Y-15609499D01*
X3147798Y-15476166D02*
X3147798Y-15609499D01*
X3100178Y-15399975D02*
X3052559Y-15542833D01*
X3176369Y-15542833D01*
X3290655Y-15409499D02*
X3309702Y-15409499D01*
X3328750Y-15419023D01*
X3338274Y-15428547D01*
X3347798Y-15447595D01*
X3357321Y-15485690D01*
X3357321Y-15533309D01*
X3347798Y-15571404D01*
X3338274Y-15590452D01*
X3328750Y-15599975D01*
X3309702Y-15609499D01*
X3290655Y-15609499D01*
X3271607Y-15599975D01*
X3262083Y-15590452D01*
X3252559Y-15571404D01*
X3243036Y-15533309D01*
X3243036Y-15485690D01*
X3252559Y-15447595D01*
X3262083Y-15428547D01*
X3271607Y-15419023D01*
X3290655Y-15409499D01*
X3481131Y-15409499D02*
X3500178Y-15409499D01*
X3519226Y-15419023D01*
X3528750Y-15428547D01*
X3538274Y-15447595D01*
X3547798Y-15485690D01*
X3547798Y-15533309D01*
X3538274Y-15571404D01*
X3528750Y-15590452D01*
X3519226Y-15599975D01*
X3500178Y-15609499D01*
X3481131Y-15609499D01*
X3462083Y-15599975D01*
X3452559Y-15590452D01*
X3443036Y-15571404D01*
X3433512Y-15533309D01*
X3433512Y-15485690D01*
X3443036Y-15447595D01*
X3452559Y-15428547D01*
X3462083Y-15419023D01*
X3481131Y-15409499D01*
X3633512Y-15609499D02*
X3633512Y-15476166D01*
X3633512Y-15495214D02*
X3643036Y-15485690D01*
X3662083Y-15476166D01*
X3690655Y-15476166D01*
X3709702Y-15485690D01*
X3719226Y-15504737D01*
X3719226Y-15609499D01*
X3719226Y-15504737D02*
X3728750Y-15485690D01*
X3747798Y-15476166D01*
X3776369Y-15476166D01*
X3795417Y-15485690D01*
X3804940Y-15504737D01*
X3804940Y-15609499D01*
X3900178Y-15609499D02*
X3900178Y-15476166D01*
X3900178Y-15495214D02*
X3909702Y-15485690D01*
X3928750Y-15476166D01*
X3957321Y-15476166D01*
X3976369Y-15485690D01*
X3985893Y-15504737D01*
X3985893Y-15609499D01*
X3985893Y-15504737D02*
X3995417Y-15485690D01*
X4014464Y-15476166D01*
X4043036Y-15476166D01*
X4062083Y-15485690D01*
X4071607Y-15504737D01*
X4071607Y-15609499D01*
X4462083Y-15399975D02*
X4290655Y-15657118D01*
X4719226Y-15409499D02*
X4738274Y-15409499D01*
X4757321Y-15419023D01*
X4766845Y-15428547D01*
X4776369Y-15447595D01*
X4785893Y-15485690D01*
X4785893Y-15533309D01*
X4776369Y-15571404D01*
X4766845Y-15590452D01*
X4757321Y-15599975D01*
X4738274Y-15609499D01*
X4719226Y-15609499D01*
X4700179Y-15599975D01*
X4690655Y-15590452D01*
X4681131Y-15571404D01*
X4671607Y-15533309D01*
X4671607Y-15485690D01*
X4681131Y-15447595D01*
X4690655Y-15428547D01*
X4700179Y-15419023D01*
X4719226Y-15409499D01*
X4871607Y-15590452D02*
X4881131Y-15599975D01*
X4871607Y-15609499D01*
X4862083Y-15599975D01*
X4871607Y-15590452D01*
X4871607Y-15609499D01*
X5004940Y-15409499D02*
X5023988Y-15409499D01*
X5043036Y-15419023D01*
X5052560Y-15428547D01*
X5062083Y-15447595D01*
X5071607Y-15485690D01*
X5071607Y-15533309D01*
X5062083Y-15571404D01*
X5052560Y-15590452D01*
X5043036Y-15599975D01*
X5023988Y-15609499D01*
X5004940Y-15609499D01*
X4985893Y-15599975D01*
X4976369Y-15590452D01*
X4966845Y-15571404D01*
X4957321Y-15533309D01*
X4957321Y-15485690D01*
X4966845Y-15447595D01*
X4976369Y-15428547D01*
X4985893Y-15419023D01*
X5004940Y-15409499D01*
X5166845Y-15609499D02*
X5204940Y-15609499D01*
X5223988Y-15599975D01*
X5233512Y-15590452D01*
X5252560Y-15561880D01*
X5262083Y-15523785D01*
X5262083Y-15447595D01*
X5252560Y-15428547D01*
X5243036Y-15419023D01*
X5223988Y-15409499D01*
X5185893Y-15409499D01*
X5166845Y-15419023D01*
X5157321Y-15428547D01*
X5147798Y-15447595D01*
X5147798Y-15495214D01*
X5157321Y-15514261D01*
X5166845Y-15523785D01*
X5185893Y-15533309D01*
X5223988Y-15533309D01*
X5243036Y-15523785D01*
X5252560Y-15514261D01*
X5262083Y-15495214D01*
X5433512Y-15476166D02*
X5433512Y-15609499D01*
X5385893Y-15399975D02*
X5338274Y-15542833D01*
X5462083Y-15542833D01*
X5633512Y-15409499D02*
X5538274Y-15409499D01*
X5528750Y-15504737D01*
X5538274Y-15495214D01*
X5557321Y-15485690D01*
X5604940Y-15485690D01*
X5623988Y-15495214D01*
X5633512Y-15504737D01*
X5643036Y-15523785D01*
X5643036Y-15571404D01*
X5633512Y-15590452D01*
X5623988Y-15599975D01*
X5604940Y-15609499D01*
X5557321Y-15609499D01*
X5538274Y-15599975D01*
X5528750Y-15590452D01*
X5719226Y-15409499D02*
X5719226Y-15447595D01*
X5795417Y-15409499D02*
X5795417Y-15447595D01*
X6090655Y-15685690D02*
X6081131Y-15676166D01*
X6062083Y-15647595D01*
X6052559Y-15628547D01*
X6043036Y-15599975D01*
X6033512Y-15552356D01*
X6033512Y-15514261D01*
X6043036Y-15466642D01*
X6052559Y-15438071D01*
X6062083Y-15419023D01*
X6081131Y-15390452D01*
X6090655Y-15380928D01*
X6147798Y-15409499D02*
X6271607Y-15409499D01*
X6204940Y-15485690D01*
X6233512Y-15485690D01*
X6252559Y-15495214D01*
X6262083Y-15504737D01*
X6271607Y-15523785D01*
X6271607Y-15571404D01*
X6262083Y-15590452D01*
X6252559Y-15599975D01*
X6233512Y-15609499D01*
X6176369Y-15609499D01*
X6157321Y-15599975D01*
X6147798Y-15590452D01*
X6509702Y-15609499D02*
X6509702Y-15409499D01*
X6595417Y-15609499D02*
X6595417Y-15504737D01*
X6585893Y-15485690D01*
X6566845Y-15476166D01*
X6538274Y-15476166D01*
X6519226Y-15485690D01*
X6509702Y-15495214D01*
X6719226Y-15609499D02*
X6700178Y-15599975D01*
X6690655Y-15590452D01*
X6681131Y-15571404D01*
X6681131Y-15514261D01*
X6690655Y-15495214D01*
X6700178Y-15485690D01*
X6719226Y-15476166D01*
X6747798Y-15476166D01*
X6766845Y-15485690D01*
X6776369Y-15495214D01*
X6785893Y-15514261D01*
X6785893Y-15571404D01*
X6776369Y-15590452D01*
X6766845Y-15599975D01*
X6747798Y-15609499D01*
X6719226Y-15609499D01*
X6900178Y-15609499D02*
X6881131Y-15599975D01*
X6871607Y-15580928D01*
X6871607Y-15409499D01*
X7052559Y-15599975D02*
X7033512Y-15609499D01*
X6995417Y-15609499D01*
X6976369Y-15599975D01*
X6966845Y-15580928D01*
X6966845Y-15504737D01*
X6976369Y-15485690D01*
X6995417Y-15476166D01*
X7033512Y-15476166D01*
X7052559Y-15485690D01*
X7062083Y-15504737D01*
X7062083Y-15523785D01*
X6966845Y-15542833D01*
X7138274Y-15599975D02*
X7157321Y-15609499D01*
X7195417Y-15609499D01*
X7214464Y-15599975D01*
X7223988Y-15580928D01*
X7223988Y-15571404D01*
X7214464Y-15552356D01*
X7195417Y-15542833D01*
X7166845Y-15542833D01*
X7147798Y-15533309D01*
X7138274Y-15514261D01*
X7138274Y-15504737D01*
X7147798Y-15485690D01*
X7166845Y-15476166D01*
X7195417Y-15476166D01*
X7214464Y-15485690D01*
X7290655Y-15685690D02*
X7300178Y-15676166D01*
X7319226Y-15647595D01*
X7328750Y-15628547D01*
X7338274Y-15599975D01*
X7347798Y-15552356D01*
X7347798Y-15514261D01*
X7338274Y-15466642D01*
X7328750Y-15438071D01*
X7319226Y-15419023D01*
X7300178Y-15390452D01*
X7290655Y-15380928D01*
X7652559Y-15685690D02*
X7643036Y-15676166D01*
X7623988Y-15647595D01*
X7614464Y-15628547D01*
X7604940Y-15599975D01*
X7595417Y-15552356D01*
X7595417Y-15514261D01*
X7604940Y-15466642D01*
X7614464Y-15438071D01*
X7623988Y-15419023D01*
X7643036Y-15390452D01*
X7652559Y-15380928D01*
X7728750Y-15476166D02*
X7728750Y-15609499D01*
X7728750Y-15495214D02*
X7738274Y-15485690D01*
X7757321Y-15476166D01*
X7785893Y-15476166D01*
X7804940Y-15485690D01*
X7814464Y-15504737D01*
X7814464Y-15609499D01*
X7938274Y-15609499D02*
X7919226Y-15599975D01*
X7909702Y-15590452D01*
X7900178Y-15571404D01*
X7900178Y-15514261D01*
X7909702Y-15495214D01*
X7919226Y-15485690D01*
X7938274Y-15476166D01*
X7966845Y-15476166D01*
X7985893Y-15485690D01*
X7995417Y-15495214D01*
X8004940Y-15514261D01*
X8004940Y-15571404D01*
X7995417Y-15590452D01*
X7985893Y-15599975D01*
X7966845Y-15609499D01*
X7938274Y-15609499D01*
X8062083Y-15476166D02*
X8138274Y-15476166D01*
X8090655Y-15409499D02*
X8090655Y-15580928D01*
X8100178Y-15599975D01*
X8119226Y-15609499D01*
X8138274Y-15609499D01*
X8357321Y-15476166D02*
X8357321Y-15676166D01*
X8357321Y-15485690D02*
X8376369Y-15476166D01*
X8414464Y-15476166D01*
X8433512Y-15485690D01*
X8443036Y-15495214D01*
X8452560Y-15514261D01*
X8452560Y-15571404D01*
X8443036Y-15590452D01*
X8433512Y-15599975D01*
X8414464Y-15609499D01*
X8376369Y-15609499D01*
X8357321Y-15599975D01*
X8566845Y-15609499D02*
X8547798Y-15599975D01*
X8538274Y-15580928D01*
X8538274Y-15409499D01*
X8728750Y-15609499D02*
X8728750Y-15504737D01*
X8719226Y-15485690D01*
X8700179Y-15476166D01*
X8662083Y-15476166D01*
X8643036Y-15485690D01*
X8728750Y-15599975D02*
X8709702Y-15609499D01*
X8662083Y-15609499D01*
X8643036Y-15599975D01*
X8633512Y-15580928D01*
X8633512Y-15561880D01*
X8643036Y-15542833D01*
X8662083Y-15533309D01*
X8709702Y-15533309D01*
X8728750Y-15523785D01*
X8795417Y-15476166D02*
X8871607Y-15476166D01*
X8823988Y-15409499D02*
X8823988Y-15580928D01*
X8833512Y-15599975D01*
X8852560Y-15609499D01*
X8871607Y-15609499D01*
X9014464Y-15599975D02*
X8995417Y-15609499D01*
X8957321Y-15609499D01*
X8938274Y-15599975D01*
X8928750Y-15580928D01*
X8928750Y-15504737D01*
X8938274Y-15485690D01*
X8957321Y-15476166D01*
X8995417Y-15476166D01*
X9014464Y-15485690D01*
X9023988Y-15504737D01*
X9023988Y-15523785D01*
X8928750Y-15542833D01*
X9195417Y-15609499D02*
X9195417Y-15409499D01*
X9195417Y-15599975D02*
X9176369Y-15609499D01*
X9138274Y-15609499D01*
X9119226Y-15599975D01*
X9109702Y-15590452D01*
X9100179Y-15571404D01*
X9100179Y-15514261D01*
X9109702Y-15495214D01*
X9119226Y-15485690D01*
X9138274Y-15476166D01*
X9176369Y-15476166D01*
X9195417Y-15485690D01*
X9271607Y-15685690D02*
X9281131Y-15676166D01*
X9300179Y-15647595D01*
X9309702Y-15628547D01*
X9319226Y-15599975D01*
X9328750Y-15552356D01*
X9328750Y-15514261D01*
X9319226Y-15466642D01*
X9309702Y-15438071D01*
X9300179Y-15419023D01*
X9281131Y-15390452D01*
X9271607Y-15380928D01*
X2489461Y-15909735D02*
X2489461Y-15768312D01*
X2348039Y-15768312D01*
X2348039Y-15909735D01*
X2489461Y-15909735D01*
X2757321Y-15729499D02*
X2881131Y-15729499D01*
X2814464Y-15805690D01*
X2843036Y-15805690D01*
X2862083Y-15815214D01*
X2871607Y-15824737D01*
X2881131Y-15843785D01*
X2881131Y-15891404D01*
X2871607Y-15910452D01*
X2862083Y-15919975D01*
X2843036Y-15929499D01*
X2785893Y-15929499D01*
X2766845Y-15919975D01*
X2757321Y-15910452D01*
X2966845Y-15910452D02*
X2976369Y-15919975D01*
X2966845Y-15929499D01*
X2957321Y-15919975D01*
X2966845Y-15910452D01*
X2966845Y-15929499D01*
X3100178Y-15729499D02*
X3119226Y-15729499D01*
X3138274Y-15739023D01*
X3147798Y-15748547D01*
X3157321Y-15767595D01*
X3166845Y-15805690D01*
X3166845Y-15853309D01*
X3157321Y-15891404D01*
X3147798Y-15910452D01*
X3138274Y-15919975D01*
X3119226Y-15929499D01*
X3100178Y-15929499D01*
X3081131Y-15919975D01*
X3071607Y-15910452D01*
X3062083Y-15891404D01*
X3052559Y-15853309D01*
X3052559Y-15805690D01*
X3062083Y-15767595D01*
X3071607Y-15748547D01*
X3081131Y-15739023D01*
X3100178Y-15729499D01*
X3290655Y-15729499D02*
X3309702Y-15729499D01*
X3328750Y-15739023D01*
X3338274Y-15748547D01*
X3347798Y-15767595D01*
X3357321Y-15805690D01*
X3357321Y-15853309D01*
X3347798Y-15891404D01*
X3338274Y-15910452D01*
X3328750Y-15919975D01*
X3309702Y-15929499D01*
X3290655Y-15929499D01*
X3271607Y-15919975D01*
X3262083Y-15910452D01*
X3252559Y-15891404D01*
X3243036Y-15853309D01*
X3243036Y-15805690D01*
X3252559Y-15767595D01*
X3262083Y-15748547D01*
X3271607Y-15739023D01*
X3290655Y-15729499D01*
X3481131Y-15729499D02*
X3500178Y-15729499D01*
X3519226Y-15739023D01*
X3528750Y-15748547D01*
X3538274Y-15767595D01*
X3547798Y-15805690D01*
X3547798Y-15853309D01*
X3538274Y-15891404D01*
X3528750Y-15910452D01*
X3519226Y-15919975D01*
X3500178Y-15929499D01*
X3481131Y-15929499D01*
X3462083Y-15919975D01*
X3452559Y-15910452D01*
X3443036Y-15891404D01*
X3433512Y-15853309D01*
X3433512Y-15805690D01*
X3443036Y-15767595D01*
X3452559Y-15748547D01*
X3462083Y-15739023D01*
X3481131Y-15729499D01*
X3633512Y-15929499D02*
X3633512Y-15796166D01*
X3633512Y-15815214D02*
X3643036Y-15805690D01*
X3662083Y-15796166D01*
X3690655Y-15796166D01*
X3709702Y-15805690D01*
X3719226Y-15824737D01*
X3719226Y-15929499D01*
X3719226Y-15824737D02*
X3728750Y-15805690D01*
X3747798Y-15796166D01*
X3776369Y-15796166D01*
X3795417Y-15805690D01*
X3804940Y-15824737D01*
X3804940Y-15929499D01*
X3900178Y-15929499D02*
X3900178Y-15796166D01*
X3900178Y-15815214D02*
X3909702Y-15805690D01*
X3928750Y-15796166D01*
X3957321Y-15796166D01*
X3976369Y-15805690D01*
X3985893Y-15824737D01*
X3985893Y-15929499D01*
X3985893Y-15824737D02*
X3995417Y-15805690D01*
X4014464Y-15796166D01*
X4043036Y-15796166D01*
X4062083Y-15805690D01*
X4071607Y-15824737D01*
X4071607Y-15929499D01*
X4462083Y-15719975D02*
X4290655Y-15977118D01*
X4719226Y-15729499D02*
X4738274Y-15729499D01*
X4757321Y-15739023D01*
X4766845Y-15748547D01*
X4776369Y-15767595D01*
X4785893Y-15805690D01*
X4785893Y-15853309D01*
X4776369Y-15891404D01*
X4766845Y-15910452D01*
X4757321Y-15919975D01*
X4738274Y-15929499D01*
X4719226Y-15929499D01*
X4700179Y-15919975D01*
X4690655Y-15910452D01*
X4681131Y-15891404D01*
X4671607Y-15853309D01*
X4671607Y-15805690D01*
X4681131Y-15767595D01*
X4690655Y-15748547D01*
X4700179Y-15739023D01*
X4719226Y-15729499D01*
X4871607Y-15910452D02*
X4881131Y-15919975D01*
X4871607Y-15929499D01*
X4862083Y-15919975D01*
X4871607Y-15910452D01*
X4871607Y-15929499D01*
X5071607Y-15929499D02*
X4957321Y-15929499D01*
X5014464Y-15929499D02*
X5014464Y-15729499D01*
X4995417Y-15758071D01*
X4976369Y-15777118D01*
X4957321Y-15786642D01*
X5262083Y-15929499D02*
X5147798Y-15929499D01*
X5204940Y-15929499D02*
X5204940Y-15729499D01*
X5185893Y-15758071D01*
X5166845Y-15777118D01*
X5147798Y-15786642D01*
X5376369Y-15815214D02*
X5357321Y-15805690D01*
X5347798Y-15796166D01*
X5338274Y-15777118D01*
X5338274Y-15767595D01*
X5347798Y-15748547D01*
X5357321Y-15739023D01*
X5376369Y-15729499D01*
X5414464Y-15729499D01*
X5433512Y-15739023D01*
X5443036Y-15748547D01*
X5452560Y-15767595D01*
X5452560Y-15777118D01*
X5443036Y-15796166D01*
X5433512Y-15805690D01*
X5414464Y-15815214D01*
X5376369Y-15815214D01*
X5357321Y-15824737D01*
X5347798Y-15834261D01*
X5338274Y-15853309D01*
X5338274Y-15891404D01*
X5347798Y-15910452D01*
X5357321Y-15919975D01*
X5376369Y-15929499D01*
X5414464Y-15929499D01*
X5433512Y-15919975D01*
X5443036Y-15910452D01*
X5452560Y-15891404D01*
X5452560Y-15853309D01*
X5443036Y-15834261D01*
X5433512Y-15824737D01*
X5414464Y-15815214D01*
X5643036Y-15929499D02*
X5528750Y-15929499D01*
X5585893Y-15929499D02*
X5585893Y-15729499D01*
X5566845Y-15758071D01*
X5547798Y-15777118D01*
X5528750Y-15786642D01*
X5719226Y-15729499D02*
X5719226Y-15767595D01*
X5795417Y-15729499D02*
X5795417Y-15767595D01*
X6090655Y-16005690D02*
X6081131Y-15996166D01*
X6062083Y-15967595D01*
X6052559Y-15948547D01*
X6043036Y-15919975D01*
X6033512Y-15872356D01*
X6033512Y-15834261D01*
X6043036Y-15786642D01*
X6052559Y-15758071D01*
X6062083Y-15739023D01*
X6081131Y-15710452D01*
X6090655Y-15700928D01*
X6271607Y-15929499D02*
X6157321Y-15929499D01*
X6214464Y-15929499D02*
X6214464Y-15729499D01*
X6195417Y-15758071D01*
X6176369Y-15777118D01*
X6157321Y-15786642D01*
X6338274Y-15729499D02*
X6462083Y-15729499D01*
X6395417Y-15805690D01*
X6423988Y-15805690D01*
X6443036Y-15815214D01*
X6452559Y-15824737D01*
X6462083Y-15843785D01*
X6462083Y-15891404D01*
X6452559Y-15910452D01*
X6443036Y-15919975D01*
X6423988Y-15929499D01*
X6366845Y-15929499D01*
X6347798Y-15919975D01*
X6338274Y-15910452D01*
X6538274Y-15748547D02*
X6547798Y-15739023D01*
X6566845Y-15729499D01*
X6614464Y-15729499D01*
X6633512Y-15739023D01*
X6643036Y-15748547D01*
X6652559Y-15767595D01*
X6652559Y-15786642D01*
X6643036Y-15815214D01*
X6528750Y-15929499D01*
X6652559Y-15929499D01*
X6890655Y-15929499D02*
X6890655Y-15729499D01*
X6976369Y-15929499D02*
X6976369Y-15824737D01*
X6966845Y-15805690D01*
X6947798Y-15796166D01*
X6919226Y-15796166D01*
X6900178Y-15805690D01*
X6890655Y-15815214D01*
X7100178Y-15929499D02*
X7081131Y-15919975D01*
X7071607Y-15910452D01*
X7062083Y-15891404D01*
X7062083Y-15834261D01*
X7071607Y-15815214D01*
X7081131Y-15805690D01*
X7100178Y-15796166D01*
X7128750Y-15796166D01*
X7147798Y-15805690D01*
X7157321Y-15815214D01*
X7166845Y-15834261D01*
X7166845Y-15891404D01*
X7157321Y-15910452D01*
X7147798Y-15919975D01*
X7128750Y-15929499D01*
X7100178Y-15929499D01*
X7281131Y-15929499D02*
X7262083Y-15919975D01*
X7252559Y-15900928D01*
X7252559Y-15729499D01*
X7433512Y-15919975D02*
X7414464Y-15929499D01*
X7376369Y-15929499D01*
X7357321Y-15919975D01*
X7347798Y-15900928D01*
X7347798Y-15824737D01*
X7357321Y-15805690D01*
X7376369Y-15796166D01*
X7414464Y-15796166D01*
X7433512Y-15805690D01*
X7443036Y-15824737D01*
X7443036Y-15843785D01*
X7347798Y-15862833D01*
X7519226Y-15919975D02*
X7538274Y-15929499D01*
X7576369Y-15929499D01*
X7595417Y-15919975D01*
X7604940Y-15900928D01*
X7604940Y-15891404D01*
X7595417Y-15872356D01*
X7576369Y-15862833D01*
X7547798Y-15862833D01*
X7528750Y-15853309D01*
X7519226Y-15834261D01*
X7519226Y-15824737D01*
X7528750Y-15805690D01*
X7547798Y-15796166D01*
X7576369Y-15796166D01*
X7595417Y-15805690D01*
X7671607Y-16005690D02*
X7681131Y-15996166D01*
X7700178Y-15967595D01*
X7709702Y-15948547D01*
X7719226Y-15919975D01*
X7728750Y-15872356D01*
X7728750Y-15834261D01*
X7719226Y-15786642D01*
X7709702Y-15758071D01*
X7700178Y-15739023D01*
X7681131Y-15710452D01*
X7671607Y-15700928D01*
X8033512Y-16005690D02*
X8023988Y-15996166D01*
X8004940Y-15967595D01*
X7995417Y-15948547D01*
X7985893Y-15919975D01*
X7976369Y-15872356D01*
X7976369Y-15834261D01*
X7985893Y-15786642D01*
X7995417Y-15758071D01*
X8004940Y-15739023D01*
X8023988Y-15710452D01*
X8033512Y-15700928D01*
X8109702Y-15796166D02*
X8109702Y-15929499D01*
X8109702Y-15815214D02*
X8119226Y-15805690D01*
X8138274Y-15796166D01*
X8166845Y-15796166D01*
X8185893Y-15805690D01*
X8195417Y-15824737D01*
X8195417Y-15929499D01*
X8319226Y-15929499D02*
X8300178Y-15919975D01*
X8290655Y-15910452D01*
X8281131Y-15891404D01*
X8281131Y-15834261D01*
X8290655Y-15815214D01*
X8300178Y-15805690D01*
X8319226Y-15796166D01*
X8347798Y-15796166D01*
X8366845Y-15805690D01*
X8376369Y-15815214D01*
X8385893Y-15834261D01*
X8385893Y-15891404D01*
X8376369Y-15910452D01*
X8366845Y-15919975D01*
X8347798Y-15929499D01*
X8319226Y-15929499D01*
X8443036Y-15796166D02*
X8519226Y-15796166D01*
X8471607Y-15729499D02*
X8471607Y-15900928D01*
X8481131Y-15919975D01*
X8500179Y-15929499D01*
X8519226Y-15929499D01*
X8738274Y-15796166D02*
X8738274Y-15996166D01*
X8738274Y-15805690D02*
X8757321Y-15796166D01*
X8795417Y-15796166D01*
X8814464Y-15805690D01*
X8823988Y-15815214D01*
X8833512Y-15834261D01*
X8833512Y-15891404D01*
X8823988Y-15910452D01*
X8814464Y-15919975D01*
X8795417Y-15929499D01*
X8757321Y-15929499D01*
X8738274Y-15919975D01*
X8947798Y-15929499D02*
X8928750Y-15919975D01*
X8919226Y-15900928D01*
X8919226Y-15729499D01*
X9109702Y-15929499D02*
X9109702Y-15824737D01*
X9100179Y-15805690D01*
X9081131Y-15796166D01*
X9043036Y-15796166D01*
X9023988Y-15805690D01*
X9109702Y-15919975D02*
X9090655Y-15929499D01*
X9043036Y-15929499D01*
X9023988Y-15919975D01*
X9014464Y-15900928D01*
X9014464Y-15881880D01*
X9023988Y-15862833D01*
X9043036Y-15853309D01*
X9090655Y-15853309D01*
X9109702Y-15843785D01*
X9176369Y-15796166D02*
X9252560Y-15796166D01*
X9204940Y-15729499D02*
X9204940Y-15900928D01*
X9214464Y-15919975D01*
X9233512Y-15929499D01*
X9252560Y-15929499D01*
X9395417Y-15919975D02*
X9376369Y-15929499D01*
X9338274Y-15929499D01*
X9319226Y-15919975D01*
X9309702Y-15900928D01*
X9309702Y-15824737D01*
X9319226Y-15805690D01*
X9338274Y-15796166D01*
X9376369Y-15796166D01*
X9395417Y-15805690D01*
X9404940Y-15824737D01*
X9404940Y-15843785D01*
X9309702Y-15862833D01*
X9576369Y-15929499D02*
X9576369Y-15729499D01*
X9576369Y-15919975D02*
X9557321Y-15929499D01*
X9519226Y-15929499D01*
X9500179Y-15919975D01*
X9490655Y-15910452D01*
X9481131Y-15891404D01*
X9481131Y-15834261D01*
X9490655Y-15815214D01*
X9500179Y-15805690D01*
X9519226Y-15796166D01*
X9557321Y-15796166D01*
X9576369Y-15805690D01*
X9652560Y-16005690D02*
X9662083Y-15996166D01*
X9681131Y-15967595D01*
X9690655Y-15948547D01*
X9700179Y-15919975D01*
X9709702Y-15872356D01*
X9709702Y-15834261D01*
X9700179Y-15786642D01*
X9690655Y-15758071D01*
X9681131Y-15739023D01*
X9662083Y-15710452D01*
X9652560Y-15700928D01*
X2418750Y-16259023D02*
X2518750Y-16159023D01*
X2418750Y-16059023D01*
X2318750Y-16159023D01*
X2418750Y-16259023D01*
X2757321Y-16049499D02*
X2881131Y-16049499D01*
X2814464Y-16125690D01*
X2843036Y-16125690D01*
X2862083Y-16135214D01*
X2871607Y-16144737D01*
X2881131Y-16163785D01*
X2881131Y-16211404D01*
X2871607Y-16230452D01*
X2862083Y-16239975D01*
X2843036Y-16249499D01*
X2785893Y-16249499D01*
X2766845Y-16239975D01*
X2757321Y-16230452D01*
X2966845Y-16230452D02*
X2976369Y-16239975D01*
X2966845Y-16249499D01*
X2957321Y-16239975D01*
X2966845Y-16230452D01*
X2966845Y-16249499D01*
X3100178Y-16049499D02*
X3119226Y-16049499D01*
X3138274Y-16059023D01*
X3147798Y-16068547D01*
X3157321Y-16087595D01*
X3166845Y-16125690D01*
X3166845Y-16173309D01*
X3157321Y-16211404D01*
X3147798Y-16230452D01*
X3138274Y-16239975D01*
X3119226Y-16249499D01*
X3100178Y-16249499D01*
X3081131Y-16239975D01*
X3071607Y-16230452D01*
X3062083Y-16211404D01*
X3052559Y-16173309D01*
X3052559Y-16125690D01*
X3062083Y-16087595D01*
X3071607Y-16068547D01*
X3081131Y-16059023D01*
X3100178Y-16049499D01*
X3338274Y-16116166D02*
X3338274Y-16249499D01*
X3290655Y-16039975D02*
X3243036Y-16182833D01*
X3366845Y-16182833D01*
X3471607Y-16135214D02*
X3452559Y-16125690D01*
X3443036Y-16116166D01*
X3433512Y-16097118D01*
X3433512Y-16087595D01*
X3443036Y-16068547D01*
X3452559Y-16059023D01*
X3471607Y-16049499D01*
X3509702Y-16049499D01*
X3528750Y-16059023D01*
X3538274Y-16068547D01*
X3547798Y-16087595D01*
X3547798Y-16097118D01*
X3538274Y-16116166D01*
X3528750Y-16125690D01*
X3509702Y-16135214D01*
X3471607Y-16135214D01*
X3452559Y-16144737D01*
X3443036Y-16154261D01*
X3433512Y-16173309D01*
X3433512Y-16211404D01*
X3443036Y-16230452D01*
X3452559Y-16239975D01*
X3471607Y-16249499D01*
X3509702Y-16249499D01*
X3528750Y-16239975D01*
X3538274Y-16230452D01*
X3547798Y-16211404D01*
X3547798Y-16173309D01*
X3538274Y-16154261D01*
X3528750Y-16144737D01*
X3509702Y-16135214D01*
X3633512Y-16249499D02*
X3633512Y-16116166D01*
X3633512Y-16135214D02*
X3643036Y-16125690D01*
X3662083Y-16116166D01*
X3690655Y-16116166D01*
X3709702Y-16125690D01*
X3719226Y-16144737D01*
X3719226Y-16249499D01*
X3719226Y-16144737D02*
X3728750Y-16125690D01*
X3747798Y-16116166D01*
X3776369Y-16116166D01*
X3795417Y-16125690D01*
X3804940Y-16144737D01*
X3804940Y-16249499D01*
X3900178Y-16249499D02*
X3900178Y-16116166D01*
X3900178Y-16135214D02*
X3909702Y-16125690D01*
X3928750Y-16116166D01*
X3957321Y-16116166D01*
X3976369Y-16125690D01*
X3985893Y-16144737D01*
X3985893Y-16249499D01*
X3985893Y-16144737D02*
X3995417Y-16125690D01*
X4014464Y-16116166D01*
X4043036Y-16116166D01*
X4062083Y-16125690D01*
X4071607Y-16144737D01*
X4071607Y-16249499D01*
X4462083Y-16039975D02*
X4290655Y-16297118D01*
X4719226Y-16049499D02*
X4738274Y-16049499D01*
X4757321Y-16059023D01*
X4766845Y-16068547D01*
X4776369Y-16087595D01*
X4785893Y-16125690D01*
X4785893Y-16173309D01*
X4776369Y-16211404D01*
X4766845Y-16230452D01*
X4757321Y-16239975D01*
X4738274Y-16249499D01*
X4719226Y-16249499D01*
X4700179Y-16239975D01*
X4690655Y-16230452D01*
X4681131Y-16211404D01*
X4671607Y-16173309D01*
X4671607Y-16125690D01*
X4681131Y-16087595D01*
X4690655Y-16068547D01*
X4700179Y-16059023D01*
X4719226Y-16049499D01*
X4871607Y-16230452D02*
X4881131Y-16239975D01*
X4871607Y-16249499D01*
X4862083Y-16239975D01*
X4871607Y-16230452D01*
X4871607Y-16249499D01*
X5071607Y-16249499D02*
X4957321Y-16249499D01*
X5014464Y-16249499D02*
X5014464Y-16049499D01*
X4995417Y-16078071D01*
X4976369Y-16097118D01*
X4957321Y-16106642D01*
X5147798Y-16068547D02*
X5157321Y-16059023D01*
X5176369Y-16049499D01*
X5223988Y-16049499D01*
X5243036Y-16059023D01*
X5252560Y-16068547D01*
X5262083Y-16087595D01*
X5262083Y-16106642D01*
X5252560Y-16135214D01*
X5138274Y-16249499D01*
X5262083Y-16249499D01*
X5385893Y-16049499D02*
X5404940Y-16049499D01*
X5423988Y-16059023D01*
X5433512Y-16068547D01*
X5443036Y-16087595D01*
X5452560Y-16125690D01*
X5452560Y-16173309D01*
X5443036Y-16211404D01*
X5433512Y-16230452D01*
X5423988Y-16239975D01*
X5404940Y-16249499D01*
X5385893Y-16249499D01*
X5366845Y-16239975D01*
X5357321Y-16230452D01*
X5347798Y-16211404D01*
X5338274Y-16173309D01*
X5338274Y-16125690D01*
X5347798Y-16087595D01*
X5357321Y-16068547D01*
X5366845Y-16059023D01*
X5385893Y-16049499D01*
X5576369Y-16049499D02*
X5595417Y-16049499D01*
X5614464Y-16059023D01*
X5623988Y-16068547D01*
X5633512Y-16087595D01*
X5643036Y-16125690D01*
X5643036Y-16173309D01*
X5633512Y-16211404D01*
X5623988Y-16230452D01*
X5614464Y-16239975D01*
X5595417Y-16249499D01*
X5576369Y-16249499D01*
X5557321Y-16239975D01*
X5547798Y-16230452D01*
X5538274Y-16211404D01*
X5528750Y-16173309D01*
X5528750Y-16125690D01*
X5538274Y-16087595D01*
X5547798Y-16068547D01*
X5557321Y-16059023D01*
X5576369Y-16049499D01*
X5719226Y-16049499D02*
X5719226Y-16087595D01*
X5795417Y-16049499D02*
X5795417Y-16087595D01*
X6090655Y-16325690D02*
X6081131Y-16316166D01*
X6062083Y-16287595D01*
X6052559Y-16268547D01*
X6043036Y-16239975D01*
X6033512Y-16192356D01*
X6033512Y-16154261D01*
X6043036Y-16106642D01*
X6052559Y-16078071D01*
X6062083Y-16059023D01*
X6081131Y-16030452D01*
X6090655Y-16020928D01*
X6271607Y-16249499D02*
X6157321Y-16249499D01*
X6214464Y-16249499D02*
X6214464Y-16049499D01*
X6195417Y-16078071D01*
X6176369Y-16097118D01*
X6157321Y-16106642D01*
X6395417Y-16049499D02*
X6414464Y-16049499D01*
X6433512Y-16059023D01*
X6443036Y-16068547D01*
X6452559Y-16087595D01*
X6462083Y-16125690D01*
X6462083Y-16173309D01*
X6452559Y-16211404D01*
X6443036Y-16230452D01*
X6433512Y-16239975D01*
X6414464Y-16249499D01*
X6395417Y-16249499D01*
X6376369Y-16239975D01*
X6366845Y-16230452D01*
X6357321Y-16211404D01*
X6347798Y-16173309D01*
X6347798Y-16125690D01*
X6357321Y-16087595D01*
X6366845Y-16068547D01*
X6376369Y-16059023D01*
X6395417Y-16049499D01*
X6700178Y-16249499D02*
X6700178Y-16049499D01*
X6785893Y-16249499D02*
X6785893Y-16144737D01*
X6776369Y-16125690D01*
X6757321Y-16116166D01*
X6728750Y-16116166D01*
X6709702Y-16125690D01*
X6700178Y-16135214D01*
X6909702Y-16249499D02*
X6890655Y-16239975D01*
X6881131Y-16230452D01*
X6871607Y-16211404D01*
X6871607Y-16154261D01*
X6881131Y-16135214D01*
X6890655Y-16125690D01*
X6909702Y-16116166D01*
X6938274Y-16116166D01*
X6957321Y-16125690D01*
X6966845Y-16135214D01*
X6976369Y-16154261D01*
X6976369Y-16211404D01*
X6966845Y-16230452D01*
X6957321Y-16239975D01*
X6938274Y-16249499D01*
X6909702Y-16249499D01*
X7090655Y-16249499D02*
X7071607Y-16239975D01*
X7062083Y-16220928D01*
X7062083Y-16049499D01*
X7243036Y-16239975D02*
X7223988Y-16249499D01*
X7185893Y-16249499D01*
X7166845Y-16239975D01*
X7157321Y-16220928D01*
X7157321Y-16144737D01*
X7166845Y-16125690D01*
X7185893Y-16116166D01*
X7223988Y-16116166D01*
X7243036Y-16125690D01*
X7252559Y-16144737D01*
X7252559Y-16163785D01*
X7157321Y-16182833D01*
X7328750Y-16239975D02*
X7347798Y-16249499D01*
X7385893Y-16249499D01*
X7404940Y-16239975D01*
X7414464Y-16220928D01*
X7414464Y-16211404D01*
X7404940Y-16192356D01*
X7385893Y-16182833D01*
X7357321Y-16182833D01*
X7338274Y-16173309D01*
X7328750Y-16154261D01*
X7328750Y-16144737D01*
X7338274Y-16125690D01*
X7357321Y-16116166D01*
X7385893Y-16116166D01*
X7404940Y-16125690D01*
X7481131Y-16325690D02*
X7490655Y-16316166D01*
X7509702Y-16287595D01*
X7519226Y-16268547D01*
X7528750Y-16239975D01*
X7538274Y-16192356D01*
X7538274Y-16154261D01*
X7528750Y-16106642D01*
X7519226Y-16078071D01*
X7509702Y-16059023D01*
X7490655Y-16030452D01*
X7481131Y-16020928D01*
X7843036Y-16325690D02*
X7833512Y-16316166D01*
X7814464Y-16287595D01*
X7804940Y-16268547D01*
X7795417Y-16239975D01*
X7785893Y-16192356D01*
X7785893Y-16154261D01*
X7795417Y-16106642D01*
X7804940Y-16078071D01*
X7814464Y-16059023D01*
X7833512Y-16030452D01*
X7843036Y-16020928D01*
X7919226Y-16116166D02*
X7919226Y-16249499D01*
X7919226Y-16135214D02*
X7928750Y-16125690D01*
X7947798Y-16116166D01*
X7976369Y-16116166D01*
X7995417Y-16125690D01*
X8004940Y-16144737D01*
X8004940Y-16249499D01*
X8128750Y-16249499D02*
X8109702Y-16239975D01*
X8100178Y-16230452D01*
X8090655Y-16211404D01*
X8090655Y-16154261D01*
X8100178Y-16135214D01*
X8109702Y-16125690D01*
X8128750Y-16116166D01*
X8157321Y-16116166D01*
X8176369Y-16125690D01*
X8185893Y-16135214D01*
X8195417Y-16154261D01*
X8195417Y-16211404D01*
X8185893Y-16230452D01*
X8176369Y-16239975D01*
X8157321Y-16249499D01*
X8128750Y-16249499D01*
X8252559Y-16116166D02*
X8328750Y-16116166D01*
X8281131Y-16049499D02*
X8281131Y-16220928D01*
X8290655Y-16239975D01*
X8309702Y-16249499D01*
X8328750Y-16249499D01*
X8547798Y-16116166D02*
X8547798Y-16316166D01*
X8547798Y-16125690D02*
X8566845Y-16116166D01*
X8604940Y-16116166D01*
X8623988Y-16125690D01*
X8633512Y-16135214D01*
X8643036Y-16154261D01*
X8643036Y-16211404D01*
X8633512Y-16230452D01*
X8623988Y-16239975D01*
X8604940Y-16249499D01*
X8566845Y-16249499D01*
X8547798Y-16239975D01*
X8757321Y-16249499D02*
X8738274Y-16239975D01*
X8728750Y-16220928D01*
X8728750Y-16049499D01*
X8919226Y-16249499D02*
X8919226Y-16144737D01*
X8909702Y-16125690D01*
X8890655Y-16116166D01*
X8852560Y-16116166D01*
X8833512Y-16125690D01*
X8919226Y-16239975D02*
X8900179Y-16249499D01*
X8852560Y-16249499D01*
X8833512Y-16239975D01*
X8823988Y-16220928D01*
X8823988Y-16201880D01*
X8833512Y-16182833D01*
X8852560Y-16173309D01*
X8900179Y-16173309D01*
X8919226Y-16163785D01*
X8985893Y-16116166D02*
X9062083Y-16116166D01*
X9014464Y-16049499D02*
X9014464Y-16220928D01*
X9023988Y-16239975D01*
X9043036Y-16249499D01*
X9062083Y-16249499D01*
X9204940Y-16239975D02*
X9185893Y-16249499D01*
X9147798Y-16249499D01*
X9128750Y-16239975D01*
X9119226Y-16220928D01*
X9119226Y-16144737D01*
X9128750Y-16125690D01*
X9147798Y-16116166D01*
X9185893Y-16116166D01*
X9204940Y-16125690D01*
X9214464Y-16144737D01*
X9214464Y-16163785D01*
X9119226Y-16182833D01*
X9385893Y-16249499D02*
X9385893Y-16049499D01*
X9385893Y-16239975D02*
X9366845Y-16249499D01*
X9328750Y-16249499D01*
X9309702Y-16239975D01*
X9300179Y-16230452D01*
X9290655Y-16211404D01*
X9290655Y-16154261D01*
X9300179Y-16135214D01*
X9309702Y-16125690D01*
X9328750Y-16116166D01*
X9366845Y-16116166D01*
X9385893Y-16125690D01*
X9462083Y-16325690D02*
X9471607Y-16316166D01*
X9490655Y-16287595D01*
X9500179Y-16268547D01*
X9509702Y-16239975D01*
X9519226Y-16192356D01*
X9519226Y-16154261D01*
X9509702Y-16106642D01*
X9500179Y-16078071D01*
X9490655Y-16059023D01*
X9471607Y-16030452D01*
X9462083Y-16020928D01*
X2318750Y-16379023D02*
X2518750Y-16579023D01*
X2518750Y-16379023D02*
X2318750Y-16579023D01*
X2518750Y-16479023D02*
G75*
G03*
X2518750Y-16479023I-100000J0D01*
G01*
X2757321Y-16369499D02*
X2881131Y-16369499D01*
X2814464Y-16445690D01*
X2843036Y-16445690D01*
X2862083Y-16455214D01*
X2871607Y-16464737D01*
X2881131Y-16483785D01*
X2881131Y-16531404D01*
X2871607Y-16550452D01*
X2862083Y-16559975D01*
X2843036Y-16569499D01*
X2785893Y-16569499D01*
X2766845Y-16559975D01*
X2757321Y-16550452D01*
X2966845Y-16550452D02*
X2976369Y-16559975D01*
X2966845Y-16569499D01*
X2957321Y-16559975D01*
X2966845Y-16550452D01*
X2966845Y-16569499D01*
X3071607Y-16569499D02*
X3109702Y-16569499D01*
X3128750Y-16559975D01*
X3138274Y-16550452D01*
X3157321Y-16521880D01*
X3166845Y-16483785D01*
X3166845Y-16407595D01*
X3157321Y-16388547D01*
X3147798Y-16379023D01*
X3128750Y-16369499D01*
X3090655Y-16369499D01*
X3071607Y-16379023D01*
X3062083Y-16388547D01*
X3052559Y-16407595D01*
X3052559Y-16455214D01*
X3062083Y-16474261D01*
X3071607Y-16483785D01*
X3090655Y-16493309D01*
X3128750Y-16493309D01*
X3147798Y-16483785D01*
X3157321Y-16474261D01*
X3166845Y-16455214D01*
X3281131Y-16455214D02*
X3262083Y-16445690D01*
X3252559Y-16436166D01*
X3243036Y-16417118D01*
X3243036Y-16407595D01*
X3252559Y-16388547D01*
X3262083Y-16379023D01*
X3281131Y-16369499D01*
X3319226Y-16369499D01*
X3338274Y-16379023D01*
X3347798Y-16388547D01*
X3357321Y-16407595D01*
X3357321Y-16417118D01*
X3347798Y-16436166D01*
X3338274Y-16445690D01*
X3319226Y-16455214D01*
X3281131Y-16455214D01*
X3262083Y-16464737D01*
X3252559Y-16474261D01*
X3243036Y-16493309D01*
X3243036Y-16531404D01*
X3252559Y-16550452D01*
X3262083Y-16559975D01*
X3281131Y-16569499D01*
X3319226Y-16569499D01*
X3338274Y-16559975D01*
X3347798Y-16550452D01*
X3357321Y-16531404D01*
X3357321Y-16493309D01*
X3347798Y-16474261D01*
X3338274Y-16464737D01*
X3319226Y-16455214D01*
X3471607Y-16455214D02*
X3452559Y-16445690D01*
X3443036Y-16436166D01*
X3433512Y-16417118D01*
X3433512Y-16407595D01*
X3443036Y-16388547D01*
X3452559Y-16379023D01*
X3471607Y-16369499D01*
X3509702Y-16369499D01*
X3528750Y-16379023D01*
X3538274Y-16388547D01*
X3547798Y-16407595D01*
X3547798Y-16417118D01*
X3538274Y-16436166D01*
X3528750Y-16445690D01*
X3509702Y-16455214D01*
X3471607Y-16455214D01*
X3452559Y-16464737D01*
X3443036Y-16474261D01*
X3433512Y-16493309D01*
X3433512Y-16531404D01*
X3443036Y-16550452D01*
X3452559Y-16559975D01*
X3471607Y-16569499D01*
X3509702Y-16569499D01*
X3528750Y-16559975D01*
X3538274Y-16550452D01*
X3547798Y-16531404D01*
X3547798Y-16493309D01*
X3538274Y-16474261D01*
X3528750Y-16464737D01*
X3509702Y-16455214D01*
X3633512Y-16569499D02*
X3633512Y-16436166D01*
X3633512Y-16455214D02*
X3643036Y-16445690D01*
X3662083Y-16436166D01*
X3690655Y-16436166D01*
X3709702Y-16445690D01*
X3719226Y-16464737D01*
X3719226Y-16569499D01*
X3719226Y-16464737D02*
X3728750Y-16445690D01*
X3747798Y-16436166D01*
X3776369Y-16436166D01*
X3795417Y-16445690D01*
X3804940Y-16464737D01*
X3804940Y-16569499D01*
X3900178Y-16569499D02*
X3900178Y-16436166D01*
X3900178Y-16455214D02*
X3909702Y-16445690D01*
X3928750Y-16436166D01*
X3957321Y-16436166D01*
X3976369Y-16445690D01*
X3985893Y-16464737D01*
X3985893Y-16569499D01*
X3985893Y-16464737D02*
X3995417Y-16445690D01*
X4014464Y-16436166D01*
X4043036Y-16436166D01*
X4062083Y-16445690D01*
X4071607Y-16464737D01*
X4071607Y-16569499D01*
X4462083Y-16359975D02*
X4290655Y-16617118D01*
X4719226Y-16369499D02*
X4738274Y-16369499D01*
X4757321Y-16379023D01*
X4766845Y-16388547D01*
X4776369Y-16407595D01*
X4785893Y-16445690D01*
X4785893Y-16493309D01*
X4776369Y-16531404D01*
X4766845Y-16550452D01*
X4757321Y-16559975D01*
X4738274Y-16569499D01*
X4719226Y-16569499D01*
X4700179Y-16559975D01*
X4690655Y-16550452D01*
X4681131Y-16531404D01*
X4671607Y-16493309D01*
X4671607Y-16445690D01*
X4681131Y-16407595D01*
X4690655Y-16388547D01*
X4700179Y-16379023D01*
X4719226Y-16369499D01*
X4871607Y-16550452D02*
X4881131Y-16559975D01*
X4871607Y-16569499D01*
X4862083Y-16559975D01*
X4871607Y-16550452D01*
X4871607Y-16569499D01*
X5071607Y-16569499D02*
X4957321Y-16569499D01*
X5014464Y-16569499D02*
X5014464Y-16369499D01*
X4995417Y-16398071D01*
X4976369Y-16417118D01*
X4957321Y-16426642D01*
X5252560Y-16369499D02*
X5157321Y-16369499D01*
X5147798Y-16464737D01*
X5157321Y-16455214D01*
X5176369Y-16445690D01*
X5223988Y-16445690D01*
X5243036Y-16455214D01*
X5252560Y-16464737D01*
X5262083Y-16483785D01*
X5262083Y-16531404D01*
X5252560Y-16550452D01*
X5243036Y-16559975D01*
X5223988Y-16569499D01*
X5176369Y-16569499D01*
X5157321Y-16559975D01*
X5147798Y-16550452D01*
X5328750Y-16369499D02*
X5462083Y-16369499D01*
X5376369Y-16569499D01*
X5576369Y-16369499D02*
X5595417Y-16369499D01*
X5614464Y-16379023D01*
X5623988Y-16388547D01*
X5633512Y-16407595D01*
X5643036Y-16445690D01*
X5643036Y-16493309D01*
X5633512Y-16531404D01*
X5623988Y-16550452D01*
X5614464Y-16559975D01*
X5595417Y-16569499D01*
X5576369Y-16569499D01*
X5557321Y-16559975D01*
X5547798Y-16550452D01*
X5538274Y-16531404D01*
X5528750Y-16493309D01*
X5528750Y-16445690D01*
X5538274Y-16407595D01*
X5547798Y-16388547D01*
X5557321Y-16379023D01*
X5576369Y-16369499D01*
X5719226Y-16369499D02*
X5719226Y-16407595D01*
X5795417Y-16369499D02*
X5795417Y-16407595D01*
X6090655Y-16645690D02*
X6081131Y-16636166D01*
X6062083Y-16607595D01*
X6052559Y-16588547D01*
X6043036Y-16559975D01*
X6033512Y-16512356D01*
X6033512Y-16474261D01*
X6043036Y-16426642D01*
X6052559Y-16398071D01*
X6062083Y-16379023D01*
X6081131Y-16350452D01*
X6090655Y-16340928D01*
X6271607Y-16569499D02*
X6157321Y-16569499D01*
X6214464Y-16569499D02*
X6214464Y-16369499D01*
X6195417Y-16398071D01*
X6176369Y-16417118D01*
X6157321Y-16426642D01*
X6395417Y-16369499D02*
X6414464Y-16369499D01*
X6433512Y-16379023D01*
X6443036Y-16388547D01*
X6452559Y-16407595D01*
X6462083Y-16445690D01*
X6462083Y-16493309D01*
X6452559Y-16531404D01*
X6443036Y-16550452D01*
X6433512Y-16559975D01*
X6414464Y-16569499D01*
X6395417Y-16569499D01*
X6376369Y-16559975D01*
X6366845Y-16550452D01*
X6357321Y-16531404D01*
X6347798Y-16493309D01*
X6347798Y-16445690D01*
X6357321Y-16407595D01*
X6366845Y-16388547D01*
X6376369Y-16379023D01*
X6395417Y-16369499D01*
X6700178Y-16569499D02*
X6700178Y-16369499D01*
X6785893Y-16569499D02*
X6785893Y-16464737D01*
X6776369Y-16445690D01*
X6757321Y-16436166D01*
X6728750Y-16436166D01*
X6709702Y-16445690D01*
X6700178Y-16455214D01*
X6909702Y-16569499D02*
X6890655Y-16559975D01*
X6881131Y-16550452D01*
X6871607Y-16531404D01*
X6871607Y-16474261D01*
X6881131Y-16455214D01*
X6890655Y-16445690D01*
X6909702Y-16436166D01*
X6938274Y-16436166D01*
X6957321Y-16445690D01*
X6966845Y-16455214D01*
X6976369Y-16474261D01*
X6976369Y-16531404D01*
X6966845Y-16550452D01*
X6957321Y-16559975D01*
X6938274Y-16569499D01*
X6909702Y-16569499D01*
X7090655Y-16569499D02*
X7071607Y-16559975D01*
X7062083Y-16540928D01*
X7062083Y-16369499D01*
X7243036Y-16559975D02*
X7223988Y-16569499D01*
X7185893Y-16569499D01*
X7166845Y-16559975D01*
X7157321Y-16540928D01*
X7157321Y-16464737D01*
X7166845Y-16445690D01*
X7185893Y-16436166D01*
X7223988Y-16436166D01*
X7243036Y-16445690D01*
X7252559Y-16464737D01*
X7252559Y-16483785D01*
X7157321Y-16502833D01*
X7328750Y-16559975D02*
X7347798Y-16569499D01*
X7385893Y-16569499D01*
X7404940Y-16559975D01*
X7414464Y-16540928D01*
X7414464Y-16531404D01*
X7404940Y-16512356D01*
X7385893Y-16502833D01*
X7357321Y-16502833D01*
X7338274Y-16493309D01*
X7328750Y-16474261D01*
X7328750Y-16464737D01*
X7338274Y-16445690D01*
X7357321Y-16436166D01*
X7385893Y-16436166D01*
X7404940Y-16445690D01*
X7481131Y-16645690D02*
X7490655Y-16636166D01*
X7509702Y-16607595D01*
X7519226Y-16588547D01*
X7528750Y-16559975D01*
X7538274Y-16512356D01*
X7538274Y-16474261D01*
X7528750Y-16426642D01*
X7519226Y-16398071D01*
X7509702Y-16379023D01*
X7490655Y-16350452D01*
X7481131Y-16340928D01*
X7843036Y-16645690D02*
X7833512Y-16636166D01*
X7814464Y-16607595D01*
X7804940Y-16588547D01*
X7795417Y-16559975D01*
X7785893Y-16512356D01*
X7785893Y-16474261D01*
X7795417Y-16426642D01*
X7804940Y-16398071D01*
X7814464Y-16379023D01*
X7833512Y-16350452D01*
X7843036Y-16340928D01*
X7919226Y-16436166D02*
X7919226Y-16569499D01*
X7919226Y-16455214D02*
X7928750Y-16445690D01*
X7947798Y-16436166D01*
X7976369Y-16436166D01*
X7995417Y-16445690D01*
X8004940Y-16464737D01*
X8004940Y-16569499D01*
X8128750Y-16569499D02*
X8109702Y-16559975D01*
X8100178Y-16550452D01*
X8090655Y-16531404D01*
X8090655Y-16474261D01*
X8100178Y-16455214D01*
X8109702Y-16445690D01*
X8128750Y-16436166D01*
X8157321Y-16436166D01*
X8176369Y-16445690D01*
X8185893Y-16455214D01*
X8195417Y-16474261D01*
X8195417Y-16531404D01*
X8185893Y-16550452D01*
X8176369Y-16559975D01*
X8157321Y-16569499D01*
X8128750Y-16569499D01*
X8252559Y-16436166D02*
X8328750Y-16436166D01*
X8281131Y-16369499D02*
X8281131Y-16540928D01*
X8290655Y-16559975D01*
X8309702Y-16569499D01*
X8328750Y-16569499D01*
X8547798Y-16436166D02*
X8547798Y-16636166D01*
X8547798Y-16445690D02*
X8566845Y-16436166D01*
X8604940Y-16436166D01*
X8623988Y-16445690D01*
X8633512Y-16455214D01*
X8643036Y-16474261D01*
X8643036Y-16531404D01*
X8633512Y-16550452D01*
X8623988Y-16559975D01*
X8604940Y-16569499D01*
X8566845Y-16569499D01*
X8547798Y-16559975D01*
X8757321Y-16569499D02*
X8738274Y-16559975D01*
X8728750Y-16540928D01*
X8728750Y-16369499D01*
X8919226Y-16569499D02*
X8919226Y-16464737D01*
X8909702Y-16445690D01*
X8890655Y-16436166D01*
X8852560Y-16436166D01*
X8833512Y-16445690D01*
X8919226Y-16559975D02*
X8900179Y-16569499D01*
X8852560Y-16569499D01*
X8833512Y-16559975D01*
X8823988Y-16540928D01*
X8823988Y-16521880D01*
X8833512Y-16502833D01*
X8852560Y-16493309D01*
X8900179Y-16493309D01*
X8919226Y-16483785D01*
X8985893Y-16436166D02*
X9062083Y-16436166D01*
X9014464Y-16369499D02*
X9014464Y-16540928D01*
X9023988Y-16559975D01*
X9043036Y-16569499D01*
X9062083Y-16569499D01*
X9204940Y-16559975D02*
X9185893Y-16569499D01*
X9147798Y-16569499D01*
X9128750Y-16559975D01*
X9119226Y-16540928D01*
X9119226Y-16464737D01*
X9128750Y-16445690D01*
X9147798Y-16436166D01*
X9185893Y-16436166D01*
X9204940Y-16445690D01*
X9214464Y-16464737D01*
X9214464Y-16483785D01*
X9119226Y-16502833D01*
X9385893Y-16569499D02*
X9385893Y-16369499D01*
X9385893Y-16559975D02*
X9366845Y-16569499D01*
X9328750Y-16569499D01*
X9309702Y-16559975D01*
X9300179Y-16550452D01*
X9290655Y-16531404D01*
X9290655Y-16474261D01*
X9300179Y-16455214D01*
X9309702Y-16445690D01*
X9328750Y-16436166D01*
X9366845Y-16436166D01*
X9385893Y-16445690D01*
X9462083Y-16645690D02*
X9471607Y-16636166D01*
X9490655Y-16607595D01*
X9500179Y-16588547D01*
X9509702Y-16559975D01*
X9519226Y-16512356D01*
X9519226Y-16474261D01*
X9509702Y-16426642D01*
X9500179Y-16398071D01*
X9490655Y-16379023D01*
X9471607Y-16350452D01*
X9462083Y-16340928D01*
X2318750Y-16699023D02*
X2518750Y-16899023D01*
X2518750Y-16699023D02*
X2318750Y-16899023D01*
X2418750Y-16699023D02*
X2418750Y-16899023D01*
X2318750Y-16799023D02*
X2518750Y-16799023D01*
X2862083Y-16756166D02*
X2862083Y-16889499D01*
X2814464Y-16679975D02*
X2766845Y-16822833D01*
X2890655Y-16822833D01*
X2966845Y-16870452D02*
X2976369Y-16879976D01*
X2966845Y-16889499D01*
X2957321Y-16879976D01*
X2966845Y-16870452D01*
X2966845Y-16889499D01*
X3100178Y-16689499D02*
X3119226Y-16689499D01*
X3138274Y-16699023D01*
X3147798Y-16708547D01*
X3157321Y-16727595D01*
X3166845Y-16765690D01*
X3166845Y-16813309D01*
X3157321Y-16851404D01*
X3147798Y-16870452D01*
X3138274Y-16879976D01*
X3119226Y-16889499D01*
X3100178Y-16889499D01*
X3081131Y-16879976D01*
X3071607Y-16870452D01*
X3062083Y-16851404D01*
X3052559Y-16813309D01*
X3052559Y-16765690D01*
X3062083Y-16727595D01*
X3071607Y-16708547D01*
X3081131Y-16699023D01*
X3100178Y-16689499D01*
X3290655Y-16689499D02*
X3309702Y-16689499D01*
X3328750Y-16699023D01*
X3338274Y-16708547D01*
X3347798Y-16727595D01*
X3357321Y-16765690D01*
X3357321Y-16813309D01*
X3347798Y-16851404D01*
X3338274Y-16870452D01*
X3328750Y-16879976D01*
X3309702Y-16889499D01*
X3290655Y-16889499D01*
X3271607Y-16879976D01*
X3262083Y-16870452D01*
X3252559Y-16851404D01*
X3243036Y-16813309D01*
X3243036Y-16765690D01*
X3252559Y-16727595D01*
X3262083Y-16708547D01*
X3271607Y-16699023D01*
X3290655Y-16689499D01*
X3481131Y-16689499D02*
X3500178Y-16689499D01*
X3519226Y-16699023D01*
X3528750Y-16708547D01*
X3538274Y-16727595D01*
X3547798Y-16765690D01*
X3547798Y-16813309D01*
X3538274Y-16851404D01*
X3528750Y-16870452D01*
X3519226Y-16879976D01*
X3500178Y-16889499D01*
X3481131Y-16889499D01*
X3462083Y-16879976D01*
X3452559Y-16870452D01*
X3443036Y-16851404D01*
X3433512Y-16813309D01*
X3433512Y-16765690D01*
X3443036Y-16727595D01*
X3452559Y-16708547D01*
X3462083Y-16699023D01*
X3481131Y-16689499D01*
X3633512Y-16889499D02*
X3633512Y-16756166D01*
X3633512Y-16775214D02*
X3643036Y-16765690D01*
X3662083Y-16756166D01*
X3690655Y-16756166D01*
X3709702Y-16765690D01*
X3719226Y-16784737D01*
X3719226Y-16889499D01*
X3719226Y-16784737D02*
X3728750Y-16765690D01*
X3747798Y-16756166D01*
X3776369Y-16756166D01*
X3795417Y-16765690D01*
X3804940Y-16784737D01*
X3804940Y-16889499D01*
X3900178Y-16889499D02*
X3900178Y-16756166D01*
X3900178Y-16775214D02*
X3909702Y-16765690D01*
X3928750Y-16756166D01*
X3957321Y-16756166D01*
X3976369Y-16765690D01*
X3985893Y-16784737D01*
X3985893Y-16889499D01*
X3985893Y-16784737D02*
X3995417Y-16765690D01*
X4014464Y-16756166D01*
X4043036Y-16756166D01*
X4062083Y-16765690D01*
X4071607Y-16784737D01*
X4071607Y-16889499D01*
X4462083Y-16679975D02*
X4290655Y-16937118D01*
X4719226Y-16689499D02*
X4738274Y-16689499D01*
X4757321Y-16699023D01*
X4766845Y-16708547D01*
X4776369Y-16727595D01*
X4785893Y-16765690D01*
X4785893Y-16813309D01*
X4776369Y-16851404D01*
X4766845Y-16870452D01*
X4757321Y-16879976D01*
X4738274Y-16889499D01*
X4719226Y-16889499D01*
X4700179Y-16879976D01*
X4690655Y-16870452D01*
X4681131Y-16851404D01*
X4671607Y-16813309D01*
X4671607Y-16765690D01*
X4681131Y-16727595D01*
X4690655Y-16708547D01*
X4700179Y-16699023D01*
X4719226Y-16689499D01*
X4871607Y-16870452D02*
X4881131Y-16879976D01*
X4871607Y-16889499D01*
X4862083Y-16879976D01*
X4871607Y-16870452D01*
X4871607Y-16889499D01*
X5071607Y-16889499D02*
X4957321Y-16889499D01*
X5014464Y-16889499D02*
X5014464Y-16689499D01*
X4995417Y-16718071D01*
X4976369Y-16737118D01*
X4957321Y-16746642D01*
X5252560Y-16689499D02*
X5157321Y-16689499D01*
X5147798Y-16784737D01*
X5157321Y-16775214D01*
X5176369Y-16765690D01*
X5223988Y-16765690D01*
X5243036Y-16775214D01*
X5252560Y-16784737D01*
X5262083Y-16803785D01*
X5262083Y-16851404D01*
X5252560Y-16870452D01*
X5243036Y-16879976D01*
X5223988Y-16889499D01*
X5176369Y-16889499D01*
X5157321Y-16879976D01*
X5147798Y-16870452D01*
X5328750Y-16689499D02*
X5462083Y-16689499D01*
X5376369Y-16889499D01*
X5633512Y-16689499D02*
X5538274Y-16689499D01*
X5528750Y-16784737D01*
X5538274Y-16775214D01*
X5557321Y-16765690D01*
X5604940Y-16765690D01*
X5623988Y-16775214D01*
X5633512Y-16784737D01*
X5643036Y-16803785D01*
X5643036Y-16851404D01*
X5633512Y-16870452D01*
X5623988Y-16879976D01*
X5604940Y-16889499D01*
X5557321Y-16889499D01*
X5538274Y-16879976D01*
X5528750Y-16870452D01*
X5719226Y-16689499D02*
X5719226Y-16727595D01*
X5795417Y-16689499D02*
X5795417Y-16727595D01*
X6090655Y-16965690D02*
X6081131Y-16956166D01*
X6062083Y-16927595D01*
X6052559Y-16908547D01*
X6043036Y-16879976D01*
X6033512Y-16832357D01*
X6033512Y-16794261D01*
X6043036Y-16746642D01*
X6052559Y-16718071D01*
X6062083Y-16699023D01*
X6081131Y-16670452D01*
X6090655Y-16660928D01*
X6252559Y-16689499D02*
X6214464Y-16689499D01*
X6195417Y-16699023D01*
X6185893Y-16708547D01*
X6166845Y-16737118D01*
X6157321Y-16775214D01*
X6157321Y-16851404D01*
X6166845Y-16870452D01*
X6176369Y-16879976D01*
X6195417Y-16889499D01*
X6233512Y-16889499D01*
X6252559Y-16879976D01*
X6262083Y-16870452D01*
X6271607Y-16851404D01*
X6271607Y-16803785D01*
X6262083Y-16784737D01*
X6252559Y-16775214D01*
X6233512Y-16765690D01*
X6195417Y-16765690D01*
X6176369Y-16775214D01*
X6166845Y-16784737D01*
X6157321Y-16803785D01*
X6443036Y-16689499D02*
X6404940Y-16689499D01*
X6385893Y-16699023D01*
X6376369Y-16708547D01*
X6357321Y-16737118D01*
X6347798Y-16775214D01*
X6347798Y-16851404D01*
X6357321Y-16870452D01*
X6366845Y-16879976D01*
X6385893Y-16889499D01*
X6423988Y-16889499D01*
X6443036Y-16879976D01*
X6452559Y-16870452D01*
X6462083Y-16851404D01*
X6462083Y-16803785D01*
X6452559Y-16784737D01*
X6443036Y-16775214D01*
X6423988Y-16765690D01*
X6385893Y-16765690D01*
X6366845Y-16775214D01*
X6357321Y-16784737D01*
X6347798Y-16803785D01*
X6700178Y-16889499D02*
X6700178Y-16689499D01*
X6785893Y-16889499D02*
X6785893Y-16784737D01*
X6776369Y-16765690D01*
X6757321Y-16756166D01*
X6728750Y-16756166D01*
X6709702Y-16765690D01*
X6700178Y-16775214D01*
X6909702Y-16889499D02*
X6890655Y-16879976D01*
X6881131Y-16870452D01*
X6871607Y-16851404D01*
X6871607Y-16794261D01*
X6881131Y-16775214D01*
X6890655Y-16765690D01*
X6909702Y-16756166D01*
X6938274Y-16756166D01*
X6957321Y-16765690D01*
X6966845Y-16775214D01*
X6976369Y-16794261D01*
X6976369Y-16851404D01*
X6966845Y-16870452D01*
X6957321Y-16879976D01*
X6938274Y-16889499D01*
X6909702Y-16889499D01*
X7090655Y-16889499D02*
X7071607Y-16879976D01*
X7062083Y-16860928D01*
X7062083Y-16689499D01*
X7243036Y-16879976D02*
X7223988Y-16889499D01*
X7185893Y-16889499D01*
X7166845Y-16879976D01*
X7157321Y-16860928D01*
X7157321Y-16784737D01*
X7166845Y-16765690D01*
X7185893Y-16756166D01*
X7223988Y-16756166D01*
X7243036Y-16765690D01*
X7252559Y-16784737D01*
X7252559Y-16803785D01*
X7157321Y-16822833D01*
X7328750Y-16879976D02*
X7347798Y-16889499D01*
X7385893Y-16889499D01*
X7404940Y-16879976D01*
X7414464Y-16860928D01*
X7414464Y-16851404D01*
X7404940Y-16832357D01*
X7385893Y-16822833D01*
X7357321Y-16822833D01*
X7338274Y-16813309D01*
X7328750Y-16794261D01*
X7328750Y-16784737D01*
X7338274Y-16765690D01*
X7357321Y-16756166D01*
X7385893Y-16756166D01*
X7404940Y-16765690D01*
X7481131Y-16965690D02*
X7490655Y-16956166D01*
X7509702Y-16927595D01*
X7519226Y-16908547D01*
X7528750Y-16879976D01*
X7538274Y-16832357D01*
X7538274Y-16794261D01*
X7528750Y-16746642D01*
X7519226Y-16718071D01*
X7509702Y-16699023D01*
X7490655Y-16670452D01*
X7481131Y-16660928D01*
X7843036Y-16965690D02*
X7833512Y-16956166D01*
X7814464Y-16927595D01*
X7804940Y-16908547D01*
X7795417Y-16879976D01*
X7785893Y-16832357D01*
X7785893Y-16794261D01*
X7795417Y-16746642D01*
X7804940Y-16718071D01*
X7814464Y-16699023D01*
X7833512Y-16670452D01*
X7843036Y-16660928D01*
X7919226Y-16756166D02*
X7919226Y-16889499D01*
X7919226Y-16775214D02*
X7928750Y-16765690D01*
X7947798Y-16756166D01*
X7976369Y-16756166D01*
X7995417Y-16765690D01*
X8004940Y-16784737D01*
X8004940Y-16889499D01*
X8128750Y-16889499D02*
X8109702Y-16879976D01*
X8100178Y-16870452D01*
X8090655Y-16851404D01*
X8090655Y-16794261D01*
X8100178Y-16775214D01*
X8109702Y-16765690D01*
X8128750Y-16756166D01*
X8157321Y-16756166D01*
X8176369Y-16765690D01*
X8185893Y-16775214D01*
X8195417Y-16794261D01*
X8195417Y-16851404D01*
X8185893Y-16870452D01*
X8176369Y-16879976D01*
X8157321Y-16889499D01*
X8128750Y-16889499D01*
X8252559Y-16756166D02*
X8328750Y-16756166D01*
X8281131Y-16689499D02*
X8281131Y-16860928D01*
X8290655Y-16879976D01*
X8309702Y-16889499D01*
X8328750Y-16889499D01*
X8547798Y-16756166D02*
X8547798Y-16956166D01*
X8547798Y-16765690D02*
X8566845Y-16756166D01*
X8604940Y-16756166D01*
X8623988Y-16765690D01*
X8633512Y-16775214D01*
X8643036Y-16794261D01*
X8643036Y-16851404D01*
X8633512Y-16870452D01*
X8623988Y-16879976D01*
X8604940Y-16889499D01*
X8566845Y-16889499D01*
X8547798Y-16879976D01*
X8757321Y-16889499D02*
X8738274Y-16879976D01*
X8728750Y-16860928D01*
X8728750Y-16689499D01*
X8919226Y-16889499D02*
X8919226Y-16784737D01*
X8909702Y-16765690D01*
X8890655Y-16756166D01*
X8852560Y-16756166D01*
X8833512Y-16765690D01*
X8919226Y-16879976D02*
X8900179Y-16889499D01*
X8852560Y-16889499D01*
X8833512Y-16879976D01*
X8823988Y-16860928D01*
X8823988Y-16841880D01*
X8833512Y-16822833D01*
X8852560Y-16813309D01*
X8900179Y-16813309D01*
X8919226Y-16803785D01*
X8985893Y-16756166D02*
X9062083Y-16756166D01*
X9014464Y-16689499D02*
X9014464Y-16860928D01*
X9023988Y-16879976D01*
X9043036Y-16889499D01*
X9062083Y-16889499D01*
X9204940Y-16879976D02*
X9185893Y-16889499D01*
X9147798Y-16889499D01*
X9128750Y-16879976D01*
X9119226Y-16860928D01*
X9119226Y-16784737D01*
X9128750Y-16765690D01*
X9147798Y-16756166D01*
X9185893Y-16756166D01*
X9204940Y-16765690D01*
X9214464Y-16784737D01*
X9214464Y-16803785D01*
X9119226Y-16822833D01*
X9385893Y-16889499D02*
X9385893Y-16689499D01*
X9385893Y-16879976D02*
X9366845Y-16889499D01*
X9328750Y-16889499D01*
X9309702Y-16879976D01*
X9300179Y-16870452D01*
X9290655Y-16851404D01*
X9290655Y-16794261D01*
X9300179Y-16775214D01*
X9309702Y-16765690D01*
X9328750Y-16756166D01*
X9366845Y-16756166D01*
X9385893Y-16765690D01*
X9462083Y-16965690D02*
X9471607Y-16956166D01*
X9490655Y-16927595D01*
X9500179Y-16908547D01*
X9509702Y-16879976D01*
X9519226Y-16832357D01*
X9519226Y-16794261D01*
X9509702Y-16746642D01*
X9500179Y-16718071D01*
X9490655Y-16699023D01*
X9471607Y-16670452D01*
X9462083Y-16660928D01*
M02*
