%TF.GenerationSoftware,KiCad,Pcbnew,(5.99.0-11496-g396213fa30)*%
%TF.CreationDate,2021-07-23T07:47:41-04:00*%
%TF.ProjectId,arisutea-pcb,61726973-7574-4656-912d-7063622e6b69,0.4*%
%TF.SameCoordinates,Original*%
%TF.FileFunction,Soldermask,Bot*%
%TF.FilePolarity,Negative*%
%FSLAX46Y46*%
G04 Gerber Fmt 4.6, Leading zero omitted, Abs format (unit mm)*
G04 Created by KiCad (PCBNEW (5.99.0-11496-g396213fa30)) date 2021-07-23 07:47:41*
%MOMM*%
%LPD*%
G01*
G04 APERTURE LIST*
G04 Aperture macros list*
%AMRoundRect*
0 Rectangle with rounded corners*
0 $1 Rounding radius*
0 $2 $3 $4 $5 $6 $7 $8 $9 X,Y pos of 4 corners*
0 Add a 4 corners polygon primitive as box body*
4,1,4,$2,$3,$4,$5,$6,$7,$8,$9,$2,$3,0*
0 Add four circle primitives for the rounded corners*
1,1,$1+$1,$2,$3*
1,1,$1+$1,$4,$5*
1,1,$1+$1,$6,$7*
1,1,$1+$1,$8,$9*
0 Add four rect primitives between the rounded corners*
20,1,$1+$1,$2,$3,$4,$5,0*
20,1,$1+$1,$4,$5,$6,$7,0*
20,1,$1+$1,$6,$7,$8,$9,0*
20,1,$1+$1,$8,$9,$2,$3,0*%
%AMRotRect*
0 Rectangle, with rotation*
0 The origin of the aperture is its center*
0 $1 length*
0 $2 width*
0 $3 Rotation angle, in degrees counterclockwise*
0 Add horizontal line*
21,1,$1,$2,0,0,$3*%
G04 Aperture macros list end*
%ADD10C,0.010000*%
%ADD11C,2.400000*%
%ADD12C,3.500000*%
%ADD13C,1.750000*%
%ADD14C,4.000000*%
%ADD15C,3.000000*%
%ADD16R,2.550000X2.500000*%
%ADD17RotRect,2.550000X2.500000X348.000000*%
%ADD18C,3.987800*%
%ADD19C,3.048000*%
%ADD20RotRect,2.550000X2.500000X12.000000*%
%ADD21RoundRect,0.250000X-0.475000X0.337500X-0.475000X-0.337500X0.475000X-0.337500X0.475000X0.337500X0*%
%ADD22RoundRect,0.250000X-0.337500X-0.475000X0.337500X-0.475000X0.337500X0.475000X-0.337500X0.475000X0*%
%ADD23R,1.200000X0.900000*%
%ADD24RotRect,0.900000X1.200000X78.000000*%
%ADD25RotRect,0.900000X1.200000X102.000000*%
%ADD26RoundRect,0.250000X-0.350000X-0.450000X0.350000X-0.450000X0.350000X0.450000X-0.350000X0.450000X0*%
%ADD27RoundRect,0.250000X-0.450000X0.350000X-0.450000X-0.350000X0.450000X-0.350000X0.450000X0.350000X0*%
%ADD28R,1.560000X0.650000*%
%ADD29R,1.700000X1.000000*%
%ADD30RoundRect,0.250000X0.475000X-0.337500X0.475000X0.337500X-0.475000X0.337500X-0.475000X-0.337500X0*%
%ADD31RoundRect,0.250001X-0.462499X-0.624999X0.462499X-0.624999X0.462499X0.624999X-0.462499X0.624999X0*%
%ADD32RoundRect,0.250000X0.350000X0.450000X-0.350000X0.450000X-0.350000X-0.450000X0.350000X-0.450000X0*%
%ADD33RotRect,2.100000X1.800000X150.000000*%
%ADD34RoundRect,0.250000X0.337500X0.475000X-0.337500X0.475000X-0.337500X-0.475000X0.337500X-0.475000X0*%
%ADD35C,0.650000*%
%ADD36R,0.600000X2.450000*%
%ADD37R,0.300000X2.450000*%
%ADD38O,1.000000X1.600000*%
%ADD39O,1.000000X2.100000*%
%ADD40R,0.550000X1.500000*%
%ADD41R,1.500000X0.550000*%
G04 APERTURE END LIST*
D10*
X137959000Y-28606000D02*
X137959000Y-29886000D01*
X137959000Y-29886000D02*
X139409000Y-29886000D01*
X139409000Y-29886000D02*
X139409000Y-28606000D01*
X139409000Y-28606000D02*
X137959000Y-28606000D01*
G36*
X139409000Y-29886000D02*
G01*
X137959000Y-29886000D01*
X137959000Y-28606000D01*
X139409000Y-28606000D01*
X139409000Y-29886000D01*
G37*
X139409000Y-29886000D02*
X137959000Y-29886000D01*
X137959000Y-28606000D01*
X139409000Y-28606000D01*
X139409000Y-29886000D01*
X137959000Y-25486000D02*
X137959000Y-26766000D01*
X137959000Y-26766000D02*
X139409000Y-26766000D01*
X139409000Y-26766000D02*
X139409000Y-25486000D01*
X139409000Y-25486000D02*
X137959000Y-25486000D01*
G36*
X139409000Y-26766000D02*
G01*
X137959000Y-26766000D01*
X137959000Y-25486000D01*
X139409000Y-25486000D01*
X139409000Y-26766000D01*
G37*
X139409000Y-26766000D02*
X137959000Y-26766000D01*
X137959000Y-25486000D01*
X139409000Y-25486000D01*
X139409000Y-26766000D01*
X132498000Y-25486000D02*
X132498000Y-26766000D01*
X132498000Y-26766000D02*
X133948000Y-26766000D01*
X133948000Y-26766000D02*
X133948000Y-25486000D01*
X133948000Y-25486000D02*
X132498000Y-25486000D01*
G36*
X133948000Y-26766000D02*
G01*
X132498000Y-26766000D01*
X132498000Y-25486000D01*
X133948000Y-25486000D01*
X133948000Y-26766000D01*
G37*
X133948000Y-26766000D02*
X132498000Y-26766000D01*
X132498000Y-25486000D01*
X133948000Y-25486000D01*
X133948000Y-26766000D01*
X132498000Y-28606000D02*
X132498000Y-29886000D01*
X132498000Y-29886000D02*
X133948000Y-29886000D01*
X133948000Y-29886000D02*
X133948000Y-28606000D01*
X133948000Y-28606000D02*
X132498000Y-28606000D01*
G36*
X133948000Y-29886000D02*
G01*
X132498000Y-29886000D01*
X132498000Y-28606000D01*
X133948000Y-28606000D01*
X133948000Y-29886000D01*
G37*
X133948000Y-29886000D02*
X132498000Y-29886000D01*
X132498000Y-28606000D01*
X133948000Y-28606000D01*
X133948000Y-29886000D01*
X127037000Y-25486000D02*
X127037000Y-26766000D01*
X127037000Y-26766000D02*
X128487000Y-26766000D01*
X128487000Y-26766000D02*
X128487000Y-25486000D01*
X128487000Y-25486000D02*
X127037000Y-25486000D01*
G36*
X128487000Y-26766000D02*
G01*
X127037000Y-26766000D01*
X127037000Y-25486000D01*
X128487000Y-25486000D01*
X128487000Y-26766000D01*
G37*
X128487000Y-26766000D02*
X127037000Y-26766000D01*
X127037000Y-25486000D01*
X128487000Y-25486000D01*
X128487000Y-26766000D01*
X127037000Y-28606000D02*
X127037000Y-29886000D01*
X127037000Y-29886000D02*
X128487000Y-29886000D01*
X128487000Y-29886000D02*
X128487000Y-28606000D01*
X128487000Y-28606000D02*
X127037000Y-28606000D01*
G36*
X128487000Y-29886000D02*
G01*
X127037000Y-29886000D01*
X127037000Y-28606000D01*
X128487000Y-28606000D01*
X128487000Y-29886000D01*
G37*
X128487000Y-29886000D02*
X127037000Y-29886000D01*
X127037000Y-28606000D01*
X128487000Y-28606000D01*
X128487000Y-29886000D01*
X178225350Y-113094814D02*
X178035881Y-113412762D01*
X178035881Y-113412762D02*
X177846411Y-113730710D01*
X177846411Y-113730710D02*
X177807281Y-113667252D01*
X177807281Y-113667252D02*
X177789339Y-113637844D01*
X177789339Y-113637844D02*
X177760836Y-113590749D01*
X177760836Y-113590749D02*
X177724251Y-113530078D01*
X177724251Y-113530078D02*
X177682060Y-113459943D01*
X177682060Y-113459943D02*
X177636741Y-113384455D01*
X177636741Y-113384455D02*
X177615750Y-113349439D01*
X177615750Y-113349439D02*
X177463350Y-113095084D01*
X177463350Y-113095084D02*
X177339525Y-113094592D01*
X177339525Y-113094592D02*
X177286943Y-113095023D01*
X177286943Y-113095023D02*
X177245449Y-113096582D01*
X177245449Y-113096582D02*
X177220488Y-113098995D01*
X177220488Y-113098995D02*
X177215700Y-113100825D01*
X177215700Y-113100825D02*
X177222057Y-113112820D01*
X177222057Y-113112820D02*
X177240178Y-113144135D01*
X177240178Y-113144135D02*
X177268641Y-113192381D01*
X177268641Y-113192381D02*
X177306021Y-113255169D01*
X177306021Y-113255169D02*
X177350897Y-113330110D01*
X177350897Y-113330110D02*
X177401844Y-113414816D01*
X177401844Y-113414816D02*
X177457441Y-113506898D01*
X177457441Y-113506898D02*
X177469422Y-113526698D01*
X177469422Y-113526698D02*
X177723143Y-113945847D01*
X177723143Y-113945847D02*
X177726597Y-114183548D01*
X177726597Y-114183548D02*
X177730050Y-114421250D01*
X177730050Y-114421250D02*
X177844966Y-114424867D01*
X177844966Y-114424867D02*
X177896750Y-114425542D01*
X177896750Y-114425542D02*
X177938558Y-114424302D01*
X177938558Y-114424302D02*
X177964151Y-114421414D01*
X177964151Y-114421414D02*
X177968791Y-114419576D01*
X177968791Y-114419576D02*
X177971663Y-114404573D01*
X177971663Y-114404573D02*
X177974149Y-114368412D01*
X177974149Y-114368412D02*
X177976091Y-114315337D01*
X177976091Y-114315337D02*
X177977326Y-114249589D01*
X177977326Y-114249589D02*
X177977700Y-114184376D01*
X177977700Y-114184376D02*
X177977700Y-113958086D01*
X177977700Y-113958086D02*
X178233018Y-113535618D01*
X178233018Y-113535618D02*
X178289762Y-113441727D01*
X178289762Y-113441727D02*
X178342417Y-113354603D01*
X178342417Y-113354603D02*
X178389529Y-113276652D01*
X178389529Y-113276652D02*
X178429646Y-113210277D01*
X178429646Y-113210277D02*
X178461314Y-113157885D01*
X178461314Y-113157885D02*
X178483079Y-113121878D01*
X178483079Y-113121878D02*
X178493489Y-113104664D01*
X178493489Y-113104664D02*
X178494118Y-113103625D01*
X178494118Y-113103625D02*
X178484719Y-113099813D01*
X178484719Y-113099813D02*
X178454809Y-113096796D01*
X178454809Y-113096796D02*
X178409270Y-113094913D01*
X178409270Y-113094913D02*
X178362625Y-113094457D01*
X178362625Y-113094457D02*
X178225350Y-113094814D01*
X178225350Y-113094814D02*
X178225350Y-113094814D01*
G36*
X178409270Y-113094913D02*
G01*
X178454809Y-113096796D01*
X178484719Y-113099813D01*
X178494118Y-113103625D01*
X178493489Y-113104664D01*
X178483079Y-113121878D01*
X178461314Y-113157885D01*
X178429646Y-113210277D01*
X178389529Y-113276652D01*
X178342417Y-113354603D01*
X178289762Y-113441727D01*
X178233018Y-113535618D01*
X177977700Y-113958086D01*
X177977700Y-114184376D01*
X177977326Y-114249589D01*
X177976091Y-114315337D01*
X177974149Y-114368412D01*
X177971663Y-114404573D01*
X177968791Y-114419576D01*
X177964151Y-114421414D01*
X177938558Y-114424302D01*
X177896750Y-114425542D01*
X177844966Y-114424867D01*
X177730050Y-114421250D01*
X177726597Y-114183548D01*
X177723143Y-113945847D01*
X177469422Y-113526698D01*
X177457441Y-113506898D01*
X177401844Y-113414816D01*
X177350897Y-113330110D01*
X177306021Y-113255169D01*
X177268641Y-113192381D01*
X177240178Y-113144135D01*
X177222057Y-113112820D01*
X177215700Y-113100825D01*
X177220488Y-113098995D01*
X177245449Y-113096582D01*
X177286943Y-113095023D01*
X177339525Y-113094592D01*
X177463350Y-113095084D01*
X177615750Y-113349439D01*
X177636741Y-113384455D01*
X177682060Y-113459943D01*
X177724251Y-113530078D01*
X177760836Y-113590749D01*
X177789339Y-113637844D01*
X177807281Y-113667252D01*
X177846411Y-113730710D01*
X178035881Y-113412762D01*
X178225350Y-113094814D01*
X178362625Y-113094457D01*
X178409270Y-113094913D01*
G37*
X178409270Y-113094913D02*
X178454809Y-113096796D01*
X178484719Y-113099813D01*
X178494118Y-113103625D01*
X178493489Y-113104664D01*
X178483079Y-113121878D01*
X178461314Y-113157885D01*
X178429646Y-113210277D01*
X178389529Y-113276652D01*
X178342417Y-113354603D01*
X178289762Y-113441727D01*
X178233018Y-113535618D01*
X177977700Y-113958086D01*
X177977700Y-114184376D01*
X177977326Y-114249589D01*
X177976091Y-114315337D01*
X177974149Y-114368412D01*
X177971663Y-114404573D01*
X177968791Y-114419576D01*
X177964151Y-114421414D01*
X177938558Y-114424302D01*
X177896750Y-114425542D01*
X177844966Y-114424867D01*
X177730050Y-114421250D01*
X177726597Y-114183548D01*
X177723143Y-113945847D01*
X177469422Y-113526698D01*
X177457441Y-113506898D01*
X177401844Y-113414816D01*
X177350897Y-113330110D01*
X177306021Y-113255169D01*
X177268641Y-113192381D01*
X177240178Y-113144135D01*
X177222057Y-113112820D01*
X177215700Y-113100825D01*
X177220488Y-113098995D01*
X177245449Y-113096582D01*
X177286943Y-113095023D01*
X177339525Y-113094592D01*
X177463350Y-113095084D01*
X177615750Y-113349439D01*
X177636741Y-113384455D01*
X177682060Y-113459943D01*
X177724251Y-113530078D01*
X177760836Y-113590749D01*
X177789339Y-113637844D01*
X177807281Y-113667252D01*
X177846411Y-113730710D01*
X178035881Y-113412762D01*
X178225350Y-113094814D01*
X178362625Y-113094457D01*
X178409270Y-113094913D01*
X179031800Y-113310000D02*
X179463334Y-113310000D01*
X179463334Y-113310000D02*
X179469950Y-114421250D01*
X179469950Y-114421250D02*
X179593775Y-114424884D01*
X179593775Y-114424884D02*
X179717600Y-114428519D01*
X179717600Y-114428519D02*
X179717600Y-113310000D01*
X179717600Y-113310000D02*
X180162100Y-113310000D01*
X180162100Y-113310000D02*
X180162100Y-113094100D01*
X180162100Y-113094100D02*
X179031800Y-113094100D01*
X179031800Y-113094100D02*
X179031800Y-113310000D01*
X179031800Y-113310000D02*
X179031800Y-113310000D01*
G36*
X180162100Y-113310000D02*
G01*
X179717600Y-113310000D01*
X179717600Y-114428519D01*
X179593775Y-114424884D01*
X179469950Y-114421250D01*
X179463334Y-113310000D01*
X179031800Y-113310000D01*
X179031800Y-113094100D01*
X180162100Y-113094100D01*
X180162100Y-113310000D01*
G37*
X180162100Y-113310000D02*
X179717600Y-113310000D01*
X179717600Y-114428519D01*
X179593775Y-114424884D01*
X179469950Y-114421250D01*
X179463334Y-113310000D01*
X179031800Y-113310000D01*
X179031800Y-113094100D01*
X180162100Y-113094100D01*
X180162100Y-113310000D01*
X178428752Y-105206168D02*
X178308755Y-105253429D01*
X178308755Y-105253429D02*
X178282557Y-105267317D01*
X178282557Y-105267317D02*
X178185447Y-105324994D01*
X178185447Y-105324994D02*
X178077809Y-105395287D01*
X178077809Y-105395287D02*
X177967241Y-105473020D01*
X177967241Y-105473020D02*
X177861343Y-105553019D01*
X177861343Y-105553019D02*
X177850700Y-105561422D01*
X177850700Y-105561422D02*
X177797449Y-105605591D01*
X177797449Y-105605591D02*
X177737427Y-105658621D01*
X177737427Y-105658621D02*
X177673071Y-105718026D01*
X177673071Y-105718026D02*
X177606813Y-105781322D01*
X177606813Y-105781322D02*
X177541090Y-105846021D01*
X177541090Y-105846021D02*
X177478334Y-105909639D01*
X177478334Y-105909639D02*
X177420981Y-105969690D01*
X177420981Y-105969690D02*
X177371464Y-106023689D01*
X177371464Y-106023689D02*
X177332218Y-106069149D01*
X177332218Y-106069149D02*
X177305678Y-106103585D01*
X177305678Y-106103585D02*
X177294277Y-106124512D01*
X177294277Y-106124512D02*
X177294847Y-106128980D01*
X177294847Y-106128980D02*
X177308798Y-106127599D01*
X177308798Y-106127599D02*
X177340311Y-106118248D01*
X177340311Y-106118248D02*
X177383513Y-106102754D01*
X177383513Y-106102754D02*
X177400650Y-106096082D01*
X177400650Y-106096082D02*
X177560303Y-106042914D01*
X177560303Y-106042914D02*
X177731332Y-106004426D01*
X177731332Y-106004426D02*
X177905880Y-105981783D01*
X177905880Y-105981783D02*
X178076090Y-105976146D01*
X178076090Y-105976146D02*
X178174531Y-105981564D01*
X178174531Y-105981564D02*
X178228203Y-105987964D01*
X178228203Y-105987964D02*
X178291104Y-105997646D01*
X178291104Y-105997646D02*
X178358034Y-106009545D01*
X178358034Y-106009545D02*
X178423794Y-106022596D01*
X178423794Y-106022596D02*
X178483185Y-106035734D01*
X178483185Y-106035734D02*
X178531008Y-106047892D01*
X178531008Y-106047892D02*
X178562064Y-106058007D01*
X178562064Y-106058007D02*
X178570531Y-106062696D01*
X178570531Y-106062696D02*
X178562019Y-106066873D01*
X178562019Y-106066873D02*
X178534894Y-106072423D01*
X178534894Y-106072423D02*
X178508350Y-106076349D01*
X178508350Y-106076349D02*
X178433169Y-106088790D01*
X178433169Y-106088790D02*
X178340996Y-106108222D01*
X178340996Y-106108222D02*
X178238711Y-106132954D01*
X178238711Y-106132954D02*
X178133192Y-106161294D01*
X178133192Y-106161294D02*
X178031317Y-106191552D01*
X178031317Y-106191552D02*
X178003100Y-106200553D01*
X178003100Y-106200553D02*
X177727501Y-106302683D01*
X177727501Y-106302683D02*
X177466621Y-106425235D01*
X177466621Y-106425235D02*
X177220832Y-106567992D01*
X177220832Y-106567992D02*
X176990506Y-106730738D01*
X176990506Y-106730738D02*
X176776834Y-106912496D01*
X176776834Y-106912496D02*
X176746419Y-106941458D01*
X176746419Y-106941458D02*
X176721278Y-106967852D01*
X176721278Y-106967852D02*
X176698889Y-106995587D01*
X176698889Y-106995587D02*
X176676730Y-107028578D01*
X176676730Y-107028578D02*
X176652278Y-107070737D01*
X176652278Y-107070737D02*
X176623014Y-107125976D01*
X176623014Y-107125976D02*
X176586414Y-107198207D01*
X176586414Y-107198207D02*
X176564790Y-107241488D01*
X176564790Y-107241488D02*
X176457815Y-107467088D01*
X176457815Y-107467088D02*
X176367774Y-107681900D01*
X176367774Y-107681900D02*
X176292514Y-107891895D01*
X176292514Y-107891895D02*
X176229884Y-108103046D01*
X176229884Y-108103046D02*
X176180500Y-108308409D01*
X176180500Y-108308409D02*
X176159481Y-108405868D01*
X176159481Y-108405868D02*
X176416590Y-109130734D01*
X176416590Y-109130734D02*
X176462590Y-109260056D01*
X176462590Y-109260056D02*
X176506215Y-109381992D01*
X176506215Y-109381992D02*
X176546710Y-109494482D01*
X176546710Y-109494482D02*
X176583320Y-109595463D01*
X176583320Y-109595463D02*
X176615293Y-109682873D01*
X176615293Y-109682873D02*
X176641873Y-109754652D01*
X176641873Y-109754652D02*
X176662307Y-109808738D01*
X176662307Y-109808738D02*
X176675840Y-109843068D01*
X176675840Y-109843068D02*
X176681717Y-109855582D01*
X176681717Y-109855582D02*
X176681780Y-109855600D01*
X176681780Y-109855600D02*
X176686694Y-109843880D01*
X176686694Y-109843880D02*
X176693387Y-109812333D01*
X176693387Y-109812333D02*
X176700820Y-109766372D01*
X176700820Y-109766372D02*
X176705386Y-109732683D01*
X176705386Y-109732683D02*
X176739179Y-109533329D01*
X176739179Y-109533329D02*
X176790476Y-109324503D01*
X176790476Y-109324503D02*
X176857069Y-109112752D01*
X176857069Y-109112752D02*
X176936748Y-108904622D01*
X176936748Y-108904622D02*
X177027305Y-108706660D01*
X177027305Y-108706660D02*
X177093649Y-108581763D01*
X177093649Y-108581763D02*
X177224468Y-108374292D01*
X177224468Y-108374292D02*
X177370946Y-108186467D01*
X177370946Y-108186467D02*
X177532671Y-108018632D01*
X177532671Y-108018632D02*
X177709229Y-107871131D01*
X177709229Y-107871131D02*
X177900208Y-107744309D01*
X177900208Y-107744309D02*
X178105193Y-107638507D01*
X178105193Y-107638507D02*
X178323773Y-107554071D01*
X178323773Y-107554071D02*
X178332697Y-107551174D01*
X178332697Y-107551174D02*
X178438628Y-107521704D01*
X178438628Y-107521704D02*
X178536075Y-107505779D01*
X178536075Y-107505779D02*
X178630979Y-107503658D01*
X178630979Y-107503658D02*
X178729281Y-107515601D01*
X178729281Y-107515601D02*
X178836921Y-107541868D01*
X178836921Y-107541868D02*
X178946811Y-107578012D01*
X178946811Y-107578012D02*
X179151759Y-107664843D01*
X179151759Y-107664843D02*
X179346255Y-107774262D01*
X179346255Y-107774262D02*
X179529280Y-107905273D01*
X179529280Y-107905273D02*
X179699816Y-108056883D01*
X179699816Y-108056883D02*
X179856844Y-108228095D01*
X179856844Y-108228095D02*
X179999346Y-108417915D01*
X179999346Y-108417915D02*
X180126303Y-108625347D01*
X180126303Y-108625347D02*
X180227936Y-108829628D01*
X180227936Y-108829628D02*
X180297850Y-109001504D01*
X180297850Y-109001504D02*
X180362097Y-109190040D01*
X180362097Y-109190040D02*
X180418254Y-109386701D01*
X180418254Y-109386701D02*
X180463903Y-109582956D01*
X180463903Y-109582956D02*
X180496620Y-109770270D01*
X180496620Y-109770270D02*
X180498328Y-109782575D01*
X180498328Y-109782575D02*
X180504988Y-109817685D01*
X180504988Y-109817685D02*
X180512716Y-109839436D01*
X180512716Y-109839436D02*
X180516503Y-109842900D01*
X180516503Y-109842900D02*
X180522709Y-109831322D01*
X180522709Y-109831322D02*
X180536388Y-109798229D01*
X180536388Y-109798229D02*
X180556621Y-109746077D01*
X180556621Y-109746077D02*
X180582489Y-109677325D01*
X180582489Y-109677325D02*
X180613074Y-109594429D01*
X180613074Y-109594429D02*
X180647458Y-109499848D01*
X180647458Y-109499848D02*
X180684720Y-109396039D01*
X180684720Y-109396039D02*
X180707565Y-109331794D01*
X180707565Y-109331794D02*
X180888681Y-108820688D01*
X180888681Y-108820688D02*
X180866732Y-108750769D01*
X180866732Y-108750769D02*
X180832328Y-108661530D01*
X180832328Y-108661530D02*
X180781635Y-108558781D01*
X180781635Y-108558781D02*
X180716948Y-108446325D01*
X180716948Y-108446325D02*
X180640561Y-108327967D01*
X180640561Y-108327967D02*
X180554768Y-108207511D01*
X180554768Y-108207511D02*
X180483722Y-108115700D01*
X180483722Y-108115700D02*
X180437929Y-108061487D01*
X180437929Y-108061487D02*
X180377371Y-107994010D01*
X180377371Y-107994010D02*
X180305933Y-107917255D01*
X180305933Y-107917255D02*
X180227496Y-107835203D01*
X180227496Y-107835203D02*
X180145945Y-107751840D01*
X180145945Y-107751840D02*
X180065161Y-107671148D01*
X180065161Y-107671148D02*
X179989027Y-107597111D01*
X179989027Y-107597111D02*
X179921427Y-107533714D01*
X179921427Y-107533714D02*
X179882642Y-107498999D01*
X179882642Y-107498999D02*
X179838954Y-107460135D01*
X179838954Y-107460135D02*
X179803973Y-107427470D01*
X179803973Y-107427470D02*
X179781234Y-107404419D01*
X179781234Y-107404419D02*
X179774272Y-107394396D01*
X179774272Y-107394396D02*
X179774288Y-107394379D01*
X179774288Y-107394379D02*
X179790091Y-107394094D01*
X179790091Y-107394094D02*
X179823970Y-107402071D01*
X179823970Y-107402071D02*
X179870680Y-107416500D01*
X179870680Y-107416500D02*
X179924978Y-107435576D01*
X179924978Y-107435576D02*
X179981619Y-107457488D01*
X179981619Y-107457488D02*
X180035361Y-107480430D01*
X180035361Y-107480430D02*
X180066314Y-107495067D01*
X180066314Y-107495067D02*
X180226303Y-107586386D01*
X180226303Y-107586386D02*
X180386661Y-107700716D01*
X180386661Y-107700716D02*
X180544627Y-107835866D01*
X180544627Y-107835866D02*
X180697444Y-107989639D01*
X180697444Y-107989639D02*
X180721603Y-108016237D01*
X180721603Y-108016237D02*
X180771670Y-108073524D01*
X180771670Y-108073524D02*
X180824421Y-108136392D01*
X180824421Y-108136392D02*
X180876283Y-108200326D01*
X180876283Y-108200326D02*
X180923682Y-108260809D01*
X180923682Y-108260809D02*
X180963044Y-108313328D01*
X180963044Y-108313328D02*
X180990796Y-108353367D01*
X180990796Y-108353367D02*
X180998595Y-108366202D01*
X180998595Y-108366202D02*
X181012194Y-108384558D01*
X181012194Y-108384558D02*
X181019044Y-108379892D01*
X181019044Y-108379892D02*
X181019186Y-108353657D01*
X181019186Y-108353657D02*
X181012660Y-108307306D01*
X181012660Y-108307306D02*
X180999505Y-108242292D01*
X180999505Y-108242292D02*
X180994593Y-108220742D01*
X180994593Y-108220742D02*
X180925675Y-107967807D01*
X180925675Y-107967807D02*
X180835496Y-107707090D01*
X180835496Y-107707090D02*
X180725700Y-107441781D01*
X180725700Y-107441781D02*
X180597933Y-107175070D01*
X180597933Y-107175070D02*
X180453842Y-106910146D01*
X180453842Y-106910146D02*
X180295073Y-106650199D01*
X180295073Y-106650199D02*
X180123271Y-106398418D01*
X180123271Y-106398418D02*
X179940082Y-106157993D01*
X179940082Y-106157993D02*
X179912907Y-106124550D01*
X179912907Y-106124550D02*
X179843649Y-106043922D01*
X179843649Y-106043922D02*
X179761265Y-105954315D01*
X179761265Y-105954315D02*
X179670911Y-105860871D01*
X179670911Y-105860871D02*
X179577741Y-105768733D01*
X179577741Y-105768733D02*
X179486910Y-105683043D01*
X179486910Y-105683043D02*
X179403575Y-105608943D01*
X179403575Y-105608943D02*
X179358451Y-105571492D01*
X179358451Y-105571492D02*
X179258945Y-105494959D01*
X179258945Y-105494959D02*
X179152302Y-105418429D01*
X179152302Y-105418429D02*
X179046041Y-105347060D01*
X179046041Y-105347060D02*
X178947682Y-105286006D01*
X178947682Y-105286006D02*
X178912601Y-105265832D01*
X178912601Y-105265832D02*
X178794714Y-105213601D01*
X178794714Y-105213601D02*
X178673558Y-105186250D01*
X178673558Y-105186250D02*
X178550962Y-105183774D01*
X178550962Y-105183774D02*
X178428752Y-105206168D01*
X178428752Y-105206168D02*
X178428752Y-105206168D01*
G36*
X178673558Y-105186250D02*
G01*
X178794714Y-105213601D01*
X178912601Y-105265832D01*
X178947682Y-105286006D01*
X179046041Y-105347060D01*
X179152302Y-105418429D01*
X179258945Y-105494959D01*
X179358451Y-105571492D01*
X179403575Y-105608943D01*
X179486910Y-105683043D01*
X179577741Y-105768733D01*
X179670911Y-105860871D01*
X179761265Y-105954315D01*
X179843649Y-106043922D01*
X179912907Y-106124550D01*
X179940082Y-106157993D01*
X180123271Y-106398418D01*
X180295073Y-106650199D01*
X180453842Y-106910146D01*
X180597933Y-107175070D01*
X180725700Y-107441781D01*
X180835496Y-107707090D01*
X180925675Y-107967807D01*
X180994593Y-108220742D01*
X180999505Y-108242292D01*
X181012660Y-108307306D01*
X181019186Y-108353657D01*
X181019044Y-108379892D01*
X181012194Y-108384558D01*
X180998595Y-108366202D01*
X180990796Y-108353367D01*
X180963044Y-108313328D01*
X180923682Y-108260809D01*
X180876283Y-108200326D01*
X180824421Y-108136392D01*
X180771670Y-108073524D01*
X180721603Y-108016237D01*
X180697444Y-107989639D01*
X180544627Y-107835866D01*
X180386661Y-107700716D01*
X180226303Y-107586386D01*
X180066314Y-107495067D01*
X180035361Y-107480430D01*
X179981619Y-107457488D01*
X179924978Y-107435576D01*
X179870680Y-107416500D01*
X179823970Y-107402071D01*
X179790091Y-107394094D01*
X179774288Y-107394379D01*
X179774272Y-107394396D01*
X179781234Y-107404419D01*
X179803973Y-107427470D01*
X179838954Y-107460135D01*
X179882642Y-107498999D01*
X179921427Y-107533714D01*
X179989027Y-107597111D01*
X180065161Y-107671148D01*
X180145945Y-107751840D01*
X180227496Y-107835203D01*
X180305933Y-107917255D01*
X180377371Y-107994010D01*
X180437929Y-108061487D01*
X180483722Y-108115700D01*
X180554768Y-108207511D01*
X180640561Y-108327967D01*
X180716948Y-108446325D01*
X180781635Y-108558781D01*
X180832328Y-108661530D01*
X180866732Y-108750769D01*
X180888681Y-108820688D01*
X180707565Y-109331794D01*
X180684720Y-109396039D01*
X180647458Y-109499848D01*
X180613074Y-109594429D01*
X180582489Y-109677325D01*
X180556621Y-109746077D01*
X180536388Y-109798229D01*
X180522709Y-109831322D01*
X180516503Y-109842900D01*
X180512716Y-109839436D01*
X180504988Y-109817685D01*
X180498328Y-109782575D01*
X180496620Y-109770270D01*
X180463903Y-109582956D01*
X180418254Y-109386701D01*
X180362097Y-109190040D01*
X180297850Y-109001504D01*
X180227936Y-108829628D01*
X180126303Y-108625347D01*
X179999346Y-108417915D01*
X179856844Y-108228095D01*
X179699816Y-108056883D01*
X179529280Y-107905273D01*
X179346255Y-107774262D01*
X179151759Y-107664843D01*
X178946811Y-107578012D01*
X178836921Y-107541868D01*
X178729281Y-107515601D01*
X178630979Y-107503658D01*
X178536075Y-107505779D01*
X178438628Y-107521704D01*
X178332697Y-107551174D01*
X178323773Y-107554071D01*
X178105193Y-107638507D01*
X177900208Y-107744309D01*
X177709229Y-107871131D01*
X177532671Y-108018632D01*
X177370946Y-108186467D01*
X177224468Y-108374292D01*
X177093649Y-108581763D01*
X177027305Y-108706660D01*
X176936748Y-108904622D01*
X176857069Y-109112752D01*
X176790476Y-109324503D01*
X176739179Y-109533329D01*
X176705386Y-109732683D01*
X176700820Y-109766372D01*
X176693387Y-109812333D01*
X176686694Y-109843880D01*
X176681780Y-109855600D01*
X176681717Y-109855582D01*
X176675840Y-109843068D01*
X176662307Y-109808738D01*
X176641873Y-109754652D01*
X176615293Y-109682873D01*
X176583320Y-109595463D01*
X176546710Y-109494482D01*
X176506215Y-109381992D01*
X176462590Y-109260056D01*
X176416590Y-109130734D01*
X176159481Y-108405868D01*
X176180500Y-108308409D01*
X176229884Y-108103046D01*
X176292514Y-107891895D01*
X176367774Y-107681900D01*
X176457815Y-107467088D01*
X176564790Y-107241488D01*
X176586414Y-107198207D01*
X176623014Y-107125976D01*
X176652278Y-107070737D01*
X176676730Y-107028578D01*
X176698889Y-106995587D01*
X176721278Y-106967852D01*
X176746419Y-106941458D01*
X176776834Y-106912496D01*
X176990506Y-106730738D01*
X177220832Y-106567992D01*
X177466621Y-106425235D01*
X177727501Y-106302683D01*
X178003100Y-106200553D01*
X178031317Y-106191552D01*
X178133192Y-106161294D01*
X178238711Y-106132954D01*
X178340996Y-106108222D01*
X178433169Y-106088790D01*
X178508350Y-106076349D01*
X178534894Y-106072423D01*
X178562019Y-106066873D01*
X178570531Y-106062696D01*
X178562064Y-106058007D01*
X178531008Y-106047892D01*
X178483185Y-106035734D01*
X178423794Y-106022596D01*
X178358034Y-106009545D01*
X178291104Y-105997646D01*
X178228203Y-105987964D01*
X178174531Y-105981564D01*
X178076090Y-105976146D01*
X177905880Y-105981783D01*
X177731332Y-106004426D01*
X177560303Y-106042914D01*
X177400650Y-106096082D01*
X177383513Y-106102754D01*
X177340311Y-106118248D01*
X177308798Y-106127599D01*
X177294847Y-106128980D01*
X177294277Y-106124512D01*
X177305678Y-106103585D01*
X177332218Y-106069149D01*
X177371464Y-106023689D01*
X177420981Y-105969690D01*
X177478334Y-105909639D01*
X177541090Y-105846021D01*
X177606813Y-105781322D01*
X177673071Y-105718026D01*
X177737427Y-105658621D01*
X177797449Y-105605591D01*
X177850700Y-105561422D01*
X177861343Y-105553019D01*
X177967241Y-105473020D01*
X178077809Y-105395287D01*
X178185447Y-105324994D01*
X178282557Y-105267317D01*
X178308755Y-105253429D01*
X178428752Y-105206168D01*
X178550962Y-105183774D01*
X178673558Y-105186250D01*
G37*
X178673558Y-105186250D02*
X178794714Y-105213601D01*
X178912601Y-105265832D01*
X178947682Y-105286006D01*
X179046041Y-105347060D01*
X179152302Y-105418429D01*
X179258945Y-105494959D01*
X179358451Y-105571492D01*
X179403575Y-105608943D01*
X179486910Y-105683043D01*
X179577741Y-105768733D01*
X179670911Y-105860871D01*
X179761265Y-105954315D01*
X179843649Y-106043922D01*
X179912907Y-106124550D01*
X179940082Y-106157993D01*
X180123271Y-106398418D01*
X180295073Y-106650199D01*
X180453842Y-106910146D01*
X180597933Y-107175070D01*
X180725700Y-107441781D01*
X180835496Y-107707090D01*
X180925675Y-107967807D01*
X180994593Y-108220742D01*
X180999505Y-108242292D01*
X181012660Y-108307306D01*
X181019186Y-108353657D01*
X181019044Y-108379892D01*
X181012194Y-108384558D01*
X180998595Y-108366202D01*
X180990796Y-108353367D01*
X180963044Y-108313328D01*
X180923682Y-108260809D01*
X180876283Y-108200326D01*
X180824421Y-108136392D01*
X180771670Y-108073524D01*
X180721603Y-108016237D01*
X180697444Y-107989639D01*
X180544627Y-107835866D01*
X180386661Y-107700716D01*
X180226303Y-107586386D01*
X180066314Y-107495067D01*
X180035361Y-107480430D01*
X179981619Y-107457488D01*
X179924978Y-107435576D01*
X179870680Y-107416500D01*
X179823970Y-107402071D01*
X179790091Y-107394094D01*
X179774288Y-107394379D01*
X179774272Y-107394396D01*
X179781234Y-107404419D01*
X179803973Y-107427470D01*
X179838954Y-107460135D01*
X179882642Y-107498999D01*
X179921427Y-107533714D01*
X179989027Y-107597111D01*
X180065161Y-107671148D01*
X180145945Y-107751840D01*
X180227496Y-107835203D01*
X180305933Y-107917255D01*
X180377371Y-107994010D01*
X180437929Y-108061487D01*
X180483722Y-108115700D01*
X180554768Y-108207511D01*
X180640561Y-108327967D01*
X180716948Y-108446325D01*
X180781635Y-108558781D01*
X180832328Y-108661530D01*
X180866732Y-108750769D01*
X180888681Y-108820688D01*
X180707565Y-109331794D01*
X180684720Y-109396039D01*
X180647458Y-109499848D01*
X180613074Y-109594429D01*
X180582489Y-109677325D01*
X180556621Y-109746077D01*
X180536388Y-109798229D01*
X180522709Y-109831322D01*
X180516503Y-109842900D01*
X180512716Y-109839436D01*
X180504988Y-109817685D01*
X180498328Y-109782575D01*
X180496620Y-109770270D01*
X180463903Y-109582956D01*
X180418254Y-109386701D01*
X180362097Y-109190040D01*
X180297850Y-109001504D01*
X180227936Y-108829628D01*
X180126303Y-108625347D01*
X179999346Y-108417915D01*
X179856844Y-108228095D01*
X179699816Y-108056883D01*
X179529280Y-107905273D01*
X179346255Y-107774262D01*
X179151759Y-107664843D01*
X178946811Y-107578012D01*
X178836921Y-107541868D01*
X178729281Y-107515601D01*
X178630979Y-107503658D01*
X178536075Y-107505779D01*
X178438628Y-107521704D01*
X178332697Y-107551174D01*
X178323773Y-107554071D01*
X178105193Y-107638507D01*
X177900208Y-107744309D01*
X177709229Y-107871131D01*
X177532671Y-108018632D01*
X177370946Y-108186467D01*
X177224468Y-108374292D01*
X177093649Y-108581763D01*
X177027305Y-108706660D01*
X176936748Y-108904622D01*
X176857069Y-109112752D01*
X176790476Y-109324503D01*
X176739179Y-109533329D01*
X176705386Y-109732683D01*
X176700820Y-109766372D01*
X176693387Y-109812333D01*
X176686694Y-109843880D01*
X176681780Y-109855600D01*
X176681717Y-109855582D01*
X176675840Y-109843068D01*
X176662307Y-109808738D01*
X176641873Y-109754652D01*
X176615293Y-109682873D01*
X176583320Y-109595463D01*
X176546710Y-109494482D01*
X176506215Y-109381992D01*
X176462590Y-109260056D01*
X176416590Y-109130734D01*
X176159481Y-108405868D01*
X176180500Y-108308409D01*
X176229884Y-108103046D01*
X176292514Y-107891895D01*
X176367774Y-107681900D01*
X176457815Y-107467088D01*
X176564790Y-107241488D01*
X176586414Y-107198207D01*
X176623014Y-107125976D01*
X176652278Y-107070737D01*
X176676730Y-107028578D01*
X176698889Y-106995587D01*
X176721278Y-106967852D01*
X176746419Y-106941458D01*
X176776834Y-106912496D01*
X176990506Y-106730738D01*
X177220832Y-106567992D01*
X177466621Y-106425235D01*
X177727501Y-106302683D01*
X178003100Y-106200553D01*
X178031317Y-106191552D01*
X178133192Y-106161294D01*
X178238711Y-106132954D01*
X178340996Y-106108222D01*
X178433169Y-106088790D01*
X178508350Y-106076349D01*
X178534894Y-106072423D01*
X178562019Y-106066873D01*
X178570531Y-106062696D01*
X178562064Y-106058007D01*
X178531008Y-106047892D01*
X178483185Y-106035734D01*
X178423794Y-106022596D01*
X178358034Y-106009545D01*
X178291104Y-105997646D01*
X178228203Y-105987964D01*
X178174531Y-105981564D01*
X178076090Y-105976146D01*
X177905880Y-105981783D01*
X177731332Y-106004426D01*
X177560303Y-106042914D01*
X177400650Y-106096082D01*
X177383513Y-106102754D01*
X177340311Y-106118248D01*
X177308798Y-106127599D01*
X177294847Y-106128980D01*
X177294277Y-106124512D01*
X177305678Y-106103585D01*
X177332218Y-106069149D01*
X177371464Y-106023689D01*
X177420981Y-105969690D01*
X177478334Y-105909639D01*
X177541090Y-105846021D01*
X177606813Y-105781322D01*
X177673071Y-105718026D01*
X177737427Y-105658621D01*
X177797449Y-105605591D01*
X177850700Y-105561422D01*
X177861343Y-105553019D01*
X177967241Y-105473020D01*
X178077809Y-105395287D01*
X178185447Y-105324994D01*
X178282557Y-105267317D01*
X178308755Y-105253429D01*
X178428752Y-105206168D01*
X178550962Y-105183774D01*
X178673558Y-105186250D01*
X175609486Y-113754500D02*
X175555032Y-113875421D01*
X175555032Y-113875421D02*
X175504016Y-113989429D01*
X175504016Y-113989429D02*
X175457354Y-114094425D01*
X175457354Y-114094425D02*
X175415963Y-114188311D01*
X175415963Y-114188311D02*
X175380760Y-114268991D01*
X175380760Y-114268991D02*
X175352660Y-114334367D01*
X175352660Y-114334367D02*
X175332582Y-114382340D01*
X175332582Y-114382340D02*
X175321441Y-114410814D01*
X175321441Y-114410814D02*
X175319474Y-114418075D01*
X175319474Y-114418075D02*
X175333715Y-114422203D01*
X175333715Y-114422203D02*
X175367474Y-114425429D01*
X175367474Y-114425429D02*
X175414870Y-114427305D01*
X175414870Y-114427305D02*
X175444507Y-114427600D01*
X175444507Y-114427600D02*
X175493068Y-114427762D01*
X175493068Y-114427762D02*
X175528613Y-114426060D01*
X175528613Y-114426060D02*
X175554808Y-114419213D01*
X175554808Y-114419213D02*
X175575322Y-114403938D01*
X175575322Y-114403938D02*
X175593822Y-114376952D01*
X175593822Y-114376952D02*
X175613976Y-114334975D01*
X175613976Y-114334975D02*
X175639451Y-114274723D01*
X175639451Y-114274723D02*
X175653838Y-114240275D01*
X175653838Y-114240275D02*
X175708454Y-114110100D01*
X175708454Y-114110100D02*
X176362419Y-114110100D01*
X176362419Y-114110100D02*
X176422362Y-114252975D01*
X176422362Y-114252975D02*
X176446628Y-114309688D01*
X176446628Y-114309688D02*
X176468402Y-114358519D01*
X176468402Y-114358519D02*
X176485303Y-114394263D01*
X176485303Y-114394263D02*
X176494952Y-114411717D01*
X176494952Y-114411717D02*
X176494958Y-114411725D01*
X176494958Y-114411725D02*
X176515469Y-114420664D01*
X176515469Y-114420664D02*
X176560134Y-114425934D01*
X176560134Y-114425934D02*
X176626706Y-114427600D01*
X176626706Y-114427600D02*
X176686954Y-114426539D01*
X176686954Y-114426539D02*
X176724758Y-114423100D01*
X176724758Y-114423100D02*
X176742996Y-114416899D01*
X176742996Y-114416899D02*
X176745744Y-114411725D01*
X176745744Y-114411725D02*
X176740656Y-114397488D01*
X176740656Y-114397488D02*
X176726038Y-114362249D01*
X176726038Y-114362249D02*
X176702829Y-114308145D01*
X176702829Y-114308145D02*
X176671970Y-114237315D01*
X176671970Y-114237315D02*
X176634400Y-114151898D01*
X176634400Y-114151898D02*
X176591059Y-114054033D01*
X176591059Y-114054033D02*
X176542885Y-113945858D01*
X176542885Y-113945858D02*
X176525451Y-113906900D01*
X176525451Y-113906900D02*
X176274937Y-113906900D01*
X176274937Y-113906900D02*
X175795825Y-113906900D01*
X175795825Y-113906900D02*
X175912038Y-113634110D01*
X175912038Y-113634110D02*
X175945168Y-113556983D01*
X175945168Y-113556983D02*
X175975201Y-113488289D01*
X175975201Y-113488289D02*
X176000671Y-113431279D01*
X176000671Y-113431279D02*
X176020114Y-113389203D01*
X176020114Y-113389203D02*
X176032064Y-113365314D01*
X176032064Y-113365314D02*
X176035046Y-113361060D01*
X176035046Y-113361060D02*
X176042150Y-113371998D01*
X176042150Y-113371998D02*
X176057085Y-113402252D01*
X176057085Y-113402252D02*
X176077921Y-113447687D01*
X176077921Y-113447687D02*
X176102729Y-113504166D01*
X176102729Y-113504166D02*
X176113398Y-113529075D01*
X176113398Y-113529075D02*
X176144001Y-113600966D01*
X176144001Y-113600966D02*
X176175724Y-113675354D01*
X176175724Y-113675354D02*
X176204993Y-113743868D01*
X176204993Y-113743868D02*
X176228236Y-113798142D01*
X176228236Y-113798142D02*
X176229946Y-113802125D01*
X176229946Y-113802125D02*
X176274937Y-113906900D01*
X176274937Y-113906900D02*
X176525451Y-113906900D01*
X176525451Y-113906900D02*
X176490818Y-113829513D01*
X176490818Y-113829513D02*
X176454266Y-113748150D01*
X176454266Y-113748150D02*
X176162843Y-113100450D01*
X176162843Y-113100450D02*
X175904923Y-113100450D01*
X175904923Y-113100450D02*
X175609486Y-113754500D01*
X175609486Y-113754500D02*
X175609486Y-113754500D01*
G36*
X176591059Y-114054033D02*
G01*
X176634400Y-114151898D01*
X176671970Y-114237315D01*
X176702829Y-114308145D01*
X176726038Y-114362249D01*
X176740656Y-114397488D01*
X176745744Y-114411725D01*
X176742996Y-114416899D01*
X176724758Y-114423100D01*
X176686954Y-114426539D01*
X176626706Y-114427600D01*
X176560134Y-114425934D01*
X176515469Y-114420664D01*
X176494958Y-114411725D01*
X176494952Y-114411717D01*
X176485303Y-114394263D01*
X176468402Y-114358519D01*
X176446628Y-114309688D01*
X176422362Y-114252975D01*
X176362419Y-114110100D01*
X175708454Y-114110100D01*
X175653838Y-114240275D01*
X175639451Y-114274723D01*
X175613976Y-114334975D01*
X175593822Y-114376952D01*
X175575322Y-114403938D01*
X175554808Y-114419213D01*
X175528613Y-114426060D01*
X175493068Y-114427762D01*
X175444507Y-114427600D01*
X175414870Y-114427305D01*
X175367474Y-114425429D01*
X175333715Y-114422203D01*
X175319474Y-114418075D01*
X175321441Y-114410814D01*
X175332582Y-114382340D01*
X175352660Y-114334367D01*
X175380760Y-114268991D01*
X175415963Y-114188311D01*
X175457354Y-114094425D01*
X175504016Y-113989429D01*
X175540946Y-113906900D01*
X175795825Y-113906900D01*
X176274937Y-113906900D01*
X176229946Y-113802125D01*
X176228236Y-113798142D01*
X176204993Y-113743868D01*
X176175724Y-113675354D01*
X176144001Y-113600966D01*
X176113398Y-113529075D01*
X176102729Y-113504166D01*
X176077921Y-113447687D01*
X176057085Y-113402252D01*
X176042150Y-113371998D01*
X176035046Y-113361060D01*
X176032064Y-113365314D01*
X176020114Y-113389203D01*
X176000671Y-113431279D01*
X175975201Y-113488289D01*
X175945168Y-113556983D01*
X175912038Y-113634110D01*
X175795825Y-113906900D01*
X175540946Y-113906900D01*
X175555032Y-113875421D01*
X175609486Y-113754500D01*
X175904923Y-113100450D01*
X176162843Y-113100450D01*
X176454266Y-113748150D01*
X176490818Y-113829513D01*
X176525451Y-113906900D01*
X176542885Y-113945858D01*
X176591059Y-114054033D01*
G37*
X176591059Y-114054033D02*
X176634400Y-114151898D01*
X176671970Y-114237315D01*
X176702829Y-114308145D01*
X176726038Y-114362249D01*
X176740656Y-114397488D01*
X176745744Y-114411725D01*
X176742996Y-114416899D01*
X176724758Y-114423100D01*
X176686954Y-114426539D01*
X176626706Y-114427600D01*
X176560134Y-114425934D01*
X176515469Y-114420664D01*
X176494958Y-114411725D01*
X176494952Y-114411717D01*
X176485303Y-114394263D01*
X176468402Y-114358519D01*
X176446628Y-114309688D01*
X176422362Y-114252975D01*
X176362419Y-114110100D01*
X175708454Y-114110100D01*
X175653838Y-114240275D01*
X175639451Y-114274723D01*
X175613976Y-114334975D01*
X175593822Y-114376952D01*
X175575322Y-114403938D01*
X175554808Y-114419213D01*
X175528613Y-114426060D01*
X175493068Y-114427762D01*
X175444507Y-114427600D01*
X175414870Y-114427305D01*
X175367474Y-114425429D01*
X175333715Y-114422203D01*
X175319474Y-114418075D01*
X175321441Y-114410814D01*
X175332582Y-114382340D01*
X175352660Y-114334367D01*
X175380760Y-114268991D01*
X175415963Y-114188311D01*
X175457354Y-114094425D01*
X175504016Y-113989429D01*
X175540946Y-113906900D01*
X175795825Y-113906900D01*
X176274937Y-113906900D01*
X176229946Y-113802125D01*
X176228236Y-113798142D01*
X176204993Y-113743868D01*
X176175724Y-113675354D01*
X176144001Y-113600966D01*
X176113398Y-113529075D01*
X176102729Y-113504166D01*
X176077921Y-113447687D01*
X176057085Y-113402252D01*
X176042150Y-113371998D01*
X176035046Y-113361060D01*
X176032064Y-113365314D01*
X176020114Y-113389203D01*
X176000671Y-113431279D01*
X175975201Y-113488289D01*
X175945168Y-113556983D01*
X175912038Y-113634110D01*
X175795825Y-113906900D01*
X175540946Y-113906900D01*
X175555032Y-113875421D01*
X175609486Y-113754500D01*
X175904923Y-113100450D01*
X176162843Y-113100450D01*
X176454266Y-113748150D01*
X176490818Y-113829513D01*
X176525451Y-113906900D01*
X176542885Y-113945858D01*
X176591059Y-114054033D01*
X179717757Y-108683162D02*
X179674457Y-108688973D01*
X179674457Y-108688973D02*
X179620592Y-108699234D01*
X179620592Y-108699234D02*
X179584250Y-108707527D01*
X179584250Y-108707527D02*
X179495192Y-108727812D01*
X179495192Y-108727812D02*
X179405369Y-108745798D01*
X179405369Y-108745798D02*
X179320677Y-108760487D01*
X179320677Y-108760487D02*
X179247015Y-108770881D01*
X179247015Y-108770881D02*
X179190280Y-108775981D01*
X179190280Y-108775981D02*
X179177850Y-108776327D01*
X179177850Y-108776327D02*
X179132351Y-108782318D01*
X179132351Y-108782318D02*
X179084758Y-108796690D01*
X179084758Y-108796690D02*
X179076250Y-108800379D01*
X179076250Y-108800379D02*
X179034590Y-108824943D01*
X179034590Y-108824943D02*
X178993544Y-108857510D01*
X178993544Y-108857510D02*
X178958793Y-108892531D01*
X178958793Y-108892531D02*
X178936013Y-108924457D01*
X178936013Y-108924457D02*
X178930200Y-108943095D01*
X178930200Y-108943095D02*
X178923405Y-108971539D01*
X178923405Y-108971539D02*
X178909609Y-108998920D01*
X178909609Y-108998920D02*
X178897120Y-109020864D01*
X178897120Y-109020864D02*
X178901211Y-109032706D01*
X178901211Y-109032706D02*
X178925511Y-109043065D01*
X178925511Y-109043065D02*
X178928659Y-109044165D01*
X178928659Y-109044165D02*
X178955756Y-109058081D01*
X178955756Y-109058081D02*
X178968211Y-109073295D01*
X178968211Y-109073295D02*
X178968300Y-109074433D01*
X178968300Y-109074433D02*
X178973108Y-109088210D01*
X178973108Y-109088210D02*
X178989736Y-109098371D01*
X178989736Y-109098371D02*
X179021491Y-109105640D01*
X179021491Y-109105640D02*
X179071680Y-109110739D01*
X179071680Y-109110739D02*
X179143611Y-109114393D01*
X179143611Y-109114393D02*
X179152450Y-109114718D01*
X179152450Y-109114718D02*
X179222235Y-109116206D01*
X179222235Y-109116206D02*
X179273895Y-109114423D01*
X179273895Y-109114423D02*
X179314570Y-109108731D01*
X179314570Y-109108731D02*
X179351400Y-109098493D01*
X179351400Y-109098493D02*
X179357325Y-109096422D01*
X179357325Y-109096422D02*
X179457876Y-109050593D01*
X179457876Y-109050593D02*
X179554094Y-108985676D01*
X179554094Y-108985676D02*
X179649926Y-108898927D01*
X179649926Y-108898927D02*
X179666677Y-108881586D01*
X179666677Y-108881586D02*
X179713669Y-108830349D01*
X179713669Y-108830349D02*
X179744634Y-108791800D01*
X179744634Y-108791800D02*
X179762519Y-108761739D01*
X179762519Y-108761739D02*
X179770268Y-108735964D01*
X179770268Y-108735964D02*
X179770614Y-108733333D01*
X179770614Y-108733333D02*
X179771778Y-108702960D01*
X179771778Y-108702960D02*
X179762533Y-108688695D01*
X179762533Y-108688695D02*
X179743512Y-108682881D01*
X179743512Y-108682881D02*
X179717757Y-108683162D01*
X179717757Y-108683162D02*
X179717757Y-108683162D01*
G36*
X179762533Y-108688695D02*
G01*
X179771778Y-108702960D01*
X179770614Y-108733333D01*
X179770268Y-108735964D01*
X179762519Y-108761739D01*
X179744634Y-108791800D01*
X179713669Y-108830349D01*
X179666677Y-108881586D01*
X179649926Y-108898927D01*
X179554094Y-108985676D01*
X179457876Y-109050593D01*
X179357325Y-109096422D01*
X179351400Y-109098493D01*
X179314570Y-109108731D01*
X179273895Y-109114423D01*
X179222235Y-109116206D01*
X179152450Y-109114718D01*
X179143611Y-109114393D01*
X179071680Y-109110739D01*
X179021491Y-109105640D01*
X178989736Y-109098371D01*
X178973108Y-109088210D01*
X178968300Y-109074433D01*
X178968211Y-109073295D01*
X178955756Y-109058081D01*
X178928659Y-109044165D01*
X178925511Y-109043065D01*
X178901211Y-109032706D01*
X178897120Y-109020864D01*
X178909609Y-108998920D01*
X178923405Y-108971539D01*
X178930200Y-108943095D01*
X178936013Y-108924457D01*
X178958793Y-108892531D01*
X178993544Y-108857510D01*
X179034590Y-108824943D01*
X179076250Y-108800379D01*
X179084758Y-108796690D01*
X179132351Y-108782318D01*
X179177850Y-108776327D01*
X179190280Y-108775981D01*
X179247015Y-108770881D01*
X179320677Y-108760487D01*
X179405369Y-108745798D01*
X179495192Y-108727812D01*
X179584250Y-108707527D01*
X179620592Y-108699234D01*
X179674457Y-108688973D01*
X179717757Y-108683162D01*
X179743512Y-108682881D01*
X179762533Y-108688695D01*
G37*
X179762533Y-108688695D02*
X179771778Y-108702960D01*
X179770614Y-108733333D01*
X179770268Y-108735964D01*
X179762519Y-108761739D01*
X179744634Y-108791800D01*
X179713669Y-108830349D01*
X179666677Y-108881586D01*
X179649926Y-108898927D01*
X179554094Y-108985676D01*
X179457876Y-109050593D01*
X179357325Y-109096422D01*
X179351400Y-109098493D01*
X179314570Y-109108731D01*
X179273895Y-109114423D01*
X179222235Y-109116206D01*
X179152450Y-109114718D01*
X179143611Y-109114393D01*
X179071680Y-109110739D01*
X179021491Y-109105640D01*
X178989736Y-109098371D01*
X178973108Y-109088210D01*
X178968300Y-109074433D01*
X178968211Y-109073295D01*
X178955756Y-109058081D01*
X178928659Y-109044165D01*
X178925511Y-109043065D01*
X178901211Y-109032706D01*
X178897120Y-109020864D01*
X178909609Y-108998920D01*
X178923405Y-108971539D01*
X178930200Y-108943095D01*
X178936013Y-108924457D01*
X178958793Y-108892531D01*
X178993544Y-108857510D01*
X179034590Y-108824943D01*
X179076250Y-108800379D01*
X179084758Y-108796690D01*
X179132351Y-108782318D01*
X179177850Y-108776327D01*
X179190280Y-108775981D01*
X179247015Y-108770881D01*
X179320677Y-108760487D01*
X179405369Y-108745798D01*
X179495192Y-108727812D01*
X179584250Y-108707527D01*
X179620592Y-108699234D01*
X179674457Y-108688973D01*
X179717757Y-108683162D01*
X179743512Y-108682881D01*
X179762533Y-108688695D01*
X171677360Y-113073283D02*
X171593481Y-113085763D01*
X171593481Y-113085763D02*
X171509494Y-113104481D01*
X171509494Y-113104481D02*
X171432675Y-113127677D01*
X171432675Y-113127677D02*
X171370296Y-113153594D01*
X171370296Y-113153594D02*
X171346527Y-113167202D01*
X171346527Y-113167202D02*
X171313004Y-113189350D01*
X171313004Y-113189350D02*
X171350797Y-113284600D01*
X171350797Y-113284600D02*
X171368703Y-113329196D01*
X171368703Y-113329196D02*
X171382854Y-113363453D01*
X171382854Y-113363453D02*
X171390835Y-113381551D01*
X171390835Y-113381551D02*
X171391644Y-113382940D01*
X171391644Y-113382940D02*
X171403702Y-113379573D01*
X171403702Y-113379573D02*
X171431796Y-113367677D01*
X171431796Y-113367677D02*
X171460870Y-113354108D01*
X171460870Y-113354108D02*
X171548610Y-113320187D01*
X171548610Y-113320187D02*
X171645157Y-113296998D01*
X171645157Y-113296998D02*
X171742758Y-113285536D01*
X171742758Y-113285536D02*
X171833658Y-113286795D01*
X171833658Y-113286795D02*
X171897923Y-113298063D01*
X171897923Y-113298063D02*
X171948613Y-113320447D01*
X171948613Y-113320447D02*
X171993893Y-113354992D01*
X171993893Y-113354992D02*
X172026668Y-113395301D01*
X172026668Y-113395301D02*
X172038684Y-113424994D01*
X172038684Y-113424994D02*
X172037708Y-113480348D01*
X172037708Y-113480348D02*
X172014114Y-113530302D01*
X172014114Y-113530302D02*
X171970686Y-113569582D01*
X171970686Y-113569582D02*
X171958905Y-113576187D01*
X171958905Y-113576187D02*
X171926676Y-113589602D01*
X171926676Y-113589602D02*
X171876500Y-113606946D01*
X171876500Y-113606946D02*
X171815086Y-113626034D01*
X171815086Y-113626034D02*
X171749142Y-113644684D01*
X171749142Y-113644684D02*
X171745220Y-113645733D01*
X171745220Y-113645733D02*
X171641361Y-113674489D01*
X171641361Y-113674489D02*
X171558728Y-113700019D01*
X171558728Y-113700019D02*
X171493572Y-113723729D01*
X171493572Y-113723729D02*
X171442147Y-113747025D01*
X171442147Y-113747025D02*
X171400703Y-113771312D01*
X171400703Y-113771312D02*
X171389405Y-113779183D01*
X171389405Y-113779183D02*
X171324816Y-113839554D01*
X171324816Y-113839554D02*
X171282510Y-113911482D01*
X171282510Y-113911482D02*
X171261867Y-113996218D01*
X171261867Y-113996218D02*
X171259471Y-114041119D01*
X171259471Y-114041119D02*
X171270846Y-114133685D01*
X171270846Y-114133685D02*
X171304075Y-114215885D01*
X171304075Y-114215885D02*
X171357412Y-114286749D01*
X171357412Y-114286749D02*
X171429113Y-114345305D01*
X171429113Y-114345305D02*
X171517431Y-114390583D01*
X171517431Y-114390583D02*
X171620622Y-114421612D01*
X171620622Y-114421612D02*
X171736941Y-114437420D01*
X171736941Y-114437420D02*
X171864641Y-114437037D01*
X171864641Y-114437037D02*
X171953900Y-114427503D01*
X171953900Y-114427503D02*
X172022677Y-114414065D01*
X172022677Y-114414065D02*
X172092943Y-114394490D01*
X172092943Y-114394490D02*
X172160322Y-114370683D01*
X172160322Y-114370683D02*
X172220441Y-114344548D01*
X172220441Y-114344548D02*
X172268926Y-114317992D01*
X172268926Y-114317992D02*
X172301402Y-114292918D01*
X172301402Y-114292918D02*
X172313497Y-114271232D01*
X172313497Y-114271232D02*
X172313500Y-114270886D01*
X172313500Y-114270886D02*
X172308508Y-114251150D01*
X172308508Y-114251150D02*
X172295385Y-114215918D01*
X172295385Y-114215918D02*
X172276915Y-114172631D01*
X172276915Y-114172631D02*
X172275912Y-114170412D01*
X172275912Y-114170412D02*
X172238323Y-114087512D01*
X172238323Y-114087512D02*
X172131335Y-114141207D01*
X172131335Y-114141207D02*
X172029347Y-114185606D01*
X172029347Y-114185606D02*
X171932191Y-114212203D01*
X171932191Y-114212203D02*
X171829459Y-114223514D01*
X171829459Y-114223514D02*
X171787507Y-114224329D01*
X171787507Y-114224329D02*
X171703410Y-114219974D01*
X171703410Y-114219974D02*
X171638306Y-114206037D01*
X171638306Y-114206037D02*
X171587099Y-114180987D01*
X171587099Y-114180987D02*
X171555271Y-114154510D01*
X171555271Y-114154510D02*
X171526894Y-114120435D01*
X171526894Y-114120435D02*
X171514961Y-114086989D01*
X171514961Y-114086989D02*
X171513400Y-114062282D01*
X171513400Y-114062282D02*
X171518243Y-114021536D01*
X171518243Y-114021536D02*
X171534477Y-113987172D01*
X171534477Y-113987172D02*
X171564661Y-113957508D01*
X171564661Y-113957508D02*
X171611355Y-113930862D01*
X171611355Y-113930862D02*
X171677118Y-113905553D01*
X171677118Y-113905553D02*
X171764508Y-113879898D01*
X171764508Y-113879898D02*
X171807900Y-113868709D01*
X171807900Y-113868709D02*
X171937377Y-113833131D01*
X171937377Y-113833131D02*
X172043343Y-113796420D01*
X172043343Y-113796420D02*
X172127683Y-113757049D01*
X172127683Y-113757049D02*
X172192285Y-113713494D01*
X172192285Y-113713494D02*
X172239033Y-113664231D01*
X172239033Y-113664231D02*
X172269814Y-113607735D01*
X172269814Y-113607735D02*
X172286513Y-113542481D01*
X172286513Y-113542481D02*
X172291051Y-113478106D01*
X172291051Y-113478106D02*
X172280190Y-113381807D01*
X172280190Y-113381807D02*
X172247306Y-113296398D01*
X172247306Y-113296398D02*
X172193795Y-113222946D01*
X172193795Y-113222946D02*
X172121057Y-113162516D01*
X172121057Y-113162516D02*
X172030489Y-113116172D01*
X172030489Y-113116172D02*
X171923491Y-113084982D01*
X171923491Y-113084982D02*
X171801461Y-113070010D01*
X171801461Y-113070010D02*
X171753858Y-113068795D01*
X171753858Y-113068795D02*
X171677360Y-113073283D01*
X171677360Y-113073283D02*
X171677360Y-113073283D01*
G36*
X171801461Y-113070010D02*
G01*
X171923491Y-113084982D01*
X172030489Y-113116172D01*
X172121057Y-113162516D01*
X172193795Y-113222946D01*
X172247306Y-113296398D01*
X172280190Y-113381807D01*
X172291051Y-113478106D01*
X172286513Y-113542481D01*
X172269814Y-113607735D01*
X172239033Y-113664231D01*
X172192285Y-113713494D01*
X172127683Y-113757049D01*
X172043343Y-113796420D01*
X171937377Y-113833131D01*
X171807900Y-113868709D01*
X171764508Y-113879898D01*
X171677118Y-113905553D01*
X171611355Y-113930862D01*
X171564661Y-113957508D01*
X171534477Y-113987172D01*
X171518243Y-114021536D01*
X171513400Y-114062282D01*
X171514961Y-114086989D01*
X171526894Y-114120435D01*
X171555271Y-114154510D01*
X171587099Y-114180987D01*
X171638306Y-114206037D01*
X171703410Y-114219974D01*
X171787507Y-114224329D01*
X171829459Y-114223514D01*
X171932191Y-114212203D01*
X172029347Y-114185606D01*
X172131335Y-114141207D01*
X172238323Y-114087512D01*
X172275912Y-114170412D01*
X172276915Y-114172631D01*
X172295385Y-114215918D01*
X172308508Y-114251150D01*
X172313500Y-114270886D01*
X172313497Y-114271232D01*
X172301402Y-114292918D01*
X172268926Y-114317992D01*
X172220441Y-114344548D01*
X172160322Y-114370683D01*
X172092943Y-114394490D01*
X172022677Y-114414065D01*
X171953900Y-114427503D01*
X171864641Y-114437037D01*
X171736941Y-114437420D01*
X171620622Y-114421612D01*
X171517431Y-114390583D01*
X171429113Y-114345305D01*
X171357412Y-114286749D01*
X171304075Y-114215885D01*
X171270846Y-114133685D01*
X171259471Y-114041119D01*
X171261867Y-113996218D01*
X171282510Y-113911482D01*
X171324816Y-113839554D01*
X171389405Y-113779183D01*
X171400703Y-113771312D01*
X171442147Y-113747025D01*
X171493572Y-113723729D01*
X171558728Y-113700019D01*
X171641361Y-113674489D01*
X171745220Y-113645733D01*
X171749142Y-113644684D01*
X171815086Y-113626034D01*
X171876500Y-113606946D01*
X171926676Y-113589602D01*
X171958905Y-113576187D01*
X171970686Y-113569582D01*
X172014114Y-113530302D01*
X172037708Y-113480348D01*
X172038684Y-113424994D01*
X172026668Y-113395301D01*
X171993893Y-113354992D01*
X171948613Y-113320447D01*
X171897923Y-113298063D01*
X171833658Y-113286795D01*
X171742758Y-113285536D01*
X171645157Y-113296998D01*
X171548610Y-113320187D01*
X171460870Y-113354108D01*
X171431796Y-113367677D01*
X171403702Y-113379573D01*
X171391644Y-113382940D01*
X171390835Y-113381551D01*
X171382854Y-113363453D01*
X171368703Y-113329196D01*
X171350797Y-113284600D01*
X171313004Y-113189350D01*
X171346527Y-113167202D01*
X171370296Y-113153594D01*
X171432675Y-113127677D01*
X171509494Y-113104481D01*
X171593481Y-113085763D01*
X171677360Y-113073283D01*
X171753858Y-113068795D01*
X171801461Y-113070010D01*
G37*
X171801461Y-113070010D02*
X171923491Y-113084982D01*
X172030489Y-113116172D01*
X172121057Y-113162516D01*
X172193795Y-113222946D01*
X172247306Y-113296398D01*
X172280190Y-113381807D01*
X172291051Y-113478106D01*
X172286513Y-113542481D01*
X172269814Y-113607735D01*
X172239033Y-113664231D01*
X172192285Y-113713494D01*
X172127683Y-113757049D01*
X172043343Y-113796420D01*
X171937377Y-113833131D01*
X171807900Y-113868709D01*
X171764508Y-113879898D01*
X171677118Y-113905553D01*
X171611355Y-113930862D01*
X171564661Y-113957508D01*
X171534477Y-113987172D01*
X171518243Y-114021536D01*
X171513400Y-114062282D01*
X171514961Y-114086989D01*
X171526894Y-114120435D01*
X171555271Y-114154510D01*
X171587099Y-114180987D01*
X171638306Y-114206037D01*
X171703410Y-114219974D01*
X171787507Y-114224329D01*
X171829459Y-114223514D01*
X171932191Y-114212203D01*
X172029347Y-114185606D01*
X172131335Y-114141207D01*
X172238323Y-114087512D01*
X172275912Y-114170412D01*
X172276915Y-114172631D01*
X172295385Y-114215918D01*
X172308508Y-114251150D01*
X172313500Y-114270886D01*
X172313497Y-114271232D01*
X172301402Y-114292918D01*
X172268926Y-114317992D01*
X172220441Y-114344548D01*
X172160322Y-114370683D01*
X172092943Y-114394490D01*
X172022677Y-114414065D01*
X171953900Y-114427503D01*
X171864641Y-114437037D01*
X171736941Y-114437420D01*
X171620622Y-114421612D01*
X171517431Y-114390583D01*
X171429113Y-114345305D01*
X171357412Y-114286749D01*
X171304075Y-114215885D01*
X171270846Y-114133685D01*
X171259471Y-114041119D01*
X171261867Y-113996218D01*
X171282510Y-113911482D01*
X171324816Y-113839554D01*
X171389405Y-113779183D01*
X171400703Y-113771312D01*
X171442147Y-113747025D01*
X171493572Y-113723729D01*
X171558728Y-113700019D01*
X171641361Y-113674489D01*
X171745220Y-113645733D01*
X171749142Y-113644684D01*
X171815086Y-113626034D01*
X171876500Y-113606946D01*
X171926676Y-113589602D01*
X171958905Y-113576187D01*
X171970686Y-113569582D01*
X172014114Y-113530302D01*
X172037708Y-113480348D01*
X172038684Y-113424994D01*
X172026668Y-113395301D01*
X171993893Y-113354992D01*
X171948613Y-113320447D01*
X171897923Y-113298063D01*
X171833658Y-113286795D01*
X171742758Y-113285536D01*
X171645157Y-113296998D01*
X171548610Y-113320187D01*
X171460870Y-113354108D01*
X171431796Y-113367677D01*
X171403702Y-113379573D01*
X171391644Y-113382940D01*
X171390835Y-113381551D01*
X171382854Y-113363453D01*
X171368703Y-113329196D01*
X171350797Y-113284600D01*
X171313004Y-113189350D01*
X171346527Y-113167202D01*
X171370296Y-113153594D01*
X171432675Y-113127677D01*
X171509494Y-113104481D01*
X171593481Y-113085763D01*
X171677360Y-113073283D01*
X171753858Y-113068795D01*
X171801461Y-113070010D01*
X176196474Y-109131315D02*
X176195261Y-109165432D01*
X176195261Y-109165432D02*
X176194699Y-109218249D01*
X176194699Y-109218249D02*
X176194803Y-109286421D01*
X176194803Y-109286421D02*
X176195586Y-109366602D01*
X176195586Y-109366602D02*
X176196881Y-109446025D01*
X176196881Y-109446025D02*
X176203166Y-109773050D01*
X176203166Y-109773050D02*
X175484689Y-110319150D01*
X175484689Y-110319150D02*
X175366142Y-110409464D01*
X175366142Y-110409464D02*
X175253791Y-110495466D01*
X175253791Y-110495466D02*
X175149237Y-110575903D01*
X175149237Y-110575903D02*
X175054080Y-110649524D01*
X175054080Y-110649524D02*
X174969924Y-110715079D01*
X174969924Y-110715079D02*
X174898367Y-110771316D01*
X174898367Y-110771316D02*
X174841013Y-110816983D01*
X174841013Y-110816983D02*
X174799461Y-110850830D01*
X174799461Y-110850830D02*
X174775314Y-110871606D01*
X174775314Y-110871606D02*
X174769595Y-110877950D01*
X174769595Y-110877950D02*
X174782299Y-110884923D01*
X174782299Y-110884923D02*
X174815948Y-110897312D01*
X174815948Y-110897312D02*
X174866955Y-110913964D01*
X174866955Y-110913964D02*
X174931729Y-110933725D01*
X174931729Y-110933725D02*
X175006681Y-110955442D01*
X175006681Y-110955442D02*
X175038664Y-110964406D01*
X175038664Y-110964406D02*
X175203960Y-111011108D01*
X175203960Y-111011108D02*
X175347385Y-111053581D01*
X175347385Y-111053581D02*
X175471897Y-111092967D01*
X175471897Y-111092967D02*
X175580450Y-111130406D01*
X175580450Y-111130406D02*
X175676002Y-111167041D01*
X175676002Y-111167041D02*
X175761507Y-111204012D01*
X175761507Y-111204012D02*
X175839922Y-111242461D01*
X175839922Y-111242461D02*
X175914202Y-111283529D01*
X175914202Y-111283529D02*
X175987304Y-111328357D01*
X175987304Y-111328357D02*
X175996376Y-111334197D01*
X175996376Y-111334197D02*
X176081949Y-111389555D01*
X176081949Y-111389555D02*
X175955501Y-111957707D01*
X175955501Y-111957707D02*
X176008778Y-112042679D01*
X176008778Y-112042679D02*
X176036722Y-112085735D01*
X176036722Y-112085735D02*
X176057614Y-112111728D01*
X176057614Y-112111728D02*
X176077153Y-112125561D01*
X176077153Y-112125561D02*
X176101040Y-112132139D01*
X176101040Y-112132139D02*
X176115003Y-112134073D01*
X176115003Y-112134073D02*
X176140598Y-112135872D01*
X176140598Y-112135872D02*
X176188040Y-112137928D01*
X176188040Y-112137928D02*
X176253781Y-112140138D01*
X176253781Y-112140138D02*
X176334269Y-112142397D01*
X176334269Y-112142397D02*
X176425956Y-112144601D01*
X176425956Y-112144601D02*
X176525290Y-112146646D01*
X176525290Y-112146646D02*
X176574350Y-112147535D01*
X176574350Y-112147535D02*
X176689670Y-112149663D01*
X176689670Y-112149663D02*
X176811171Y-112152135D01*
X176811171Y-112152135D02*
X176932648Y-112154809D01*
X176932648Y-112154809D02*
X177047892Y-112157541D01*
X177047892Y-112157541D02*
X177150695Y-112160191D01*
X177150695Y-112160191D02*
X177234850Y-112162616D01*
X177234850Y-112162616D02*
X177241100Y-112162812D01*
X177241100Y-112162812D02*
X177329309Y-112165400D01*
X177329309Y-112165400D02*
X177394989Y-112166735D01*
X177394989Y-112166735D02*
X177440986Y-112166705D01*
X177440986Y-112166705D02*
X177470146Y-112165200D01*
X177470146Y-112165200D02*
X177485313Y-112162106D01*
X177485313Y-112162106D02*
X177489335Y-112157313D01*
X177489335Y-112157313D02*
X177487253Y-112153149D01*
X177487253Y-112153149D02*
X177476687Y-112139051D01*
X177476687Y-112139051D02*
X177452927Y-112106880D01*
X177452927Y-112106880D02*
X177417582Y-112058836D01*
X177417582Y-112058836D02*
X177372261Y-111997116D01*
X177372261Y-111997116D02*
X177318573Y-111923921D01*
X177318573Y-111923921D02*
X177258126Y-111841449D01*
X177258126Y-111841449D02*
X177192530Y-111751899D01*
X177192530Y-111751899D02*
X177123393Y-111657470D01*
X177123393Y-111657470D02*
X177052324Y-111560361D01*
X177052324Y-111560361D02*
X176980932Y-111462771D01*
X176980932Y-111462771D02*
X176910826Y-111366900D01*
X176910826Y-111366900D02*
X176843615Y-111274945D01*
X176843615Y-111274945D02*
X176780906Y-111189106D01*
X176780906Y-111189106D02*
X176724310Y-111111583D01*
X176724310Y-111111583D02*
X176675435Y-111044573D01*
X176675435Y-111044573D02*
X176635890Y-110990276D01*
X176635890Y-110990276D02*
X176607283Y-110950891D01*
X176607283Y-110950891D02*
X176591224Y-110928618D01*
X176591224Y-110928618D02*
X176588343Y-110924491D01*
X176588343Y-110924491D02*
X176597870Y-110927342D01*
X176597870Y-110927342D02*
X176628134Y-110940255D01*
X176628134Y-110940255D02*
X176677003Y-110962243D01*
X176677003Y-110962243D02*
X176742344Y-110992313D01*
X176742344Y-110992313D02*
X176822025Y-111029478D01*
X176822025Y-111029478D02*
X176913914Y-111072746D01*
X176913914Y-111072746D02*
X177015878Y-111121128D01*
X177015878Y-111121128D02*
X177125786Y-111173634D01*
X177125786Y-111173634D02*
X177148989Y-111184762D01*
X177148989Y-111184762D02*
X177268191Y-111241964D01*
X177268191Y-111241964D02*
X177386324Y-111298649D01*
X177386324Y-111298649D02*
X177500224Y-111353298D01*
X177500224Y-111353298D02*
X177606729Y-111404394D01*
X177606729Y-111404394D02*
X177702675Y-111450421D01*
X177702675Y-111450421D02*
X177784900Y-111489860D01*
X177784900Y-111489860D02*
X177850241Y-111521194D01*
X177850241Y-111521194D02*
X177892059Y-111541241D01*
X177892059Y-111541241D02*
X177953049Y-111569675D01*
X177953049Y-111569675D02*
X178005916Y-111592820D01*
X178005916Y-111592820D02*
X178046512Y-111608978D01*
X178046512Y-111608978D02*
X178070687Y-111616451D01*
X178070687Y-111616451D02*
X178075417Y-111616316D01*
X178075417Y-111616316D02*
X178072061Y-111603370D01*
X178072061Y-111603370D02*
X178054532Y-111578620D01*
X178054532Y-111578620D02*
X178032707Y-111553958D01*
X178032707Y-111553958D02*
X178014861Y-111535127D01*
X178014861Y-111535127D02*
X177981323Y-111499568D01*
X177981323Y-111499568D02*
X177933779Y-111449076D01*
X177933779Y-111449076D02*
X177873918Y-111385445D01*
X177873918Y-111385445D02*
X177803426Y-111310469D01*
X177803426Y-111310469D02*
X177723990Y-111225945D01*
X177723990Y-111225945D02*
X177637299Y-111133665D01*
X177637299Y-111133665D02*
X177545039Y-111035425D01*
X177545039Y-111035425D02*
X177450850Y-110935100D01*
X177450850Y-110935100D02*
X177354928Y-110832938D01*
X177354928Y-110832938D02*
X177263037Y-110735122D01*
X177263037Y-110735122D02*
X177176850Y-110643427D01*
X177176850Y-110643427D02*
X177098035Y-110559628D01*
X177098035Y-110559628D02*
X177028265Y-110485499D01*
X177028265Y-110485499D02*
X176969208Y-110422816D01*
X176969208Y-110422816D02*
X176922537Y-110373353D01*
X176922537Y-110373353D02*
X176889922Y-110338886D01*
X176889922Y-110338886D02*
X176873131Y-110321290D01*
X176873131Y-110321290D02*
X176825909Y-110272631D01*
X176825909Y-110272631D02*
X176459661Y-110552202D01*
X176459661Y-110552202D02*
X176093412Y-110831772D01*
X176093412Y-110831772D02*
X176003681Y-110838750D01*
X176003681Y-110838750D02*
X175966637Y-110841005D01*
X175966637Y-110841005D02*
X175910371Y-110843612D01*
X175910371Y-110843612D02*
X175838046Y-110846483D01*
X175838046Y-110846483D02*
X175752822Y-110849531D01*
X175752822Y-110849531D02*
X175657859Y-110852670D01*
X175657859Y-110852670D02*
X175556318Y-110855813D01*
X175556318Y-110855813D02*
X175451361Y-110858875D01*
X175451361Y-110858875D02*
X175346147Y-110861767D01*
X175346147Y-110861767D02*
X175243837Y-110864404D01*
X175243837Y-110864404D02*
X175147592Y-110866699D01*
X175147592Y-110866699D02*
X175060573Y-110868566D01*
X175060573Y-110868566D02*
X174985941Y-110869917D01*
X174985941Y-110869917D02*
X174926855Y-110870666D01*
X174926855Y-110870666D02*
X174886478Y-110870727D01*
X174886478Y-110870727D02*
X174867969Y-110870013D01*
X174867969Y-110870013D02*
X174867394Y-110869881D01*
X174867394Y-110869881D02*
X174876462Y-110866266D01*
X174876462Y-110866266D02*
X174908217Y-110857744D01*
X174908217Y-110857744D02*
X174960529Y-110844812D01*
X174960529Y-110844812D02*
X175031267Y-110827966D01*
X175031267Y-110827966D02*
X175118299Y-110807704D01*
X175118299Y-110807704D02*
X175219495Y-110784523D01*
X175219495Y-110784523D02*
X175332724Y-110758920D01*
X175332724Y-110758920D02*
X175455854Y-110731391D01*
X175455854Y-110731391D02*
X175561535Y-110707990D01*
X175561535Y-110707990D02*
X176271622Y-110551414D01*
X176271622Y-110551414D02*
X176444727Y-110272939D01*
X176444727Y-110272939D02*
X176617832Y-109994463D01*
X176617832Y-109994463D02*
X176411941Y-109556978D01*
X176411941Y-109556978D02*
X176365721Y-109459176D01*
X176365721Y-109459176D02*
X176322721Y-109368978D01*
X176322721Y-109368978D02*
X176284164Y-109288884D01*
X176284164Y-109288884D02*
X176251268Y-109221394D01*
X176251268Y-109221394D02*
X176225255Y-109169010D01*
X176225255Y-109169010D02*
X176207344Y-109134232D01*
X176207344Y-109134232D02*
X176198757Y-109119560D01*
X176198757Y-109119560D02*
X176198323Y-109119246D01*
X176198323Y-109119246D02*
X176196474Y-109131315D01*
X176196474Y-109131315D02*
X176196474Y-109131315D01*
G36*
X176198757Y-109119560D02*
G01*
X176207344Y-109134232D01*
X176225255Y-109169010D01*
X176251268Y-109221394D01*
X176284164Y-109288884D01*
X176322721Y-109368978D01*
X176365721Y-109459176D01*
X176411941Y-109556978D01*
X176617832Y-109994463D01*
X176444727Y-110272939D01*
X176271622Y-110551414D01*
X175561535Y-110707990D01*
X175455854Y-110731391D01*
X175332724Y-110758920D01*
X175219495Y-110784523D01*
X175118299Y-110807704D01*
X175031267Y-110827966D01*
X174960529Y-110844812D01*
X174908217Y-110857744D01*
X174876462Y-110866266D01*
X174867394Y-110869881D01*
X174867969Y-110870013D01*
X174886478Y-110870727D01*
X174926855Y-110870666D01*
X174985941Y-110869917D01*
X175060573Y-110868566D01*
X175147592Y-110866699D01*
X175243837Y-110864404D01*
X175346147Y-110861767D01*
X175451361Y-110858875D01*
X175556318Y-110855813D01*
X175657859Y-110852670D01*
X175752822Y-110849531D01*
X175838046Y-110846483D01*
X175910371Y-110843612D01*
X175966637Y-110841005D01*
X176003681Y-110838750D01*
X176093412Y-110831772D01*
X176459661Y-110552202D01*
X176825909Y-110272631D01*
X176873131Y-110321290D01*
X176889922Y-110338886D01*
X176922537Y-110373353D01*
X176969208Y-110422816D01*
X177028265Y-110485499D01*
X177098035Y-110559628D01*
X177176850Y-110643427D01*
X177263037Y-110735122D01*
X177354928Y-110832938D01*
X177450850Y-110935100D01*
X177545039Y-111035425D01*
X177637299Y-111133665D01*
X177723990Y-111225945D01*
X177803426Y-111310469D01*
X177873918Y-111385445D01*
X177933779Y-111449076D01*
X177981323Y-111499568D01*
X178014861Y-111535127D01*
X178032707Y-111553958D01*
X178054532Y-111578620D01*
X178072061Y-111603370D01*
X178075417Y-111616316D01*
X178070687Y-111616451D01*
X178046512Y-111608978D01*
X178005916Y-111592820D01*
X177953049Y-111569675D01*
X177892059Y-111541241D01*
X177850241Y-111521194D01*
X177784900Y-111489860D01*
X177702675Y-111450421D01*
X177606729Y-111404394D01*
X177500224Y-111353298D01*
X177386324Y-111298649D01*
X177268191Y-111241964D01*
X177148989Y-111184762D01*
X177125786Y-111173634D01*
X177015878Y-111121128D01*
X176913914Y-111072746D01*
X176822025Y-111029478D01*
X176742344Y-110992313D01*
X176677003Y-110962243D01*
X176628134Y-110940255D01*
X176597870Y-110927342D01*
X176588343Y-110924491D01*
X176591224Y-110928618D01*
X176607283Y-110950891D01*
X176635890Y-110990276D01*
X176675435Y-111044573D01*
X176724310Y-111111583D01*
X176780906Y-111189106D01*
X176843615Y-111274945D01*
X176910826Y-111366900D01*
X176980932Y-111462771D01*
X177052324Y-111560361D01*
X177123393Y-111657470D01*
X177192530Y-111751899D01*
X177258126Y-111841449D01*
X177318573Y-111923921D01*
X177372261Y-111997116D01*
X177417582Y-112058836D01*
X177452927Y-112106880D01*
X177476687Y-112139051D01*
X177487253Y-112153149D01*
X177489335Y-112157313D01*
X177485313Y-112162106D01*
X177470146Y-112165200D01*
X177440986Y-112166705D01*
X177394989Y-112166735D01*
X177329309Y-112165400D01*
X177241100Y-112162812D01*
X177234850Y-112162616D01*
X177150695Y-112160191D01*
X177047892Y-112157541D01*
X176932648Y-112154809D01*
X176811171Y-112152135D01*
X176689670Y-112149663D01*
X176574350Y-112147535D01*
X176525290Y-112146646D01*
X176425956Y-112144601D01*
X176334269Y-112142397D01*
X176253781Y-112140138D01*
X176188040Y-112137928D01*
X176140598Y-112135872D01*
X176115003Y-112134073D01*
X176101040Y-112132139D01*
X176077153Y-112125561D01*
X176057614Y-112111728D01*
X176036722Y-112085735D01*
X176008778Y-112042679D01*
X175955501Y-111957707D01*
X176081949Y-111389555D01*
X175996376Y-111334197D01*
X175987304Y-111328357D01*
X175914202Y-111283529D01*
X175839922Y-111242461D01*
X175761507Y-111204012D01*
X175676002Y-111167041D01*
X175580450Y-111130406D01*
X175471897Y-111092967D01*
X175347385Y-111053581D01*
X175203960Y-111011108D01*
X175038664Y-110964406D01*
X175006681Y-110955442D01*
X174931729Y-110933725D01*
X174866955Y-110913964D01*
X174815948Y-110897312D01*
X174782299Y-110884923D01*
X174769595Y-110877950D01*
X174775314Y-110871606D01*
X174799461Y-110850830D01*
X174841013Y-110816983D01*
X174898367Y-110771316D01*
X174969924Y-110715079D01*
X175054080Y-110649524D01*
X175149237Y-110575903D01*
X175253791Y-110495466D01*
X175366142Y-110409464D01*
X175484689Y-110319150D01*
X176203166Y-109773050D01*
X176196881Y-109446025D01*
X176195586Y-109366602D01*
X176194803Y-109286421D01*
X176194699Y-109218249D01*
X176195261Y-109165432D01*
X176196474Y-109131315D01*
X176198323Y-109119246D01*
X176198757Y-109119560D01*
G37*
X176198757Y-109119560D02*
X176207344Y-109134232D01*
X176225255Y-109169010D01*
X176251268Y-109221394D01*
X176284164Y-109288884D01*
X176322721Y-109368978D01*
X176365721Y-109459176D01*
X176411941Y-109556978D01*
X176617832Y-109994463D01*
X176444727Y-110272939D01*
X176271622Y-110551414D01*
X175561535Y-110707990D01*
X175455854Y-110731391D01*
X175332724Y-110758920D01*
X175219495Y-110784523D01*
X175118299Y-110807704D01*
X175031267Y-110827966D01*
X174960529Y-110844812D01*
X174908217Y-110857744D01*
X174876462Y-110866266D01*
X174867394Y-110869881D01*
X174867969Y-110870013D01*
X174886478Y-110870727D01*
X174926855Y-110870666D01*
X174985941Y-110869917D01*
X175060573Y-110868566D01*
X175147592Y-110866699D01*
X175243837Y-110864404D01*
X175346147Y-110861767D01*
X175451361Y-110858875D01*
X175556318Y-110855813D01*
X175657859Y-110852670D01*
X175752822Y-110849531D01*
X175838046Y-110846483D01*
X175910371Y-110843612D01*
X175966637Y-110841005D01*
X176003681Y-110838750D01*
X176093412Y-110831772D01*
X176459661Y-110552202D01*
X176825909Y-110272631D01*
X176873131Y-110321290D01*
X176889922Y-110338886D01*
X176922537Y-110373353D01*
X176969208Y-110422816D01*
X177028265Y-110485499D01*
X177098035Y-110559628D01*
X177176850Y-110643427D01*
X177263037Y-110735122D01*
X177354928Y-110832938D01*
X177450850Y-110935100D01*
X177545039Y-111035425D01*
X177637299Y-111133665D01*
X177723990Y-111225945D01*
X177803426Y-111310469D01*
X177873918Y-111385445D01*
X177933779Y-111449076D01*
X177981323Y-111499568D01*
X178014861Y-111535127D01*
X178032707Y-111553958D01*
X178054532Y-111578620D01*
X178072061Y-111603370D01*
X178075417Y-111616316D01*
X178070687Y-111616451D01*
X178046512Y-111608978D01*
X178005916Y-111592820D01*
X177953049Y-111569675D01*
X177892059Y-111541241D01*
X177850241Y-111521194D01*
X177784900Y-111489860D01*
X177702675Y-111450421D01*
X177606729Y-111404394D01*
X177500224Y-111353298D01*
X177386324Y-111298649D01*
X177268191Y-111241964D01*
X177148989Y-111184762D01*
X177125786Y-111173634D01*
X177015878Y-111121128D01*
X176913914Y-111072746D01*
X176822025Y-111029478D01*
X176742344Y-110992313D01*
X176677003Y-110962243D01*
X176628134Y-110940255D01*
X176597870Y-110927342D01*
X176588343Y-110924491D01*
X176591224Y-110928618D01*
X176607283Y-110950891D01*
X176635890Y-110990276D01*
X176675435Y-111044573D01*
X176724310Y-111111583D01*
X176780906Y-111189106D01*
X176843615Y-111274945D01*
X176910826Y-111366900D01*
X176980932Y-111462771D01*
X177052324Y-111560361D01*
X177123393Y-111657470D01*
X177192530Y-111751899D01*
X177258126Y-111841449D01*
X177318573Y-111923921D01*
X177372261Y-111997116D01*
X177417582Y-112058836D01*
X177452927Y-112106880D01*
X177476687Y-112139051D01*
X177487253Y-112153149D01*
X177489335Y-112157313D01*
X177485313Y-112162106D01*
X177470146Y-112165200D01*
X177440986Y-112166705D01*
X177394989Y-112166735D01*
X177329309Y-112165400D01*
X177241100Y-112162812D01*
X177234850Y-112162616D01*
X177150695Y-112160191D01*
X177047892Y-112157541D01*
X176932648Y-112154809D01*
X176811171Y-112152135D01*
X176689670Y-112149663D01*
X176574350Y-112147535D01*
X176525290Y-112146646D01*
X176425956Y-112144601D01*
X176334269Y-112142397D01*
X176253781Y-112140138D01*
X176188040Y-112137928D01*
X176140598Y-112135872D01*
X176115003Y-112134073D01*
X176101040Y-112132139D01*
X176077153Y-112125561D01*
X176057614Y-112111728D01*
X176036722Y-112085735D01*
X176008778Y-112042679D01*
X175955501Y-111957707D01*
X176081949Y-111389555D01*
X175996376Y-111334197D01*
X175987304Y-111328357D01*
X175914202Y-111283529D01*
X175839922Y-111242461D01*
X175761507Y-111204012D01*
X175676002Y-111167041D01*
X175580450Y-111130406D01*
X175471897Y-111092967D01*
X175347385Y-111053581D01*
X175203960Y-111011108D01*
X175038664Y-110964406D01*
X175006681Y-110955442D01*
X174931729Y-110933725D01*
X174866955Y-110913964D01*
X174815948Y-110897312D01*
X174782299Y-110884923D01*
X174769595Y-110877950D01*
X174775314Y-110871606D01*
X174799461Y-110850830D01*
X174841013Y-110816983D01*
X174898367Y-110771316D01*
X174969924Y-110715079D01*
X175054080Y-110649524D01*
X175149237Y-110575903D01*
X175253791Y-110495466D01*
X175366142Y-110409464D01*
X175484689Y-110319150D01*
X176203166Y-109773050D01*
X176196881Y-109446025D01*
X176195586Y-109366602D01*
X176194803Y-109286421D01*
X176194699Y-109218249D01*
X176195261Y-109165432D01*
X176196474Y-109131315D01*
X176198323Y-109119246D01*
X176198757Y-109119560D01*
X180759000Y-113310000D02*
X181190534Y-113310000D01*
X181190534Y-113310000D02*
X181197150Y-114421250D01*
X181197150Y-114421250D02*
X181312066Y-114424867D01*
X181312066Y-114424867D02*
X181363850Y-114425542D01*
X181363850Y-114425542D02*
X181405658Y-114424302D01*
X181405658Y-114424302D02*
X181431251Y-114421414D01*
X181431251Y-114421414D02*
X181435891Y-114419576D01*
X181435891Y-114419576D02*
X181437764Y-114405390D01*
X181437764Y-114405390D02*
X181439503Y-114368443D01*
X181439503Y-114368443D02*
X181441067Y-114311377D01*
X181441067Y-114311377D02*
X181442412Y-114236830D01*
X181442412Y-114236830D02*
X181443498Y-114147441D01*
X181443498Y-114147441D02*
X181444281Y-114045851D01*
X181444281Y-114045851D02*
X181444720Y-113934700D01*
X181444720Y-113934700D02*
X181444800Y-113860633D01*
X181444800Y-113860633D02*
X181444800Y-113310599D01*
X181444800Y-113310599D02*
X181663875Y-113307124D01*
X181663875Y-113307124D02*
X181882950Y-113303650D01*
X181882950Y-113303650D02*
X181890328Y-113094100D01*
X181890328Y-113094100D02*
X180759000Y-113094100D01*
X180759000Y-113094100D02*
X180759000Y-113310000D01*
X180759000Y-113310000D02*
X180759000Y-113310000D01*
G36*
X181882950Y-113303650D02*
G01*
X181663875Y-113307124D01*
X181444800Y-113310599D01*
X181444800Y-113860633D01*
X181444720Y-113934700D01*
X181444281Y-114045851D01*
X181443498Y-114147441D01*
X181442412Y-114236830D01*
X181441067Y-114311377D01*
X181439503Y-114368443D01*
X181437764Y-114405390D01*
X181435891Y-114419576D01*
X181431251Y-114421414D01*
X181405658Y-114424302D01*
X181363850Y-114425542D01*
X181312066Y-114424867D01*
X181197150Y-114421250D01*
X181190534Y-113310000D01*
X180759000Y-113310000D01*
X180759000Y-113094100D01*
X181890328Y-113094100D01*
X181882950Y-113303650D01*
G37*
X181882950Y-113303650D02*
X181663875Y-113307124D01*
X181444800Y-113310599D01*
X181444800Y-113860633D01*
X181444720Y-113934700D01*
X181444281Y-114045851D01*
X181443498Y-114147441D01*
X181442412Y-114236830D01*
X181441067Y-114311377D01*
X181439503Y-114368443D01*
X181437764Y-114405390D01*
X181435891Y-114419576D01*
X181431251Y-114421414D01*
X181405658Y-114424302D01*
X181363850Y-114425542D01*
X181312066Y-114424867D01*
X181197150Y-114421250D01*
X181190534Y-113310000D01*
X180759000Y-113310000D01*
X180759000Y-113094100D01*
X181890328Y-113094100D01*
X181882950Y-113303650D01*
X182679078Y-113746147D02*
X182624597Y-113867191D01*
X182624597Y-113867191D02*
X182573383Y-113981469D01*
X182573383Y-113981469D02*
X182526373Y-114086857D01*
X182526373Y-114086857D02*
X182484504Y-114181232D01*
X182484504Y-114181232D02*
X182448712Y-114262470D01*
X182448712Y-114262470D02*
X182419934Y-114328447D01*
X182419934Y-114328447D02*
X182399107Y-114377040D01*
X182399107Y-114377040D02*
X182387168Y-114406124D01*
X182387168Y-114406124D02*
X182384600Y-114413759D01*
X182384600Y-114413759D02*
X182393775Y-114420878D01*
X182393775Y-114420878D02*
X182422725Y-114424778D01*
X182422725Y-114424778D02*
X182473588Y-114425644D01*
X182473588Y-114425644D02*
X182512590Y-114424869D01*
X182512590Y-114424869D02*
X182640579Y-114421250D01*
X182640579Y-114421250D02*
X182773773Y-114116450D01*
X182773773Y-114116450D02*
X183429588Y-114116450D01*
X183429588Y-114116450D02*
X183495042Y-114268850D01*
X183495042Y-114268850D02*
X183560495Y-114421250D01*
X183560495Y-114421250D02*
X183682722Y-114424872D01*
X183682722Y-114424872D02*
X183735763Y-114425456D01*
X183735763Y-114425456D02*
X183778538Y-114424066D01*
X183778538Y-114424066D02*
X183805208Y-114420993D01*
X183805208Y-114420993D02*
X183811014Y-114418522D01*
X183811014Y-114418522D02*
X183807065Y-114405421D01*
X183807065Y-114405421D02*
X183793531Y-114371292D01*
X183793531Y-114371292D02*
X183771325Y-114318235D01*
X183771325Y-114318235D02*
X183741359Y-114248351D01*
X183741359Y-114248351D02*
X183704546Y-114163741D01*
X183704546Y-114163741D02*
X183661798Y-114066507D01*
X183661798Y-114066507D02*
X183614028Y-113958748D01*
X183614028Y-113958748D02*
X183596547Y-113919600D01*
X183596547Y-113919600D02*
X183348837Y-113919600D01*
X183348837Y-113919600D02*
X183101669Y-113919600D01*
X183101669Y-113919600D02*
X183025570Y-113919381D01*
X183025570Y-113919381D02*
X182958970Y-113918773D01*
X182958970Y-113918773D02*
X182905722Y-113917844D01*
X182905722Y-113917844D02*
X182869681Y-113916665D01*
X182869681Y-113916665D02*
X182854700Y-113915305D01*
X182854700Y-113915305D02*
X182854500Y-113915125D01*
X182854500Y-113915125D02*
X182859346Y-113902484D01*
X182859346Y-113902484D02*
X182872739Y-113870532D01*
X182872739Y-113870532D02*
X182892969Y-113823195D01*
X182892969Y-113823195D02*
X182918322Y-113764397D01*
X182918322Y-113764397D02*
X182947087Y-113698062D01*
X182947087Y-113698062D02*
X182977551Y-113628115D01*
X182977551Y-113628115D02*
X183008003Y-113558482D01*
X183008003Y-113558482D02*
X183036728Y-113493086D01*
X183036728Y-113493086D02*
X183062016Y-113435852D01*
X183062016Y-113435852D02*
X183082154Y-113390706D01*
X183082154Y-113390706D02*
X183095430Y-113361571D01*
X183095430Y-113361571D02*
X183100048Y-113352318D01*
X183100048Y-113352318D02*
X183106240Y-113361807D01*
X183106240Y-113361807D02*
X183120464Y-113390862D01*
X183120464Y-113390862D02*
X183140936Y-113435622D01*
X183140936Y-113435622D02*
X183165872Y-113492226D01*
X183165872Y-113492226D02*
X183181689Y-113528990D01*
X183181689Y-113528990D02*
X183213049Y-113602450D01*
X183213049Y-113602450D02*
X183245226Y-113677757D01*
X183245226Y-113677757D02*
X183274925Y-113747201D01*
X183274925Y-113747201D02*
X183298849Y-113803071D01*
X183298849Y-113803071D02*
X183303889Y-113814825D01*
X183303889Y-113814825D02*
X183348837Y-113919600D01*
X183348837Y-113919600D02*
X183596547Y-113919600D01*
X183596547Y-113919600D02*
X183562148Y-113842565D01*
X183562148Y-113842565D02*
X183522592Y-113754500D01*
X183522592Y-113754500D02*
X183228104Y-113100450D01*
X183228104Y-113100450D02*
X183100830Y-113096856D01*
X183100830Y-113096856D02*
X182973555Y-113093263D01*
X182973555Y-113093263D02*
X182679078Y-113746147D01*
X182679078Y-113746147D02*
X182679078Y-113746147D01*
G36*
X183661798Y-114066507D02*
G01*
X183704546Y-114163741D01*
X183741359Y-114248351D01*
X183771325Y-114318235D01*
X183793531Y-114371292D01*
X183807065Y-114405421D01*
X183811014Y-114418522D01*
X183805208Y-114420993D01*
X183778538Y-114424066D01*
X183735763Y-114425456D01*
X183682722Y-114424872D01*
X183560495Y-114421250D01*
X183495042Y-114268850D01*
X183429588Y-114116450D01*
X182773773Y-114116450D01*
X182640579Y-114421250D01*
X182512590Y-114424869D01*
X182473588Y-114425644D01*
X182422725Y-114424778D01*
X182393775Y-114420878D01*
X182384600Y-114413759D01*
X182387168Y-114406124D01*
X182399107Y-114377040D01*
X182419934Y-114328447D01*
X182448712Y-114262470D01*
X182484504Y-114181232D01*
X182526373Y-114086857D01*
X182573383Y-113981469D01*
X182603115Y-113915125D01*
X182854500Y-113915125D01*
X182854700Y-113915305D01*
X182869681Y-113916665D01*
X182905722Y-113917844D01*
X182958970Y-113918773D01*
X183025570Y-113919381D01*
X183101669Y-113919600D01*
X183348837Y-113919600D01*
X183303889Y-113814825D01*
X183298849Y-113803071D01*
X183274925Y-113747201D01*
X183245226Y-113677757D01*
X183213049Y-113602450D01*
X183181689Y-113528990D01*
X183165872Y-113492226D01*
X183140936Y-113435622D01*
X183120464Y-113390862D01*
X183106240Y-113361807D01*
X183100048Y-113352318D01*
X183095430Y-113361571D01*
X183082154Y-113390706D01*
X183062016Y-113435852D01*
X183036728Y-113493086D01*
X183008003Y-113558482D01*
X182977551Y-113628115D01*
X182947087Y-113698062D01*
X182918322Y-113764397D01*
X182892969Y-113823195D01*
X182872739Y-113870532D01*
X182859346Y-113902484D01*
X182854500Y-113915125D01*
X182603115Y-113915125D01*
X182624597Y-113867191D01*
X182679078Y-113746147D01*
X182973555Y-113093263D01*
X183100830Y-113096856D01*
X183228104Y-113100450D01*
X183522592Y-113754500D01*
X183562148Y-113842565D01*
X183596547Y-113919600D01*
X183614028Y-113958748D01*
X183661798Y-114066507D01*
G37*
X183661798Y-114066507D02*
X183704546Y-114163741D01*
X183741359Y-114248351D01*
X183771325Y-114318235D01*
X183793531Y-114371292D01*
X183807065Y-114405421D01*
X183811014Y-114418522D01*
X183805208Y-114420993D01*
X183778538Y-114424066D01*
X183735763Y-114425456D01*
X183682722Y-114424872D01*
X183560495Y-114421250D01*
X183495042Y-114268850D01*
X183429588Y-114116450D01*
X182773773Y-114116450D01*
X182640579Y-114421250D01*
X182512590Y-114424869D01*
X182473588Y-114425644D01*
X182422725Y-114424778D01*
X182393775Y-114420878D01*
X182384600Y-114413759D01*
X182387168Y-114406124D01*
X182399107Y-114377040D01*
X182419934Y-114328447D01*
X182448712Y-114262470D01*
X182484504Y-114181232D01*
X182526373Y-114086857D01*
X182573383Y-113981469D01*
X182603115Y-113915125D01*
X182854500Y-113915125D01*
X182854700Y-113915305D01*
X182869681Y-113916665D01*
X182905722Y-113917844D01*
X182958970Y-113918773D01*
X183025570Y-113919381D01*
X183101669Y-113919600D01*
X183348837Y-113919600D01*
X183303889Y-113814825D01*
X183298849Y-113803071D01*
X183274925Y-113747201D01*
X183245226Y-113677757D01*
X183213049Y-113602450D01*
X183181689Y-113528990D01*
X183165872Y-113492226D01*
X183140936Y-113435622D01*
X183120464Y-113390862D01*
X183106240Y-113361807D01*
X183100048Y-113352318D01*
X183095430Y-113361571D01*
X183082154Y-113390706D01*
X183062016Y-113435852D01*
X183036728Y-113493086D01*
X183008003Y-113558482D01*
X182977551Y-113628115D01*
X182947087Y-113698062D01*
X182918322Y-113764397D01*
X182892969Y-113823195D01*
X182872739Y-113870532D01*
X182859346Y-113902484D01*
X182854500Y-113915125D01*
X182603115Y-113915125D01*
X182624597Y-113867191D01*
X182679078Y-113746147D01*
X182973555Y-113093263D01*
X183100830Y-113096856D01*
X183228104Y-113100450D01*
X183522592Y-113754500D01*
X183562148Y-113842565D01*
X183596547Y-113919600D01*
X183614028Y-113958748D01*
X183661798Y-114066507D01*
X173129362Y-113757178D02*
X173132650Y-114421250D01*
X173132650Y-114421250D02*
X173361250Y-114421250D01*
X173361250Y-114421250D02*
X173367600Y-113989837D01*
X173367600Y-113989837D02*
X173373950Y-113558425D01*
X173373950Y-113558425D02*
X173587975Y-113916812D01*
X173587975Y-113916812D02*
X173801999Y-114275200D01*
X173801999Y-114275200D02*
X173910117Y-114275200D01*
X173910117Y-114275200D02*
X174127809Y-113917010D01*
X174127809Y-113917010D02*
X174345500Y-113558820D01*
X174345500Y-113558820D02*
X174345500Y-114427600D01*
X174345500Y-114427600D02*
X174457684Y-114427600D01*
X174457684Y-114427600D02*
X174508791Y-114426699D01*
X174508791Y-114426699D02*
X174549798Y-114424291D01*
X174549798Y-114424291D02*
X174574395Y-114420820D01*
X174574395Y-114420820D02*
X174578334Y-114419133D01*
X174578334Y-114419133D02*
X174579965Y-114405161D01*
X174579965Y-114405161D02*
X174581492Y-114368191D01*
X174581492Y-114368191D02*
X174582886Y-114310626D01*
X174582886Y-114310626D02*
X174584116Y-114234869D01*
X174584116Y-114234869D02*
X174585150Y-114143320D01*
X174585150Y-114143320D02*
X174585960Y-114038384D01*
X174585960Y-114038384D02*
X174586513Y-113922461D01*
X174586513Y-113922461D02*
X174586780Y-113797954D01*
X174586780Y-113797954D02*
X174586800Y-113752383D01*
X174586800Y-113752383D02*
X174586800Y-113094100D01*
X174586800Y-113094100D02*
X174372206Y-113094100D01*
X174372206Y-113094100D02*
X174112554Y-113526871D01*
X174112554Y-113526871D02*
X174039435Y-113648029D01*
X174039435Y-113648029D02*
X173978394Y-113747600D01*
X173978394Y-113747600D02*
X173929069Y-113826143D01*
X173929069Y-113826143D02*
X173891095Y-113884218D01*
X173891095Y-113884218D02*
X173864111Y-113922381D01*
X173864111Y-113922381D02*
X173847752Y-113941192D01*
X173847752Y-113941192D02*
X173842140Y-113942796D01*
X173842140Y-113942796D02*
X173833448Y-113928357D01*
X173833448Y-113928357D02*
X173813361Y-113894543D01*
X173813361Y-113894543D02*
X173783369Y-113843875D01*
X173783369Y-113843875D02*
X173744959Y-113778869D01*
X173744959Y-113778869D02*
X173699618Y-113702043D01*
X173699618Y-113702043D02*
X173648834Y-113615916D01*
X173648834Y-113615916D02*
X173594095Y-113523005D01*
X173594095Y-113523005D02*
X173588321Y-113513200D01*
X173588321Y-113513200D02*
X173345262Y-113100450D01*
X173345262Y-113100450D02*
X173235668Y-113096778D01*
X173235668Y-113096778D02*
X173126073Y-113093107D01*
X173126073Y-113093107D02*
X173129362Y-113757178D01*
X173129362Y-113757178D02*
X173129362Y-113757178D01*
G36*
X173235668Y-113096778D02*
G01*
X173345262Y-113100450D01*
X173588321Y-113513200D01*
X173594095Y-113523005D01*
X173648834Y-113615916D01*
X173699618Y-113702043D01*
X173744959Y-113778869D01*
X173783369Y-113843875D01*
X173813361Y-113894543D01*
X173833448Y-113928357D01*
X173842140Y-113942796D01*
X173847752Y-113941192D01*
X173864111Y-113922381D01*
X173891095Y-113884218D01*
X173929069Y-113826143D01*
X173978394Y-113747600D01*
X174039435Y-113648029D01*
X174112554Y-113526871D01*
X174372206Y-113094100D01*
X174586800Y-113094100D01*
X174586800Y-113752383D01*
X174586780Y-113797954D01*
X174586513Y-113922461D01*
X174585960Y-114038384D01*
X174585150Y-114143320D01*
X174584116Y-114234869D01*
X174582886Y-114310626D01*
X174581492Y-114368191D01*
X174579965Y-114405161D01*
X174578334Y-114419133D01*
X174574395Y-114420820D01*
X174549798Y-114424291D01*
X174508791Y-114426699D01*
X174457684Y-114427600D01*
X174345500Y-114427600D01*
X174345500Y-113558820D01*
X174127809Y-113917010D01*
X173910117Y-114275200D01*
X173801999Y-114275200D01*
X173587975Y-113916812D01*
X173373950Y-113558425D01*
X173367600Y-113989837D01*
X173361250Y-114421250D01*
X173132650Y-114421250D01*
X173129362Y-113757178D01*
X173126073Y-113093107D01*
X173235668Y-113096778D01*
G37*
X173235668Y-113096778D02*
X173345262Y-113100450D01*
X173588321Y-113513200D01*
X173594095Y-113523005D01*
X173648834Y-113615916D01*
X173699618Y-113702043D01*
X173744959Y-113778869D01*
X173783369Y-113843875D01*
X173813361Y-113894543D01*
X173833448Y-113928357D01*
X173842140Y-113942796D01*
X173847752Y-113941192D01*
X173864111Y-113922381D01*
X173891095Y-113884218D01*
X173929069Y-113826143D01*
X173978394Y-113747600D01*
X174039435Y-113648029D01*
X174112554Y-113526871D01*
X174372206Y-113094100D01*
X174586800Y-113094100D01*
X174586800Y-113752383D01*
X174586780Y-113797954D01*
X174586513Y-113922461D01*
X174585960Y-114038384D01*
X174585150Y-114143320D01*
X174584116Y-114234869D01*
X174582886Y-114310626D01*
X174581492Y-114368191D01*
X174579965Y-114405161D01*
X174578334Y-114419133D01*
X174574395Y-114420820D01*
X174549798Y-114424291D01*
X174508791Y-114426699D01*
X174457684Y-114427600D01*
X174345500Y-114427600D01*
X174345500Y-113558820D01*
X174127809Y-113917010D01*
X173910117Y-114275200D01*
X173801999Y-114275200D01*
X173587975Y-113916812D01*
X173373950Y-113558425D01*
X173367600Y-113989837D01*
X173361250Y-114421250D01*
X173132650Y-114421250D01*
X173129362Y-113757178D01*
X173126073Y-113093107D01*
X173235668Y-113096778D01*
X181091398Y-109146669D02*
X181073966Y-109179110D01*
X181073966Y-109179110D02*
X181048304Y-109229441D01*
X181048304Y-109229441D02*
X181015683Y-109295103D01*
X181015683Y-109295103D02*
X180977371Y-109373538D01*
X180977371Y-109373538D02*
X180934639Y-109462189D01*
X180934639Y-109462189D02*
X180888755Y-109558499D01*
X180888755Y-109558499D02*
X180885240Y-109565922D01*
X180885240Y-109565922D02*
X180682981Y-109993227D01*
X180682981Y-109993227D02*
X180854401Y-110270230D01*
X180854401Y-110270230D02*
X180901797Y-110345755D01*
X180901797Y-110345755D02*
X180945904Y-110414030D01*
X180945904Y-110414030D02*
X180984688Y-110472069D01*
X180984688Y-110472069D02*
X181016118Y-110516883D01*
X181016118Y-110516883D02*
X181038160Y-110545485D01*
X181038160Y-110545485D02*
X181047986Y-110554813D01*
X181047986Y-110554813D02*
X181064246Y-110558886D01*
X181064246Y-110558886D02*
X181102996Y-110567857D01*
X181102996Y-110567857D02*
X181161907Y-110581209D01*
X181161907Y-110581209D02*
X181238653Y-110598422D01*
X181238653Y-110598422D02*
X181330907Y-110618977D01*
X181330907Y-110618977D02*
X181436343Y-110642354D01*
X181436343Y-110642354D02*
X181552632Y-110668036D01*
X181552632Y-110668036D02*
X181677450Y-110695503D01*
X181677450Y-110695503D02*
X181758581Y-110713307D01*
X181758581Y-110713307D02*
X181886513Y-110741467D01*
X181886513Y-110741467D02*
X182006534Y-110768111D01*
X182006534Y-110768111D02*
X182116438Y-110792732D01*
X182116438Y-110792732D02*
X182214017Y-110814827D01*
X182214017Y-110814827D02*
X182297064Y-110833889D01*
X182297064Y-110833889D02*
X182363372Y-110849413D01*
X182363372Y-110849413D02*
X182410731Y-110860893D01*
X182410731Y-110860893D02*
X182436936Y-110867825D01*
X182436936Y-110867825D02*
X182441570Y-110869664D01*
X182441570Y-110869664D02*
X182428148Y-110870494D01*
X182428148Y-110870494D02*
X182392447Y-110870546D01*
X182392447Y-110870546D02*
X182337576Y-110869906D01*
X182337576Y-110869906D02*
X182266640Y-110868657D01*
X182266640Y-110868657D02*
X182182746Y-110866886D01*
X182182746Y-110866886D02*
X182089003Y-110864675D01*
X182089003Y-110864675D02*
X181988515Y-110862112D01*
X181988515Y-110862112D02*
X181884392Y-110859279D01*
X181884392Y-110859279D02*
X181779739Y-110856262D01*
X181779739Y-110856262D02*
X181677664Y-110853146D01*
X181677664Y-110853146D02*
X181581273Y-110850016D01*
X181581273Y-110850016D02*
X181493674Y-110846956D01*
X181493674Y-110846956D02*
X181417973Y-110844051D01*
X181417973Y-110844051D02*
X181357278Y-110841385D01*
X181357278Y-110841385D02*
X181314696Y-110839045D01*
X181314696Y-110839045D02*
X181311381Y-110838820D01*
X181311381Y-110838820D02*
X181209712Y-110831737D01*
X181209712Y-110831737D02*
X180835131Y-110528323D01*
X180835131Y-110528323D02*
X180751042Y-110460448D01*
X180751042Y-110460448D02*
X180673111Y-110398002D01*
X180673111Y-110398002D02*
X180603537Y-110342712D01*
X180603537Y-110342712D02*
X180544520Y-110296306D01*
X180544520Y-110296306D02*
X180498258Y-110260512D01*
X180498258Y-110260512D02*
X180466950Y-110237056D01*
X180466950Y-110237056D02*
X180452796Y-110227667D01*
X180452796Y-110227667D02*
X180452287Y-110227579D01*
X180452287Y-110227579D02*
X180442234Y-110237397D01*
X180442234Y-110237397D02*
X180417019Y-110264390D01*
X180417019Y-110264390D02*
X180378262Y-110306739D01*
X180378262Y-110306739D02*
X180327580Y-110362628D01*
X180327580Y-110362628D02*
X180266592Y-110430240D01*
X180266592Y-110430240D02*
X180196917Y-110507756D01*
X180196917Y-110507756D02*
X180120172Y-110593359D01*
X180120172Y-110593359D02*
X180037977Y-110685232D01*
X180037977Y-110685232D02*
X179951950Y-110781557D01*
X179951950Y-110781557D02*
X179863708Y-110880516D01*
X179863708Y-110880516D02*
X179774871Y-110980293D01*
X179774871Y-110980293D02*
X179687057Y-111079069D01*
X179687057Y-111079069D02*
X179601883Y-111175028D01*
X179601883Y-111175028D02*
X179520970Y-111266351D01*
X179520970Y-111266351D02*
X179445935Y-111351222D01*
X179445935Y-111351222D02*
X179378396Y-111427822D01*
X179378396Y-111427822D02*
X179319971Y-111494335D01*
X179319971Y-111494335D02*
X179272280Y-111548942D01*
X179272280Y-111548942D02*
X179236941Y-111589827D01*
X179236941Y-111589827D02*
X179215572Y-111615171D01*
X179215572Y-111615171D02*
X179209600Y-111623138D01*
X179209600Y-111623138D02*
X179209930Y-111625900D01*
X179209930Y-111625900D02*
X179211990Y-111627420D01*
X179211990Y-111627420D02*
X179217388Y-111626960D01*
X179217388Y-111626960D02*
X179227733Y-111623776D01*
X179227733Y-111623776D02*
X179244632Y-111617128D01*
X179244632Y-111617128D02*
X179269694Y-111606276D01*
X179269694Y-111606276D02*
X179304526Y-111590476D01*
X179304526Y-111590476D02*
X179350736Y-111568989D01*
X179350736Y-111568989D02*
X179409933Y-111541073D01*
X179409933Y-111541073D02*
X179483723Y-111505987D01*
X179483723Y-111505987D02*
X179573715Y-111462989D01*
X179573715Y-111462989D02*
X179681518Y-111411338D01*
X179681518Y-111411338D02*
X179808738Y-111350294D01*
X179808738Y-111350294D02*
X179956984Y-111279115D01*
X179956984Y-111279115D02*
X179983256Y-111266499D01*
X179983256Y-111266499D02*
X180109109Y-111206164D01*
X180109109Y-111206164D02*
X180228059Y-111149332D01*
X180228059Y-111149332D02*
X180338156Y-111096923D01*
X180338156Y-111096923D02*
X180437449Y-111049856D01*
X180437449Y-111049856D02*
X180523986Y-111009051D01*
X180523986Y-111009051D02*
X180595816Y-110975426D01*
X180595816Y-110975426D02*
X180650990Y-110949902D01*
X180650990Y-110949902D02*
X180687556Y-110933398D01*
X180687556Y-110933398D02*
X180703563Y-110926833D01*
X180703563Y-110926833D02*
X180704119Y-110926784D01*
X180704119Y-110926784D02*
X180697614Y-110937520D01*
X180697614Y-110937520D02*
X180677353Y-110966922D01*
X180677353Y-110966922D02*
X180644630Y-111013194D01*
X180644630Y-111013194D02*
X180600738Y-111074542D01*
X180600738Y-111074542D02*
X180546971Y-111149169D01*
X180546971Y-111149169D02*
X180484621Y-111235280D01*
X180484621Y-111235280D02*
X180414984Y-111331079D01*
X180414984Y-111331079D02*
X180339351Y-111434772D01*
X180339351Y-111434772D02*
X180263838Y-111537981D01*
X180263838Y-111537981D02*
X180183580Y-111647699D01*
X180183580Y-111647699D02*
X180107977Y-111751406D01*
X180107977Y-111751406D02*
X180038342Y-111847280D01*
X180038342Y-111847280D02*
X179975983Y-111933498D01*
X179975983Y-111933498D02*
X179922214Y-112008240D01*
X179922214Y-112008240D02*
X179878343Y-112069683D01*
X179878343Y-112069683D02*
X179845683Y-112116006D01*
X179845683Y-112116006D02*
X179825544Y-112145386D01*
X179825544Y-112145386D02*
X179819200Y-112155910D01*
X179819200Y-112155910D02*
X179821007Y-112158722D01*
X179821007Y-112158722D02*
X179827613Y-112160996D01*
X179827613Y-112160996D02*
X179840803Y-112162716D01*
X179840803Y-112162716D02*
X179862356Y-112163862D01*
X179862356Y-112163862D02*
X179894056Y-112164419D01*
X179894056Y-112164419D02*
X179937683Y-112164367D01*
X179937683Y-112164367D02*
X179995021Y-112163690D01*
X179995021Y-112163690D02*
X180067851Y-112162370D01*
X180067851Y-112162370D02*
X180157955Y-112160389D01*
X180157955Y-112160389D02*
X180267115Y-112157729D01*
X180267115Y-112157729D02*
X180397112Y-112154373D01*
X180397112Y-112154373D02*
X180549730Y-112150303D01*
X180549730Y-112150303D02*
X180644700Y-112147734D01*
X180644700Y-112147734D02*
X180760448Y-112144550D01*
X180760448Y-112144550D02*
X180868033Y-112141510D01*
X180868033Y-112141510D02*
X180964870Y-112138693D01*
X180964870Y-112138693D02*
X181048373Y-112136178D01*
X181048373Y-112136178D02*
X181115955Y-112134044D01*
X181115955Y-112134044D02*
X181165032Y-112132370D01*
X181165032Y-112132370D02*
X181193016Y-112131235D01*
X181193016Y-112131235D02*
X181198675Y-112130818D01*
X181198675Y-112130818D02*
X181205657Y-112120003D01*
X181205657Y-112120003D02*
X181223374Y-112092215D01*
X181223374Y-112092215D02*
X181248970Y-112051939D01*
X181248970Y-112051939D02*
X181273106Y-112013894D01*
X181273106Y-112013894D02*
X181346012Y-111898889D01*
X181346012Y-111898889D02*
X181282369Y-111644521D01*
X181282369Y-111644521D02*
X181218725Y-111390154D01*
X181218725Y-111390154D02*
X181303188Y-111335659D01*
X181303188Y-111335659D02*
X181389727Y-111283915D01*
X181389727Y-111283915D02*
X181490297Y-111230328D01*
X181490297Y-111230328D02*
X181595351Y-111179598D01*
X181595351Y-111179598D02*
X181695343Y-111136425D01*
X181695343Y-111136425D02*
X181749600Y-111115870D01*
X181749600Y-111115870D02*
X181794177Y-111101157D01*
X181794177Y-111101157D02*
X181857949Y-111081496D01*
X181857949Y-111081496D02*
X181935564Y-111058465D01*
X181935564Y-111058465D02*
X182021672Y-111033644D01*
X182021672Y-111033644D02*
X182110921Y-111008610D01*
X182110921Y-111008610D02*
X182143300Y-110999710D01*
X182143300Y-110999710D02*
X182258129Y-110968062D01*
X182258129Y-110968062D02*
X182350229Y-110942016D01*
X182350229Y-110942016D02*
X182421499Y-110920963D01*
X182421499Y-110920963D02*
X182473839Y-110904292D01*
X182473839Y-110904292D02*
X182509151Y-110891397D01*
X182509151Y-110891397D02*
X182529332Y-110881667D01*
X182529332Y-110881667D02*
X182536283Y-110874493D01*
X182536283Y-110874493D02*
X182536315Y-110873724D01*
X182536315Y-110873724D02*
X182526344Y-110864835D01*
X182526344Y-110864835D02*
X182497736Y-110841851D01*
X182497736Y-110841851D02*
X182452102Y-110806015D01*
X182452102Y-110806015D02*
X182391053Y-110758568D01*
X182391053Y-110758568D02*
X182316200Y-110700753D01*
X182316200Y-110700753D02*
X182229152Y-110633811D01*
X182229152Y-110633811D02*
X182131522Y-110558983D01*
X182131522Y-110558983D02*
X182024920Y-110477513D01*
X182024920Y-110477513D02*
X181910956Y-110390641D01*
X181910956Y-110390641D02*
X181817013Y-110319188D01*
X181817013Y-110319188D02*
X181098397Y-109773126D01*
X181098397Y-109773126D02*
X181104779Y-109451928D01*
X181104779Y-109451928D02*
X181106316Y-109351993D01*
X181106316Y-109351993D02*
X181106677Y-109268509D01*
X181106677Y-109268509D02*
X181105898Y-109203475D01*
X181105898Y-109203475D02*
X181104013Y-109158891D01*
X181104013Y-109158891D02*
X181101056Y-109136759D01*
X181101056Y-109136759D02*
X181099330Y-109134673D01*
X181099330Y-109134673D02*
X181091398Y-109146669D01*
X181091398Y-109146669D02*
X181091398Y-109146669D01*
G36*
X181101056Y-109136759D02*
G01*
X181104013Y-109158891D01*
X181105898Y-109203475D01*
X181106677Y-109268509D01*
X181106316Y-109351993D01*
X181104779Y-109451928D01*
X181098397Y-109773126D01*
X181817013Y-110319188D01*
X181910956Y-110390641D01*
X182024920Y-110477513D01*
X182131522Y-110558983D01*
X182229152Y-110633811D01*
X182316200Y-110700753D01*
X182391053Y-110758568D01*
X182452102Y-110806015D01*
X182497736Y-110841851D01*
X182526344Y-110864835D01*
X182536315Y-110873724D01*
X182536283Y-110874493D01*
X182529332Y-110881667D01*
X182509151Y-110891397D01*
X182473839Y-110904292D01*
X182421499Y-110920963D01*
X182350229Y-110942016D01*
X182258129Y-110968062D01*
X182143300Y-110999710D01*
X182110921Y-111008610D01*
X182021672Y-111033644D01*
X181935564Y-111058465D01*
X181857949Y-111081496D01*
X181794177Y-111101157D01*
X181749600Y-111115870D01*
X181695343Y-111136425D01*
X181595351Y-111179598D01*
X181490297Y-111230328D01*
X181389727Y-111283915D01*
X181303188Y-111335659D01*
X181218725Y-111390154D01*
X181282369Y-111644521D01*
X181346012Y-111898889D01*
X181273106Y-112013894D01*
X181248970Y-112051939D01*
X181223374Y-112092215D01*
X181205657Y-112120003D01*
X181198675Y-112130818D01*
X181193016Y-112131235D01*
X181165032Y-112132370D01*
X181115955Y-112134044D01*
X181048373Y-112136178D01*
X180964870Y-112138693D01*
X180868033Y-112141510D01*
X180760448Y-112144550D01*
X180644700Y-112147734D01*
X180549730Y-112150303D01*
X180397112Y-112154373D01*
X180267115Y-112157729D01*
X180157955Y-112160389D01*
X180067851Y-112162370D01*
X179995021Y-112163690D01*
X179937683Y-112164367D01*
X179894056Y-112164419D01*
X179862356Y-112163862D01*
X179840803Y-112162716D01*
X179827613Y-112160996D01*
X179821007Y-112158722D01*
X179819200Y-112155910D01*
X179825544Y-112145386D01*
X179845683Y-112116006D01*
X179878343Y-112069683D01*
X179922214Y-112008240D01*
X179975983Y-111933498D01*
X180038342Y-111847280D01*
X180107977Y-111751406D01*
X180183580Y-111647699D01*
X180263838Y-111537981D01*
X180339351Y-111434772D01*
X180414984Y-111331079D01*
X180484621Y-111235280D01*
X180546971Y-111149169D01*
X180600738Y-111074542D01*
X180644630Y-111013194D01*
X180677353Y-110966922D01*
X180697614Y-110937520D01*
X180704119Y-110926784D01*
X180703563Y-110926833D01*
X180687556Y-110933398D01*
X180650990Y-110949902D01*
X180595816Y-110975426D01*
X180523986Y-111009051D01*
X180437449Y-111049856D01*
X180338156Y-111096923D01*
X180228059Y-111149332D01*
X180109109Y-111206164D01*
X179983256Y-111266499D01*
X179956984Y-111279115D01*
X179808738Y-111350294D01*
X179681518Y-111411338D01*
X179573715Y-111462989D01*
X179483723Y-111505987D01*
X179409933Y-111541073D01*
X179350736Y-111568989D01*
X179304526Y-111590476D01*
X179269694Y-111606276D01*
X179244632Y-111617128D01*
X179227733Y-111623776D01*
X179217388Y-111626960D01*
X179211990Y-111627420D01*
X179209930Y-111625900D01*
X179209600Y-111623138D01*
X179215572Y-111615171D01*
X179236941Y-111589827D01*
X179272280Y-111548942D01*
X179319971Y-111494335D01*
X179378396Y-111427822D01*
X179445935Y-111351222D01*
X179520970Y-111266351D01*
X179601883Y-111175028D01*
X179687057Y-111079069D01*
X179774871Y-110980293D01*
X179863708Y-110880516D01*
X179951950Y-110781557D01*
X180037977Y-110685232D01*
X180120172Y-110593359D01*
X180196917Y-110507756D01*
X180266592Y-110430240D01*
X180327580Y-110362628D01*
X180378262Y-110306739D01*
X180417019Y-110264390D01*
X180442234Y-110237397D01*
X180452287Y-110227579D01*
X180452796Y-110227667D01*
X180466950Y-110237056D01*
X180498258Y-110260512D01*
X180544520Y-110296306D01*
X180603537Y-110342712D01*
X180673111Y-110398002D01*
X180751042Y-110460448D01*
X180835131Y-110528323D01*
X181209712Y-110831737D01*
X181311381Y-110838820D01*
X181314696Y-110839045D01*
X181357278Y-110841385D01*
X181417973Y-110844051D01*
X181493674Y-110846956D01*
X181581273Y-110850016D01*
X181677664Y-110853146D01*
X181779739Y-110856262D01*
X181884392Y-110859279D01*
X181988515Y-110862112D01*
X182089003Y-110864675D01*
X182182746Y-110866886D01*
X182266640Y-110868657D01*
X182337576Y-110869906D01*
X182392447Y-110870546D01*
X182428148Y-110870494D01*
X182441570Y-110869664D01*
X182436936Y-110867825D01*
X182410731Y-110860893D01*
X182363372Y-110849413D01*
X182297064Y-110833889D01*
X182214017Y-110814827D01*
X182116438Y-110792732D01*
X182006534Y-110768111D01*
X181886513Y-110741467D01*
X181758581Y-110713307D01*
X181677450Y-110695503D01*
X181552632Y-110668036D01*
X181436343Y-110642354D01*
X181330907Y-110618977D01*
X181238653Y-110598422D01*
X181161907Y-110581209D01*
X181102996Y-110567857D01*
X181064246Y-110558886D01*
X181047986Y-110554813D01*
X181038160Y-110545485D01*
X181016118Y-110516883D01*
X180984688Y-110472069D01*
X180945904Y-110414030D01*
X180901797Y-110345755D01*
X180854401Y-110270230D01*
X180682981Y-109993227D01*
X180885240Y-109565922D01*
X180888755Y-109558499D01*
X180934639Y-109462189D01*
X180977371Y-109373538D01*
X181015683Y-109295103D01*
X181048304Y-109229441D01*
X181073966Y-109179110D01*
X181091398Y-109146669D01*
X181099330Y-109134673D01*
X181101056Y-109136759D01*
G37*
X181101056Y-109136759D02*
X181104013Y-109158891D01*
X181105898Y-109203475D01*
X181106677Y-109268509D01*
X181106316Y-109351993D01*
X181104779Y-109451928D01*
X181098397Y-109773126D01*
X181817013Y-110319188D01*
X181910956Y-110390641D01*
X182024920Y-110477513D01*
X182131522Y-110558983D01*
X182229152Y-110633811D01*
X182316200Y-110700753D01*
X182391053Y-110758568D01*
X182452102Y-110806015D01*
X182497736Y-110841851D01*
X182526344Y-110864835D01*
X182536315Y-110873724D01*
X182536283Y-110874493D01*
X182529332Y-110881667D01*
X182509151Y-110891397D01*
X182473839Y-110904292D01*
X182421499Y-110920963D01*
X182350229Y-110942016D01*
X182258129Y-110968062D01*
X182143300Y-110999710D01*
X182110921Y-111008610D01*
X182021672Y-111033644D01*
X181935564Y-111058465D01*
X181857949Y-111081496D01*
X181794177Y-111101157D01*
X181749600Y-111115870D01*
X181695343Y-111136425D01*
X181595351Y-111179598D01*
X181490297Y-111230328D01*
X181389727Y-111283915D01*
X181303188Y-111335659D01*
X181218725Y-111390154D01*
X181282369Y-111644521D01*
X181346012Y-111898889D01*
X181273106Y-112013894D01*
X181248970Y-112051939D01*
X181223374Y-112092215D01*
X181205657Y-112120003D01*
X181198675Y-112130818D01*
X181193016Y-112131235D01*
X181165032Y-112132370D01*
X181115955Y-112134044D01*
X181048373Y-112136178D01*
X180964870Y-112138693D01*
X180868033Y-112141510D01*
X180760448Y-112144550D01*
X180644700Y-112147734D01*
X180549730Y-112150303D01*
X180397112Y-112154373D01*
X180267115Y-112157729D01*
X180157955Y-112160389D01*
X180067851Y-112162370D01*
X179995021Y-112163690D01*
X179937683Y-112164367D01*
X179894056Y-112164419D01*
X179862356Y-112163862D01*
X179840803Y-112162716D01*
X179827613Y-112160996D01*
X179821007Y-112158722D01*
X179819200Y-112155910D01*
X179825544Y-112145386D01*
X179845683Y-112116006D01*
X179878343Y-112069683D01*
X179922214Y-112008240D01*
X179975983Y-111933498D01*
X180038342Y-111847280D01*
X180107977Y-111751406D01*
X180183580Y-111647699D01*
X180263838Y-111537981D01*
X180339351Y-111434772D01*
X180414984Y-111331079D01*
X180484621Y-111235280D01*
X180546971Y-111149169D01*
X180600738Y-111074542D01*
X180644630Y-111013194D01*
X180677353Y-110966922D01*
X180697614Y-110937520D01*
X180704119Y-110926784D01*
X180703563Y-110926833D01*
X180687556Y-110933398D01*
X180650990Y-110949902D01*
X180595816Y-110975426D01*
X180523986Y-111009051D01*
X180437449Y-111049856D01*
X180338156Y-111096923D01*
X180228059Y-111149332D01*
X180109109Y-111206164D01*
X179983256Y-111266499D01*
X179956984Y-111279115D01*
X179808738Y-111350294D01*
X179681518Y-111411338D01*
X179573715Y-111462989D01*
X179483723Y-111505987D01*
X179409933Y-111541073D01*
X179350736Y-111568989D01*
X179304526Y-111590476D01*
X179269694Y-111606276D01*
X179244632Y-111617128D01*
X179227733Y-111623776D01*
X179217388Y-111626960D01*
X179211990Y-111627420D01*
X179209930Y-111625900D01*
X179209600Y-111623138D01*
X179215572Y-111615171D01*
X179236941Y-111589827D01*
X179272280Y-111548942D01*
X179319971Y-111494335D01*
X179378396Y-111427822D01*
X179445935Y-111351222D01*
X179520970Y-111266351D01*
X179601883Y-111175028D01*
X179687057Y-111079069D01*
X179774871Y-110980293D01*
X179863708Y-110880516D01*
X179951950Y-110781557D01*
X180037977Y-110685232D01*
X180120172Y-110593359D01*
X180196917Y-110507756D01*
X180266592Y-110430240D01*
X180327580Y-110362628D01*
X180378262Y-110306739D01*
X180417019Y-110264390D01*
X180442234Y-110237397D01*
X180452287Y-110227579D01*
X180452796Y-110227667D01*
X180466950Y-110237056D01*
X180498258Y-110260512D01*
X180544520Y-110296306D01*
X180603537Y-110342712D01*
X180673111Y-110398002D01*
X180751042Y-110460448D01*
X180835131Y-110528323D01*
X181209712Y-110831737D01*
X181311381Y-110838820D01*
X181314696Y-110839045D01*
X181357278Y-110841385D01*
X181417973Y-110844051D01*
X181493674Y-110846956D01*
X181581273Y-110850016D01*
X181677664Y-110853146D01*
X181779739Y-110856262D01*
X181884392Y-110859279D01*
X181988515Y-110862112D01*
X182089003Y-110864675D01*
X182182746Y-110866886D01*
X182266640Y-110868657D01*
X182337576Y-110869906D01*
X182392447Y-110870546D01*
X182428148Y-110870494D01*
X182441570Y-110869664D01*
X182436936Y-110867825D01*
X182410731Y-110860893D01*
X182363372Y-110849413D01*
X182297064Y-110833889D01*
X182214017Y-110814827D01*
X182116438Y-110792732D01*
X182006534Y-110768111D01*
X181886513Y-110741467D01*
X181758581Y-110713307D01*
X181677450Y-110695503D01*
X181552632Y-110668036D01*
X181436343Y-110642354D01*
X181330907Y-110618977D01*
X181238653Y-110598422D01*
X181161907Y-110581209D01*
X181102996Y-110567857D01*
X181064246Y-110558886D01*
X181047986Y-110554813D01*
X181038160Y-110545485D01*
X181016118Y-110516883D01*
X180984688Y-110472069D01*
X180945904Y-110414030D01*
X180901797Y-110345755D01*
X180854401Y-110270230D01*
X180682981Y-109993227D01*
X180885240Y-109565922D01*
X180888755Y-109558499D01*
X180934639Y-109462189D01*
X180977371Y-109373538D01*
X181015683Y-109295103D01*
X181048304Y-109229441D01*
X181073966Y-109179110D01*
X181091398Y-109146669D01*
X181099330Y-109134673D01*
X181101056Y-109136759D01*
X185535505Y-113525900D02*
X185478716Y-113620517D01*
X185478716Y-113620517D02*
X185426087Y-113707972D01*
X185426087Y-113707972D02*
X185379023Y-113785945D01*
X185379023Y-113785945D02*
X185338929Y-113852117D01*
X185338929Y-113852117D02*
X185307213Y-113904170D01*
X185307213Y-113904170D02*
X185285279Y-113939786D01*
X185285279Y-113939786D02*
X185274533Y-113956644D01*
X185274533Y-113956644D02*
X185273692Y-113957700D01*
X185273692Y-113957700D02*
X185266847Y-113947121D01*
X185266847Y-113947121D02*
X185248585Y-113916946D01*
X185248585Y-113916946D02*
X185220295Y-113869516D01*
X185220295Y-113869516D02*
X185183361Y-113807173D01*
X185183361Y-113807173D02*
X185139170Y-113732258D01*
X185139170Y-113732258D02*
X185089109Y-113647114D01*
X185089109Y-113647114D02*
X185034562Y-113554081D01*
X185034562Y-113554081D02*
X185018280Y-113526262D01*
X185018280Y-113526262D02*
X184765850Y-113094824D01*
X184765850Y-113094824D02*
X184661668Y-113094462D01*
X184661668Y-113094462D02*
X184557485Y-113094100D01*
X184557485Y-113094100D02*
X184553536Y-113306825D01*
X184553536Y-113306825D02*
X184552579Y-113372287D01*
X184552579Y-113372287D02*
X184551717Y-113458189D01*
X184551717Y-113458189D02*
X184550978Y-113559573D01*
X184550978Y-113559573D02*
X184550390Y-113671479D01*
X184550390Y-113671479D02*
X184549981Y-113788948D01*
X184549981Y-113788948D02*
X184549780Y-113907020D01*
X184549780Y-113907020D02*
X184549768Y-113970400D01*
X184549768Y-113970400D02*
X184549950Y-114421250D01*
X184549950Y-114421250D02*
X184667425Y-114424901D01*
X184667425Y-114424901D02*
X184784900Y-114428553D01*
X184784900Y-114428553D02*
X184786552Y-114336001D01*
X184786552Y-114336001D02*
X184787310Y-114297642D01*
X184787310Y-114297642D02*
X184788572Y-114238542D01*
X184788572Y-114238542D02*
X184790234Y-114163353D01*
X184790234Y-114163353D02*
X184792192Y-114076727D01*
X184792192Y-114076727D02*
X184794342Y-113983315D01*
X184794342Y-113983315D02*
X184796077Y-113909099D01*
X184796077Y-113909099D02*
X184803950Y-113574748D01*
X184803950Y-113574748D02*
X185013500Y-113925528D01*
X185013500Y-113925528D02*
X185223050Y-114276307D01*
X185223050Y-114276307D02*
X185279335Y-114272578D01*
X185279335Y-114272578D02*
X185335620Y-114268850D01*
X185335620Y-114268850D02*
X185546035Y-113922519D01*
X185546035Y-113922519D02*
X185756450Y-113576189D01*
X185756450Y-113576189D02*
X185762800Y-113998719D01*
X185762800Y-113998719D02*
X185769150Y-114421250D01*
X185769150Y-114421250D02*
X185877702Y-114424881D01*
X185877702Y-114424881D02*
X185927996Y-114425551D01*
X185927996Y-114425551D02*
X185968215Y-114424196D01*
X185968215Y-114424196D02*
X185991903Y-114421106D01*
X185991903Y-114421106D02*
X185995177Y-114419590D01*
X185995177Y-114419590D02*
X185996896Y-114405528D01*
X185996896Y-114405528D02*
X185998506Y-114368470D01*
X185998506Y-114368470D02*
X185999975Y-114310822D01*
X185999975Y-114310822D02*
X186001271Y-114234988D01*
X186001271Y-114234988D02*
X186002362Y-114143371D01*
X186002362Y-114143371D02*
X186003215Y-114038378D01*
X186003215Y-114038378D02*
X186003798Y-113922411D01*
X186003798Y-113922411D02*
X186004079Y-113797876D01*
X186004079Y-113797876D02*
X186004100Y-113752383D01*
X186004100Y-113752383D02*
X186004100Y-113094100D01*
X186004100Y-113094100D02*
X185794335Y-113094100D01*
X185794335Y-113094100D02*
X185535505Y-113525900D01*
X185535505Y-113525900D02*
X185535505Y-113525900D01*
G36*
X186004100Y-113752383D02*
G01*
X186004079Y-113797876D01*
X186003798Y-113922411D01*
X186003215Y-114038378D01*
X186002362Y-114143371D01*
X186001271Y-114234988D01*
X185999975Y-114310822D01*
X185998506Y-114368470D01*
X185996896Y-114405528D01*
X185995177Y-114419590D01*
X185991903Y-114421106D01*
X185968215Y-114424196D01*
X185927996Y-114425551D01*
X185877702Y-114424881D01*
X185769150Y-114421250D01*
X185762800Y-113998719D01*
X185756450Y-113576189D01*
X185546035Y-113922519D01*
X185335620Y-114268850D01*
X185279335Y-114272578D01*
X185223050Y-114276307D01*
X185013500Y-113925528D01*
X184803950Y-113574748D01*
X184796077Y-113909099D01*
X184794342Y-113983315D01*
X184792192Y-114076727D01*
X184790234Y-114163353D01*
X184788572Y-114238542D01*
X184787310Y-114297642D01*
X184786552Y-114336001D01*
X184784900Y-114428553D01*
X184667425Y-114424901D01*
X184549950Y-114421250D01*
X184549768Y-113970400D01*
X184549780Y-113907020D01*
X184549981Y-113788948D01*
X184550390Y-113671479D01*
X184550978Y-113559573D01*
X184551717Y-113458189D01*
X184552579Y-113372287D01*
X184553536Y-113306825D01*
X184557485Y-113094100D01*
X184661668Y-113094462D01*
X184765850Y-113094824D01*
X185018280Y-113526262D01*
X185034562Y-113554081D01*
X185089109Y-113647114D01*
X185139170Y-113732258D01*
X185183361Y-113807173D01*
X185220295Y-113869516D01*
X185248585Y-113916946D01*
X185266847Y-113947121D01*
X185273692Y-113957700D01*
X185274533Y-113956644D01*
X185285279Y-113939786D01*
X185307213Y-113904170D01*
X185338929Y-113852117D01*
X185379023Y-113785945D01*
X185426087Y-113707972D01*
X185478716Y-113620517D01*
X185535505Y-113525900D01*
X185794335Y-113094100D01*
X186004100Y-113094100D01*
X186004100Y-113752383D01*
G37*
X186004100Y-113752383D02*
X186004079Y-113797876D01*
X186003798Y-113922411D01*
X186003215Y-114038378D01*
X186002362Y-114143371D01*
X186001271Y-114234988D01*
X185999975Y-114310822D01*
X185998506Y-114368470D01*
X185996896Y-114405528D01*
X185995177Y-114419590D01*
X185991903Y-114421106D01*
X185968215Y-114424196D01*
X185927996Y-114425551D01*
X185877702Y-114424881D01*
X185769150Y-114421250D01*
X185762800Y-113998719D01*
X185756450Y-113576189D01*
X185546035Y-113922519D01*
X185335620Y-114268850D01*
X185279335Y-114272578D01*
X185223050Y-114276307D01*
X185013500Y-113925528D01*
X184803950Y-113574748D01*
X184796077Y-113909099D01*
X184794342Y-113983315D01*
X184792192Y-114076727D01*
X184790234Y-114163353D01*
X184788572Y-114238542D01*
X184787310Y-114297642D01*
X184786552Y-114336001D01*
X184784900Y-114428553D01*
X184667425Y-114424901D01*
X184549950Y-114421250D01*
X184549768Y-113970400D01*
X184549780Y-113907020D01*
X184549981Y-113788948D01*
X184550390Y-113671479D01*
X184550978Y-113559573D01*
X184551717Y-113458189D01*
X184552579Y-113372287D01*
X184553536Y-113306825D01*
X184557485Y-113094100D01*
X184661668Y-113094462D01*
X184765850Y-113094824D01*
X185018280Y-113526262D01*
X185034562Y-113554081D01*
X185089109Y-113647114D01*
X185139170Y-113732258D01*
X185183361Y-113807173D01*
X185220295Y-113869516D01*
X185248585Y-113916946D01*
X185266847Y-113947121D01*
X185273692Y-113957700D01*
X185274533Y-113956644D01*
X185285279Y-113939786D01*
X185307213Y-113904170D01*
X185338929Y-113852117D01*
X185379023Y-113785945D01*
X185426087Y-113707972D01*
X185478716Y-113620517D01*
X185535505Y-113525900D01*
X185794335Y-113094100D01*
X186004100Y-113094100D01*
X186004100Y-113752383D01*
X177477986Y-108684429D02*
X177521286Y-108690240D01*
X177521286Y-108690240D02*
X177575151Y-108700501D01*
X177575151Y-108700501D02*
X177611493Y-108708794D01*
X177611493Y-108708794D02*
X177700551Y-108729079D01*
X177700551Y-108729079D02*
X177790374Y-108747065D01*
X177790374Y-108747065D02*
X177875066Y-108761754D01*
X177875066Y-108761754D02*
X177948728Y-108772148D01*
X177948728Y-108772148D02*
X178005463Y-108777248D01*
X178005463Y-108777248D02*
X178017893Y-108777594D01*
X178017893Y-108777594D02*
X178063392Y-108783585D01*
X178063392Y-108783585D02*
X178110985Y-108797957D01*
X178110985Y-108797957D02*
X178119493Y-108801646D01*
X178119493Y-108801646D02*
X178161153Y-108826210D01*
X178161153Y-108826210D02*
X178202199Y-108858777D01*
X178202199Y-108858777D02*
X178236950Y-108893798D01*
X178236950Y-108893798D02*
X178259730Y-108925724D01*
X178259730Y-108925724D02*
X178265543Y-108944362D01*
X178265543Y-108944362D02*
X178272338Y-108972806D01*
X178272338Y-108972806D02*
X178286134Y-109000187D01*
X178286134Y-109000187D02*
X178298623Y-109022131D01*
X178298623Y-109022131D02*
X178294532Y-109033973D01*
X178294532Y-109033973D02*
X178270232Y-109044332D01*
X178270232Y-109044332D02*
X178267084Y-109045432D01*
X178267084Y-109045432D02*
X178239987Y-109059348D01*
X178239987Y-109059348D02*
X178227532Y-109074562D01*
X178227532Y-109074562D02*
X178227443Y-109075700D01*
X178227443Y-109075700D02*
X178222635Y-109089477D01*
X178222635Y-109089477D02*
X178206007Y-109099638D01*
X178206007Y-109099638D02*
X178174252Y-109106907D01*
X178174252Y-109106907D02*
X178124063Y-109112006D01*
X178124063Y-109112006D02*
X178052132Y-109115660D01*
X178052132Y-109115660D02*
X178043293Y-109115985D01*
X178043293Y-109115985D02*
X177973508Y-109117473D01*
X177973508Y-109117473D02*
X177921848Y-109115690D01*
X177921848Y-109115690D02*
X177881173Y-109109998D01*
X177881173Y-109109998D02*
X177844343Y-109099760D01*
X177844343Y-109099760D02*
X177838418Y-109097689D01*
X177838418Y-109097689D02*
X177737867Y-109051860D01*
X177737867Y-109051860D02*
X177641649Y-108986943D01*
X177641649Y-108986943D02*
X177545817Y-108900194D01*
X177545817Y-108900194D02*
X177529066Y-108882853D01*
X177529066Y-108882853D02*
X177482074Y-108831616D01*
X177482074Y-108831616D02*
X177451109Y-108793067D01*
X177451109Y-108793067D02*
X177433224Y-108763006D01*
X177433224Y-108763006D02*
X177425475Y-108737231D01*
X177425475Y-108737231D02*
X177425129Y-108734600D01*
X177425129Y-108734600D02*
X177423965Y-108704227D01*
X177423965Y-108704227D02*
X177433210Y-108689962D01*
X177433210Y-108689962D02*
X177452231Y-108684148D01*
X177452231Y-108684148D02*
X177477986Y-108684429D01*
X177477986Y-108684429D02*
X177477986Y-108684429D01*
G36*
X177477986Y-108684429D02*
G01*
X177521286Y-108690240D01*
X177575151Y-108700501D01*
X177611493Y-108708794D01*
X177700551Y-108729079D01*
X177790374Y-108747065D01*
X177875066Y-108761754D01*
X177948728Y-108772148D01*
X178005463Y-108777248D01*
X178017893Y-108777594D01*
X178063392Y-108783585D01*
X178110985Y-108797957D01*
X178119493Y-108801646D01*
X178161153Y-108826210D01*
X178202199Y-108858777D01*
X178236950Y-108893798D01*
X178259730Y-108925724D01*
X178265543Y-108944362D01*
X178272338Y-108972806D01*
X178286134Y-109000187D01*
X178298623Y-109022131D01*
X178294532Y-109033973D01*
X178270232Y-109044332D01*
X178267084Y-109045432D01*
X178239987Y-109059348D01*
X178227532Y-109074562D01*
X178227443Y-109075700D01*
X178222635Y-109089477D01*
X178206007Y-109099638D01*
X178174252Y-109106907D01*
X178124063Y-109112006D01*
X178052132Y-109115660D01*
X178043293Y-109115985D01*
X177973508Y-109117473D01*
X177921848Y-109115690D01*
X177881173Y-109109998D01*
X177844343Y-109099760D01*
X177838418Y-109097689D01*
X177737867Y-109051860D01*
X177641649Y-108986943D01*
X177545817Y-108900194D01*
X177529066Y-108882853D01*
X177482074Y-108831616D01*
X177451109Y-108793067D01*
X177433224Y-108763006D01*
X177425475Y-108737231D01*
X177425129Y-108734600D01*
X177423965Y-108704227D01*
X177433210Y-108689962D01*
X177452231Y-108684148D01*
X177477986Y-108684429D01*
G37*
X177477986Y-108684429D02*
X177521286Y-108690240D01*
X177575151Y-108700501D01*
X177611493Y-108708794D01*
X177700551Y-108729079D01*
X177790374Y-108747065D01*
X177875066Y-108761754D01*
X177948728Y-108772148D01*
X178005463Y-108777248D01*
X178017893Y-108777594D01*
X178063392Y-108783585D01*
X178110985Y-108797957D01*
X178119493Y-108801646D01*
X178161153Y-108826210D01*
X178202199Y-108858777D01*
X178236950Y-108893798D01*
X178259730Y-108925724D01*
X178265543Y-108944362D01*
X178272338Y-108972806D01*
X178286134Y-109000187D01*
X178298623Y-109022131D01*
X178294532Y-109033973D01*
X178270232Y-109044332D01*
X178267084Y-109045432D01*
X178239987Y-109059348D01*
X178227532Y-109074562D01*
X178227443Y-109075700D01*
X178222635Y-109089477D01*
X178206007Y-109099638D01*
X178174252Y-109106907D01*
X178124063Y-109112006D01*
X178052132Y-109115660D01*
X178043293Y-109115985D01*
X177973508Y-109117473D01*
X177921848Y-109115690D01*
X177881173Y-109109998D01*
X177844343Y-109099760D01*
X177838418Y-109097689D01*
X177737867Y-109051860D01*
X177641649Y-108986943D01*
X177545817Y-108900194D01*
X177529066Y-108882853D01*
X177482074Y-108831616D01*
X177451109Y-108793067D01*
X177433224Y-108763006D01*
X177425475Y-108737231D01*
X177425129Y-108734600D01*
X177423965Y-108704227D01*
X177433210Y-108689962D01*
X177452231Y-108684148D01*
X177477986Y-108684429D01*
D11*
X138684000Y-27686000D03*
X133223000Y-27686000D03*
X127762000Y-27686000D03*
D12*
X56865000Y-48245000D03*
X51197500Y-114920000D03*
X121827220Y-27932509D03*
X109959436Y-120609368D03*
X229192785Y-27932509D03*
X341180000Y-43482516D03*
X345449949Y-110157503D03*
D13*
X52451000Y-38735000D03*
X42291000Y-38735000D03*
D14*
X47371000Y-38735000D03*
D15*
X49911000Y-33655000D03*
X43561000Y-36195000D03*
D16*
X53213000Y-33655000D03*
X40286000Y-36195000D03*
D13*
X52959000Y-57785000D03*
X42799000Y-57785000D03*
D15*
X50419000Y-52705000D03*
X44069000Y-55245000D03*
D14*
X47879000Y-57785000D03*
D16*
X53721000Y-52705000D03*
X40794000Y-55245000D03*
D13*
X41148000Y-76835000D03*
D15*
X48768000Y-71755000D03*
X42418000Y-74295000D03*
D14*
X46228000Y-76835000D03*
D13*
X51308000Y-76835000D03*
D16*
X52070000Y-71755000D03*
X39143000Y-74295000D03*
D15*
X42291000Y-109855000D03*
D13*
X44831000Y-114935000D03*
X34671000Y-114935000D03*
D14*
X39751000Y-114935000D03*
D15*
X35941000Y-112395000D03*
D16*
X45593000Y-109855000D03*
X32666000Y-112395000D03*
D15*
X68961000Y-33655000D03*
D14*
X66421000Y-38735000D03*
D13*
X61341000Y-38735000D03*
X71501000Y-38735000D03*
D15*
X62611000Y-36195000D03*
D16*
X72263000Y-33655000D03*
X59336000Y-36195000D03*
D15*
X74295000Y-52705000D03*
D14*
X71755000Y-57785000D03*
D13*
X66675000Y-57785000D03*
X76835000Y-57785000D03*
D15*
X67945000Y-55245000D03*
D16*
X77597000Y-52705000D03*
X64670000Y-55245000D03*
D13*
X67310000Y-76835000D03*
D15*
X74930000Y-71755000D03*
D14*
X72390000Y-76835000D03*
D15*
X68580000Y-74295000D03*
D13*
X77470000Y-76835000D03*
D16*
X78232000Y-71755000D03*
X65305000Y-74295000D03*
D13*
X72771000Y-95885000D03*
D15*
X74041000Y-93345000D03*
D13*
X82931000Y-95885000D03*
D14*
X77851000Y-95885000D03*
D15*
X80391000Y-90805000D03*
D16*
X83693000Y-90805000D03*
X70766000Y-93345000D03*
D13*
X90551000Y-37211000D03*
D14*
X85471000Y-37211000D03*
D13*
X80391000Y-37211000D03*
D15*
X88011000Y-32131000D03*
X81661000Y-34671000D03*
D16*
X91313000Y-32131000D03*
X78386000Y-34671000D03*
D15*
X95732405Y-53622955D03*
D14*
X92191719Y-58063849D03*
D13*
X97160709Y-59120040D03*
X87222729Y-57007658D03*
D15*
X88993072Y-54787211D03*
D17*
X98962249Y-54309479D03*
X85789639Y-54106300D03*
D14*
X98262477Y-98323622D03*
D15*
X101803163Y-93882728D03*
D13*
X93293487Y-97267431D03*
X103231467Y-99379813D03*
D15*
X95063830Y-95046984D03*
D17*
X105033007Y-94569252D03*
X91860397Y-94366073D03*
D13*
X94044495Y-116927765D03*
D15*
X102554171Y-113543062D03*
D13*
X103982475Y-119040147D03*
D14*
X99013485Y-117983956D03*
D15*
X95814838Y-114707318D03*
D17*
X105784015Y-114229586D03*
X92611405Y-114026407D03*
D13*
X110505990Y-42458191D03*
D14*
X105537000Y-41402000D03*
D15*
X109077686Y-36961106D03*
D13*
X100568010Y-40345809D03*
D15*
X102338353Y-38125362D03*
D17*
X112307530Y-37647630D03*
X99134920Y-37444451D03*
D15*
X107691131Y-58738532D03*
D13*
X105920788Y-60958979D03*
D15*
X114430464Y-57574276D03*
D13*
X115858768Y-63071361D03*
D14*
X110889778Y-62015170D03*
D17*
X117660308Y-58260800D03*
X104487698Y-58057621D03*
D15*
X120417449Y-97852345D03*
D14*
X116876763Y-102293239D03*
D15*
X113678116Y-99016601D03*
D13*
X121845753Y-103349430D03*
X111907773Y-101237048D03*
D17*
X123647293Y-98538869D03*
X110474683Y-98335690D03*
D14*
X129535779Y-65987504D03*
D15*
X126337132Y-62710866D03*
D13*
X134504769Y-67043695D03*
X124566789Y-64931313D03*
D15*
X133076465Y-61546610D03*
D17*
X136306309Y-62233134D03*
X123133699Y-62029955D03*
D15*
X133821513Y-81197259D03*
D13*
X125311837Y-84581962D03*
D14*
X130280827Y-85638153D03*
D13*
X135249817Y-86694344D03*
D15*
X127082180Y-82361515D03*
D17*
X137051357Y-81883783D03*
X123878747Y-81680604D03*
D15*
X139058557Y-101795141D03*
D14*
X135517871Y-106236035D03*
D13*
X140486861Y-107292226D03*
X130548881Y-105179844D03*
D15*
X132319224Y-102959397D03*
D17*
X142288401Y-102481665D03*
X129115791Y-102278486D03*
D15*
X128456894Y-121627326D03*
D13*
X136624531Y-125960155D03*
D14*
X131655541Y-124903964D03*
D13*
X126686551Y-123847773D03*
D18*
X121694726Y-114347306D03*
D15*
X135196227Y-120463070D03*
D19*
X118526152Y-129254275D03*
D18*
X145048978Y-119311405D03*
D19*
X141880404Y-134218375D03*
D17*
X138426071Y-121149594D03*
X125253461Y-120946415D03*
D13*
X153149602Y-71011077D03*
X143211622Y-68898695D03*
D15*
X144981965Y-66678248D03*
D14*
X148180612Y-69954886D03*
D15*
X151721298Y-65513992D03*
D17*
X154951142Y-66200516D03*
X141778532Y-65997337D03*
D13*
X143956670Y-88567970D03*
D15*
X145727013Y-86347523D03*
D13*
X153894650Y-90680352D03*
D15*
X152466346Y-85183267D03*
D14*
X148925660Y-89624161D03*
D17*
X155696190Y-85869791D03*
X142523580Y-85666612D03*
D15*
X157726487Y-105737936D03*
D13*
X159154791Y-111235021D03*
X149216811Y-109122639D03*
D15*
X150987154Y-106902192D03*
D14*
X154185801Y-110178830D03*
D17*
X160956331Y-106424460D03*
X147783721Y-106221281D03*
D13*
X154661624Y-129775378D03*
X164599604Y-131887760D03*
D15*
X156431967Y-127554931D03*
D14*
X159630614Y-130831569D03*
D15*
X163171300Y-126390675D03*
D17*
X166401144Y-127077199D03*
X153228534Y-126874020D03*
D13*
X179339872Y-75037261D03*
D14*
X184308862Y-73981070D03*
D15*
X185737166Y-68483984D03*
X180054024Y-72288719D03*
D13*
X189277852Y-72924879D03*
D20*
X188967009Y-67797460D03*
X176850591Y-72969629D03*
D13*
X187907027Y-92674828D03*
D15*
X194304321Y-86121551D03*
X188621179Y-89926286D03*
D14*
X192876017Y-91618637D03*
D13*
X197845007Y-90562446D03*
D20*
X197534164Y-85435027D03*
X185417746Y-90607196D03*
D14*
X201441212Y-109255783D03*
D13*
X206410202Y-108199592D03*
D15*
X202869516Y-103758697D03*
D13*
X196472222Y-110311974D03*
D15*
X197186374Y-107563432D03*
D20*
X206099359Y-103072173D03*
X193982941Y-108244342D03*
D15*
X191073855Y-47869892D03*
D13*
X184676561Y-54423169D03*
D15*
X185390713Y-51674627D03*
D14*
X189645551Y-53366978D03*
D13*
X194614541Y-52310787D03*
D20*
X194303698Y-47183368D03*
X182187280Y-52355537D03*
D15*
X204391762Y-64516191D03*
X198708620Y-68320926D03*
D13*
X207932448Y-68957086D03*
D14*
X202963458Y-70013277D03*
D13*
X197994468Y-71069468D03*
D20*
X207621605Y-63829667D03*
X195505187Y-69001836D03*
D15*
X207266040Y-85954672D03*
X212949182Y-82149937D03*
D13*
X206551888Y-88703214D03*
D14*
X211520878Y-87647023D03*
D13*
X216489868Y-86590832D03*
D20*
X216179025Y-81463413D03*
X204062607Y-86635582D03*
D15*
X215808697Y-103612650D03*
X221491839Y-99807915D03*
D14*
X220063535Y-105305001D03*
D13*
X225032525Y-104248810D03*
X215094545Y-106361192D03*
D20*
X224721682Y-99121391D03*
X212605264Y-104293560D03*
D19*
X225675059Y-130755782D03*
D15*
X213973974Y-120908385D03*
D13*
X217514660Y-125349280D03*
D18*
X199152233Y-120812912D03*
D19*
X202320807Y-135719882D03*
D18*
X222506485Y-115848813D03*
D15*
X208290832Y-124713120D03*
D14*
X212545670Y-126405471D03*
D13*
X207576680Y-127461662D03*
D20*
X217203817Y-120221861D03*
X205087399Y-125394030D03*
D15*
X209701679Y-43914518D03*
D13*
X203304385Y-50467795D03*
D14*
X208273375Y-49411604D03*
D13*
X213242365Y-48355413D03*
D15*
X204018537Y-47719253D03*
D20*
X212931522Y-43227994D03*
X200815104Y-48400163D03*
D13*
X216618043Y-67085850D03*
X226556023Y-64973468D03*
D14*
X221587033Y-66029659D03*
D15*
X217332195Y-64337308D03*
X223015337Y-60532573D03*
D20*
X226245180Y-59846049D03*
X214128762Y-65018218D03*
D13*
X235104434Y-82645181D03*
X225166454Y-84757563D03*
D15*
X225880606Y-82009021D03*
X231563748Y-78204286D03*
D14*
X230135444Y-83701372D03*
D20*
X234793591Y-77517762D03*
X222677173Y-82689931D03*
D15*
X240147089Y-95867980D03*
D13*
X233749795Y-102421257D03*
X243687775Y-100308875D03*
D14*
X238718785Y-101365066D03*
D15*
X234463947Y-99672715D03*
D20*
X243376932Y-95181456D03*
X231260514Y-100353625D03*
D13*
X221910112Y-46512420D03*
X231848092Y-44400038D03*
D15*
X222624264Y-43763878D03*
D14*
X226879102Y-45456229D03*
D15*
X228307406Y-39959143D03*
D20*
X231537249Y-39272619D03*
X219420831Y-44444788D03*
D15*
X241641240Y-56595679D03*
D13*
X235243946Y-63148956D03*
D14*
X240212936Y-62092765D03*
D13*
X245181926Y-61036574D03*
D15*
X235958098Y-60400414D03*
D20*
X244871083Y-55909155D03*
X232754665Y-61081324D03*
D14*
X248793000Y-79756000D03*
D13*
X253761990Y-78699809D03*
D15*
X250221304Y-74258914D03*
D13*
X243824010Y-80812191D03*
D15*
X244538162Y-78063649D03*
D20*
X253451147Y-73572390D03*
X241334729Y-78744559D03*
D13*
X262309853Y-96337552D03*
D15*
X253086025Y-95701392D03*
X258769167Y-91896657D03*
D14*
X257340863Y-97393743D03*
D13*
X252371873Y-98449934D03*
D20*
X261999010Y-91210133D03*
X249882592Y-96382302D03*
D15*
X247720831Y-116360430D03*
D13*
X256944659Y-116996590D03*
D15*
X253403973Y-112555695D03*
D13*
X247006679Y-119108972D03*
D14*
X251975669Y-118052781D03*
D20*
X256633816Y-111869171D03*
X244517398Y-117041340D03*
D13*
X263809750Y-57059102D03*
D15*
X254585922Y-56422942D03*
D13*
X253871770Y-59171484D03*
D14*
X258840760Y-58115293D03*
D15*
X260269064Y-52618207D03*
D20*
X263498907Y-51931683D03*
X251382489Y-57103852D03*
D13*
X274320000Y-76835000D03*
D15*
X265430000Y-74295000D03*
X271780000Y-71755000D03*
D14*
X269240000Y-76835000D03*
D13*
X264160000Y-76835000D03*
D16*
X275082000Y-71755000D03*
X262155000Y-74295000D03*
D15*
X274955000Y-93345000D03*
D13*
X283845000Y-95885000D03*
D14*
X278765000Y-95885000D03*
D15*
X281305000Y-90805000D03*
D13*
X273685000Y-95885000D03*
D16*
X284607000Y-90805000D03*
X271680000Y-93345000D03*
D13*
X270663272Y-37208803D03*
X260503272Y-37208803D03*
D15*
X261773272Y-34668803D03*
X268123272Y-32128803D03*
D14*
X265583272Y-37208803D03*
D16*
X271425272Y-32128803D03*
X258498272Y-34668803D03*
D13*
X274193000Y-57785000D03*
D15*
X281813000Y-52705000D03*
X275463000Y-55245000D03*
D14*
X279273000Y-57785000D03*
D13*
X284353000Y-57785000D03*
D16*
X285115000Y-52705000D03*
X272188000Y-55245000D03*
D15*
X284480000Y-74295000D03*
X290830000Y-71755000D03*
D14*
X288290000Y-76835000D03*
D13*
X293370000Y-76835000D03*
X283210000Y-76835000D03*
D16*
X294132000Y-71755000D03*
X281205000Y-74295000D03*
D13*
X299847000Y-95885000D03*
X310007000Y-95885000D03*
D14*
X304927000Y-95885000D03*
D15*
X301117000Y-93345000D03*
X307467000Y-90805000D03*
D16*
X310769000Y-90805000D03*
X297842000Y-93345000D03*
D13*
X279527000Y-38735000D03*
D15*
X280797000Y-36195000D03*
D14*
X284607000Y-38735000D03*
D15*
X287147000Y-33655000D03*
D13*
X289687000Y-38735000D03*
D16*
X290449000Y-33655000D03*
X277522000Y-36195000D03*
D13*
X293243000Y-57785000D03*
D15*
X294513000Y-55245000D03*
X300863000Y-52705000D03*
D13*
X303403000Y-57785000D03*
D14*
X298323000Y-57785000D03*
D16*
X304165000Y-52705000D03*
X291238000Y-55245000D03*
D15*
X319405000Y-114554000D03*
D13*
X321945000Y-119634000D03*
X311785000Y-119634000D03*
D14*
X316865000Y-119634000D03*
D15*
X313055000Y-117094000D03*
D16*
X322707000Y-114554000D03*
X309780000Y-117094000D03*
D18*
X301244000Y-46736000D03*
D14*
X313182000Y-38735000D03*
D19*
X301244000Y-31496000D03*
D18*
X325120000Y-46736000D03*
D19*
X325120000Y-31496000D03*
D15*
X315722000Y-33655000D03*
D13*
X308102000Y-38735000D03*
D15*
X309372000Y-36195000D03*
D13*
X318262000Y-38735000D03*
D16*
X319024000Y-33655000D03*
X306097000Y-36195000D03*
D13*
X317056878Y-57776625D03*
D15*
X318326878Y-55236625D03*
D14*
X322136878Y-57776625D03*
D15*
X324676878Y-52696625D03*
D13*
X327216878Y-57776625D03*
D16*
X327978878Y-52696625D03*
X315051878Y-55236625D03*
D15*
X332105000Y-98171000D03*
X338455000Y-95631000D03*
D13*
X330835000Y-100711000D03*
D14*
X335915000Y-100711000D03*
D13*
X340995000Y-100711000D03*
D16*
X341757000Y-95631000D03*
X328830000Y-98171000D03*
D15*
X332105000Y-117094000D03*
X338455000Y-114554000D03*
D13*
X330835000Y-119634000D03*
X340995000Y-119634000D03*
D14*
X335915000Y-119634000D03*
D16*
X341757000Y-114554000D03*
X328830000Y-117094000D03*
D15*
X349123000Y-28829000D03*
D13*
X351663000Y-33909000D03*
X341503000Y-33909000D03*
D15*
X342773000Y-31369000D03*
D14*
X346583000Y-33909000D03*
D16*
X352425000Y-28829000D03*
X339498000Y-31369000D03*
D14*
X350774000Y-52959000D03*
D15*
X346964000Y-50419000D03*
D13*
X355854000Y-52959000D03*
X345694000Y-52959000D03*
D15*
X353314000Y-47879000D03*
D16*
X356616000Y-47879000D03*
X343689000Y-50419000D03*
D13*
X360045000Y-119634000D03*
D15*
X357505000Y-114554000D03*
D13*
X349885000Y-119634000D03*
D15*
X351155000Y-117094000D03*
D14*
X354965000Y-119634000D03*
D16*
X360807000Y-114554000D03*
X347880000Y-117094000D03*
D15*
X357505000Y-66929000D03*
D13*
X349885000Y-72009000D03*
X360045000Y-72009000D03*
D15*
X351155000Y-69469000D03*
D14*
X354965000Y-72009000D03*
D16*
X360807000Y-66929000D03*
X347880000Y-69469000D03*
D15*
X49403000Y-90805000D03*
D19*
X34925000Y-88900000D03*
D13*
X41783000Y-95885000D03*
D18*
X34925000Y-104140000D03*
X58801000Y-104140000D03*
D14*
X46863000Y-95885000D03*
D19*
X58801000Y-88900000D03*
D13*
X51943000Y-95885000D03*
D15*
X43053000Y-93345000D03*
D16*
X52705000Y-90805000D03*
X39778000Y-93345000D03*
D19*
X307340000Y-83820000D03*
D14*
X319278000Y-76835000D03*
D13*
X324358000Y-76835000D03*
D18*
X331216000Y-68580000D03*
D15*
X315468000Y-74295000D03*
D13*
X314198000Y-76835000D03*
D18*
X307340000Y-68580000D03*
D15*
X321818000Y-71755000D03*
D19*
X331216000Y-83820000D03*
D16*
X325120000Y-71755000D03*
X312193000Y-74295000D03*
D13*
X240509566Y-42541229D03*
X250447546Y-40428847D03*
D14*
X245478556Y-41485038D03*
D15*
X246906860Y-35987952D03*
X241223718Y-39792687D03*
D20*
X250136703Y-35301428D03*
X238020285Y-40473597D03*
D13*
X88022616Y-76640725D03*
D14*
X92991606Y-77696916D03*
D15*
X89792959Y-74420278D03*
X96532292Y-73256022D03*
D13*
X97960596Y-78753107D03*
D17*
X99762136Y-73942546D03*
X86589526Y-73739367D03*
D15*
X127732030Y-40919040D03*
D13*
X129160334Y-46416125D03*
X119222354Y-44303743D03*
D15*
X120992697Y-42083296D03*
D14*
X124191344Y-45359934D03*
D17*
X130961874Y-41605564D03*
X117789264Y-41402385D03*
D14*
X142813005Y-49309258D03*
D13*
X137844015Y-48253067D03*
D15*
X139614358Y-46032620D03*
X146353691Y-44868364D03*
D13*
X147781995Y-50365449D03*
D17*
X149583535Y-45554888D03*
X136410925Y-45351709D03*
D13*
X116604984Y-82726962D03*
X106667004Y-80614580D03*
D15*
X108437347Y-78394133D03*
X115176680Y-77229877D03*
D14*
X111635994Y-81670771D03*
D17*
X118406524Y-77916401D03*
X105233914Y-77713222D03*
D12*
X241060266Y-120608720D03*
D15*
X165003612Y-48823738D03*
D13*
X166431916Y-54320823D03*
X156493936Y-52208441D03*
D15*
X158264279Y-49987994D03*
D14*
X161462926Y-53264632D03*
D17*
X168233456Y-49510262D03*
X155060846Y-49307083D03*
D21*
X182499000Y-28426500D03*
X182499000Y-30501500D03*
D22*
X165586500Y-45720000D03*
X167661500Y-45720000D03*
D23*
X40316305Y-43511003D03*
X40316305Y-40211003D03*
X40767000Y-63727600D03*
X40767000Y-60427600D03*
X39141400Y-82955400D03*
X39141400Y-79655400D03*
X39751000Y-101155500D03*
X39751000Y-97855500D03*
X32664400Y-121005600D03*
X32664400Y-117705600D03*
X59359800Y-43534600D03*
X59359800Y-40234600D03*
X64668400Y-63727600D03*
X64668400Y-60427600D03*
X70739000Y-101154500D03*
X70739000Y-97854500D03*
X78409800Y-43534600D03*
X78409800Y-40234600D03*
D24*
X83703393Y-63745259D03*
X84389501Y-60517371D03*
X84645346Y-82944744D03*
X85331454Y-79716856D03*
X90398446Y-101181944D03*
X91084554Y-97954056D03*
X91096946Y-121057444D03*
X91783054Y-117829556D03*
X97319946Y-45962344D03*
X98006054Y-42734456D03*
X102730146Y-66536344D03*
X103416254Y-63308456D03*
X103390546Y-86195944D03*
X104076654Y-82968056D03*
X108724546Y-106871544D03*
X109410654Y-103643656D03*
X121221346Y-70549544D03*
X121907454Y-67321656D03*
X122084946Y-90107544D03*
X122771054Y-86879656D03*
X127291946Y-110732344D03*
X127978054Y-107504456D03*
X123405746Y-129477544D03*
X124091854Y-126249656D03*
X134607146Y-53963344D03*
X135293254Y-50735456D03*
X140029892Y-74511944D03*
X140716000Y-71284056D03*
X140626946Y-94069944D03*
X141313054Y-90842056D03*
X145935546Y-114745544D03*
X146621654Y-111517656D03*
X151345746Y-135319544D03*
X152031854Y-132091656D03*
X153310291Y-57747944D03*
X153996399Y-54520056D03*
D25*
X178651054Y-81446144D03*
X177964946Y-78218256D03*
X187287054Y-99048344D03*
X186600946Y-95820456D03*
X195758108Y-116701344D03*
X195072000Y-113473456D03*
X183985054Y-60795944D03*
X183298946Y-57568056D03*
X196913654Y-75908944D03*
X196227546Y-72681056D03*
X205803654Y-94095344D03*
X205117546Y-90867456D03*
X214465054Y-112738944D03*
X213778946Y-109511056D03*
X206591054Y-132423944D03*
X205904946Y-129196056D03*
X202527054Y-56909744D03*
X201840946Y-53681856D03*
X215785854Y-72886344D03*
X215099746Y-69658456D03*
X224574254Y-91148944D03*
X223888146Y-87921056D03*
X233134054Y-108700344D03*
X232447946Y-105472456D03*
X221272254Y-52871144D03*
X220586146Y-49643256D03*
X234505654Y-69558944D03*
X233819546Y-66331056D03*
X242989254Y-86322944D03*
X242303146Y-83095056D03*
X251650654Y-104687144D03*
X250964546Y-101459256D03*
X246342054Y-125819944D03*
X245655946Y-122592056D03*
X239788577Y-48900351D03*
X239102469Y-45672463D03*
X252692054Y-63970944D03*
X252005946Y-60743056D03*
D23*
X262128000Y-81621900D03*
X262128000Y-78321900D03*
X271673608Y-104648604D03*
X271673608Y-101348604D03*
X258445000Y-43941000D03*
X258445000Y-40641000D03*
X272186400Y-63930800D03*
X272186400Y-60630800D03*
X281178000Y-81621900D03*
X281178000Y-78321900D03*
X297886408Y-104648604D03*
X297886408Y-101348604D03*
X277520400Y-43941000D03*
X277520400Y-40641000D03*
X291211000Y-63930800D03*
X291211000Y-60630800D03*
X312166000Y-81621900D03*
X312166000Y-78321900D03*
X309784291Y-125795643D03*
X309784291Y-122495643D03*
X306120800Y-43941000D03*
X306120800Y-40641000D03*
X315087000Y-63930800D03*
X315087000Y-60630800D03*
X328803000Y-106704400D03*
X328803000Y-103404400D03*
X328808891Y-125795643D03*
X328808891Y-122495643D03*
X339547200Y-39927800D03*
X339547200Y-36627800D03*
X343712800Y-59104800D03*
X343712800Y-55804800D03*
X347878400Y-78256400D03*
X347878400Y-74956400D03*
X347909691Y-125795643D03*
X347909691Y-122495643D03*
D26*
X158757000Y-32131000D03*
X160757000Y-32131000D03*
X158757000Y-29845000D03*
X160757000Y-29845000D03*
D27*
X193421000Y-27820000D03*
X193421000Y-29820000D03*
D28*
X166577000Y-30038000D03*
X166577000Y-30988000D03*
X166577000Y-31938000D03*
X163877000Y-31938000D03*
X163877000Y-30988000D03*
X163877000Y-30038000D03*
D21*
X184785000Y-28435500D03*
X184785000Y-30510500D03*
D29*
X203429000Y-27056000D03*
X197129000Y-27056000D03*
X197129000Y-30856000D03*
X203429000Y-30856000D03*
D27*
X170942000Y-51070000D03*
X170942000Y-53070000D03*
D21*
X179324000Y-52747000D03*
X179324000Y-54822000D03*
D30*
X188874400Y-41169500D03*
X188874400Y-39094500D03*
D22*
X164325500Y-37211000D03*
X166400500Y-37211000D03*
D21*
X185420000Y-40237500D03*
X185420000Y-42312500D03*
D31*
X159319900Y-26289000D03*
X162294900Y-26289000D03*
D32*
X160766000Y-36195000D03*
X158766000Y-36195000D03*
D23*
X65318527Y-82947174D03*
X65318527Y-79647174D03*
D24*
X115938146Y-49899344D03*
X116624254Y-46671456D03*
D33*
X194838337Y-41548129D03*
X192326863Y-40098129D03*
X193476863Y-38106271D03*
X195988337Y-39556271D03*
D34*
X166391500Y-39497000D03*
X164316500Y-39497000D03*
D22*
X188192500Y-34671000D03*
X190267500Y-34671000D03*
D35*
X172610000Y-26940000D03*
X178390000Y-26940000D03*
D36*
X172250000Y-28885000D03*
X173050000Y-28885000D03*
D37*
X174250000Y-28885000D03*
X175250000Y-28885000D03*
X175750000Y-28885000D03*
X176750000Y-28885000D03*
D36*
X177950000Y-28885000D03*
X178750000Y-28885000D03*
D37*
X177250000Y-28885000D03*
X176250000Y-28885000D03*
X174750000Y-28885000D03*
X173750000Y-28885000D03*
D38*
X179820000Y-23290000D03*
D39*
X179820000Y-27470000D03*
D38*
X171180000Y-23290000D03*
D39*
X171180000Y-27470000D03*
D27*
X151892000Y-31258000D03*
X151892000Y-33258000D03*
D40*
X171418750Y-36464000D03*
X172218750Y-36464000D03*
X173018750Y-36464000D03*
X173818750Y-36464000D03*
X174618750Y-36464000D03*
X175418750Y-36464000D03*
X176218750Y-36464000D03*
X177018750Y-36464000D03*
X177818750Y-36464000D03*
X178618750Y-36464000D03*
X179418750Y-36464000D03*
D41*
X181118750Y-38164000D03*
X181118750Y-38964000D03*
X181118750Y-39764000D03*
X181118750Y-40564000D03*
X181118750Y-41364000D03*
X181118750Y-42164000D03*
X181118750Y-42964000D03*
X181118750Y-43764000D03*
X181118750Y-44564000D03*
X181118750Y-45364000D03*
X181118750Y-46164000D03*
D40*
X179418750Y-47864000D03*
X178618750Y-47864000D03*
X177818750Y-47864000D03*
X177018750Y-47864000D03*
X176218750Y-47864000D03*
X175418750Y-47864000D03*
X174618750Y-47864000D03*
X173818750Y-47864000D03*
X173018750Y-47864000D03*
X172218750Y-47864000D03*
X171418750Y-47864000D03*
D41*
X169718750Y-46164000D03*
X169718750Y-45364000D03*
X169718750Y-44564000D03*
X169718750Y-43764000D03*
X169718750Y-42964000D03*
X169718750Y-42164000D03*
X169718750Y-41364000D03*
X169718750Y-40564000D03*
X169718750Y-39764000D03*
X169718750Y-38964000D03*
X169718750Y-38164000D03*
D27*
X135763000Y-26686000D03*
X135763000Y-28686000D03*
X130302000Y-26686000D03*
X130302000Y-28686000D03*
X141224000Y-26686000D03*
X141224000Y-28686000D03*
M02*
