%TF.GenerationSoftware,KiCad,Pcbnew,(5.99.0-11496-g396213fa30)*%
%TF.CreationDate,2021-07-23T07:47:41-04:00*%
%TF.ProjectId,arisutea-pcb,61726973-7574-4656-912d-7063622e6b69,0.4*%
%TF.SameCoordinates,Original*%
%TF.FileFunction,Paste,Bot*%
%TF.FilePolarity,Positive*%
%FSLAX46Y46*%
G04 Gerber Fmt 4.6, Leading zero omitted, Abs format (unit mm)*
G04 Created by KiCad (PCBNEW (5.99.0-11496-g396213fa30)) date 2021-07-23 07:47:41*
%MOMM*%
%LPD*%
G01*
G04 APERTURE LIST*
G04 Aperture macros list*
%AMRoundRect*
0 Rectangle with rounded corners*
0 $1 Rounding radius*
0 $2 $3 $4 $5 $6 $7 $8 $9 X,Y pos of 4 corners*
0 Add a 4 corners polygon primitive as box body*
4,1,4,$2,$3,$4,$5,$6,$7,$8,$9,$2,$3,0*
0 Add four circle primitives for the rounded corners*
1,1,$1+$1,$2,$3*
1,1,$1+$1,$4,$5*
1,1,$1+$1,$6,$7*
1,1,$1+$1,$8,$9*
0 Add four rect primitives between the rounded corners*
20,1,$1+$1,$2,$3,$4,$5,0*
20,1,$1+$1,$4,$5,$6,$7,0*
20,1,$1+$1,$6,$7,$8,$9,0*
20,1,$1+$1,$8,$9,$2,$3,0*%
%AMRotRect*
0 Rectangle, with rotation*
0 The origin of the aperture is its center*
0 $1 length*
0 $2 width*
0 $3 Rotation angle, in degrees counterclockwise*
0 Add horizontal line*
21,1,$1,$2,0,0,$3*%
G04 Aperture macros list end*
%ADD10C,0.000100*%
%ADD11C,0.010000*%
%ADD12R,2.550000X2.500000*%
%ADD13RotRect,2.550000X2.500000X348.000000*%
%ADD14RotRect,2.550000X2.500000X12.000000*%
%ADD15RoundRect,0.250000X-0.475000X0.337500X-0.475000X-0.337500X0.475000X-0.337500X0.475000X0.337500X0*%
%ADD16RoundRect,0.250000X-0.337500X-0.475000X0.337500X-0.475000X0.337500X0.475000X-0.337500X0.475000X0*%
%ADD17R,1.200000X0.900000*%
%ADD18RotRect,0.900000X1.200000X78.000000*%
%ADD19RotRect,0.900000X1.200000X102.000000*%
%ADD20RoundRect,0.250000X-0.350000X-0.450000X0.350000X-0.450000X0.350000X0.450000X-0.350000X0.450000X0*%
%ADD21RoundRect,0.250000X-0.450000X0.350000X-0.450000X-0.350000X0.450000X-0.350000X0.450000X0.350000X0*%
%ADD22R,1.560000X0.650000*%
%ADD23R,1.700000X1.000000*%
%ADD24RoundRect,0.250000X0.475000X-0.337500X0.475000X0.337500X-0.475000X0.337500X-0.475000X-0.337500X0*%
%ADD25RoundRect,0.250001X-0.462499X-0.624999X0.462499X-0.624999X0.462499X0.624999X-0.462499X0.624999X0*%
%ADD26RoundRect,0.250000X0.350000X0.450000X-0.350000X0.450000X-0.350000X-0.450000X0.350000X-0.450000X0*%
%ADD27RotRect,2.100000X1.800000X150.000000*%
%ADD28RoundRect,0.250000X0.337500X0.475000X-0.337500X0.475000X-0.337500X-0.475000X0.337500X-0.475000X0*%
%ADD29R,0.600000X2.450000*%
%ADD30R,0.300000X2.450000*%
%ADD31R,0.550000X1.500000*%
%ADD32R,1.500000X0.550000*%
G04 APERTURE END LIST*
D10*
X139234000Y-28761000D02*
X139309000Y-28711000D01*
D11*
X139309000Y-29786000D02*
X139309000Y-28711000D01*
X139309000Y-28711000D02*
X139271334Y-28733572D01*
X139271334Y-28733572D02*
X139232854Y-28754727D01*
X139232854Y-28754727D02*
X139193613Y-28774435D01*
X139193613Y-28774435D02*
X139153665Y-28792668D01*
X139153665Y-28792668D02*
X139113067Y-28809401D01*
X139113067Y-28809401D02*
X139071874Y-28824612D01*
X139071874Y-28824612D02*
X139030143Y-28838279D01*
X139030143Y-28838279D02*
X138987932Y-28850382D01*
X138987932Y-28850382D02*
X138945300Y-28860906D01*
X138945300Y-28860906D02*
X138902306Y-28869836D01*
X138902306Y-28869836D02*
X138859009Y-28877159D01*
X138859009Y-28877159D02*
X138815469Y-28882866D01*
X138815469Y-28882866D02*
X138771748Y-28886947D01*
X138771748Y-28886947D02*
X138727904Y-28889398D01*
X138727904Y-28889398D02*
X138684000Y-28890216D01*
X138684000Y-28890216D02*
X138640096Y-28889398D01*
X138640096Y-28889398D02*
X138596252Y-28886947D01*
X138596252Y-28886947D02*
X138552531Y-28882866D01*
X138552531Y-28882866D02*
X138508991Y-28877159D01*
X138508991Y-28877159D02*
X138465694Y-28869836D01*
X138465694Y-28869836D02*
X138422700Y-28860906D01*
X138422700Y-28860906D02*
X138380068Y-28850382D01*
X138380068Y-28850382D02*
X138337857Y-28838279D01*
X138337857Y-28838279D02*
X138296126Y-28824612D01*
X138296126Y-28824612D02*
X138254933Y-28809401D01*
X138254933Y-28809401D02*
X138214335Y-28792668D01*
X138214335Y-28792668D02*
X138174387Y-28774435D01*
X138174387Y-28774435D02*
X138135146Y-28754727D01*
X138135146Y-28754727D02*
X138096666Y-28733572D01*
X138096666Y-28733572D02*
X138059000Y-28711000D01*
X138059000Y-28711000D02*
X138059000Y-29786000D01*
X138059000Y-29786000D02*
X139309000Y-29786000D01*
X139309000Y-29786000D02*
X139309000Y-29786000D01*
G36*
X139309000Y-29786000D02*
G01*
X138059000Y-29786000D01*
X138059000Y-28711000D01*
X138096666Y-28733572D01*
X138135146Y-28754727D01*
X138174387Y-28774435D01*
X138214335Y-28792668D01*
X138254933Y-28809401D01*
X138296126Y-28824612D01*
X138337857Y-28838279D01*
X138380068Y-28850382D01*
X138422700Y-28860906D01*
X138465694Y-28869836D01*
X138508991Y-28877159D01*
X138552531Y-28882866D01*
X138596252Y-28886947D01*
X138640096Y-28889398D01*
X138684000Y-28890216D01*
X138727904Y-28889398D01*
X138771748Y-28886947D01*
X138815469Y-28882866D01*
X138859009Y-28877159D01*
X138902306Y-28869836D01*
X138945300Y-28860906D01*
X138987932Y-28850382D01*
X139030143Y-28838279D01*
X139071874Y-28824612D01*
X139113067Y-28809401D01*
X139153665Y-28792668D01*
X139193613Y-28774435D01*
X139232854Y-28754727D01*
X139271334Y-28733572D01*
X139309000Y-28711000D01*
X139309000Y-29786000D01*
G37*
X139309000Y-29786000D02*
X138059000Y-29786000D01*
X138059000Y-28711000D01*
X138096666Y-28733572D01*
X138135146Y-28754727D01*
X138174387Y-28774435D01*
X138214335Y-28792668D01*
X138254933Y-28809401D01*
X138296126Y-28824612D01*
X138337857Y-28838279D01*
X138380068Y-28850382D01*
X138422700Y-28860906D01*
X138465694Y-28869836D01*
X138508991Y-28877159D01*
X138552531Y-28882866D01*
X138596252Y-28886947D01*
X138640096Y-28889398D01*
X138684000Y-28890216D01*
X138727904Y-28889398D01*
X138771748Y-28886947D01*
X138815469Y-28882866D01*
X138859009Y-28877159D01*
X138902306Y-28869836D01*
X138945300Y-28860906D01*
X138987932Y-28850382D01*
X139030143Y-28838279D01*
X139071874Y-28824612D01*
X139113067Y-28809401D01*
X139153665Y-28792668D01*
X139193613Y-28774435D01*
X139232854Y-28754727D01*
X139271334Y-28733572D01*
X139309000Y-28711000D01*
X139309000Y-29786000D01*
X139309000Y-25586000D02*
X139309000Y-26661000D01*
X139309000Y-26661000D02*
X139271334Y-26638428D01*
X139271334Y-26638428D02*
X139232854Y-26617273D01*
X139232854Y-26617273D02*
X139193613Y-26597565D01*
X139193613Y-26597565D02*
X139153665Y-26579332D01*
X139153665Y-26579332D02*
X139113067Y-26562599D01*
X139113067Y-26562599D02*
X139071874Y-26547388D01*
X139071874Y-26547388D02*
X139030143Y-26533721D01*
X139030143Y-26533721D02*
X138987932Y-26521618D01*
X138987932Y-26521618D02*
X138945300Y-26511094D01*
X138945300Y-26511094D02*
X138902306Y-26502164D01*
X138902306Y-26502164D02*
X138859009Y-26494841D01*
X138859009Y-26494841D02*
X138815469Y-26489134D01*
X138815469Y-26489134D02*
X138771748Y-26485053D01*
X138771748Y-26485053D02*
X138727904Y-26482602D01*
X138727904Y-26482602D02*
X138684000Y-26481784D01*
X138684000Y-26481784D02*
X138640096Y-26482602D01*
X138640096Y-26482602D02*
X138596252Y-26485053D01*
X138596252Y-26485053D02*
X138552531Y-26489134D01*
X138552531Y-26489134D02*
X138508991Y-26494841D01*
X138508991Y-26494841D02*
X138465694Y-26502164D01*
X138465694Y-26502164D02*
X138422700Y-26511094D01*
X138422700Y-26511094D02*
X138380068Y-26521618D01*
X138380068Y-26521618D02*
X138337857Y-26533721D01*
X138337857Y-26533721D02*
X138296126Y-26547388D01*
X138296126Y-26547388D02*
X138254933Y-26562599D01*
X138254933Y-26562599D02*
X138214335Y-26579332D01*
X138214335Y-26579332D02*
X138174387Y-26597565D01*
X138174387Y-26597565D02*
X138135146Y-26617273D01*
X138135146Y-26617273D02*
X138096666Y-26638428D01*
X138096666Y-26638428D02*
X138059000Y-26661000D01*
X138059000Y-26661000D02*
X138059000Y-25586000D01*
X138059000Y-25586000D02*
X139309000Y-25586000D01*
X139309000Y-25586000D02*
X139309000Y-25586000D01*
G36*
X139309000Y-26661000D02*
G01*
X139271334Y-26638428D01*
X139232854Y-26617273D01*
X139193613Y-26597565D01*
X139153665Y-26579332D01*
X139113067Y-26562599D01*
X139071874Y-26547388D01*
X139030143Y-26533721D01*
X138987932Y-26521618D01*
X138945300Y-26511094D01*
X138902306Y-26502164D01*
X138859009Y-26494841D01*
X138815469Y-26489134D01*
X138771748Y-26485053D01*
X138727904Y-26482602D01*
X138684000Y-26481784D01*
X138640096Y-26482602D01*
X138596252Y-26485053D01*
X138552531Y-26489134D01*
X138508991Y-26494841D01*
X138465694Y-26502164D01*
X138422700Y-26511094D01*
X138380068Y-26521618D01*
X138337857Y-26533721D01*
X138296126Y-26547388D01*
X138254933Y-26562599D01*
X138214335Y-26579332D01*
X138174387Y-26597565D01*
X138135146Y-26617273D01*
X138096666Y-26638428D01*
X138059000Y-26661000D01*
X138059000Y-25586000D01*
X139309000Y-25586000D01*
X139309000Y-26661000D01*
G37*
X139309000Y-26661000D02*
X139271334Y-26638428D01*
X139232854Y-26617273D01*
X139193613Y-26597565D01*
X139153665Y-26579332D01*
X139113067Y-26562599D01*
X139071874Y-26547388D01*
X139030143Y-26533721D01*
X138987932Y-26521618D01*
X138945300Y-26511094D01*
X138902306Y-26502164D01*
X138859009Y-26494841D01*
X138815469Y-26489134D01*
X138771748Y-26485053D01*
X138727904Y-26482602D01*
X138684000Y-26481784D01*
X138640096Y-26482602D01*
X138596252Y-26485053D01*
X138552531Y-26489134D01*
X138508991Y-26494841D01*
X138465694Y-26502164D01*
X138422700Y-26511094D01*
X138380068Y-26521618D01*
X138337857Y-26533721D01*
X138296126Y-26547388D01*
X138254933Y-26562599D01*
X138214335Y-26579332D01*
X138174387Y-26597565D01*
X138135146Y-26617273D01*
X138096666Y-26638428D01*
X138059000Y-26661000D01*
X138059000Y-25586000D01*
X139309000Y-25586000D01*
X139309000Y-26661000D01*
D10*
X133773000Y-28761000D02*
X133848000Y-28711000D01*
D11*
X133848000Y-29786000D02*
X133848000Y-28711000D01*
X133848000Y-28711000D02*
X133810334Y-28733572D01*
X133810334Y-28733572D02*
X133771854Y-28754727D01*
X133771854Y-28754727D02*
X133732613Y-28774435D01*
X133732613Y-28774435D02*
X133692665Y-28792668D01*
X133692665Y-28792668D02*
X133652067Y-28809401D01*
X133652067Y-28809401D02*
X133610874Y-28824612D01*
X133610874Y-28824612D02*
X133569143Y-28838279D01*
X133569143Y-28838279D02*
X133526932Y-28850382D01*
X133526932Y-28850382D02*
X133484300Y-28860906D01*
X133484300Y-28860906D02*
X133441306Y-28869836D01*
X133441306Y-28869836D02*
X133398009Y-28877159D01*
X133398009Y-28877159D02*
X133354469Y-28882866D01*
X133354469Y-28882866D02*
X133310748Y-28886947D01*
X133310748Y-28886947D02*
X133266904Y-28889398D01*
X133266904Y-28889398D02*
X133223000Y-28890216D01*
X133223000Y-28890216D02*
X133179096Y-28889398D01*
X133179096Y-28889398D02*
X133135252Y-28886947D01*
X133135252Y-28886947D02*
X133091531Y-28882866D01*
X133091531Y-28882866D02*
X133047991Y-28877159D01*
X133047991Y-28877159D02*
X133004694Y-28869836D01*
X133004694Y-28869836D02*
X132961700Y-28860906D01*
X132961700Y-28860906D02*
X132919068Y-28850382D01*
X132919068Y-28850382D02*
X132876857Y-28838279D01*
X132876857Y-28838279D02*
X132835126Y-28824612D01*
X132835126Y-28824612D02*
X132793933Y-28809401D01*
X132793933Y-28809401D02*
X132753335Y-28792668D01*
X132753335Y-28792668D02*
X132713387Y-28774435D01*
X132713387Y-28774435D02*
X132674146Y-28754727D01*
X132674146Y-28754727D02*
X132635666Y-28733572D01*
X132635666Y-28733572D02*
X132598000Y-28711000D01*
X132598000Y-28711000D02*
X132598000Y-29786000D01*
X132598000Y-29786000D02*
X133848000Y-29786000D01*
X133848000Y-29786000D02*
X133848000Y-29786000D01*
G36*
X133848000Y-29786000D02*
G01*
X132598000Y-29786000D01*
X132598000Y-28711000D01*
X132635666Y-28733572D01*
X132674146Y-28754727D01*
X132713387Y-28774435D01*
X132753335Y-28792668D01*
X132793933Y-28809401D01*
X132835126Y-28824612D01*
X132876857Y-28838279D01*
X132919068Y-28850382D01*
X132961700Y-28860906D01*
X133004694Y-28869836D01*
X133047991Y-28877159D01*
X133091531Y-28882866D01*
X133135252Y-28886947D01*
X133179096Y-28889398D01*
X133223000Y-28890216D01*
X133266904Y-28889398D01*
X133310748Y-28886947D01*
X133354469Y-28882866D01*
X133398009Y-28877159D01*
X133441306Y-28869836D01*
X133484300Y-28860906D01*
X133526932Y-28850382D01*
X133569143Y-28838279D01*
X133610874Y-28824612D01*
X133652067Y-28809401D01*
X133692665Y-28792668D01*
X133732613Y-28774435D01*
X133771854Y-28754727D01*
X133810334Y-28733572D01*
X133848000Y-28711000D01*
X133848000Y-29786000D01*
G37*
X133848000Y-29786000D02*
X132598000Y-29786000D01*
X132598000Y-28711000D01*
X132635666Y-28733572D01*
X132674146Y-28754727D01*
X132713387Y-28774435D01*
X132753335Y-28792668D01*
X132793933Y-28809401D01*
X132835126Y-28824612D01*
X132876857Y-28838279D01*
X132919068Y-28850382D01*
X132961700Y-28860906D01*
X133004694Y-28869836D01*
X133047991Y-28877159D01*
X133091531Y-28882866D01*
X133135252Y-28886947D01*
X133179096Y-28889398D01*
X133223000Y-28890216D01*
X133266904Y-28889398D01*
X133310748Y-28886947D01*
X133354469Y-28882866D01*
X133398009Y-28877159D01*
X133441306Y-28869836D01*
X133484300Y-28860906D01*
X133526932Y-28850382D01*
X133569143Y-28838279D01*
X133610874Y-28824612D01*
X133652067Y-28809401D01*
X133692665Y-28792668D01*
X133732613Y-28774435D01*
X133771854Y-28754727D01*
X133810334Y-28733572D01*
X133848000Y-28711000D01*
X133848000Y-29786000D01*
X133848000Y-25586000D02*
X133848000Y-26661000D01*
X133848000Y-26661000D02*
X133810334Y-26638428D01*
X133810334Y-26638428D02*
X133771854Y-26617273D01*
X133771854Y-26617273D02*
X133732613Y-26597565D01*
X133732613Y-26597565D02*
X133692665Y-26579332D01*
X133692665Y-26579332D02*
X133652067Y-26562599D01*
X133652067Y-26562599D02*
X133610874Y-26547388D01*
X133610874Y-26547388D02*
X133569143Y-26533721D01*
X133569143Y-26533721D02*
X133526932Y-26521618D01*
X133526932Y-26521618D02*
X133484300Y-26511094D01*
X133484300Y-26511094D02*
X133441306Y-26502164D01*
X133441306Y-26502164D02*
X133398009Y-26494841D01*
X133398009Y-26494841D02*
X133354469Y-26489134D01*
X133354469Y-26489134D02*
X133310748Y-26485053D01*
X133310748Y-26485053D02*
X133266904Y-26482602D01*
X133266904Y-26482602D02*
X133223000Y-26481784D01*
X133223000Y-26481784D02*
X133179096Y-26482602D01*
X133179096Y-26482602D02*
X133135252Y-26485053D01*
X133135252Y-26485053D02*
X133091531Y-26489134D01*
X133091531Y-26489134D02*
X133047991Y-26494841D01*
X133047991Y-26494841D02*
X133004694Y-26502164D01*
X133004694Y-26502164D02*
X132961700Y-26511094D01*
X132961700Y-26511094D02*
X132919068Y-26521618D01*
X132919068Y-26521618D02*
X132876857Y-26533721D01*
X132876857Y-26533721D02*
X132835126Y-26547388D01*
X132835126Y-26547388D02*
X132793933Y-26562599D01*
X132793933Y-26562599D02*
X132753335Y-26579332D01*
X132753335Y-26579332D02*
X132713387Y-26597565D01*
X132713387Y-26597565D02*
X132674146Y-26617273D01*
X132674146Y-26617273D02*
X132635666Y-26638428D01*
X132635666Y-26638428D02*
X132598000Y-26661000D01*
X132598000Y-26661000D02*
X132598000Y-25586000D01*
X132598000Y-25586000D02*
X133848000Y-25586000D01*
X133848000Y-25586000D02*
X133848000Y-25586000D01*
G36*
X133848000Y-26661000D02*
G01*
X133810334Y-26638428D01*
X133771854Y-26617273D01*
X133732613Y-26597565D01*
X133692665Y-26579332D01*
X133652067Y-26562599D01*
X133610874Y-26547388D01*
X133569143Y-26533721D01*
X133526932Y-26521618D01*
X133484300Y-26511094D01*
X133441306Y-26502164D01*
X133398009Y-26494841D01*
X133354469Y-26489134D01*
X133310748Y-26485053D01*
X133266904Y-26482602D01*
X133223000Y-26481784D01*
X133179096Y-26482602D01*
X133135252Y-26485053D01*
X133091531Y-26489134D01*
X133047991Y-26494841D01*
X133004694Y-26502164D01*
X132961700Y-26511094D01*
X132919068Y-26521618D01*
X132876857Y-26533721D01*
X132835126Y-26547388D01*
X132793933Y-26562599D01*
X132753335Y-26579332D01*
X132713387Y-26597565D01*
X132674146Y-26617273D01*
X132635666Y-26638428D01*
X132598000Y-26661000D01*
X132598000Y-25586000D01*
X133848000Y-25586000D01*
X133848000Y-26661000D01*
G37*
X133848000Y-26661000D02*
X133810334Y-26638428D01*
X133771854Y-26617273D01*
X133732613Y-26597565D01*
X133692665Y-26579332D01*
X133652067Y-26562599D01*
X133610874Y-26547388D01*
X133569143Y-26533721D01*
X133526932Y-26521618D01*
X133484300Y-26511094D01*
X133441306Y-26502164D01*
X133398009Y-26494841D01*
X133354469Y-26489134D01*
X133310748Y-26485053D01*
X133266904Y-26482602D01*
X133223000Y-26481784D01*
X133179096Y-26482602D01*
X133135252Y-26485053D01*
X133091531Y-26489134D01*
X133047991Y-26494841D01*
X133004694Y-26502164D01*
X132961700Y-26511094D01*
X132919068Y-26521618D01*
X132876857Y-26533721D01*
X132835126Y-26547388D01*
X132793933Y-26562599D01*
X132753335Y-26579332D01*
X132713387Y-26597565D01*
X132674146Y-26617273D01*
X132635666Y-26638428D01*
X132598000Y-26661000D01*
X132598000Y-25586000D01*
X133848000Y-25586000D01*
X133848000Y-26661000D01*
D10*
X128312000Y-28761000D02*
X128387000Y-28711000D01*
D11*
X128387000Y-25586000D02*
X128387000Y-26661000D01*
X128387000Y-26661000D02*
X128349334Y-26638428D01*
X128349334Y-26638428D02*
X128310854Y-26617273D01*
X128310854Y-26617273D02*
X128271613Y-26597565D01*
X128271613Y-26597565D02*
X128231665Y-26579332D01*
X128231665Y-26579332D02*
X128191067Y-26562599D01*
X128191067Y-26562599D02*
X128149874Y-26547388D01*
X128149874Y-26547388D02*
X128108143Y-26533721D01*
X128108143Y-26533721D02*
X128065932Y-26521618D01*
X128065932Y-26521618D02*
X128023300Y-26511094D01*
X128023300Y-26511094D02*
X127980306Y-26502164D01*
X127980306Y-26502164D02*
X127937009Y-26494841D01*
X127937009Y-26494841D02*
X127893469Y-26489134D01*
X127893469Y-26489134D02*
X127849748Y-26485053D01*
X127849748Y-26485053D02*
X127805904Y-26482602D01*
X127805904Y-26482602D02*
X127762000Y-26481784D01*
X127762000Y-26481784D02*
X127718096Y-26482602D01*
X127718096Y-26482602D02*
X127674252Y-26485053D01*
X127674252Y-26485053D02*
X127630531Y-26489134D01*
X127630531Y-26489134D02*
X127586991Y-26494841D01*
X127586991Y-26494841D02*
X127543694Y-26502164D01*
X127543694Y-26502164D02*
X127500700Y-26511094D01*
X127500700Y-26511094D02*
X127458068Y-26521618D01*
X127458068Y-26521618D02*
X127415857Y-26533721D01*
X127415857Y-26533721D02*
X127374126Y-26547388D01*
X127374126Y-26547388D02*
X127332933Y-26562599D01*
X127332933Y-26562599D02*
X127292335Y-26579332D01*
X127292335Y-26579332D02*
X127252387Y-26597565D01*
X127252387Y-26597565D02*
X127213146Y-26617273D01*
X127213146Y-26617273D02*
X127174666Y-26638428D01*
X127174666Y-26638428D02*
X127137000Y-26661000D01*
X127137000Y-26661000D02*
X127137000Y-25586000D01*
X127137000Y-25586000D02*
X128387000Y-25586000D01*
X128387000Y-25586000D02*
X128387000Y-25586000D01*
G36*
X128387000Y-26661000D02*
G01*
X128349334Y-26638428D01*
X128310854Y-26617273D01*
X128271613Y-26597565D01*
X128231665Y-26579332D01*
X128191067Y-26562599D01*
X128149874Y-26547388D01*
X128108143Y-26533721D01*
X128065932Y-26521618D01*
X128023300Y-26511094D01*
X127980306Y-26502164D01*
X127937009Y-26494841D01*
X127893469Y-26489134D01*
X127849748Y-26485053D01*
X127805904Y-26482602D01*
X127762000Y-26481784D01*
X127718096Y-26482602D01*
X127674252Y-26485053D01*
X127630531Y-26489134D01*
X127586991Y-26494841D01*
X127543694Y-26502164D01*
X127500700Y-26511094D01*
X127458068Y-26521618D01*
X127415857Y-26533721D01*
X127374126Y-26547388D01*
X127332933Y-26562599D01*
X127292335Y-26579332D01*
X127252387Y-26597565D01*
X127213146Y-26617273D01*
X127174666Y-26638428D01*
X127137000Y-26661000D01*
X127137000Y-25586000D01*
X128387000Y-25586000D01*
X128387000Y-26661000D01*
G37*
X128387000Y-26661000D02*
X128349334Y-26638428D01*
X128310854Y-26617273D01*
X128271613Y-26597565D01*
X128231665Y-26579332D01*
X128191067Y-26562599D01*
X128149874Y-26547388D01*
X128108143Y-26533721D01*
X128065932Y-26521618D01*
X128023300Y-26511094D01*
X127980306Y-26502164D01*
X127937009Y-26494841D01*
X127893469Y-26489134D01*
X127849748Y-26485053D01*
X127805904Y-26482602D01*
X127762000Y-26481784D01*
X127718096Y-26482602D01*
X127674252Y-26485053D01*
X127630531Y-26489134D01*
X127586991Y-26494841D01*
X127543694Y-26502164D01*
X127500700Y-26511094D01*
X127458068Y-26521618D01*
X127415857Y-26533721D01*
X127374126Y-26547388D01*
X127332933Y-26562599D01*
X127292335Y-26579332D01*
X127252387Y-26597565D01*
X127213146Y-26617273D01*
X127174666Y-26638428D01*
X127137000Y-26661000D01*
X127137000Y-25586000D01*
X128387000Y-25586000D01*
X128387000Y-26661000D01*
X128387000Y-29786000D02*
X128387000Y-28711000D01*
X128387000Y-28711000D02*
X128349334Y-28733572D01*
X128349334Y-28733572D02*
X128310854Y-28754727D01*
X128310854Y-28754727D02*
X128271613Y-28774435D01*
X128271613Y-28774435D02*
X128231665Y-28792668D01*
X128231665Y-28792668D02*
X128191067Y-28809401D01*
X128191067Y-28809401D02*
X128149874Y-28824612D01*
X128149874Y-28824612D02*
X128108143Y-28838279D01*
X128108143Y-28838279D02*
X128065932Y-28850382D01*
X128065932Y-28850382D02*
X128023300Y-28860906D01*
X128023300Y-28860906D02*
X127980306Y-28869836D01*
X127980306Y-28869836D02*
X127937009Y-28877159D01*
X127937009Y-28877159D02*
X127893469Y-28882866D01*
X127893469Y-28882866D02*
X127849748Y-28886947D01*
X127849748Y-28886947D02*
X127805904Y-28889398D01*
X127805904Y-28889398D02*
X127762000Y-28890216D01*
X127762000Y-28890216D02*
X127718096Y-28889398D01*
X127718096Y-28889398D02*
X127674252Y-28886947D01*
X127674252Y-28886947D02*
X127630531Y-28882866D01*
X127630531Y-28882866D02*
X127586991Y-28877159D01*
X127586991Y-28877159D02*
X127543694Y-28869836D01*
X127543694Y-28869836D02*
X127500700Y-28860906D01*
X127500700Y-28860906D02*
X127458068Y-28850382D01*
X127458068Y-28850382D02*
X127415857Y-28838279D01*
X127415857Y-28838279D02*
X127374126Y-28824612D01*
X127374126Y-28824612D02*
X127332933Y-28809401D01*
X127332933Y-28809401D02*
X127292335Y-28792668D01*
X127292335Y-28792668D02*
X127252387Y-28774435D01*
X127252387Y-28774435D02*
X127213146Y-28754727D01*
X127213146Y-28754727D02*
X127174666Y-28733572D01*
X127174666Y-28733572D02*
X127137000Y-28711000D01*
X127137000Y-28711000D02*
X127137000Y-29786000D01*
X127137000Y-29786000D02*
X128387000Y-29786000D01*
X128387000Y-29786000D02*
X128387000Y-29786000D01*
G36*
X128387000Y-29786000D02*
G01*
X127137000Y-29786000D01*
X127137000Y-28711000D01*
X127174666Y-28733572D01*
X127213146Y-28754727D01*
X127252387Y-28774435D01*
X127292335Y-28792668D01*
X127332933Y-28809401D01*
X127374126Y-28824612D01*
X127415857Y-28838279D01*
X127458068Y-28850382D01*
X127500700Y-28860906D01*
X127543694Y-28869836D01*
X127586991Y-28877159D01*
X127630531Y-28882866D01*
X127674252Y-28886947D01*
X127718096Y-28889398D01*
X127762000Y-28890216D01*
X127805904Y-28889398D01*
X127849748Y-28886947D01*
X127893469Y-28882866D01*
X127937009Y-28877159D01*
X127980306Y-28869836D01*
X128023300Y-28860906D01*
X128065932Y-28850382D01*
X128108143Y-28838279D01*
X128149874Y-28824612D01*
X128191067Y-28809401D01*
X128231665Y-28792668D01*
X128271613Y-28774435D01*
X128310854Y-28754727D01*
X128349334Y-28733572D01*
X128387000Y-28711000D01*
X128387000Y-29786000D01*
G37*
X128387000Y-29786000D02*
X127137000Y-29786000D01*
X127137000Y-28711000D01*
X127174666Y-28733572D01*
X127213146Y-28754727D01*
X127252387Y-28774435D01*
X127292335Y-28792668D01*
X127332933Y-28809401D01*
X127374126Y-28824612D01*
X127415857Y-28838279D01*
X127458068Y-28850382D01*
X127500700Y-28860906D01*
X127543694Y-28869836D01*
X127586991Y-28877159D01*
X127630531Y-28882866D01*
X127674252Y-28886947D01*
X127718096Y-28889398D01*
X127762000Y-28890216D01*
X127805904Y-28889398D01*
X127849748Y-28886947D01*
X127893469Y-28882866D01*
X127937009Y-28877159D01*
X127980306Y-28869836D01*
X128023300Y-28860906D01*
X128065932Y-28850382D01*
X128108143Y-28838279D01*
X128149874Y-28824612D01*
X128191067Y-28809401D01*
X128231665Y-28792668D01*
X128271613Y-28774435D01*
X128310854Y-28754727D01*
X128349334Y-28733572D01*
X128387000Y-28711000D01*
X128387000Y-29786000D01*
D12*
X53213000Y-33655000D03*
X40286000Y-36195000D03*
X53721000Y-52705000D03*
X40794000Y-55245000D03*
X52070000Y-71755000D03*
X39143000Y-74295000D03*
X45593000Y-109855000D03*
X32666000Y-112395000D03*
X72263000Y-33655000D03*
X59336000Y-36195000D03*
X77597000Y-52705000D03*
X64670000Y-55245000D03*
X78232000Y-71755000D03*
X65305000Y-74295000D03*
X83693000Y-90805000D03*
X70766000Y-93345000D03*
X91313000Y-32131000D03*
X78386000Y-34671000D03*
D13*
X98962249Y-54309479D03*
X85789639Y-54106300D03*
X105033007Y-94569252D03*
X91860397Y-94366073D03*
X105784015Y-114229586D03*
X92611405Y-114026407D03*
X112307530Y-37647630D03*
X99134920Y-37444451D03*
X117660308Y-58260800D03*
X104487698Y-58057621D03*
X123647293Y-98538869D03*
X110474683Y-98335690D03*
X136306309Y-62233134D03*
X123133699Y-62029955D03*
X137051357Y-81883783D03*
X123878747Y-81680604D03*
X142288401Y-102481665D03*
X129115791Y-102278486D03*
X138426071Y-121149594D03*
X125253461Y-120946415D03*
X154951142Y-66200516D03*
X141778532Y-65997337D03*
X155696190Y-85869791D03*
X142523580Y-85666612D03*
X160956331Y-106424460D03*
X147783721Y-106221281D03*
X166401144Y-127077199D03*
X153228534Y-126874020D03*
D14*
X188967009Y-67797460D03*
X176850591Y-72969629D03*
X197534164Y-85435027D03*
X185417746Y-90607196D03*
X206099359Y-103072173D03*
X193982941Y-108244342D03*
X194303698Y-47183368D03*
X182187280Y-52355537D03*
X207621605Y-63829667D03*
X195505187Y-69001836D03*
X216179025Y-81463413D03*
X204062607Y-86635582D03*
X224721682Y-99121391D03*
X212605264Y-104293560D03*
X217203817Y-120221861D03*
X205087399Y-125394030D03*
X212931522Y-43227994D03*
X200815104Y-48400163D03*
X226245180Y-59846049D03*
X214128762Y-65018218D03*
X234793591Y-77517762D03*
X222677173Y-82689931D03*
X243376932Y-95181456D03*
X231260514Y-100353625D03*
X231537249Y-39272619D03*
X219420831Y-44444788D03*
X244871083Y-55909155D03*
X232754665Y-61081324D03*
X253451147Y-73572390D03*
X241334729Y-78744559D03*
X261999010Y-91210133D03*
X249882592Y-96382302D03*
X256633816Y-111869171D03*
X244517398Y-117041340D03*
X263498907Y-51931683D03*
X251382489Y-57103852D03*
D12*
X275082000Y-71755000D03*
X262155000Y-74295000D03*
X284607000Y-90805000D03*
X271680000Y-93345000D03*
X271425272Y-32128803D03*
X258498272Y-34668803D03*
X285115000Y-52705000D03*
X272188000Y-55245000D03*
X294132000Y-71755000D03*
X281205000Y-74295000D03*
X310769000Y-90805000D03*
X297842000Y-93345000D03*
X290449000Y-33655000D03*
X277522000Y-36195000D03*
X304165000Y-52705000D03*
X291238000Y-55245000D03*
X322707000Y-114554000D03*
X309780000Y-117094000D03*
X319024000Y-33655000D03*
X306097000Y-36195000D03*
X327978878Y-52696625D03*
X315051878Y-55236625D03*
X341757000Y-95631000D03*
X328830000Y-98171000D03*
X341757000Y-114554000D03*
X328830000Y-117094000D03*
X352425000Y-28829000D03*
X339498000Y-31369000D03*
X356616000Y-47879000D03*
X343689000Y-50419000D03*
X360807000Y-114554000D03*
X347880000Y-117094000D03*
X360807000Y-66929000D03*
X347880000Y-69469000D03*
X52705000Y-90805000D03*
X39778000Y-93345000D03*
X325120000Y-71755000D03*
X312193000Y-74295000D03*
D14*
X250136703Y-35301428D03*
X238020285Y-40473597D03*
D13*
X99762136Y-73942546D03*
X86589526Y-73739367D03*
X130961874Y-41605564D03*
X117789264Y-41402385D03*
X149583535Y-45554888D03*
X136410925Y-45351709D03*
X118406524Y-77916401D03*
X105233914Y-77713222D03*
X168233456Y-49510262D03*
X155060846Y-49307083D03*
D15*
X182499000Y-28426500D03*
X182499000Y-30501500D03*
D16*
X165586500Y-45720000D03*
X167661500Y-45720000D03*
D17*
X40316305Y-43511003D03*
X40316305Y-40211003D03*
X40767000Y-63727600D03*
X40767000Y-60427600D03*
X39141400Y-82955400D03*
X39141400Y-79655400D03*
X39751000Y-101155500D03*
X39751000Y-97855500D03*
X32664400Y-121005600D03*
X32664400Y-117705600D03*
X59359800Y-43534600D03*
X59359800Y-40234600D03*
X64668400Y-63727600D03*
X64668400Y-60427600D03*
X70739000Y-101154500D03*
X70739000Y-97854500D03*
X78409800Y-43534600D03*
X78409800Y-40234600D03*
D18*
X83703393Y-63745259D03*
X84389501Y-60517371D03*
X84645346Y-82944744D03*
X85331454Y-79716856D03*
X90398446Y-101181944D03*
X91084554Y-97954056D03*
X91096946Y-121057444D03*
X91783054Y-117829556D03*
X97319946Y-45962344D03*
X98006054Y-42734456D03*
X102730146Y-66536344D03*
X103416254Y-63308456D03*
X103390546Y-86195944D03*
X104076654Y-82968056D03*
X108724546Y-106871544D03*
X109410654Y-103643656D03*
X121221346Y-70549544D03*
X121907454Y-67321656D03*
X122084946Y-90107544D03*
X122771054Y-86879656D03*
X127291946Y-110732344D03*
X127978054Y-107504456D03*
X123405746Y-129477544D03*
X124091854Y-126249656D03*
X134607146Y-53963344D03*
X135293254Y-50735456D03*
X140029892Y-74511944D03*
X140716000Y-71284056D03*
X140626946Y-94069944D03*
X141313054Y-90842056D03*
X145935546Y-114745544D03*
X146621654Y-111517656D03*
X151345746Y-135319544D03*
X152031854Y-132091656D03*
X153310291Y-57747944D03*
X153996399Y-54520056D03*
D19*
X178651054Y-81446144D03*
X177964946Y-78218256D03*
X187287054Y-99048344D03*
X186600946Y-95820456D03*
X195758108Y-116701344D03*
X195072000Y-113473456D03*
X183985054Y-60795944D03*
X183298946Y-57568056D03*
X196913654Y-75908944D03*
X196227546Y-72681056D03*
X205803654Y-94095344D03*
X205117546Y-90867456D03*
X214465054Y-112738944D03*
X213778946Y-109511056D03*
X206591054Y-132423944D03*
X205904946Y-129196056D03*
X202527054Y-56909744D03*
X201840946Y-53681856D03*
X215785854Y-72886344D03*
X215099746Y-69658456D03*
X224574254Y-91148944D03*
X223888146Y-87921056D03*
X233134054Y-108700344D03*
X232447946Y-105472456D03*
X221272254Y-52871144D03*
X220586146Y-49643256D03*
X234505654Y-69558944D03*
X233819546Y-66331056D03*
X242989254Y-86322944D03*
X242303146Y-83095056D03*
X251650654Y-104687144D03*
X250964546Y-101459256D03*
X246342054Y-125819944D03*
X245655946Y-122592056D03*
X239788577Y-48900351D03*
X239102469Y-45672463D03*
X252692054Y-63970944D03*
X252005946Y-60743056D03*
D17*
X262128000Y-81621900D03*
X262128000Y-78321900D03*
X271673608Y-104648604D03*
X271673608Y-101348604D03*
X258445000Y-43941000D03*
X258445000Y-40641000D03*
X272186400Y-63930800D03*
X272186400Y-60630800D03*
X281178000Y-81621900D03*
X281178000Y-78321900D03*
X297886408Y-104648604D03*
X297886408Y-101348604D03*
X277520400Y-43941000D03*
X277520400Y-40641000D03*
X291211000Y-63930800D03*
X291211000Y-60630800D03*
X312166000Y-81621900D03*
X312166000Y-78321900D03*
X309784291Y-125795643D03*
X309784291Y-122495643D03*
X306120800Y-43941000D03*
X306120800Y-40641000D03*
X315087000Y-63930800D03*
X315087000Y-60630800D03*
X328803000Y-106704400D03*
X328803000Y-103404400D03*
X328808891Y-125795643D03*
X328808891Y-122495643D03*
X339547200Y-39927800D03*
X339547200Y-36627800D03*
X343712800Y-59104800D03*
X343712800Y-55804800D03*
X347878400Y-78256400D03*
X347878400Y-74956400D03*
X347909691Y-125795643D03*
X347909691Y-122495643D03*
D20*
X158757000Y-32131000D03*
X160757000Y-32131000D03*
X158757000Y-29845000D03*
X160757000Y-29845000D03*
D21*
X193421000Y-27820000D03*
X193421000Y-29820000D03*
D22*
X166577000Y-30038000D03*
X166577000Y-30988000D03*
X166577000Y-31938000D03*
X163877000Y-31938000D03*
X163877000Y-30988000D03*
X163877000Y-30038000D03*
D15*
X184785000Y-28435500D03*
X184785000Y-30510500D03*
D23*
X203429000Y-27056000D03*
X197129000Y-27056000D03*
X197129000Y-30856000D03*
X203429000Y-30856000D03*
D21*
X170942000Y-51070000D03*
X170942000Y-53070000D03*
D15*
X179324000Y-52747000D03*
X179324000Y-54822000D03*
D24*
X188874400Y-41169500D03*
X188874400Y-39094500D03*
D16*
X164325500Y-37211000D03*
X166400500Y-37211000D03*
D15*
X185420000Y-40237500D03*
X185420000Y-42312500D03*
D25*
X159319900Y-26289000D03*
X162294900Y-26289000D03*
D26*
X160766000Y-36195000D03*
X158766000Y-36195000D03*
D17*
X65318527Y-82947174D03*
X65318527Y-79647174D03*
D18*
X115938146Y-49899344D03*
X116624254Y-46671456D03*
D27*
X194838337Y-41548129D03*
X192326863Y-40098129D03*
X193476863Y-38106271D03*
X195988337Y-39556271D03*
D28*
X166391500Y-39497000D03*
X164316500Y-39497000D03*
D16*
X188192500Y-34671000D03*
X190267500Y-34671000D03*
D29*
X172250000Y-28885000D03*
X173050000Y-28885000D03*
D30*
X174250000Y-28885000D03*
X175250000Y-28885000D03*
X175750000Y-28885000D03*
X176750000Y-28885000D03*
D29*
X177950000Y-28885000D03*
X178750000Y-28885000D03*
D30*
X177250000Y-28885000D03*
X176250000Y-28885000D03*
X174750000Y-28885000D03*
X173750000Y-28885000D03*
D21*
X151892000Y-31258000D03*
X151892000Y-33258000D03*
D31*
X171418750Y-36464000D03*
X172218750Y-36464000D03*
X173018750Y-36464000D03*
X173818750Y-36464000D03*
X174618750Y-36464000D03*
X175418750Y-36464000D03*
X176218750Y-36464000D03*
X177018750Y-36464000D03*
X177818750Y-36464000D03*
X178618750Y-36464000D03*
X179418750Y-36464000D03*
D32*
X181118750Y-38164000D03*
X181118750Y-38964000D03*
X181118750Y-39764000D03*
X181118750Y-40564000D03*
X181118750Y-41364000D03*
X181118750Y-42164000D03*
X181118750Y-42964000D03*
X181118750Y-43764000D03*
X181118750Y-44564000D03*
X181118750Y-45364000D03*
X181118750Y-46164000D03*
D31*
X179418750Y-47864000D03*
X178618750Y-47864000D03*
X177818750Y-47864000D03*
X177018750Y-47864000D03*
X176218750Y-47864000D03*
X175418750Y-47864000D03*
X174618750Y-47864000D03*
X173818750Y-47864000D03*
X173018750Y-47864000D03*
X172218750Y-47864000D03*
X171418750Y-47864000D03*
D32*
X169718750Y-46164000D03*
X169718750Y-45364000D03*
X169718750Y-44564000D03*
X169718750Y-43764000D03*
X169718750Y-42964000D03*
X169718750Y-42164000D03*
X169718750Y-41364000D03*
X169718750Y-40564000D03*
X169718750Y-39764000D03*
X169718750Y-38964000D03*
X169718750Y-38164000D03*
D21*
X135763000Y-26686000D03*
X135763000Y-28686000D03*
X130302000Y-26686000D03*
X130302000Y-28686000D03*
X141224000Y-26686000D03*
X141224000Y-28686000D03*
M02*
