M48
; DRILL file {KiCad (5.99.0-11496-g396213fa30)} date Fri Jul 23 07:48:56 2021
; FORMAT={-:-/ absolute / metric / decimal}
; #@! TF.CreationDate,2021-07-23T07:48:56-04:00
; #@! TF.GenerationSoftware,Kicad,Pcbnew,(5.99.0-11496-g396213fa30)
; #@! TF.FileFunction,Plated,1,2,PTH
FMAT,2
METRIC
; #@! TA.AperFunction,Plated,PTH,ViaDrill
T1C0.400
; #@! TA.AperFunction,Plated,PTH,ViaDrill
T2C0.500
; #@! TA.AperFunction,Plated,PTH,ComponentDrill
T3C0.600
; #@! TA.AperFunction,Plated,PTH,ComponentDrill
T4C2.200
%
G90
G05
T1
X28.6Y-27.1
X28.7Y-125.5
X31.2Y-37.6
X45.593Y-109.855
X52.07Y-71.755
X52.705Y-90.805
X53.213Y-33.655
X53.721Y-52.705
X72.263Y-33.655
X72.484Y-127.533
X77.597Y-52.705
X78.232Y-71.755
X83.693Y-90.805
X91.313Y-32.131
X98.962Y-54.309
X99.735Y-73.97
X105.069Y-94.544
X105.831Y-114.229
X106.1Y-128.1
X112.308Y-37.648
X117.642Y-58.222
X118.404Y-77.907
X123.738Y-98.481
X130.302Y-30.353
X130.977Y-41.712
X135.763Y-30.353
X136.311Y-62.286
X137.073Y-81.844
X138.343Y-121.087
X141.224Y-30.353
X141.935Y-136.5
X142.28Y-102.545
X143.154Y-35.712
X146.507Y-132.74
X149.479Y-45.688
X149.657Y-34.265
X150.763Y-43.307
X151.384Y-42.037
X151.839Y-43.42
X152.527Y-42.164
X154.051Y-33.274
X154.98Y-66.223
X155.615Y-85.781
X160.909Y-39.751
X160.949Y-106.482
X162.306Y-28.956
X162.306Y-30.988
X166.41Y-127.056
X167.513Y-34.798
X168.148Y-49.53
X169.799Y-36.83
X170.663Y-57.81
X171.425Y-80.162
X173.736Y-31.852
X175.768Y-80.137
X176.174Y-57.81
X176.849Y-32.653
X177.832Y-54.007
X178.181Y-46.101
X179.197Y-46.101
X179.324Y-56.642
X183.261Y-34.761
X184.404Y-34.761
X185.547Y-34.759
X186.989Y-32.176
X187.0Y-140.5
X188.976Y-31.318
X188.976Y-67.691
X192.532Y-34.671
X194.269Y-47.156
X196.088Y-45.599
X197.231Y-45.593
X197.571Y-85.383
X198.374Y-45.593
X203.136Y-36.767
X206.207Y-103.036
X206.654Y-56.896
X207.604Y-63.793
X212.811Y-43.219
X216.281Y-81.407
X217.129Y-120.181
X217.576Y-26.34
X217.728Y-70.943
X220.243Y-27.559
X224.876Y-99.099
X226.273Y-59.729
X226.517Y-91.135
X228.473Y-125.857
X229.127Y-112.764
X230.0Y-131.4
X231.607Y-39.155
X234.909Y-77.382
X243.418Y-95.035
X244.815Y-55.919
X246.471Y-25.871
X246.471Y-28.004
X250.149Y-35.218
X253.451Y-73.572
X256.626Y-111.799
X260.25Y-127.6
X261.96Y-91.098
X263.357Y-51.982
X271.336Y-32.258
X275.082Y-71.755
X284.607Y-90.805
X285.115Y-52.705
X288.909Y-25.803
X288.909Y-27.937
X290.449Y-33.655
X294.132Y-71.755
X300.888Y-127.61
X304.165Y-52.705
X310.769Y-90.805
X319.024Y-33.655
X322.707Y-114.554
X325.12Y-71.755
X325.831Y-25.832
X328.041Y-52.705
X333.312Y-59.309
X336.956Y-26.34
X341.757Y-95.631
X341.757Y-114.554
X352.425Y-28.829
X356.616Y-47.879
X358.369Y-40.945
X358.521Y-103.048
X359.435Y-50.952
X359.448Y-53.766
X360.102Y-54.432
X360.165Y-51.546
X360.807Y-66.929
X360.807Y-114.554
X362.356Y-111.938
T2
X29.235Y-114.071
X85.852Y-28.042
X102.413Y-31.877
X125.954Y-29.246
X131.806Y-29.245
X137.292Y-29.246
X147.676Y-30.048
X155.829Y-38.354
X156.972Y-26.289
X160.477Y-45.72
X162.687Y-37.211
X162.687Y-39.497
X169.037Y-32.131
X170.942Y-54.737
X171.577Y-46.101
X171.958Y-38.989
X171.958Y-44.45
X173.05Y-31.013
X174.625Y-33.655
X174.625Y-38.989
X177.952Y-31.013
X179.324Y-49.974
X180.975Y-47.879
X181.966Y-34.747
X182.499Y-26.797
X183.083Y-40.564
X183.642Y-31.623
X184.785Y-26.797
X186.715Y-35.814
X191.008Y-29.286
X191.008Y-31.521
X191.941Y-27.82
X325.831Y-28.118
X358.546Y-108.814
X362.471Y-87.836
T4
X51.197Y-114.92
X56.865Y-48.245
X109.959Y-120.609
X121.827Y-27.933
X229.193Y-27.933
X241.06Y-120.609
X341.18Y-43.483
X345.45Y-110.158
T3
X171.18Y-22.99G85X171.18Y-23.59
G05
X171.18Y-26.92G85X171.18Y-28.02
G05
X179.82Y-22.99G85X179.82Y-23.59
G05
X179.82Y-26.92G85X179.82Y-28.02
G05
T0
M30
