0
SECTION
2
HEADER
9
$INSUNITS
70
4
9
$ACADVER
1
AC1014
9
$HANDSEED
5
FFFF
0
ENDSEC
0
SECTION
2
TABLES
0
TABLE
2
VPORT
5
8
100
AcDbSymbolTable
0
ENDTAB
0
TABLE
2
LTYPE
5
5
100
AcDbSymbolTable
0
LTYPE
5
14
100
AcDbSymbolTableRecord
100
AcDbLinetypeTableRecord
2
BYBLOCK
70
0
0
LTYPE
5
15
100
AcDbSymbolTableRecord
100
AcDbLinetypeTableRecord
2
BYLAYER
70
0
0
ENDTAB
0
TABLE
2
LAYER
5
2
100
AcDbSymbolTable
70
2
0
LAYER
5
50
100
AcDbSymbolTableRecord
100
AcDbLayerTableRecord
2
0
70
0
6
CONTINUOUS
0
ENDTAB
0
TABLE
2
STYLE
5
3
100
AcDbSymbolTable
70
1
0
STYLE
5
11
100
AcDbSymbolTableRecord
100
AcDbTextStyleTableRecord
2
STANDARD
70
0
0
ENDTAB
0
TABLE
2
VIEW
5
6
100
AcDbSymbolTable
70
0
0
ENDTAB
0
TABLE
2
UCS
5
7
100
AcDbSymbolTable
70
0
0
ENDTAB
0
TABLE
2
APPID
5
9
100
AcDbSymbolTable
70
2
0
APPID
5
12
100
AcDbSymbolTableRecord
100
AcDbRegAppTableRecord
2
ACAD
70
0
0
ENDTAB
0
TABLE
2
DIMSTYLE
5
A
100
AcDbSymbolTable
70
1
0
ENDTAB
0
TABLE
2
BLOCK_RECORD
5
1
100
AcDbSymbolTable
70
1
0
BLOCK_RECORD
5
1F
100
AcDbSymbolTableRecord
100
AcDbBlockTableRecord
2
*MODEL_SPACE
0
BLOCK_RECORD
5
1B
100
AcDbSymbolTableRecord
100
AcDbBlockTableRecord
2
*PAPER_SPACE
0
ENDTAB
0
ENDSEC
0
SECTION
2
BLOCKS
0
BLOCK
5
20
100
AcDbEntity
100
AcDbBlockBegin
2
*MODEL_SPACE
0
ENDBLK
5
21
100
AcDbEntity
100
AcDbBlockEnd
0
BLOCK
5
1C
100
AcDbEntity
100
AcDbBlockBegin
2
*PAPER_SPACE
0
ENDBLK
5
1D
100
AcDbEntity
100
AcDbBlockEnd
0
ENDSEC
0
SECTION
2
ENTITIES
0
LWPOLYLINE
5
100
100
AcDbEntity
8
0
100
AcDbPolyline
90
8
70
1
43
0.0
10
275.6500695891429
20
-29.098776340188081
10
285.14832436824173
20
-29.098776396725619
10
285.14832436824173
20
-89.278363897493051
42
-0.41421356237310025
10
283.14832436824179
20
-91.278363897493051
10
86.158229432677658
20
-91.278363897493051
10
86.158229432677658
20
-81.776685148021286
10
273.65006958914296
20
-81.776685148021286
42
0.41421356237309764
10
275.6500695891429
20
-79.776685148021315
0
LWPOLYLINE
5
101
100
AcDbEntity
8
0
100
AcDbPolyline
90
8
70
1
43
0.0
10
272.64832436873968
20
60.58113300219793
10
-82.439124275798349
20
60.58113300219793
42
0.41421356237351648
10
-84.439124275298212
20
58.581133002695182
10
-84.439124275298212
20
-78.778363897493023
42
0.41421356237310025
10
-82.439124275298212
20
-80.778363897493023
10
272.64832436824173
20
-80.778363897493023
42
0.41421356237310936
10
274.64832436824179
20
-78.778363897493037
10
274.64832436824179
20
58.581133002695168
42
0.4142135623731939
0
SPLINE
5
102
100
AcDbEntity
8
0
100
AcDbSpline
70
0
71
3
72
8
73
4
74
0
42
0.000000001
43
0.0000000001
44
0.0000000001
40
0
40
0
40
0
40
0
40
1
40
1
40
1
40
1
10
167.24573422080951
20
-49.567205590523287
30
0
10
168.05605911527022
20
-49.39496604196556
30
0
10
168.57332904737061
20
-48.598439650020566
30
0
10
168.40108836914919
20
-47.78811499567724
30
0
0
LINE
5
103
100
AcDbEntity
8
0
100
AcDbLine
10
168.40108836914919
20
-47.78811499567724
30
0
11
164.78358795724401
21
-30.769198203489402
31
0
0
SPLINE
5
104
100
AcDbEntity
8
0
100
AcDbSpline
70
0
71
3
72
8
73
4
74
0
42
0.000000001
43
0.0000000001
44
0.0000000001
40
2
40
2
40
2
40
2
40
3
40
3
40
3
40
3
10
164.78358795724401
20
-30.769198203489402
30
0
10
164.75016496857671
20
-30.611956185988891
30
0
10
164.8700814232291
20
-30.463871544130193
30
0
10
165.03083635546759
20
-30.463871544130193
30
0
0
LINE
5
105
100
AcDbEntity
8
0
100
AcDbLine
10
165.03083635546759
20
-30.463871544130193
30
0
11
189.44814573980548
21
-30.463871544130193
31
0
0
LINE
5
106
100
AcDbEntity
8
0
100
AcDbLine
10
189.44814573980548
20
-30.463871544130193
30
0
11
192.18159215703673
21
-30.463871544130193
31
0
0
LINE
5
107
100
AcDbEntity
8
0
100
AcDbLine
10
192.18159215703673
20
-30.463871544130193
30
0
11
220.78613384367901
21
-30.463871544130193
31
0
0
SPLINE
5
108
100
AcDbEntity
8
0
100
AcDbSpline
70
0
71
3
72
8
73
4
74
0
42
0.000000001
43
0.0000000001
44
0.0000000001
40
6
40
6
40
6
40
6
40
7
40
7
40
7
40
7
10
220.78613384367901
20
-30.463871544130193
30
0
10
221.61456986359229
20
-30.463871544130193
30
0
10
222.2861499498035
20
-29.792291457919013
30
0
10
222.2861499498035
20
-28.963855438005627
30
0
0
LINE
5
109
100
AcDbEntity
8
0
100
AcDbLine
10
222.2861499498035
20
-28.963855438005627
30
0
11
222.2861499498035
21
-11.662194861178911
31
0
0
SPLINE
5
110
100
AcDbEntity
8
0
100
AcDbSpline
70
0
71
3
72
8
73
4
74
0
42
0.000000001
43
0.0000000001
44
0.0000000001
40
8
40
8
40
8
40
8
40
9
40
9
40
9
40
9
10
222.2861499498035
20
-11.662194861178911
30
0
10
222.2861499498035
20
-11.524577522808109
30
0
10
222.39771279662961
20
-11.413017659298642
30
0
10
222.5353301349503
20
-11.413021339395142
30
0
0
LINE
5
111
100
AcDbEntity
8
0
100
AcDbLine
10
222.5353301349503
20
-11.413021339395142
30
0
11
239.83559849486659
21
-11.413483974578959
31
0
0
SPLINE
5
112
100
AcDbEntity
8
0
100
AcDbSpline
70
0
71
3
72
8
73
4
74
0
42
0.000000001
43
0.0000000001
44
0.0000000001
40
10
40
10
40
10
40
10
40
11
40
11
40
11
40
11
10
239.83559849486659
20
-11.413483974578959
30
0
10
240.66403828727348
20
-11.413506128303981
30
0
10
241.33563318071822
20
-10.741929194076141
30
0
10
241.33563318071822
20
-9.9134894013741022
30
0
0
LINE
5
113
100
AcDbEntity
8
0
100
AcDbLine
10
241.33563318071822
20
-9.9134894013741022
30
0
11
241.33563318071822
21
7.1365250054419533
31
0
0
SPLINE
5
114
100
AcDbEntity
8
0
100
AcDbSpline
70
0
71
3
72
8
73
4
74
0
42
0.000000001
43
0.0000000001
44
0.0000000001
40
12
40
12
40
12
40
12
40
13
40
13
40
13
40
13
10
241.33563318071822
20
7.1365250054419551
30
0
10
241.33563318071822
20
7.9649279598230684
30
0
10
240.66409577903858
20
8.6364896348738451
30
0
10
239.83569282519909
20
8.6365195777625523
30
0
0
LINE
5
115
100
AcDbEntity
8
0
100
AcDbLine
10
239.83569282519909
20
8.6365195777625523
30
0
11
237.31123301641901
21
8.6366108251636469
31
0
0
SPLINE
5
116
100
AcDbEntity
8
0
100
AcDbSpline
70
0
71
3
72
8
73
4
74
0
42
0.000000001
43
0.0000000001
44
0.0000000001
40
14
40
14
40
14
40
14
40
15
40
15
40
15
40
15
10
237.31123301641901
20
8.6366108251636469
30
0
10
237.17572020505622
20
8.6366157233165843
30
0
10
237.06586796368669
20
8.746471935401674
30
0
10
237.06586796368669
20
8.8819847468530391
30
0
0
LINE
5
117
100
AcDbEntity
8
0
100
AcDbLine
10
237.06586796368669
20
8.8819847468530391
30
0
11
237.06586796368669
21
26.185882973427663
31
0
0
SPLINE
5
118
100
AcDbEntity
8
0
100
AcDbSpline
70
0
71
3
72
8
73
4
74
0
42
0.000000001
43
0.0000000001
44
0.0000000001
40
16
40
16
40
16
40
16
40
17
40
17
40
17
40
17
10
237.06586796368669
20
26.185882973427663
30
0
10
237.06586796368669
20
27.014348267462562
30
0
10
236.39433867152619
20
27.685991475581766
30
0
10
235.56587338940892
20
27.68613200171643
30
0
0
LINE
5
119
100
AcDbEntity
8
0
100
AcDbLine
10
235.56587338940892
20
27.68613200171643
30
0
11
233.144713349668
21
27.686542684294054
31
0
0
SPLINE
5
120
100
AcDbEntity
8
0
100
AcDbSpline
70
0
71
3
72
8
73
4
74
0
42
0.000000001
43
0.0000000001
44
0.0000000001
40
18
40
18
40
18
40
18
40
19
40
19
40
19
40
19
10
233.144713349668
20
27.686542684294054
30
0
10
233.00590088305501
20
27.686566229977231
30
0
10
232.89338363041992
20
27.799102569657606
30
0
10
232.89338363041992
20
27.937915038267533
30
0
0
LINE
5
121
100
AcDbEntity
8
0
100
AcDbLine
10
232.89338363041992
20
27.937915038267533
30
0
11
232.89338363041992
21
45.236137422676151
31
0
0
SPLINE
5
122
100
AcDbEntity
8
0
100
AcDbSpline
70
0
71
3
72
8
73
4
74
0
42
0.000000001
43
0.0000000001
44
0.0000000001
40
20
40
20
40
20
40
20
40
21
40
21
40
21
40
21
10
232.89338363041992
20
45.236137422676151
30
0
10
232.89338363041992
20
46.064561550877691
30
0
10
232.22181318434437
20
46.73613199695393
30
0
10
231.39338905614221
20
46.73613199695393
30
0
0
LINE
5
123
100
AcDbEntity
8
0
100
AcDbLine
10
231.39338905614221
20
46.73613199695393
30
0
11
175.74338364470745
21
46.73613199695393
31
0
0
LINE
5
124
100
AcDbEntity
8
0
100
AcDbLine
10
175.74338364470745
20
46.73613199695393
30
0
11
175.74338364470745
21
46.736519570194737
31
0
0
SPLINE
5
125
100
AcDbEntity
8
0
100
AcDbSpline
70
0
71
3
72
8
73
4
74
0
42
0.000000001
43
0.0000000001
44
0.0000000001
40
23
40
23
40
23
40
23
40
24
40
24
40
24
40
24
10
175.74338364470745
20
46.736519570194737
30
0
10
175.74338364470745
20
47.564943698371884
30
0
10
175.07181319863182
20
48.236514144472523
30
0
10
174.24338907042969
20
48.236514144472523
30
0
0
LINE
5
126
100
AcDbEntity
8
0
100
AcDbLine
10
174.24338907042969
20
48.236514144472523
30
0
11
157.19337466361361
21
48.236514144472523
31
0
0
SPLINE
5
127
100
AcDbEntity
8
0
100
AcDbSpline
70
0
71
3
72
8
73
4
74
0
42
0.000000001
43
0.0000000001
44
0.0000000001
40
25
40
25
40
25
40
25
40
26
40
26
40
26
40
26
10
157.19337466361361
20
48.236514144472523
30
0
10
156.36495053541009
20
48.236514144472523
30
0
10
155.69338008933582
20
47.564943698400135
30
0
10
155.69338008933582
20
46.736519570194737
30
0
0
LINE
5
128
100
AcDbEntity
8
0
100
AcDbLine
10
155.69338008933582
20
46.736519570194737
30
0
11
155.69338008933582
21
46.377583684328478
31
0
0
LINE
5
129
100
AcDbEntity
8
0
100
AcDbLine
10
155.69338008933582
20
46.377583684328478
30
0
11
79.314211114467582
21
30.142699870447629
31
0
0
SPLINE
5
130
100
AcDbEntity
8
0
100
AcDbSpline
70
0
71
3
72
8
73
4
74
0
42
0.000000001
43
0.0000000001
44
0.0000000001
40
28
40
28
40
28
40
28
40
29
40
29
40
29
40
29
10
79.314211114467582
20
30.142699870447633
30
0
10
78.50388672023827
20
29.970460206567605
30
0
10
77.986617201353553
20
29.17393422939633
30
0
10
78.15885777663361
20
28.363610028890811
30
0
0
LINE
5
131
100
AcDbEntity
8
0
100
AcDbLine
10
78.15885777663361
20
28.363610028890811
30
0
11
81.756573106650563
21
11.437773629895888
31
0
0
SPLINE
5
132
100
AcDbEntity
8
0
100
AcDbSpline
70
0
71
3
72
8
73
4
74
0
42
0.000000001
43
0.0000000001
44
0.0000000001
40
30
40
30
40
30
40
30
40
31
40
31
40
31
40
31
10
81.756573106650563
20
11.43777362989589
30
0
10
81.784827301171873
20
11.304848751136721
30
0
10
81.699974815513414
20
11.174187333062722
30
0
10
81.567049889625295
20
11.14593336025866
30
0
0
LINE
5
133
100
AcDbEntity
8
0
100
AcDbLine
10
81.567049889625295
20
11.14593336025866
30
0
11
73.957994469306783
21
9.5285839919328978
31
0
0
SPLINE
5
134
100
AcDbEntity
8
0
100
AcDbSpline
70
0
71
3
72
8
73
4
74
0
42
0.000000001
43
0.0000000001
44
0.0000000001
40
32
40
32
40
32
40
32
40
33
40
33
40
33
40
33
10
73.957994469306783
20
9.5285839919328961
30
0
10
73.147669189060153
20
9.3563445998226804
30
0
10
72.630398650277328
20
8.559818222108003
30
0
10
72.802638746875857
20
7.7494930916060278
30
0
0
LINE
5
135
100
AcDbEntity
8
0
100
AcDbLine
10
72.802638746875857
20
7.7494930916060278
30
0
11
76.347534243298952
21
-8.9279122424553456
31
0
0
SPLINE
5
136
100
AcDbEntity
8
0
100
AcDbSpline
70
0
71
3
72
8
73
4
74
0
42
0.000000001
43
0.0000000001
44
0.0000000001
40
34
40
34
40
34
40
34
40
35
40
35
40
35
40
35
10
76.347534243298952
20
-8.9279122424553456
30
0
10
76.519774231844039
20
-9.738236864600772
30
0
10
77.316299775618205
20
-10.255507040954893
30
0
10
78.126624601998458
20
-10.08326801325657
30
0
0
LINE
5
137
100
AcDbEntity
8
0
100
AcDbLine
10
78.126624601998458
20
-10.08326801325657
30
0
11
81.077024008837512
21
-9.4561442863103355
31
0
0
SPLINE
5
138
100
AcDbEntity
8
0
100
AcDbSpline
70
0
71
3
72
8
73
4
74
0
42
0.000000001
43
0.0000000001
44
0.0000000001
40
36
40
36
40
36
40
36
40
37
40
37
40
37
40
37
10
81.077024008837512
20
-9.4561442863103355
30
0
10
81.209998456765788
20
-9.4278798312754706
30
0
10
81.340708432041851
20
-9.5127639869800014
30
0
10
81.368972997467225
20
-9.6457384114413554
30
0
0
LINE
5
139
100
AcDbEntity
8
0
100
AcDbLine
10
81.368972997467225
20
-9.6457384114413554
30
0
11
84.966646369495805
21
-26.571473473814233
31
0
0
SPLINE
5
140
100
AcDbEntity
8
0
100
AcDbSpline
70
0
71
3
72
8
73
4
74
0
42
0.000000001
43
0.0000000001
44
0.0000000001
40
38
40
38
40
38
40
38
40
39
40
39
40
39
40
39
10
84.966646369495805
20
-26.571473473814233
30
0
10
85.13888589690697
20
-27.38179734337502
30
0
10
85.935410083319226
20
-27.899067595272516
30
0
10
86.745734325735384
20
-27.726829822023952
30
0
0
LINE
5
141
100
AcDbEntity
8
0
100
AcDbLine
10
86.745734325735384
20
-27.726829822023952
30
0
11
89.695373930056306
21
-27.099871709776203
31
0
0
SPLINE
5
142
100
AcDbEntity
8
0
100
AcDbSpline
70
0
71
3
72
8
73
4
74
0
42
0.000000001
43
0.0000000001
44
0.0000000001
40
40
40
40
40
40
40
40
40
41
40
41
40
41
40
41
10
89.695373930056306
20
-27.099871709776203
30
0
10
89.828775775841351
20
-27.071516595042873
30
0
10
89.959905774928814
20
-27.156673536733127
30
0
10
89.9882613293004
20
-27.290075289071716
30
0
0
LINE
5
143
100
AcDbEntity
8
0
100
AcDbLine
10
89.9882613293004
20
-27.290075289071716
30
0
11
93.637746477853199
21
-44.459470306817217
31
0
0
SPLINE
5
144
100
AcDbEntity
8
0
100
AcDbSpline
70
0
71
3
72
8
73
4
74
0
42
0.000000001
43
0.0000000001
44
0.0000000001
40
42
40
42
40
42
40
42
40
43
40
43
40
43
40
43
10
93.637746477853199
20
-44.459470306817217
30
0
10
93.666462001486494
20
-44.594565573230526
30
0
10
93.580224106801566
20
-44.727360435368297
30
0
10
93.445128813676888
20
-44.756075833338961
30
0
0
LINE
5
145
100
AcDbEntity
8
0
100
AcDbLine
10
93.445128813676888
20
-44.756075833338961
30
0
11
85.840127221647577
21
-46.372569215426857
31
0
0
SPLINE
5
146
100
AcDbEntity
8
0
100
AcDbSpline
70
0
71
3
72
8
73
4
74
0
42
0.000000001
43
0.0000000001
44
0.0000000001
40
44
40
44
40
44
40
44
40
45
40
45
40
45
40
45
10
85.840127221647577
20
-46.372569215426857
30
0
10
85.029802765450654
20
-46.544809037461327
30
0
10
84.512533015663408
20
-47.341334823144471
30
0
10
84.684772963261693
20
-48.151659252653118
30
0
0
LINE
5
147
100
AcDbEntity
8
0
100
AcDbLine
10
84.684772963261693
20
-48.151659252653118
30
0
11
88.229672302394249
21
-64.829082665221961
31
0
0
SPLINE
5
148
100
AcDbEntity
8
0
100
AcDbSpline
70
0
71
3
72
8
73
4
74
0
42
0.000000001
43
0.0000000001
44
0.0000000001
40
46
40
46
40
46
40
46
40
47
40
47
40
47
40
47
10
88.229672302394249
20
-64.829082665221961
30
0
10
88.401909826868916
20
-65.639395694841951
30
0
10
89.198424320852581
20
-66.156658182779125
30
0
10
90.008737398779658
20
-65.984420885564717
30
0
0
LINE
5
149
100
AcDbEntity
8
0
100
AcDbLine
10
90.008737398779658
20
-65.984420885564717
30
0
11
167.24573422080951
21
-49.567205590523287
31
0
0
SPLINE
5
150
100
AcDbEntity
8
0
100
AcDbSpline
70
0
71
3
72
8
73
4
74
0
42
0.000000001
43
0.0000000001
44
0.0000000001
40
0
40
0
40
0
40
0
40
1
40
1
40
1
40
1
10
263.64833238710844
20
-54.276371538177074
30
0
10
264.47675651531057
20
-54.276371538177074
30
0
10
265.14832696138615
20
-53.604801092101475
30
0
10
265.14832696138615
20
-52.776376963899295
30
0
0
LINE
5
151
100
AcDbEntity
8
0
100
AcDbLine
10
265.14832696138615
20
-52.776376963899295
30
0
11
265.14832696138615
21
-35.726362557083235
31
0
0
SPLINE
5
152
100
AcDbEntity
8
0
100
AcDbSpline
70
0
71
3
72
8
73
4
74
0
42
0.000000001
43
0.0000000001
44
0.0000000001
40
2
40
2
40
2
40
2
40
3
40
3
40
3
40
3
10
265.14832696138615
20
-35.726362557083235
30
0
10
265.14832696138615
20
-34.897938428881048
30
0
10
264.47675651531057
20
-34.226367982805449
30
0
10
263.64833238710844
20
-34.226367982805449
30
0
0
LINE
5
153
100
AcDbEntity
8
0
100
AcDbLine
10
263.64833238710844
20
-34.226367982805449
30
0
11
246.3436788841679
21
-34.226367982805449
31
0
0
SPLINE
5
154
100
AcDbEntity
8
0
100
AcDbSpline
70
0
71
3
72
8
73
4
74
0
42
0.000000001
43
0.0000000001
44
0.0000000001
40
4
40
4
40
4
40
4
40
5
40
5
40
5
40
5
10
246.3436788841679
20
-34.226367982805449
30
0
10
246.20817476150387
20
-34.226367982805449
30
0
10
246.09832696614862
20
-34.116520187450305
30
0
10
246.09832696614862
20
-33.981016064786175
30
0
0
LINE
5
155
100
AcDbEntity
8
0
100
AcDbLine
10
246.09832696614862
20
-33.981016064786175
30
0
11
246.09832696614862
21
-16.676362561845728
31
0
0
SPLINE
5
156
100
AcDbEntity
8
0
100
AcDbSpline
70
0
71
3
72
8
73
4
74
0
42
0.000000001
43
0.0000000001
44
0.0000000001
40
6
40
6
40
6
40
6
40
7
40
7
40
7
40
7
10
246.09832696614862
20
-16.676362561845728
30
0
10
246.09832696614862
20
-15.847938433643552
30
0
10
245.42675652007304
20
-15.176367987567952
30
0
10
244.59833239187091
20
-15.176367987567952
30
0
0
LINE
5
157
100
AcDbEntity
8
0
100
AcDbLine
10
244.59833239187091
20
-15.176367987567952
30
0
11
227.54831798505481
21
-15.176367987567952
31
0
0
SPLINE
5
158
100
AcDbEntity
8
0
100
AcDbSpline
70
0
71
3
72
8
73
4
74
0
42
0.000000001
43
0.0000000001
44
0.0000000001
40
8
40
8
40
8
40
8
40
9
40
9
40
9
40
9
10
227.54831798505481
20
-15.176367987567952
30
0
10
226.71989385685134
20
-15.176367987567952
30
0
10
226.04832341077702
20
-15.847938433643552
30
0
10
226.04832341077702
20
-16.676362561845728
30
0
0
LINE
5
159
100
AcDbEntity
8
0
100
AcDbLine
10
226.04832341077702
20
-16.676362561845728
30
0
11
226.04832341077702
21
-33.978763210623804
31
0
0
SPLINE
5
160
100
AcDbEntity
8
0
100
AcDbSpline
70
0
71
3
72
8
73
4
74
0
42
0.000000001
43
0.0000000001
44
0.0000000001
40
10
40
10
40
10
40
10
40
11
40
11
40
11
40
11
10
226.04832341077702
20
-33.978763210623804
30
0
10
226.04832341077702
20
-34.115511550284801
30
0
10
225.93746697825645
20
-34.226367982805449
30
0
10
225.80071863859541
20
-34.226367982805449
30
0
0
LINE
5
161
100
AcDbEntity
8
0
100
AcDbLine
10
225.80071863859541
20
-34.226367982805449
30
0
11
208.49831798981734
21
-34.226367982805449
31
0
0
SPLINE
5
162
100
AcDbEntity
8
0
100
AcDbSpline
70
0
71
3
72
8
73
4
74
0
42
0.000000001
43
0.0000000001
44
0.0000000001
40
12
40
12
40
12
40
12
40
13
40
13
40
13
40
13
10
208.49831798981734
20
-34.226367982805449
30
0
10
207.66989386161384
20
-34.226367982805449
30
0
10
206.99832341553955
20
-34.897938428881048
30
0
10
206.99832341553955
20
-35.726362557083235
30
0
0
LINE
5
163
100
AcDbEntity
8
0
100
AcDbLine
10
206.99832341553955
20
-35.726362557083235
30
0
11
206.99832341553955
21
-52.776376963899295
31
0
0
SPLINE
5
164
100
AcDbEntity
8
0
100
AcDbSpline
70
0
71
3
72
8
73
4
74
0
42
0.000000001
43
0.0000000001
44
0.0000000001
40
14
40
14
40
14
40
14
40
15
40
15
40
15
40
15
10
206.99832341553955
20
-52.776376963899295
30
0
10
206.99832341553955
20
-53.604801092101475
30
0
10
207.66989386161384
20
-54.276371538177074
30
0
10
208.49831798981734
20
-54.276371538177074
30
0
0
LINE
5
165
100
AcDbEntity
8
0
100
AcDbLine
10
208.49831798981734
20
-54.276371538177074
30
0
11
263.64833238710844
21
-54.276371538177074
31
0
0
SPLINE
5
166
100
AcDbEntity
8
0
100
AcDbSpline
70
0
71
3
72
8
73
4
74
0
42
0.000000001
43
0.0000000001
44
0.0000000001
40
0
40
0
40
0
40
0
40
1
40
1
40
1
40
1
10
245.09832340601452
20
-5.1513769758055341
30
0
10
245.09832340601452
20
-5.9798129957189197
30
0
10
245.76990349222569
20
-6.6513930819275293
30
0
10
246.59833951213912
20
-6.6513930819275293
30
0
0
LINE
5
167
100
AcDbEntity
8
0
100
AcDbLine
10
246.59833951213912
20
-6.6513930819275293
30
0
11
263.64831085526163
21
-6.6513930819275293
31
0
0
SPLINE
5
168
100
AcDbEntity
8
0
100
AcDbSpline
70
0
71
3
72
8
73
4
74
0
42
0.000000001
43
0.0000000001
44
0.0000000001
40
2
40
2
40
2
40
2
40
3
40
3
40
3
40
3
10
263.64831085526163
20
-6.6513930819275293
30
0
10
264.47674687517508
20
-6.6513930819275293
30
0
10
265.14832696138615
20
-5.9798129957189197
30
0
10
265.14832696138615
20
-5.1513769758055341
30
0
0
LINE
5
169
100
AcDbEntity
8
0
100
AcDbLine
10
265.14832696138615
20
-5.1513769758055341
30
0
11
265.14832696138615
21
11.898542299501397
31
0
0
SPLINE
5
170
100
AcDbEntity
8
0
100
AcDbSpline
70
0
71
3
72
8
73
4
74
0
42
0.000000001
43
0.0000000001
44
0.0000000001
40
4
40
4
40
4
40
4
40
5
40
5
40
5
40
5
10
265.14832696138615
20
11.898542299501401
30
0
10
265.14832696138615
20
12.726978333656652
30
0
10
264.47676842026641
20
13.39856982588344
30
0
10
263.64833238710844
20
13.39861047344024
30
0
0
LINE
5
171
100
AcDbEntity
8
0
100
AcDbLine
10
263.64833238710844
20
13.39861047344024
30
0
11
261.12448675019232
21
13.398734306978222
31
0
0
SPLINE
5
172
100
AcDbEntity
8
0
100
AcDbSpline
70
0
71
3
72
8
73
4
74
0
42
0.000000001
43
0.0000000001
44
0.0000000001
40
6
40
6
40
6
40
6
40
7
40
7
40
7
40
7
10
261.12448675019232
20
13.398734306978222
30
0
10
260.98855714110766
20
13.398740976422001
30
0
10
260.87836795773359
20
13.508935566406961
30
0
10
260.87836795773359
20
13.644865175654541
30
0
0
LINE
5
173
100
AcDbEntity
8
0
100
AcDbLine
10
260.87836795773359
20
13.644865175654541
30
0
11
260.87836795773359
21
30.948615894399968
31
0
0
SPLINE
5
174
100
AcDbEntity
8
0
100
AcDbSpline
70
0
71
3
72
8
73
4
74
0
42
0.000000001
43
0.0000000001
44
0.0000000001
40
8
40
8
40
8
40
8
40
9
40
9
40
9
40
9
10
260.87836795773359
20
30.948615894399968
30
0
10
260.87836795773359
20
31.777022495677354
30
0
10
260.2068248647264
20
32.448585681487877
30
0
10
259.37841826382243
20
32.448610467337232
30
0
0
LINE
5
175
100
AcDbEntity
8
0
100
AcDbLine
10
259.37841826382243
20
32.448610467337232
30
0
11
256.95615867146319
21
32.448682941111009
31
0
0
SPLINE
5
176
100
AcDbEntity
8
0
100
AcDbSpline
70
0
71
3
72
8
73
4
74
0
42
0.000000001
43
0.0000000001
44
0.0000000001
40
10
40
10
40
10
40
10
40
11
40
11
40
11
40
11
10
256.95615867146319
20
32.448682941111009
30
0
10
256.81795815209387
20
32.448687076058548
30
0
10
256.70592668816039
20
32.560721892014755
30
0
10
256.70592668816039
20
32.698922411443178
30
0
0
LINE
5
177
100
AcDbEntity
8
0
100
AcDbLine
10
256.70592668816039
20
32.698922411443178
30
0
11
256.70592668816039
21
49.998615889637463
31
0
0
SPLINE
5
178
100
AcDbEntity
8
0
100
AcDbSpline
70
0
71
3
72
8
73
4
74
0
42
0.000000001
43
0.0000000001
44
0.0000000001
40
12
40
12
40
12
40
12
40
13
40
13
40
13
40
13
10
256.70592668816039
20
49.998615889637463
30
0
10
256.70592668816039
20
50.827051909550853
30
0
10
256.03434660194921
20
51.498631995763297
30
0
10
255.20591058203587
20
51.498631995763297
30
0
0
LINE
5
179
100
AcDbEntity
8
0
100
AcDbLine
10
255.20591058203587
20
51.498631995763297
30
0
11
238.15593923891331
21
51.498631995763297
31
0
0
SPLINE
5
180
100
AcDbEntity
8
0
100
AcDbSpline
70
0
71
3
72
8
73
4
74
0
42
0.000000001
43
0.0000000001
44
0.0000000001
40
14
40
14
40
14
40
14
40
15
40
15
40
15
40
15
10
238.15593923891331
20
51.498631995763297
30
0
10
237.32750321899994
20
51.498631995763297
30
0
10
236.65592313278881
20
50.827051909550853
30
0
10
236.65592313278881
20
49.998615889637463
30
0
0
LINE
5
181
100
AcDbEntity
8
0
100
AcDbLine
10
236.65592313278881
20
49.998615889637463
30
0
11
236.65592313278881
21
32.948623014669479
31
0
0
SPLINE
5
182
100
AcDbEntity
8
0
100
AcDbSpline
70
0
71
3
72
8
73
4
74
0
42
0.000000001
43
0.0000000001
44
0.0000000001
40
16
40
16
40
16
40
16
40
17
40
17
40
17
40
17
10
236.65592313278881
20
32.948623014669479
30
0
10
236.65592313278881
20
32.120085473417767
30
0
10
237.3276705994424
20
31.448468065652271
30
0
10
238.15620812516048
20
31.448628496623783
30
0
0
LINE
5
183
100
AcDbEntity
8
0
100
AcDbLine
10
238.15620812516048
20
31.448628496623783
30
0
11
240.5825448042327
21
31.449098311869271
31
0
0
SPLINE
5
184
100
AcDbEntity
8
0
100
AcDbSpline
70
0
71
3
72
8
73
4
74
0
42
0.000000001
43
0.0000000001
44
0.0000000001
40
18
40
18
40
18
40
18
40
19
40
19
40
19
40
19
10
240.5825448042327
20
31.449098311869271
30
0
10
240.71831141030049
20
31.449124600561728
30
0
10
240.82838593420871
20
31.339071388486055
30
0
10
240.82838593420871
20
31.20330477987196
30
0
0
LINE
5
185
100
AcDbEntity
8
0
100
AcDbLine
10
240.82838593420871
20
31.20330477987196
30
0
11
240.82838593420871
21
13.898368100357301
31
0
0
SPLINE
5
186
100
AcDbEntity
8
0
100
AcDbSpline
70
0
71
3
72
8
73
4
74
0
42
0.000000001
43
0.0000000001
44
0.0000000001
40
20
40
20
40
20
40
20
40
21
40
21
40
21
40
21
10
240.82838593420871
20
13.898368100357301
30
0
10
240.82838593420871
20
13.069981720574679
30
0
10
241.49999413873107
20
12.398478012948463
30
0
10
242.32838050848656
20
12.398606913309971
30
0
0
LINE
5
187
100
AcDbEntity
8
0
100
AcDbLine
10
242.32838050848656
20
12.398606913309971
30
0
11
244.84866807078919
21
12.398999080521689
31
0
0
SPLINE
5
188
100
AcDbEntity
8
0
100
AcDbSpline
70
0
71
3
72
8
73
4
74
0
42
0.000000001
43
0.0000000001
44
0.0000000001
40
22
40
22
40
22
40
22
40
23
40
23
40
23
40
23
10
244.84866807078919
20
12.398999080521689
30
0
10
244.98654262072634
20
12.3990205343738
30
0
10
245.09832340601452
20
12.287257141286982
30
0
10
245.09832340601452
20
12.149382589681462
30
0
0
LINE
5
189
100
AcDbEntity
8
0
100
AcDbLine
10
245.09832340601452
20
12.149382589681462
30
0
11
245.09832340601452
21
-5.1513769758055341
31
0
0
LINE
5
190
100
AcDbEntity
8
0
100
AcDbLine
10
-62.784985456692361
20
27.686626008846304
30
0
11
-65.448796652489207
21
27.68613200171643
31
0
0
SPLINE
5
191
100
AcDbEntity
8
0
100
AcDbSpline
70
0
71
3
72
8
73
4
74
0
42
0.000000001
43
0.0000000001
44
0.0000000001
40
1
40
1
40
1
40
1
40
2
40
2
40
2
40
2
10
-65.448796652489207
20
27.68613200171643
30
0
10
-66.139367358441987
20
27.686003934515128
30
0
10
-66.699117617110346
20
27.126149859831834
30
0
10
-66.699117617110346
20
26.435579142004713
30
0
0
LINE
5
192
100
AcDbEntity
8
0
100
AcDbLine
10
-66.699117617110346
20
26.435579142004713
30
0
11
-66.699117617110346
21
8.8913002139651276
31
0
0
SPLINE
5
193
100
AcDbEntity
8
0
100
AcDbSpline
70
0
71
3
72
8
73
4
74
0
42
0.000000001
43
0.0000000001
44
0.0000000001
40
3
40
3
40
3
40
3
40
4
40
4
40
4
40
4
10
-66.699117617110346
20
8.8913002139651276
30
0
10
-66.699117617110346
20
8.7505132277943964
30
0
10
-66.813241185498924
20
8.6363792131358323
30
0
10
-66.954028171079599
20
8.6363663268309026
30
0
0
LINE
5
194
100
AcDbEntity
8
0
100
AcDbLine
10
-66.954028171079599
20
8.6363663268309026
30
0
11
-69.514052388777884
21
8.6361320064789258
31
0
0
SPLINE
5
195
100
AcDbEntity
8
0
100
AcDbSpline
70
0
71
3
72
8
73
4
74
0
42
0.000000001
43
0.0000000001
44
0.0000000001
40
5
40
5
40
5
40
5
40
6
40
6
40
6
40
6
10
-69.514052388777884
20
8.6361320064789258
30
0
10
-70.204604101433119
20
8.6360687999192507
30
0
10
-70.764373353399051
20
8.0762483096396469
30
0
10
-70.764373353399051
20
7.3856965940906836
30
0
0
LINE
5
196
100
AcDbEntity
8
0
100
AcDbLine
10
-70.764373353399051
20
7.3856965940906836
30
0
11
-70.764373353399051
21
-10.165947600179619
31
0
0
SPLINE
5
197
100
AcDbEntity
8
0
100
AcDbSpline
70
0
71
3
72
8
73
4
74
0
42
0.000000001
43
0.0000000001
44
0.0000000001
40
7
40
7
40
7
40
7
40
8
40
8
40
8
40
8
10
-70.764373353399051
20
-10.165947600179619
30
0
10
-70.764373353399051
20
-10.302424787351132
30
0
10
-70.874998318673633
20
-10.41306756750107
30
0
10
-71.011475504077239
20
-10.413089543807859
30
0
0
LINE
5
198
100
AcDbEntity
8
0
100
AcDbLine
10
-71.011475504077239
20
-10.413089543807859
30
0
11
-73.438865574138831
21
-10.413480415517771
31
0
0
SPLINE
5
199
100
AcDbEntity
8
0
100
AcDbSpline
70
0
71
3
72
8
73
4
74
0
42
0.000000001
43
0.0000000001
44
0.0000000001
40
9
40
9
40
9
40
9
40
10
40
10
40
10
40
10
10
-73.438865574138831
20
-10.413480415517771
30
0
10
-74.26730337910783
20
-10.413480415517771
30
0
10
-74.938860148416609
20
-11.085058716669812
30
0
10
-74.938860148416609
20
-11.913474989795551
30
0
0
LINE
5
200
100
AcDbEntity
8
0
100
AcDbLine
10
-74.938860148416609
20
-11.913474989795551
30
0
11
-74.929127753670784
21
-48.013876965089906
31
0
0
SPLINE
5
201
100
AcDbEntity
8
0
100
AcDbSpline
70
0
71
3
72
8
73
4
74
0
42
0.000000001
43
0.0000000001
44
0.0000000001
40
11
40
11
40
11
40
11
40
12
40
12
40
12
40
12
10
-74.929127753670784
20
-48.013876965089899
30
0
10
-74.929127753670784
20
-48.842293238211802
30
0
10
-74.257549452514908
20
-49.513871539367685
30
0
10
-73.429111647546549
20
-49.513871539367685
30
0
0
LINE
5
202
100
AcDbEntity
8
0
100
AcDbLine
10
-73.429111647546549
20
-49.513871539367685
30
0
11
-46.604445165301904
21
-49.513871539367685
31
0
0
SPLINE
5
203
100
AcDbEntity
8
0
100
AcDbSpline
70
0
71
3
72
8
73
4
74
0
42
0.000000001
43
0.0000000001
44
0.0000000001
40
13
40
13
40
13
40
13
40
14
40
14
40
14
40
14
10
-46.604445165301904
20
-49.513871539367685
30
0
10
-45.913911964147616
20
-49.513871539367685
30
0
10
-45.354124200680417
20
-48.954083775899527
30
0
10
-45.354124200680417
20
-48.263550574746219
30
0
0
LINE
5
204
100
AcDbEntity
8
0
100
AcDbLine
10
-45.354124200680417
20
-48.263550574746219
30
0
11
-45.354124200680417
21
-30.715124094833513
31
0
0
SPLINE
5
205
100
AcDbEntity
8
0
100
AcDbSpline
70
0
71
3
72
8
73
4
74
0
42
0.000000001
43
0.0000000001
44
0.0000000001
40
15
40
15
40
15
40
15
40
16
40
16
40
16
40
16
10
-45.354124200680417
20
-30.715124094833513
30
0
10
-45.354124200680417
20
-30.576147585686012
30
0
10
-45.241460585890209
20
-30.463485337481174
30
0
10
-45.102484076753299
20
-30.463487023246373
30
0
0
LINE
5
206
100
AcDbEntity
8
0
100
AcDbLine
10
-45.102484076753299
20
-30.463487023246373
30
0
11
-13.712858421850855
21
-30.463867774873449
31
0
0
SPLINE
5
207
100
AcDbEntity
8
0
100
AcDbSpline
70
0
71
3
72
8
73
4
74
0
42
0.000000001
43
0.0000000001
44
0.0000000001
40
17
40
17
40
17
40
17
40
18
40
18
40
18
40
18
10
-13.71285842185085
20
-30.463867774873449
30
0
10
-13.55282667827904
20
-30.463869716034861
30
0
10
-13.433450781510421
20
-30.61128853493852
30
0
10
-13.466723288585492
20
-30.767823193168901
30
0
0
LINE
5
208
100
AcDbEntity
8
0
100
AcDbLine
10
-13.466723288585492
20
-30.767823193168901
30
0
11
-17.13654971769872
21
-48.032979213782873
31
0
0
SPLINE
5
209
100
AcDbEntity
8
0
100
AcDbSpline
70
0
71
3
72
8
73
4
74
0
42
0.000000001
43
0.0000000001
44
0.0000000001
40
19
40
19
40
19
40
19
40
20
40
20
40
20
40
20
10
-17.13654971769872
20
-48.032979213782873
30
0
10
-17.28012053008856
20
-48.708426002288746
30
0
10
-16.848949734750779
20
-49.372370915757749
30
0
10
-16.173502901142758
20
-49.515941515956968
30
0
0
LINE
5
210
100
AcDbEntity
8
0
100
AcDbLine
10
-16.173502901142758
20
-49.515941515956968
30
0
11
66.210344135176598
21
-67.027161907066684
31
0
0
SPLINE
5
211
100
AcDbEntity
8
0
100
AcDbSpline
70
0
71
3
72
8
73
4
74
0
42
0.000000001
43
0.0000000001
44
0.0000000001
40
21
40
21
40
21
40
21
40
22
40
22
40
22
40
22
10
66.210344135176612
20
-67.027161907066684
30
0
10
66.885790937613137
20
-67.170732500641009
30
0
10
67.549735752716742
20
-66.739561755002484
30
0
10
67.693306538188281
20
-66.064114993354281
30
0
0
LINE
5
212
100
AcDbEntity
8
0
100
AcDbLine
10
67.693306538188281
20
-66.064114993354281
30
0
11
71.34202231075156
21
-48.898274152852785
31
0
0
SPLINE
5
213
100
AcDbEntity
8
0
100
AcDbSpline
70
0
71
3
72
8
73
4
74
0
42
0.000000001
43
0.0000000001
44
0.0000000001
40
23
40
23
40
23
40
23
40
24
40
24
40
24
40
24
10
71.34202231075156
20
-48.898274152852792
30
0
10
71.48559327690532
20
-48.222826541163855
30
0
10
71.054422002327129
20
-47.558880817701244
30
0
10
70.3789743683908
20
-47.415309956211154
30
0
0
LINE
5
214
100
AcDbEntity
8
0
100
AcDbLine
10
70.3789743683908
20
-47.415309956211154
30
0
11
62.529444487884604
21
-45.746840469283768
31
0
0
SPLINE
5
215
100
AcDbEntity
8
0
100
AcDbSpline
70
0
71
3
72
8
73
4
74
0
42
0.000000001
43
0.0000000001
44
0.0000000001
40
25
40
25
40
25
40
25
40
26
40
26
40
26
40
26
10
62.529444487884604
20
-45.746840469283768
30
0
10
62.394513654634679
20
-45.718160028347008
30
0
10
62.308380712316769
20
-45.585526861995191
30
0
10
62.33706120150579
20
-45.450596039001226
30
0
0
LINE
5
216
100
AcDbEntity
8
0
100
AcDbLine
10
62.33706120150579
20
-45.450596039001226
30
0
11
65.985889296140073
21
-28.284243871006723
31
0
0
SPLINE
5
217
100
AcDbEntity
8
0
100
AcDbSpline
70
0
71
3
72
8
73
4
74
0
42
0.000000001
43
0.0000000001
44
0.0000000001
40
27
40
27
40
27
40
27
40
28
40
28
40
28
40
28
10
65.985889296140073
20
-28.284243871006719
30
0
10
66.129460452856293
20
-27.608796035855061
30
0
10
65.698288826713664
20
-26.94485006906659
30
0
10
65.022840852250752
20
-26.801279567760901
30
0
0
LINE
5
218
100
AcDbEntity
8
0
100
AcDbLine
10
65.022840852250752
20
-26.801279567760901
30
0
11
57.178095053883325
21
-25.133831993004154
31
0
0
SPLINE
5
219
100
AcDbEntity
8
0
100
AcDbSpline
70
0
71
3
72
8
73
4
74
0
42
0.000000001
43
0.0000000001
44
0.0000000001
40
29
40
29
40
29
40
29
40
30
40
30
40
30
40
30
10
57.178095053883325
20
-25.133831993004154
30
0
10
57.040544718869384
20
-25.104594847731594
30
0
10
56.952739553894958
20
-24.969386851533844
30
0
10
56.981976760300903
20
-24.831836529514302
30
0
0
LINE
5
220
100
AcDbEntity
8
0
100
AcDbLine
10
56.981976760300903
20
-24.831836529514302
30
0
11
60.629799817808788
21
-7.6701683021236455
31
0
0
SPLINE
5
221
100
AcDbEntity
8
0
100
AcDbSpline
70
0
71
3
72
8
73
4
74
0
42
0.000000001
43
0.0000000001
44
0.0000000001
40
31
40
31
40
31
40
31
40
32
40
32
40
32
40
32
10
60.629799817808788
20
-7.6701683021236438
30
0
10
60.773370452423279
20
-6.9947211766423507
30
0
10
60.342199021295222
20
-6.3307761961953624
30
0
10
59.666751771981751
20
-6.1872061441688384
30
0
0
LINE
5
222
100
AcDbEntity
8
0
100
AcDbLine
10
59.666751771981751
20
-6.1872061441688384
30
0
11
56.471238266861761
21
-5.5079820587119439
31
0
0
SPLINE
5
223
100
AcDbEntity
8
0
100
AcDbSpline
70
0
71
3
72
8
73
4
74
0
42
0.000000001
43
0.0000000001
44
0.0000000001
40
33
40
33
40
33
40
33
40
34
40
34
40
34
40
34
10
56.471238266861761
20
-5.5079820587119439
30
0
10
56.338763737203344
20
-5.4798238640725385
30
0
10
56.254198664740628
20
-5.3496052815366726
30
0
10
56.282356924518581
20
-5.2171307657251607
30
0
0
LINE
5
224
100
AcDbEntity
8
0
100
AcDbLine
10
56.282356924518581
20
-5.2171307657251607
30
0
11
59.932700400285427
21
11.956426418432514
31
0
0
SPLINE
5
225
100
AcDbEntity
8
0
100
AcDbSpline
70
0
71
3
72
8
73
4
74
0
42
0.000000001
43
0.0000000001
44
0.0000000001
40
35
40
35
40
35
40
35
40
36
40
36
40
36
40
36
10
59.932700400285427
20
11.95642641843251
30
0
10
59.961132055418069
20
12.090187161358321
30
0
10
60.092614961651087
20
12.175573266984291
30
0
10
60.226375709563548
20
12.147141635301582
30
0
0
LINE
5
226
100
AcDbEntity
8
0
100
AcDbLine
10
60.226375709563548
20
12.147141635301582
30
0
11
68.07814897309278
21
10.47820116549312
31
0
0
SPLINE
5
227
100
AcDbEntity
8
0
100
AcDbSpline
70
0
71
3
72
8
73
4
74
0
42
0.000000001
43
0.0000000001
44
0.0000000001
40
37
40
37
40
37
40
37
40
38
40
38
40
38
40
38
10
68.07814897309278
20
10.47820116549312
30
0
10
68.753584880896796
20
10.334633300826111
30
0
10
69.417518688472825
20
10.765797298251009
30
0
10
69.561086963010638
20
11.441233118933161
30
0
0
LINE
5
228
100
AcDbEntity
8
0
100
AcDbLine
10
69.561086963010638
20
11.441233118933161
30
0
11
73.209801890964542
21
28.607092148311768
31
0
0
SPLINE
5
229
100
AcDbEntity
8
0
100
AcDbSpline
70
0
71
3
72
8
73
4
74
0
42
0.000000001
43
0.0000000001
44
0.0000000001
40
39
40
39
40
39
40
39
40
40
40
40
40
40
40
40
10
73.209801890964542
20
28.607092148311768
30
0
10
73.353372785396886
20
29.282540294637407
30
0
10
72.922201101902701
20
29.946486416841545
30
0
10
72.246752963106132
20
30.090057346685398
30
0
0
LINE
5
230
100
AcDbEntity
8
0
100
AcDbLine
10
72.246752963106132
20
30.090057346685398
30
0
11
-4.3866205149045001
21
46.378983254367434
31
0
0
LINE
5
231
100
AcDbEntity
8
0
100
AcDbLine
10
-4.3866205149045001
20
46.378983254367434
30
0
11
-4.3866205149044983
21
46.736519570194737
31
0
0
SPLINE
5
232
100
AcDbEntity
8
0
100
AcDbSpline
70
0
71
3
72
8
73
4
74
0
42
0.000000001
43
0.0000000001
44
0.0000000001
40
42
40
42
40
42
40
42
40
43
40
43
40
43
40
43
10
-4.3866205149044983
20
46.736519570194737
30
0
10
-4.3866205149044983
20
47.564943698400135
30
0
10
-5.0581909609797737
20
48.236514144472523
30
0
10
-5.8866150891822775
20
48.236514144472523
30
0
0
LINE
5
233
100
AcDbEntity
8
0
100
AcDbLine
10
-5.8866150891822775
20
48.236514144472523
30
0
11
-22.936629495998329
21
48.236514144472523
31
0
0
SPLINE
5
234
100
AcDbEntity
8
0
100
AcDbSpline
70
0
71
3
72
8
73
4
74
0
42
0.000000001
43
0.0000000001
44
0.0000000001
40
44
40
44
40
44
40
44
40
45
40
45
40
45
40
45
10
-22.936629495998329
20
48.236514144472523
30
0
10
-23.765053624200839
20
48.236514144472523
30
0
10
-24.43662407027611
20
47.564943698371884
30
0
10
-24.43662407027611
20
46.736519570194737
30
0
0
LINE
5
235
100
AcDbEntity
8
0
100
AcDbLine
10
-24.43662407027611
20
46.736519570194737
30
0
11
-24.43662407027611
21
46.73613199695393
31
0
0
LINE
5
236
100
AcDbEntity
8
0
100
AcDbLine
10
-24.43662407027611
20
46.73613199695393
30
0
11
-61.286303165391431
21
46.736129372841219
31
0
0
SPLINE
5
237
100
AcDbEntity
8
0
100
AcDbSpline
70
0
71
3
72
8
73
4
74
0
42
0.000000001
43
0.0000000001
44
0.0000000001
40
47
40
47
40
47
40
47
40
48
40
48
40
48
40
48
10
-61.286303165391431
20
46.736129372841219
30
0
10
-61.976836342695989
20
46.736129323667825
30
0
10
-62.536624060751116
20
46.176341565749709
30
0
10
-62.536624060751116
20
45.485808388444504
30
0
0
LINE
5
238
100
AcDbEntity
8
0
100
AcDbLine
10
-62.536624060751116
20
45.485808388444504
30
0
11
-62.536624060751116
21
27.935033467990003
31
0
0
SPLINE
5
239
100
AcDbEntity
8
0
100
AcDbSpline
70
0
71
3
72
8
73
4
74
0
42
0.000000001
43
0.0000000001
44
0.0000000001
40
49
40
49
40
49
40
49
40
50
40
50
40
50
40
50
10
-62.536624060751116
20
27.935033467990003
30
0
10
-62.536624060751116
20
27.797859804323863
30
0
10
-62.647811795385103
20
27.686651447874041
30
0
10
-62.784985456692361
20
27.686626008846304
30
0
0
SPLINE
5
240
100
AcDbEntity
8
0
100
AcDbSpline
70
0
71
3
72
8
73
4
74
0
42
0.000000001
43
0.0000000001
44
0.0000000001
40
0
40
0
40
0
40
0
40
1
40
1
40
1
40
1
10
3.044971849475353
20
-86.028080305348894
30
0
10
2.9993028024490109
20
-86.028080305348894
30
0
10
2.9588229304973246
20
-86.043647830572866
30
0
10
2.9219819406519343
20
-86.065050486274984
30
0
0
LINE
5
241
100
AcDbEntity
8
0
100
AcDbLine
10
2.9219819406519343
20
-86.065050486274984
30
0
11
1.7245959410597878
21
-83.991124536001337
31
0
0
SPLINE
5
242
100
AcDbEntity
8
0
100
AcDbSpline
70
0
71
3
72
14
73
10
74
0
42
0.000000001
43
0.0000000001
44
0.0000000001
40
2
40
2
40
2
40
2
40
3
40
3
40
3
40
4
40
4
40
4
40
5
40
5
40
5
40
5
10
1.7245959410597878
20
-83.991124536001337
30
0
10
1.7991391946218815
20
-83.947845523967914
30
0
10
1.8516123052315914
20
-83.870481598477255
30
0
10
1.8516123052315914
20
-83.778088443932234
30
0
10
1.8516123052315914
20
-83.640004710514063
30
0
10
1.7396682338077563
20
-83.528082170936983
30
0
10
1.601606032236369
20
-83.528082170936983
30
0
10
1.4635222988181984
20
-83.528082170936983
30
0
10
1.3515997592411444
20
-83.640004710514063
30
0
10
1.3515997592411444
20
-83.778088443932234
30
0
0
LINE
5
243
100
AcDbEntity
8
0
100
AcDbLine
10
1.3515997592411444
20
-83.778088443932234
30
0
11
-1.0351408610931612
21
-83.778088443932234
31
0
0
SPLINE
5
244
100
AcDbEntity
8
0
100
AcDbSpline
70
0
71
3
72
13
73
9
74
0
42
0.000000001
43
0.0000000001
44
0.0000000001
40
6
40
6
40
6
40
6
40
7
40
7
40
8
40
8
40
8
40
9
40
9
40
9
40
9
10
-1.0351408610931612
20
-83.778088443932234
30
0
10
-1.0351408610931612
20
-83.640004710514063
30
0
10
-1.1470849325169974
20
-83.528082170936983
30
0
10
-1.4232093356597719
20
-83.528082170936983
30
0
10
-1.5351534070836093
20
-83.640004710514063
30
0
10
-1.5351534070836093
20
-83.778088443932234
30
0
10
-1.5351534070836093
20
-83.870481598477255
30
0
10
-1.4826802964738983
20
-83.94782399212113
30
0
10
-1.4081370429118034
20
-83.991103004154567
30
0
0
LINE
5
245
100
AcDbEntity
8
0
100
AcDbLine
10
-1.4081370429118034
20
-83.991103004154567
30
0
11
-2.6055230425039513
21
-86.065028954428186
31
0
0
SPLINE
5
246
100
AcDbEntity
8
0
100
AcDbSpline
70
0
71
3
72
17
73
13
74
0
42
0.000000001
43
0.0000000001
44
0.0000000001
40
10
40
10
40
10
40
10
40
11
40
11
40
11
40
12
40
12
40
12
40
13
40
13
40
13
40
14
40
14
40
14
40
14
10
-2.6055230425039513
20
-86.065028954428186
30
0
10
-2.6423855641961236
20
-86.043647830572866
30
0
10
-2.6828654361478099
20
-86.028080305348894
30
0
10
-2.728534483174152
20
-86.028080305348894
30
0
10
-2.8665966847455393
20
-86.028080305348894
30
0
10
-2.9785192243225933
20
-86.140002844925959
30
0
10
-2.9785192243225933
20
-86.278086578344102
30
0
10
-2.9785192243225933
20
-86.416148779915488
30
0
10
-2.8665966847455393
20
-86.528071319492568
30
0
10
-2.728534483174152
20
-86.528071319492568
30
0
10
-2.6828654361478099
20
-86.528071319492568
30
0
10
-2.6423855641961236
20
-86.512503794268568
30
0
10
-2.6055445743507333
20
-86.491122670413262
30
0
0
LINE
5
247
100
AcDbEntity
8
0
100
AcDbLine
10
-2.6055445743507333
20
-86.491122670413262
30
0
11
-1.4081370429118034
21
-88.565048620686881
31
0
0
SPLINE
5
248
100
AcDbEntity
8
0
100
AcDbSpline
70
0
71
3
72
13
73
9
74
0
42
0.000000001
43
0.0000000001
44
0.0000000001
40
15
40
15
40
15
40
15
40
16
40
16
40
16
40
17
40
17
40
18
40
18
40
18
40
18
10
-1.4081370429118034
20
-88.565048620686881
30
0
10
-1.4826802964738983
20
-88.608327632720318
30
0
10
-1.5351534070836093
20
-88.685691558210934
30
0
10
-1.5351534070836093
20
-88.778084712755984
30
0
10
-1.5351534070836093
20
-88.916146914327371
30
0
10
-1.4232093356597719
20
-89.02809098575122
30
0
10
-1.1470849325169974
20
-89.02809098575122
30
0
10
-1.0351408610931612
20
-88.916146914327371
30
0
10
-1.0351408610931612
20
-88.778084712755984
30
0
0
LINE
5
249
100
AcDbEntity
8
0
100
AcDbLine
10
-1.0351408610931612
20
-88.778084712755984
30
0
11
1.3515997592411444
21
-88.778084712755984
31
0
0
SPLINE
5
250
100
AcDbEntity
8
0
100
AcDbSpline
70
0
71
3
72
14
73
10
74
0
42
0.000000001
43
0.0000000001
44
0.0000000001
40
19
40
19
40
19
40
19
40
20
40
20
40
20
40
21
40
21
40
21
40
22
40
22
40
22
40
22
10
1.3515997592411444
20
-88.778084712755984
30
0
10
1.3515997592411444
20
-88.916146914327371
30
0
10
1.4635222988181984
20
-89.02809098575122
30
0
10
1.601606032236369
20
-89.02809098575122
30
0
10
1.7396682338077563
20
-89.02809098575122
30
0
10
1.8516123052315914
20
-88.916146914327371
30
0
10
1.8516123052315914
20
-88.778084712755984
30
0
10
1.8516123052315914
20
-88.685691558210934
30
0
10
1.7991391946218815
20
-88.608327632720318
30
0
10
1.7245959410597878
20
-88.565048620686881
30
0
0
LINE
5
251
100
AcDbEntity
8
0
100
AcDbLine
10
1.7245959410597878
20
-88.565048620686881
30
0
11
2.9219819406519343
21
-86.491122670413262
31
0
0
SPLINE
5
252
100
AcDbEntity
8
0
100
AcDbSpline
70
0
71
3
72
14
73
10
74
0
42
0.000000001
43
0.0000000001
44
0.0000000001
40
23
40
23
40
23
40
23
40
24
40
24
40
24
40
25
40
25
40
25
40
26
40
26
40
26
40
26
10
2.9219819406519343
20
-86.491122670413262
30
0
10
2.9588444623441079
20
-86.512503794268568
30
0
10
2.9993028024490109
20
-86.528071319492568
30
0
10
3.044971849475353
20
-86.528071319492568
30
0
10
3.1830340510467403
20
-86.528071319492568
30
0
10
3.2949781224705776
20
-86.416148779915488
30
0
10
3.2949781224705776
20
-86.278086578344102
30
0
10
3.2949781224705776
20
-86.140002844925959
30
0
10
3.1830340510467403
20
-86.028080305348894
30
0
10
3.044971849475353
20
-86.028080305348894
30
0
0
SPLINE
5
253
100
AcDbEntity
8
0
100
AcDbSpline
70
0
71
3
72
8
73
4
74
0
42
0.000000001
43
0.0000000001
44
0.0000000001
40
1
40
1
40
1
40
1
40
2
40
2
40
2
40
2
10
-79.439125630103575
20
247.23113300275995
30
0
10
-80.18162488306595
20
247.23113300276893
30
0
10
-80.789124271547678
20
247.83863239791404
30
0
10
-80.789124271174217
20
248.58113165087644
30
0
0
SPLINE
5
254
100
AcDbEntity
8
0
100
AcDbSpline
70
0
71
3
72
8
73
4
74
0
42
0.000000001
43
0.0000000001
44
0.0000000001
40
3
40
3
40
3
40
3
40
4
40
4
40
4
40
4
10
-80.789124271174217
20
248.58113435087645
30
0
10
-80.789124270800727
20
249.32363360986955
30
0
10
-80.181624881987901
20
249.93113300383527
30
0
10
-79.439125622994851
20
249.93113300413427
30
0
0
SPLINE
5
255
100
AcDbEntity
8
0
100
AcDbSpline
70
0
71
3
72
8
73
4
74
0
42
0.000000001
43
0.0000000001
44
0.0000000001
40
5
40
5
40
5
40
5
40
6
40
6
40
6
40
6
10
-79.439122890064084
20
249.93113300413427
30
0
10
-78.696623654589288
20
249.93113300443338
30
0
10
-78.089124280926967
20
249.32363362442464
30
0
10
-78.089124281924157
20
248.58113438894975
30
0
0
SPLINE
5
256
100
AcDbEntity
8
0
100
AcDbSpline
70
0
71
3
72
8
73
4
74
0
42
0.000000001
43
0.0000000001
44
0.0000000001
40
7
40
7
40
7
40
7
40
8
40
8
40
8
40
8
10
-78.089124281924157
20
248.58113164968415
30
0
10
-78.089124282922654
20
247.83863239386625
30
0
10
-78.696623667950746
20
247.23113300275102
30
0
10
-79.439122923768679
20
247.23113300275995
30
0
0
SPLINE
5
257
100
AcDbEntity
8
0
100
AcDbSpline
70
0
71
3
72
8
73
4
74
0
42
0.000000001
43
0.0000000001
44
0.0000000001
40
0
40
0
40
0
40
0
40
1
40
1
40
1
40
1
10
-87.052381876000197
20
-86.028357625601615
30
0
10
-87.098050923026562
20
-86.028357625601615
30
0
10
-87.138530794978237
20
-86.043925150825586
30
0
10
-87.175371784823625
20
-86.065327806527705
30
0
0
LINE
5
258
100
AcDbEntity
8
0
100
AcDbLine
10
-87.175371784823625
20
-86.065327806527705
30
0
11
-88.372757784416081
21
-83.9914018562541
31
0
0
SPLINE
5
259
100
AcDbEntity
8
0
100
AcDbSpline
70
0
71
3
72
14
73
10
74
0
42
0.000000001
43
0.0000000001
44
0.0000000001
40
2
40
2
40
2
40
2
40
3
40
3
40
3
40
4
40
4
40
4
40
5
40
5
40
5
40
5
10
-88.372757784416081
20
-83.9914018562541
30
0
10
-88.298214530853699
20
-83.94812284422062
30
0
10
-88.245741420244002
20
-83.87075891872999
30
0
10
-88.245741420244002
20
-83.778365764184954
30
0
10
-88.245741420244002
20
-83.640282030766784
30
0
10
-88.35768549166815
20
-83.528359491189747
30
0
10
-88.495747693239537
20
-83.528359491189747
30
0
10
-88.633831426657366
20
-83.528359491189747
30
0
10
-88.745753966234417
20
-83.640282030766784
30
0
10
-88.745753966234417
20
-83.778365764184954
30
0
0
LINE
5
260
100
AcDbEntity
8
0
100
AcDbLine
10
-88.745753966234417
20
-83.778365764184954
30
0
11
-91.13249458656874
21
-83.778365764184954
31
0
0
SPLINE
5
261
100
AcDbEntity
8
0
100
AcDbSpline
70
0
71
3
72
13
73
9
74
0
42
0.000000001
43
0.0000000001
44
0.0000000001
40
6
40
6
40
6
40
6
40
7
40
7
40
8
40
8
40
8
40
9
40
9
40
9
40
9
10
-91.13249458656874
20
-83.778365764184954
30
0
10
-91.13249458656874
20
-83.640282030766784
30
0
10
-91.244438657992575
20
-83.528359491189747
30
0
10
-91.520563061135363
20
-83.528359491189747
30
0
10
-91.632507132559482
20
-83.640282030766784
30
0
10
-91.632507132559482
20
-83.778365764184954
30
0
10
-91.632507132559482
20
-83.87075891872999
30
0
10
-91.580034021949473
20
-83.948101312373851
30
0
10
-91.505490768387403
20
-83.991380324407302
30
0
0
LINE
5
262
100
AcDbEntity
8
0
100
AcDbLine
10
-91.505490768387403
20
-83.991380324407302
30
0
11
-92.702876767979518
21
-86.065306274680921
31
0
0
SPLINE
5
263
100
AcDbEntity
8
0
100
AcDbSpline
70
0
71
3
72
17
73
13
74
0
42
0.000000001
43
0.0000000001
44
0.0000000001
40
10
40
10
40
10
40
10
40
11
40
11
40
11
40
12
40
12
40
12
40
13
40
13
40
13
40
14
40
14
40
14
40
14
10
-92.702876767979518
20
-86.065306274680921
30
0
10
-92.739739289671689
20
-86.043925150825586
30
0
10
-92.780219161623378
20
-86.028357625601615
30
0
10
-92.825888208650042
20
-86.028357625601615
30
0
10
-92.963950410221443
20
-86.028357625601615
30
0
10
-93.075872949798139
20
-86.140280165178666
30
0
10
-93.075872949798139
20
-86.278363898596837
30
0
10
-93.075872949798139
20
-86.416426100168238
30
0
10
-92.963950410221443
20
-86.528348639745303
30
0
10
-92.825888208650042
20
-86.528348639745303
30
0
10
-92.780219161623378
20
-86.528348639745303
30
0
10
-92.739739289671689
20
-86.512781114521317
30
0
10
-92.702898299826614
20
-86.491399990665983
30
0
0
LINE
5
264
100
AcDbEntity
8
0
100
AcDbLine
10
-92.702898299826614
20
-86.491399990665983
30
0
11
-91.505490768387403
21
-88.565325940939601
31
0
0
SPLINE
5
265
100
AcDbEntity
8
0
100
AcDbSpline
70
0
71
3
72
13
73
9
74
0
42
0.000000001
43
0.0000000001
44
0.0000000001
40
15
40
15
40
15
40
15
40
16
40
16
40
16
40
17
40
17
40
18
40
18
40
18
40
18
10
-91.505490768387403
20
-88.565325940939601
30
0
10
-91.580034021949473
20
-88.608604952973053
30
0
10
-91.632507132559482
20
-88.685968878463683
30
0
10
-91.632507132559482
20
-88.778362033008733
30
0
10
-91.632507132559482
20
-88.916424234580091
30
0
10
-91.520563061135363
20
-89.028368306003955
30
0
10
-91.244438657992575
20
-89.028368306003955
30
0
10
-91.13249458656874
20
-88.916424234580091
30
0
10
-91.13249458656874
20
-88.778362033008733
30
0
0
LINE
5
266
100
AcDbEntity
8
0
100
AcDbLine
10
-91.13249458656874
20
-88.778362033008733
30
0
11
-88.745753966234417
21
-88.778362033008733
31
0
0
SPLINE
5
267
100
AcDbEntity
8
0
100
AcDbSpline
70
0
71
3
72
14
73
10
74
0
42
0.000000001
43
0.0000000001
44
0.0000000001
40
19
40
19
40
19
40
19
40
20
40
20
40
20
40
21
40
21
40
21
40
22
40
22
40
22
40
22
10
-88.745753966234417
20
-88.778362033008733
30
0
10
-88.745753966234417
20
-88.916424234580091
30
0
10
-88.633831426657366
20
-89.028368306003955
30
0
10
-88.495747693239537
20
-89.028368306003955
30
0
10
-88.35768549166815
20
-89.028368306003955
30
0
10
-88.245741420244002
20
-88.916424234580091
30
0
10
-88.245741420244002
20
-88.778362033008733
30
0
10
-88.245741420244002
20
-88.685968878463683
30
0
10
-88.298214530853699
20
-88.608604952973053
30
0
10
-88.372757784416081
20
-88.565325940939601
30
0
0
LINE
5
268
100
AcDbEntity
8
0
100
AcDbLine
10
-88.372757784416081
20
-88.565325940939601
30
0
11
-87.175371784823625
21
-86.491399990665983
31
0
0
SPLINE
5
269
100
AcDbEntity
8
0
100
AcDbSpline
70
0
71
3
72
14
73
10
74
0
42
0.000000001
43
0.0000000001
44
0.0000000001
40
23
40
23
40
23
40
23
40
24
40
24
40
24
40
25
40
25
40
25
40
26
40
26
40
26
40
26
10
-87.175371784823625
20
-86.491399990665983
30
0
10
-87.138509263131454
20
-86.512781114521317
30
0
10
-87.098050923026562
20
-86.528348639745303
30
0
10
-87.052381876000197
20
-86.528348639745303
30
0
10
-86.914319674428839
20
-86.528348639745303
30
0
10
-86.802375603005004
20
-86.416426100168238
30
0
10
-86.802375603005004
20
-86.278363898596837
30
0
10
-86.802375603005004
20
-86.140280165178666
30
0
10
-86.914319674428839
20
-86.028357625601615
30
0
10
-87.052381876000197
20
-86.028357625601615
30
0
0
SPLINE
5
270
100
AcDbEntity
8
0
100
AcDbSpline
70
0
71
3
72
8
73
4
74
0
42
0.000000001
43
0.0000000001
44
0.0000000001
40
0
40
0
40
0
40
0
40
1
40
1
40
1
40
1
10
283.0350667698936
20
-86.028357625748342
30
0
10
282.98939772286718
20
-86.028357625748342
30
0
10
282.94891785091551
20
-86.043925150972314
30
0
10
282.91207686107009
20
-86.065327806674475
30
0
0
LINE
5
271
100
AcDbEntity
8
0
100
AcDbLine
10
282.91207686107009
20
-86.065327806674475
30
0
11
281.71469086147795
21
-83.991401856400813
31
0
0
SPLINE
5
272
100
AcDbEntity
8
0
100
AcDbSpline
70
0
71
3
72
14
73
10
74
0
42
0.000000001
43
0.0000000001
44
0.0000000001
40
2
40
2
40
2
40
2
40
3
40
3
40
3
40
4
40
4
40
4
40
5
40
5
40
5
40
5
10
281.71469086147795
20
-83.991401856400813
30
0
10
281.78923411504007
20
-83.948122844367361
30
0
10
281.84170722564977
20
-83.870758918876732
30
0
10
281.84170722564977
20
-83.778365764331681
30
0
10
281.84170722564977
20
-83.640282030913511
30
0
10
281.72976315422596
20
-83.52835949133646
30
0
10
281.59170095265461
20
-83.52835949133646
30
0
10
281.45361721923638
20
-83.52835949133646
30
0
10
281.34169467965927
20
-83.640282030913511
30
0
10
281.34169467965927
20
-83.778365764331681
30
0
0
LINE
5
273
100
AcDbEntity
8
0
100
AcDbLine
10
281.34169467965927
20
-83.778365764331681
30
0
11
278.95495405932496
21
-83.778365764331681
31
0
0
SPLINE
5
274
100
AcDbEntity
8
0
100
AcDbSpline
70
0
71
3
72
13
73
9
74
0
42
0.000000001
43
0.0000000001
44
0.0000000001
40
6
40
6
40
6
40
6
40
7
40
7
40
8
40
8
40
8
40
9
40
9
40
9
40
9
10
278.95495405932496
20
-83.778365764331681
30
0
10
278.95495405932496
20
-83.640282030913511
30
0
10
278.84300998790127
20
-83.52835949133646
30
0
10
278.56688558475838
20
-83.52835949133646
30
0
10
278.45494151333457
20
-83.640282030913511
30
0
10
278.45494151333457
20
-83.778365764331681
30
0
10
278.45494151333457
20
-83.870758918876732
30
0
10
278.50741462394427
20
-83.948101312520578
30
0
10
278.5819578775064
20
-83.991380324554044
30
0
0
LINE
5
275
100
AcDbEntity
8
0
100
AcDbLine
10
278.5819578775064
20
-83.991380324554044
30
0
11
277.38457187791425
21
-86.065306274827662
31
0
0
SPLINE
5
276
100
AcDbEntity
8
0
100
AcDbSpline
70
0
71
3
72
17
73
13
74
0
42
0.000000001
43
0.0000000001
44
0.0000000001
40
10
40
10
40
10
40
10
40
11
40
11
40
11
40
12
40
12
40
12
40
13
40
13
40
13
40
14
40
14
40
14
40
14
10
277.38457187791425
20
-86.065306274827662
30
0
10
277.34770935622208
20
-86.043925150972314
30
0
10
277.30722948427047
20
-86.028357625748342
30
0
10
277.2615604372441
20
-86.028357625748342
30
0
10
277.12349823567263
20
-86.028357625748342
30
0
10
277.01157569609558
20
-86.140280165325407
30
0
10
277.01157569609558
20
-86.278363898743578
30
0
10
277.01157569609558
20
-86.416426100314965
30
0
10
277.12349823567263
20
-86.528348639892016
30
0
10
277.2615604372441
20
-86.528348639892016
30
0
10
277.30722948427047
20
-86.528348639892016
30
0
10
277.34770935622208
20
-86.512781114668059
30
0
10
277.3845503460675
20
-86.49139999081271
30
0
0
LINE
5
277
100
AcDbEntity
8
0
100
AcDbLine
10
277.3845503460675
20
-86.49139999081271
30
0
11
278.5819578775064
21
-88.565325941086314
31
0
0
SPLINE
5
278
100
AcDbEntity
8
0
100
AcDbSpline
70
0
71
3
72
13
73
9
74
0
42
0.000000001
43
0.0000000001
44
0.0000000001
40
15
40
15
40
15
40
15
40
16
40
16
40
16
40
17
40
17
40
18
40
18
40
18
40
18
10
278.5819578775064
20
-88.565325941086314
30
0
10
278.50741462394427
20
-88.608604953119794
30
0
10
278.45494151333457
20
-88.685968878610424
30
0
10
278.45494151333457
20
-88.77836203315546
30
0
10
278.45494151333457
20
-88.916424234726861
30
0
10
278.56688558475838
20
-89.028368306150696
30
0
10
278.84300998790127
20
-89.028368306150696
30
0
10
278.95495405932496
20
-88.916424234726861
30
0
10
278.95495405932496
20
-88.77836203315546
30
0
0
LINE
5
279
100
AcDbEntity
8
0
100
AcDbLine
10
278.95495405932496
20
-88.77836203315546
30
0
11
281.34169467965927
21
-88.77836203315546
31
0
0
SPLINE
5
280
100
AcDbEntity
8
0
100
AcDbSpline
70
0
71
3
72
14
73
10
74
0
42
0.000000001
43
0.0000000001
44
0.0000000001
40
19
40
19
40
19
40
19
40
20
40
20
40
20
40
21
40
21
40
21
40
22
40
22
40
22
40
22
10
281.34169467965927
20
-88.77836203315546
30
0
10
281.34169467965927
20
-88.916424234726861
30
0
10
281.45361721923638
20
-89.028368306150696
30
0
10
281.59170095265461
20
-89.028368306150696
30
0
10
281.72976315422596
20
-89.028368306150696
30
0
10
281.84170722564977
20
-88.916424234726861
30
0
10
281.84170722564977
20
-88.77836203315546
30
0
10
281.84170722564977
20
-88.685968878610424
30
0
10
281.78923411504007
20
-88.608604953119794
30
0
10
281.71469086147795
20
-88.565325941086314
30
0
0
LINE
5
281
100
AcDbEntity
8
0
100
AcDbLine
10
281.71469086147795
20
-88.565325941086314
30
0
11
282.91207686107009
21
-86.49139999081271
31
0
0
SPLINE
5
282
100
AcDbEntity
8
0
100
AcDbSpline
70
0
71
3
72
14
73
10
74
0
42
0.000000001
43
0.0000000001
44
0.0000000001
40
23
40
23
40
23
40
23
40
24
40
24
40
24
40
25
40
25
40
25
40
26
40
26
40
26
40
26
10
282.91207686107009
20
-86.49139999081271
30
0
10
282.94893938276232
20
-86.512781114668059
30
0
10
282.98939772286718
20
-86.528348639892016
30
0
10
283.0350667698936
20
-86.528348639892016
30
0
10
283.17312897146496
20
-86.528348639892016
30
0
10
283.28507304288877
20
-86.416426100314965
30
0
10
283.28507304288877
20
-86.278363898743578
30
0
10
283.28507304288877
20
-86.140280165325407
30
0
10
283.17312897146496
20
-86.028357625748342
30
0
10
283.0350667698936
20
-86.028357625748342
30
0
0
LWPOLYLINE
5
283
100
AcDbEntity
8
0
100
AcDbPolyline
90
8
70
1
43
0.0
10
-85.441624290747569
20
-29.098773071760327
10
-85.441624290747569
20
-79.77668514837373
42
0.41421356237286611
10
-83.441624291248331
20
-81.776685147874545
10
65.158229432824285
20
-81.776685147992012
10
65.158229432824285
20
-91.2783638973211
10
-92.939124275651864
20
-91.278363897346324
42
-0.41421356237314705
10
-94.939124275151727
20
-89.278363897846802
10
-94.939124275151727
20
-29.098776396578874
0
SPLINE
5
284
100
AcDbEntity
8
0
100
AcDbSpline
70
0
71
3
72
8
73
4
74
0
42
0.000000001
43
0.0000000001
44
0.0000000001
40
0
40
0
40
0
40
0
40
1
40
1
40
1
40
1
10
154.04497181683058
20
-86.028080305495607
30
0
10
153.99930276980427
20
-86.028080305495607
30
0
10
153.9588228978526
20
-86.043647830719607
30
0
10
153.92198190800718
20
-86.065050486421697
30
0
0
LINE
5
285
100
AcDbEntity
8
0
100
AcDbLine
10
153.92198190800718
20
-86.065050486421697
30
0
11
152.72459590841507
21
-83.991124536148078
31
0
0
SPLINE
5
286
100
AcDbEntity
8
0
100
AcDbSpline
70
0
71
3
72
14
73
10
74
0
42
0.000000001
43
0.0000000001
44
0.0000000001
40
2
40
2
40
2
40
2
40
3
40
3
40
3
40
4
40
4
40
4
40
5
40
5
40
5
40
5
10
152.72459590841507
20
-83.991124536148078
30
0
10
152.79913916197708
20
-83.947845524114655
30
0
10
152.85161227258692
20
-83.870481598624025
30
0
10
152.85161227258692
20
-83.778088444078946
30
0
10
152.85161227258692
20
-83.640004710660804
30
0
10
152.739668201163
20
-83.528082171083753
30
0
10
152.6016059995917
20
-83.528082171083753
30
0
10
152.4635222661735
20
-83.528082171083753
30
0
10
152.35159972659642
20
-83.640004710660804
30
0
10
152.35159972659642
20
-83.778088444078946
30
0
0
LINE
5
287
100
AcDbEntity
8
0
100
AcDbLine
10
152.35159972659642
20
-83.778088444078946
30
0
11
149.96485910626208
21
-83.778088444078946
31
0
0
SPLINE
5
288
100
AcDbEntity
8
0
100
AcDbSpline
70
0
71
3
72
13
73
9
74
0
42
0.000000001
43
0.0000000001
44
0.0000000001
40
6
40
6
40
6
40
6
40
7
40
7
40
8
40
8
40
8
40
9
40
9
40
9
40
9
10
149.96485910626208
20
-83.778088444078946
30
0
10
149.96485910626208
20
-83.640004710660804
30
0
10
149.8529150348383
20
-83.528082171083753
30
0
10
149.5767906316955
20
-83.528082171083753
30
0
10
149.46484656027167
20
-83.640004710660804
30
0
10
149.46484656027167
20
-83.778088444078946
30
0
10
149.46484656027167
20
-83.870481598624025
30
0
10
149.51731967088139
20
-83.947823992267843
30
0
10
149.59186292444352
20
-83.991103004301308
30
0
0
LINE
5
289
100
AcDbEntity
8
0
100
AcDbLine
10
149.59186292444352
20
-83.991103004301308
30
0
11
148.39447692485129
21
-86.065028954574956
31
0
0
SPLINE
5
290
100
AcDbEntity
8
0
100
AcDbSpline
70
0
71
3
72
17
73
13
74
0
42
0.000000001
43
0.0000000001
44
0.0000000001
40
10
40
10
40
10
40
10
40
11
40
11
40
11
40
12
40
12
40
12
40
13
40
13
40
13
40
14
40
14
40
14
40
14
10
148.39447692485129
20
-86.065028954574956
30
0
10
148.3576144031592
20
-86.043647830719607
30
0
10
148.3171345312075
20
-86.028080305495607
30
0
10
148.27146548418108
20
-86.028080305495607
30
0
10
148.13340328260972
20
-86.028080305495607
30
0
10
148.02148074303267
20
-86.140002845072701
30
0
10
148.02148074303267
20
-86.278086578490871
30
0
10
148.02148074303267
20
-86.41614878006223
30
0
10
148.13340328260972
20
-86.528071319639281
30
0
10
148.27146548418108
20
-86.528071319639281
30
0
10
148.3171345312075
20
-86.528071319639281
30
0
10
148.3576144031592
20
-86.512503794415323
30
0
10
148.39445539300448
20
-86.491122670559974
30
0
0
LINE
5
291
100
AcDbEntity
8
0
100
AcDbLine
10
148.39445539300448
20
-86.491122670559974
30
0
11
149.59186292444352
21
-88.565048620833622
31
0
0
SPLINE
5
292
100
AcDbEntity
8
0
100
AcDbSpline
70
0
71
3
72
13
73
9
74
0
42
0.000000001
43
0.0000000001
44
0.0000000001
40
15
40
15
40
15
40
15
40
16
40
16
40
16
40
17
40
17
40
18
40
18
40
18
40
18
10
149.59186292444352
20
-88.565048620833622
30
0
10
149.51731967088139
20
-88.608327632867059
30
0
10
149.46484656027167
20
-88.685691558357718
30
0
10
149.46484656027167
20
-88.778084712902725
30
0
10
149.46484656027167
20
-88.916146914474155
30
0
10
149.5767906316955
20
-89.02809098589799
30
0
10
149.8529150348383
20
-89.02809098589799
30
0
10
149.96485910626208
20
-88.916146914474155
30
0
10
149.96485910626208
20
-88.778084712902725
30
0
0
LINE
5
293
100
AcDbEntity
8
0
100
AcDbLine
10
149.96485910626208
20
-88.778084712902725
30
0
11
152.35159972659642
21
-88.778084712902725
31
0
0
SPLINE
5
294
100
AcDbEntity
8
0
100
AcDbSpline
70
0
71
3
72
14
73
10
74
0
42
0.000000001
43
0.0000000001
44
0.0000000001
40
19
40
19
40
19
40
19
40
20
40
20
40
20
40
21
40
21
40
21
40
22
40
22
40
22
40
22
10
152.35159972659642
20
-88.778084712902725
30
0
10
152.35159972659642
20
-88.916146914474155
30
0
10
152.4635222661735
20
-89.02809098589799
30
0
10
152.6016059995917
20
-89.02809098589799
30
0
10
152.739668201163
20
-89.02809098589799
30
0
10
152.85161227258692
20
-88.916146914474155
30
0
10
152.85161227258692
20
-88.778084712902725
30
0
10
152.85161227258692
20
-88.685691558357718
30
0
10
152.79913916197708
20
-88.608327632867059
30
0
10
152.72459590841507
20
-88.565048620833622
30
0
0
LINE
5
295
100
AcDbEntity
8
0
100
AcDbLine
10
152.72459590841507
20
-88.565048620833622
30
0
11
153.92198190800718
21
-86.491122670559974
31
0
0
SPLINE
5
296
100
AcDbEntity
8
0
100
AcDbSpline
70
0
71
3
72
14
73
10
74
0
42
0.000000001
43
0.0000000001
44
0.0000000001
40
23
40
23
40
23
40
23
40
24
40
24
40
24
40
25
40
25
40
25
40
26
40
26
40
26
40
26
10
153.92198190800718
20
-86.491122670559974
30
0
10
153.95884442969938
20
-86.512503794415323
30
0
10
153.99930276980427
20
-86.528071319639281
30
0
10
154.04497181683058
20
-86.528071319639281
30
0
10
154.183034018402
20
-86.528071319639281
30
0
10
154.29497808982578
20
-86.41614878006223
30
0
10
154.29497808982578
20
-86.278086578490871
30
0
10
154.29497808982578
20
-86.140002845072701
30
0
10
154.183034018402
20
-86.028080305495607
30
0
10
154.04497181683058
20
-86.028080305495607
30
0
0
LWPOLYLINE
5
297
100
AcDbEntity
8
0
100
AcDbPolyline
90
8
70
1
43
0.0
10
-82.439124275799429
20
255.5811330084467
10
272.64832436874025
20
255.5811330084467
42
0.41421356237288692
10
274.64832436824111
20
257.58113300794611
10
274.64832436824111
20
278.58113300269588
42
0.41421356237312101
10
272.64832436874036
20
280.58113300219668
10
-82.439124275799401
20
280.58113300219668
42
0.41421356237314966
10
-84.43912427529925
20
278.58113300269713
10
-84.43912427529925
20
257.58113300794611
42
0.41421356237302481
0
SPLINE
5
298
100
AcDbEntity
8
0
100
AcDbSpline
70
0
71
3
72
8
73
4
74
0
42
0.000000001
43
0.0000000001
44
0.0000000001
40
1
40
1
40
1
40
1
40
2
40
2
40
2
40
2
10
269.64832301593663
20
274.23113300276009
30
0
10
268.90582376297414
20
274.23113300276907
30
0
10
268.29832437449249
20
274.83863239791413
30
0
10
268.29832437486601
20
275.5811316508765
30
0
0
SPLINE
5
299
100
AcDbEntity
8
0
100
AcDbSpline
70
0
71
3
72
8
73
4
74
0
42
0.000000001
43
0.0000000001
44
0.0000000001
40
3
40
3
40
3
40
3
40
4
40
4
40
4
40
4
10
268.29832437486601
20
275.58113435087654
30
0
10
268.2983243752393
20
276.3236336098696
30
0
10
268.90582376405229
20
276.93113300383527
30
0
10
269.64832302304546
20
276.93113300413438
30
0
0
SPLINE
5
300
100
AcDbEntity
8
0
100
AcDbSpline
70
0
71
3
72
8
73
4
74
0
42
0.000000001
43
0.0000000001
44
0.0000000001
40
5
40
5
40
5
40
5
40
6
40
6
40
6
40
6
10
269.64832575597609
20
276.93113300413438
30
0
10
270.39082499145087
20
276.93113300443338
30
0
10
270.99832436511321
20
276.32363362442499
30
0
10
270.998324364116
20
275.58113438894986
30
0
0
SPLINE
5
301
100
AcDbEntity
8
0
100
AcDbSpline
70
0
71
3
72
8
73
4
74
0
42
0.000000001
43
0.0000000001
44
0.0000000001
40
7
40
7
40
7
40
7
40
8
40
8
40
8
40
8
10
270.998324364116
20
275.58113164968427
30
0
10
270.99832436311749
20
274.83863239386631
30
0
10
270.39082497808948
20
274.23113300275111
30
0
10
269.64832572227147
20
274.23113300276009
30
0
0
SPLINE
5
302
100
AcDbEntity
8
0
100
AcDbSpline
70
0
71
3
72
8
73
4
74
0
42
0.000000001
43
0.0000000001
44
0.0000000001
40
1
40
1
40
1
40
1
40
2
40
2
40
2
40
2
10
140.65822806287366
20
274.2311528518602
30
0
10
139.91572880991126
20
274.23115285187077
30
0
10
139.30822942142959
20
274.83865224701435
30
0
10
139.30822942180305
20
275.58115149997667
30
0
0
SPLINE
5
303
100
AcDbEntity
8
0
100
AcDbSpline
70
0
71
3
72
8
73
4
74
0
42
0.000000001
43
0.0000000001
44
0.0000000001
40
3
40
3
40
3
40
3
40
4
40
4
40
4
40
4
10
139.30822942180305
20
275.58115419997682
30
0
10
139.30822942217648
20
276.32365345896977
30
0
10
139.91572881098935
20
276.93115285293663
30
0
10
140.65822806998239
20
276.9311528532358
30
0
0
SPLINE
5
304
100
AcDbEntity
8
0
100
AcDbSpline
70
0
71
3
72
8
73
4
74
0
42
0.000000001
43
0.0000000001
44
0.0000000001
40
5
40
5
40
5
40
5
40
6
40
6
40
6
40
6
10
140.65823080291315
20
276.9311528532358
30
0
10
141.40073003838799
20
276.9311528535348
30
0
10
142.00822941205024
20
276.32365347352481
30
0
10
142.00822941105307
20
275.58115423805128
30
0
0
SPLINE
5
305
100
AcDbEntity
8
0
100
AcDbSpline
70
0
71
3
72
8
73
4
74
0
42
0.000000001
43
0.0000000001
44
0.0000000001
40
7
40
7
40
7
40
7
40
8
40
8
40
8
40
8
10
142.00822941105307
20
275.58115149878438
30
0
10
142.00822941005453
20
274.83865224296784
30
0
10
141.40073002502643
20
274.23115285185122
30
0
10
140.65823076920856
20
274.2311528518602
30
0
0
SPLINE
5
306
100
AcDbEntity
8
0
100
AcDbSpline
70
0
71
3
72
8
73
4
74
0
42
0.000000001
43
0.0000000001
44
0.0000000001
40
1
40
1
40
1
40
1
40
2
40
2
40
2
40
2
10
269.64832301593617
20
247.23113300275995
30
0
10
268.90582376297374
20
247.23113300276893
30
0
10
268.29832437449204
20
247.83863239791404
30
0
10
268.29832437486562
20
248.58113165087644
30
0
0
SPLINE
5
307
100
AcDbEntity
8
0
100
AcDbSpline
70
0
71
3
72
8
73
4
74
0
42
0.000000001
43
0.0000000001
44
0.0000000001
40
3
40
3
40
3
40
3
40
4
40
4
40
4
40
4
10
268.29832437486562
20
248.58113435087645
30
0
10
268.29832437523908
20
249.32363360986955
30
0
10
268.90582376405189
20
249.93113300383527
30
0
10
269.6483230230449
20
249.93113300413427
30
0
0
SPLINE
5
308
100
AcDbEntity
8
0
100
AcDbSpline
70
0
71
3
72
8
73
4
74
0
42
0.000000001
43
0.0000000001
44
0.0000000001
40
5
40
5
40
5
40
5
40
6
40
6
40
6
40
6
10
269.64832575597569
20
249.93113300413427
30
0
10
270.39082499145047
20
249.93113300443338
30
0
10
270.99832436511281
20
249.32363362442464
30
0
10
270.99832436411555
20
248.58113438894975
30
0
0
SPLINE
5
309
100
AcDbEntity
8
0
100
AcDbSpline
70
0
71
3
72
8
73
4
74
0
42
0.000000001
43
0.0000000001
44
0.0000000001
40
7
40
7
40
7
40
7
40
8
40
8
40
8
40
8
10
270.99832436411555
20
248.58113164968415
30
0
10
270.99832436311704
20
247.83863239386625
30
0
10
270.39082497808897
20
247.23113300275102
30
0
10
269.64832572227112
20
247.23113300275995
30
0
0
LWPOLYLINE
5
310
100
AcDbEntity
8
0
100
AcDbPolyline
90
8
70
1
43
0.0
10
-82.4391242757995
20
238.58113300594684
10
272.64832436874116
20
238.58113300594684
42
0.41421356237309503
10
274.64832436824065
20
240.58113300544633
10
274.64832436824065
20
251.58113300269582
42
0.41421356237334994
10
272.64832436874116
20
253.58113300219696
10
-82.439124275799486
20
253.58113300219696
42
0.41421356237314966
10
-84.439124275299008
20
251.58113300269704
10
-84.439124275299008
20
240.58113300544633
42
0.41421356237310025
0
SPLINE
5
311
100
AcDbEntity
8
0
100
AcDbSpline
70
0
71
3
72
8
73
4
74
0
42
0.000000001
43
0.0000000001
44
0.0000000001
40
1
40
1
40
1
40
1
40
2
40
2
40
2
40
2
10
140.65822806287196
20
247.23113300275995
30
0
10
139.91572880990955
20
247.23113300276893
30
0
10
139.30822942142788
20
247.83863239791404
30
0
10
139.30822942180137
20
248.58113165087644
30
0
0
SPLINE
5
312
100
AcDbEntity
8
0
100
AcDbSpline
70
0
71
3
72
8
73
4
74
0
42
0.000000001
43
0.0000000001
44
0.0000000001
40
3
40
3
40
3
40
3
40
4
40
4
40
4
40
4
10
139.30822942180137
20
248.58113435087645
30
0
10
139.30822942217478
20
249.32363360986955
30
0
10
139.91572881098764
20
249.93113300383527
30
0
10
140.65822806998068
20
249.93113300413427
30
0
0
SPLINE
5
313
100
AcDbEntity
8
0
100
AcDbSpline
70
0
71
3
72
8
73
4
74
0
42
0.000000001
43
0.0000000001
44
0.0000000001
40
5
40
5
40
5
40
5
40
6
40
6
40
6
40
6
10
140.65823080291148
20
249.93113300413427
30
0
10
141.40073003838631
20
249.93113300443338
30
0
10
142.00822941204856
20
249.32363362442464
30
0
10
142.00822941105139
20
248.58113438894975
30
0
0
SPLINE
5
314
100
AcDbEntity
8
0
100
AcDbSpline
70
0
71
3
72
8
73
4
74
0
42
0.000000001
43
0.0000000001
44
0.0000000001
40
7
40
7
40
7
40
7
40
8
40
8
40
8
40
8
10
142.00822941105139
20
248.58113164968415
30
0
10
142.00822941005285
20
247.83863239386625
30
0
10
141.40073002502476
20
247.23113300275102
30
0
10
140.65823076920685
20
247.23113300275995
30
0
0
SPLINE
5
315
100
AcDbEntity
8
0
100
AcDbSpline
70
0
71
3
72
8
73
4
74
0
42
0.000000001
43
0.0000000001
44
0.0000000001
40
1
40
1
40
1
40
1
40
2
40
2
40
2
40
2
10
-79.439125630101884
20
274.2311528518602
30
0
10
-80.181624883064273
20
274.23115285187077
30
0
10
-80.789124271545987
20
274.83865224701435
30
0
10
-80.789124271172525
20
275.58115149997667
30
0
0
SPLINE
5
316
100
AcDbEntity
8
0
100
AcDbSpline
70
0
71
3
72
8
73
4
74
0
42
0.000000001
43
0.0000000001
44
0.0000000001
40
3
40
3
40
3
40
3
40
4
40
4
40
4
40
4
10
-80.789124271172525
20
275.58115419997682
30
0
10
-80.78912427079905
20
276.32365345896977
30
0
10
-80.18162488198621
20
276.93115285293663
30
0
10
-79.43912562299316
20
276.9311528532358
30
0
0
SPLINE
5
317
100
AcDbEntity
8
0
100
AcDbSpline
70
0
71
3
72
8
73
4
74
0
42
0.000000001
43
0.0000000001
44
0.0000000001
40
5
40
5
40
5
40
5
40
6
40
6
40
6
40
6
10
-79.439122890062407
20
276.9311528532358
30
0
10
-78.696623654587597
20
276.9311528535348
30
0
10
-78.089124280925276
20
276.32365347352481
30
0
10
-78.089124281922466
20
275.58115423805128
30
0
0
SPLINE
5
318
100
AcDbEntity
8
0
100
AcDbSpline
70
0
71
3
72
8
73
4
74
0
42
0.000000001
43
0.0000000001
44
0.0000000001
40
7
40
7
40
7
40
7
40
8
40
8
40
8
40
8
10
-78.089124281922466
20
275.58115149878438
30
0
10
-78.089124282920977
20
274.83865224296784
30
0
10
-78.696623667949069
20
274.23115285185122
30
0
10
-79.439122923767002
20
274.2311528518602
30
0
0
LWPOLYLINE
5
319
100
AcDbEntity
8
0
100
AcDbPolyline
90
8
70
1
43
0.0
10
59.158375708604169
20
61.579454252837607
10
-83.44162429139584
20
61.579454252724865
42
0.41421356237286611
10
-85.441624290895078
20
59.579454253224064
10
-85.441630241911241
20
-8.0978142768345318
10
-94.939130226315385
20
-8.097810952015978
10
-94.939124275299235
20
69.081133002697143
42
-0.41421356237314705
10
-92.939124275799372
20
71.081133002196694
10
59.15787572420065
20
71.081133002172393
0
LINE
5
320
100
AcDbEntity
8
0
100
AcDbLine
10
-88.372757784563589
20
68.368095045789929
30
2.4955869841982552e-16
11
-87.175371784971134
21
66.294169095516324
31
-4.4239792472963906e-18
0
SPLINE
5
321
100
AcDbEntity
8
0
100
AcDbSpline
70
0
71
3
72
14
73
10
74
0
42
0.000000001
43
0.0000000001
44
0.0000000001
40
23
40
23
40
23
40
23
40
24
40
24
40
24
40
25
40
25
40
25
40
26
40
26
40
26
40
26
10
-87.175371784971134
20
66.294169095516324
30
-4.4239792472963906e-18
10
-87.138509263278962
20
66.315550219371659
30
-1.8055467581330543e-18
10
-87.098050923174071
20
66.33111774459563
30
1.0092523548441968e-19
10
-87.052381876147706
20
66.33111774459563
30
1.0092523548441968e-19
10
-86.914319674576348
20
66.33111774459563
30
1.0092523548441968e-19
10
-86.802375603152512
20
66.219195205018579
30
-1.3605632749065314e-17
10
-86.802375603152512
20
66.081133003447178
30
-3.0513376072827915e-17
10
-86.802375603152512
20
65.943049270029007
30
-4.7423756287317266e-17
10
-86.914319674576348
20
65.831126730451956
30
-6.1130314271865027e-17
10
-87.052381876147706
20
65.831126730451956
30
-6.1130314271865027e-17
0
SPLINE
5
322
100
AcDbEntity
8
0
100
AcDbSpline
70
0
71
3
72
8
73
4
74
0
42
0.000000001
43
0.0000000001
44
0.0000000001
40
0
40
0
40
0
40
0
40
1
40
1
40
1
40
1
10
-87.052381876147706
20
65.831126730451956
30
-6.1130314271865027e-17
10
-87.098050923174071
20
65.831126730451956
30
-6.1130314271865027e-17
10
-87.138530795125746
20
65.846694255675928
30
-5.9223842278247553e-17
10
-87.175371784971134
20
65.868096911378046
30
-5.6602772898361412e-17
0
LINE
5
323
100
AcDbEntity
8
0
100
AcDbLine
10
-87.175371784971134
20
65.868096911378046
30
-5.6602772898361412e-17
11
-88.372757784563589
21
63.794170961104435
31
-3.1058545056548332e-16
0
SPLINE
5
324
100
AcDbEntity
8
0
100
AcDbSpline
70
0
71
3
72
14
73
10
74
0
42
0.000000001
43
0.0000000001
44
0.0000000001
40
2
40
2
40
2
40
2
40
3
40
3
40
3
40
4
40
4
40
4
40
5
40
5
40
5
40
5
10
-88.372757784563589
20
63.794170961104435
30
-3.1058545056548332e-16
10
-88.298214531001207
20
63.750891949070969
30
-3.1588560092118689e-16
10
-88.245741420391511
20
63.673528023580339
30
-3.2535994929334494e-16
10
-88.245741420391511
20
63.581134869035296
30
-3.3667484739101682e-16
10
-88.245741420391511
20
63.443051135617125
30
-3.5358522760550419e-16
10
-88.357685491815658
20
63.331128596040081
30
-3.6729178559004998e-16
10
-88.495747693387045
20
63.331128596040081
30
-3.6729178559004998e-16
10
-88.633831426804875
20
63.331128596040081
30
-3.6729178559004998e-16
10
-88.745753966381926
20
63.443051135617125
30
-3.5358522760550419e-16
10
-88.745753966381926
20
63.581134869035296
30
-3.3667484739101682e-16
0
LINE
5
325
100
AcDbEntity
8
0
100
AcDbLine
10
-88.745753966381926
20
63.581134869035296
30
-3.3667484739101682e-16
11
-91.132494586716248
21
63.581134869035296
31
-3.3667484739101682e-16
0
SPLINE
5
326
100
AcDbEntity
8
0
100
AcDbSpline
70
0
71
3
72
13
73
9
74
0
42
0.000000001
43
0.0000000001
44
0.0000000001
40
6
40
6
40
6
40
6
40
7
40
7
40
8
40
8
40
8
40
9
40
9
40
9
40
9
10
-91.132494586716248
20
63.581134869035296
30
-3.3667484739101682e-16
10
-91.132494586716248
20
63.443051135617125
30
-3.5358522760550419e-16
10
-91.244438658140083
20
63.331128596040081
30
-3.6729178559004998e-16
10
-91.520563061282871
20
63.331128596040081
30
-3.6729178559004998e-16
10
-91.632507132706991
20
63.443051135617125
30
-3.5358522760550419e-16
10
-91.632507132706991
20
63.581134869035296
30
-3.3667484739101682e-16
10
-91.632507132706991
20
63.673528023580339
30
-3.2535994929334494e-16
10
-91.580034022096982
20
63.750870417224192
30
-3.1588823781191167e-16
10
-91.505490768534912
20
63.794149429257637
30
-3.105880874562081e-16
0
LINE
5
327
100
AcDbEntity
8
0
100
AcDbLine
10
-91.505490768534912
20
63.794149429257637
30
-3.105880874562081e-16
11
-92.702876768127027
21
65.868075379531263
31
-5.6605409789086189e-17
0
SPLINE
5
328
100
AcDbEntity
8
0
100
AcDbSpline
70
0
71
3
72
17
73
13
74
0
42
0.000000001
43
0.0000000001
44
0.0000000001
40
10
40
10
40
10
40
10
40
11
40
11
40
11
40
12
40
12
40
12
40
13
40
13
40
13
40
14
40
14
40
14
40
14
10
-92.702876768127027
20
65.868075379531263
30
-5.6605409789086189e-17
10
-92.739739289819198
20
65.846694255675928
30
-5.9223842278247553e-17
10
-92.780219161770887
20
65.831126730451956
30
-6.1130314271865027e-17
10
-92.825888208797551
20
65.831126730451956
30
-6.1130314271865027e-17
10
-92.963950410368952
20
65.831126730451956
30
-6.1130314271865027e-17
10
-93.075872949945648
20
65.943049270029007
30
-4.7423756287317266e-17
10
-93.075872949945648
20
66.081133003447178
30
-3.0513376072827915e-17
10
-93.075872949945648
20
66.219195205018579
30
-1.3605632749065314e-17
10
-92.963950410368952
20
66.33111774459563
30
1.0092523548441968e-19
10
-92.825888208797551
20
66.33111774459563
30
1.0092523548441968e-19
10
-92.780219161770887
20
66.33111774459563
30
1.0092523548441968e-19
10
-92.739739289819198
20
66.315550219371659
30
-1.8055467581330543e-18
10
-92.702898299974123
20
66.294169095516324
30
-4.4239792472963906e-18
0
LINE
5
329
100
AcDbEntity
8
0
100
AcDbLine
10
-92.702898299974123
20
66.294169095516324
30
-4.4239792472963906e-18
11
-91.505490768534912
21
68.368095045789929
31
2.4955869841982552e-16
0
SPLINE
5
330
100
AcDbEntity
8
0
100
AcDbSpline
70
0
71
3
72
13
73
9
74
0
42
0.000000001
43
0.0000000001
44
0.0000000001
40
15
40
15
40
15
40
15
40
16
40
16
40
16
40
17
40
17
40
18
40
18
40
18
40
18
10
-91.505490768534912
20
68.368095045789929
30
2.4955869841982552e-16
10
-91.580034022096982
20
68.411374057823394
30
2.5485884877552909e-16
10
-91.632507132706991
20
68.488737983314024
30
2.6433319714768714e-16
10
-91.632507132706991
20
68.581131137859074
30
2.7564809524535901e-16
10
-91.632507132706991
20
68.719193339430433
30
2.9255583856911964e-16
10
-91.520563061282871
20
68.831137410854296
30
3.0626503344439613e-16
10
-91.244438658140083
20
68.831137410854296
30
3.0626503344439613e-16
10
-91.132494586716248
20
68.719193339430433
30
2.9255583856911964e-16
10
-91.132494586716248
20
68.581131137859074
30
2.7564809524535901e-16
0
SPLINE
5
331
100
AcDbEntity
8
0
100
AcDbSpline
70
0
71
3
72
14
73
10
74
0
42
0.000000001
43
0.0000000001
44
0.0000000001
40
19
40
19
40
19
40
19
40
20
40
20
40
20
40
21
40
21
40
21
40
22
40
22
40
22
40
22
10
-88.745753966381926
20
68.581131137859074
30
2.7564809524535901e-16
10
-88.745753966381926
20
68.719193339430433
30
2.9255583856911964e-16
10
-88.633831426804875
20
68.831137410854296
30
3.0626503344439613e-16
10
-88.495747693387045
20
68.831137410854296
30
3.0626503344439613e-16
10
-88.357685491815658
20
68.831137410854296
30
3.0626503344439613e-16
10
-88.245741420391511
20
68.719193339430433
30
2.9255583856911964e-16
10
-88.245741420391511
20
68.581131137859074
30
2.7564809524535901e-16
10
-88.245741420391511
20
68.488737983314024
30
2.6433319714768714e-16
10
-88.298214531001207
20
68.411374057823394
30
2.5485884877552909e-16
10
-88.372757784563589
20
68.368095045789929
30
2.4955869841982552e-16
0
LINE
5
332
100
AcDbEntity
8
0
100
AcDbLine
10
-91.132494586716248
20
68.581131137859074
30
2.7564809524535901e-16
11
-88.745753966381926
21
68.581131137859074
31
2.7564809524535901e-16
0
LINE
5
333
100
AcDbEntity
8
0
100
AcDbLine
10
1.7245959409122791
20
68.367817725537222
30
2.4952473648384351e-16
11
2.9219819405044256
21
66.293891775263603
31
-4.4579411832783945e-18
0
SPLINE
5
334
100
AcDbEntity
8
0
100
AcDbSpline
70
0
71
3
72
14
73
10
74
0
42
0.000000001
43
0.0000000001
44
0.0000000001
40
23
40
23
40
23
40
23
40
24
40
24
40
24
40
25
40
25
40
25
40
26
40
26
40
26
40
26
10
2.9219819405044256
20
66.293891775263603
30
-4.4579411832783945e-18
10
2.9588444621965992
20
66.315272899118909
30
-1.8395086941209747e-18
10
2.9993028023015023
20
66.330840424342895
30
6.6963299498471429e-20
10
3.0449718493278444
20
66.330840424342895
30
6.6963299498471429e-20
10
3.1830340508992316
20
66.330840424342895
30
6.6963299498471429e-20
10
3.294978122323069
20
66.21891788476583
30
-1.3639594685051262e-17
10
3.294978122323069
20
66.080855683194443
30
-3.0547338008813863e-17
10
3.294978122323069
20
65.942771949776301
30
-4.745771822329927e-17
10
3.1830340508992316
20
65.830849410199235
30
-6.1164276207849003e-17
10
3.0449718493278444
20
65.830849410199235
30
-6.1164276207849003e-17
0
SPLINE
5
335
100
AcDbEntity
8
0
100
AcDbSpline
70
0
71
3
72
8
73
4
74
0
42
0.000000001
43
0.0000000001
44
0.0000000001
40
0
40
0
40
0
40
0
40
1
40
1
40
1
40
1
10
3.0449718493278444
20
65.830849410199235
30
-6.1164276207849003e-17
10
2.9993028023015023
20
65.830849410199235
30
-6.1164276207849003e-17
10
2.9588229303498159
20
65.846416935423207
30
-5.9257804214229557e-17
10
2.9219819405044256
20
65.867819591125325
30
-5.6636734834345388e-17
0
LINE
5
336
100
AcDbEntity
8
0
100
AcDbLine
10
2.9219819405044256
20
65.867819591125325
30
-5.6636734834345388e-17
11
1.7245959409122791
21
63.793893640851678
31
-3.1061941250147124e-16
0
SPLINE
5
337
100
AcDbEntity
8
0
100
AcDbSpline
70
0
71
3
72
14
73
10
74
0
42
0.000000001
43
0.0000000001
44
0.0000000001
40
2
40
2
40
2
40
2
40
3
40
3
40
3
40
4
40
4
40
4
40
5
40
5
40
5
40
5
10
1.7245959409122791
20
63.793893640851678
30
-3.1061941250147124e-16
10
1.7991391944743729
20
63.750614628818248
30
-3.1591956285717087e-16
10
1.8516123050840827
20
63.673250703327604
30
-3.2539391122933089e-16
10
1.8516123050840827
20
63.580857548782575
30
-3.3670880932699882e-16
10
1.8516123050840827
20
63.442773815364404
30
-3.536191895414862e-16
10
1.7396682336602476
20
63.330851275787332
30
-3.673257475260379e-16
10
1.6016060320888603
20
63.330851275787332
30
-3.673257475260379e-16
10
1.4635222986706897
20
63.330851275787332
30
-3.673257475260379e-16
10
1.3515997590936357
20
63.442773815364404
30
-3.536191895414862e-16
10
1.3515997590936357
20
63.580857548782575
30
-3.3670880932699882e-16
0
LINE
5
338
100
AcDbEntity
8
0
100
AcDbLine
10
1.3515997590936357
20
63.580857548782575
30
-3.3670880932699882e-16
11
-1.0351408612406698
21
63.580857548782575
31
-3.3670880932699882e-16
0
SPLINE
5
339
100
AcDbEntity
8
0
100
AcDbSpline
70
0
71
3
72
13
73
9
74
0
42
0.000000001
43
0.0000000001
44
0.0000000001
40
6
40
6
40
6
40
6
40
7
40
7
40
8
40
8
40
8
40
9
40
9
40
9
40
9
10
-1.0351408612406698
20
63.580857548782575
30
-3.3670880932699882e-16
10
-1.0351408612406698
20
63.442773815364404
30
-3.536191895414862e-16
10
-1.1470849326645061
20
63.330851275787332
30
-3.673257475260379e-16
10
-1.4232093358072806
20
63.330851275787332
30
-3.673257475260379e-16
10
-1.5351534072311179
20
63.442773815364404
30
-3.536191895414862e-16
10
-1.5351534072311179
20
63.580857548782575
30
-3.3670880932699882e-16
10
-1.5351534072311179
20
63.673250703327604
30
-3.2539391122933089e-16
10
-1.482680296621407
20
63.750593096971471
30
-3.1592219974789367e-16
10
-1.4081370430593121
20
63.793872109004901
30
-3.1062204939219404e-16
0
LINE
5
340
100
AcDbEntity
8
0
100
AcDbLine
10
-1.4081370430593121
20
63.793872109004901
30
-3.1062204939219404e-16
11
-2.60552304265146
21
65.867798059278527
31
-5.6639371725070165e-17
0
SPLINE
5
341
100
AcDbEntity
8
0
100
AcDbSpline
70
0
71
3
72
17
73
13
74
0
42
0.000000001
43
0.0000000001
44
0.0000000001
40
10
40
10
40
10
40
10
40
11
40
11
40
11
40
12
40
12
40
12
40
13
40
13
40
13
40
14
40
14
40
14
40
14
10
-2.60552304265146
20
65.867798059278527
30
-5.6639371725070165e-17
10
-2.6423855643436323
20
65.846416935423207
30
-5.9257804214229557e-17
10
-2.6828654362953186
20
65.830849410199235
30
-6.1164276207849003e-17
10
-2.7285344833216607
20
65.830849410199235
30
-6.1164276207849003e-17
10
-2.866596684893048
20
65.830849410199235
30
-6.1164276207849003e-17
10
-2.978519224470102
20
65.942771949776301
30
-4.745771822329927e-17
10
-2.978519224470102
20
66.080855683194443
30
-3.0547338008813863e-17
10
-2.978519224470102
20
66.21891788476583
30
-1.3639594685051262e-17
10
-2.866596684893048
20
66.330840424342895
30
6.6963299498471429e-20
10
-2.7285344833216607
20
66.330840424342895
30
6.6963299498471429e-20
10
-2.6828654362953186
20
66.330840424342895
30
6.6963299498471429e-20
10
-2.6423855643436323
20
66.315272899118909
30
-1.8395086941209747e-18
10
-2.6055445744982419
20
66.293891775263603
30
-4.4579411832783945e-18
0
LINE
5
342
100
AcDbEntity
8
0
100
AcDbLine
10
-2.6055445744982419
20
66.293891775263603
30
-4.4579411832783945e-18
11
-1.4081370430593121
21
68.367817725537222
31
2.4952473648384351e-16
0
SPLINE
5
343
100
AcDbEntity
8
0
100
AcDbSpline
70
0
71
3
72
13
73
9
74
0
42
0.000000001
43
0.0000000001
44
0.0000000001
40
15
40
15
40
15
40
15
40
16
40
16
40
16
40
17
40
17
40
18
40
18
40
18
40
18
10
-1.4081370430593121
20
68.367817725537222
30
2.4952473648384351e-16
10
-1.482680296621407
20
68.411096737570659
30
2.5482488683954511e-16
10
-1.5351534072311179
20
68.488460663061275
30
2.6429923521169922e-16
10
-1.5351534072311179
20
68.580853817606325
30
2.7561413330937109e-16
10
-1.5351534072311179
20
68.718916019177712
30
2.9252187663313567e-16
10
-1.4232093358072806
20
68.830860090601561
30
3.0623107150841018e-16
10
-1.1470849326645061
20
68.830860090601561
30
3.0623107150841018e-16
10
-1.0351408612406698
20
68.718916019177712
30
2.9252187663313567e-16
10
-1.0351408612406698
20
68.580853817606325
30
2.7561413330937109e-16
0
SPLINE
5
344
100
AcDbEntity
8
0
100
AcDbSpline
70
0
71
3
72
14
73
10
74
0
42
0.000000001
43
0.0000000001
44
0.0000000001
40
19
40
19
40
19
40
19
40
20
40
20
40
20
40
21
40
21
40
21
40
22
40
22
40
22
40
22
10
1.3515997590936357
20
68.580853817606325
30
2.7561413330937109e-16
10
1.3515997590936357
20
68.718916019177712
30
2.9252187663313567e-16
10
1.4635222986706897
20
68.830860090601561
30
3.0623107150841018e-16
10
1.6016060320888603
20
68.830860090601561
30
3.0623107150841018e-16
10
1.7396682336602476
20
68.830860090601561
30
3.0623107150841018e-16
10
1.8516123050840827
20
68.718916019177712
30
2.9252187663313567e-16
10
1.8516123050840827
20
68.580853817606325
30
2.7561413330937109e-16
10
1.8516123050840827
20
68.488460663061275
30
2.6429923521169922e-16
10
1.7991391944743729
20
68.411096737570659
30
2.5482488683954511e-16
10
1.7245959409122791
20
68.367817725537222
30
2.4952473648384351e-16
0
LINE
5
345
100
AcDbEntity
8
0
100
AcDbLine
10
-1.0351408612406698
20
68.580853817606325
30
2.7561413330937109e-16
11
1.3515997590936357
21
68.580853817606325
31
2.7561413330937109e-16
0
LWPOLYLINE
5
346
100
AcDbEntity
8
0
100
AcDbPolyline
90
8
70
1
43
0.0
10
273.65082438433802
20
61.579454252725
42
-0.41421356237286611
10
275.65082438383729
20
59.579454253224199
10
275.65083033485342
20
-8.0978142768343986
10
285.14833031925752
20
-8.0978109520158448
10
285.14832436824145
20
69.081133002697271
42
0.41421356237314705
10
283.14832436874156
20
71.081133002196836
10
92.158324368741546
20
71.081133002162915
10
92.158824384338018
20
61.579454252846439
0
LINE
5
347
100
AcDbEntity
8
0
100
AcDbLine
10
278.95495405932411
20
63.581134869035424
30
1.9184476911959477e-14
11
281.34169467965842
21
63.581134869035424
31
1.9476768338068213e-14
0
SPLINE
5
348
100
AcDbEntity
8
0
100
AcDbSpline
70
0
71
3
72
13
73
9
74
0
42
0.000000001
43
0.0000000001
44
0.0000000001
40
6
40
6
40
6
40
6
40
7
40
7
40
8
40
8
40
8
40
9
40
9
40
9
40
9
10
281.34169467965842
20
63.581134869035424
30
1.9476768338068213e-14
10
281.34169467965842
20
63.443051135617253
30
1.9493678718282701e-14
10
281.45363875108222
20
63.331128596040216
30
1.9521094471142525e-14
10
281.729763154225
20
63.331128596040216
30
1.9554909957790049e-14
10
281.84170722564915
20
63.443051135617253
30
1.9554912594680813e-14
10
281.84170722564915
20
63.581134869035424
30
1.9538002214466328e-14
10
281.84170722564915
20
63.673528023580474
30
1.9526687316368655e-14
10
281.78923411503916
20
63.75087041722432
30
1.9510789502192232e-14
10
281.7146908614771
20
63.794149429257772
30
1.9496360436149246e-14
0
LINE
5
349
100
AcDbEntity
8
0
100
AcDbLine
10
281.7146908614771
20
63.794149429257772
30
1.9496360436149246e-14
11
282.91207686106924
21
65.868075379531405
31
1.9389015251656563e-14
0
SPLINE
5
350
100
AcDbEntity
8
0
100
AcDbSpline
70
0
71
3
72
17
73
13
74
0
42
0.000000001
43
0.0000000001
44
0.0000000001
40
10
40
10
40
10
40
10
40
11
40
11
40
11
40
12
40
12
40
12
40
13
40
13
40
13
40
14
40
14
40
14
40
14
10
282.91207686106924
20
65.868075379531405
30
1.9389015251656563e-14
10
282.94893938276141
20
65.846694255676056
30
1.9396148041065603e-14
10
282.98941925471303
20
65.831126730452084
30
1.9403011867620777e-14
10
283.03508830173973
20
65.831126730452084
30
1.9408604712846907e-14
10
283.17315050331109
20
65.831126730452084
30
1.9425512456170673e-14
10
283.28507304288786
20
65.94304927002915
30
1.9425512456170628e-14
10
283.28507304288786
20
66.08113300344732
30
1.940860207595614e-14
10
283.28507304288786
20
66.219195205018707
30
1.9391694332632381e-14
10
283.17315050331109
20
66.331117744595772
30
1.9364281216663322e-14
10
283.03508830173973
20
66.331117744595772
30
1.9347373473339559e-14
10
282.98941925471303
20
66.331117744595772
30
1.9341780628113426e-14
10
282.94893938276141
20
66.315550219371801
30
1.9338729745545491e-14
10
282.91209839291633
20
66.294169095516452
30
1.9336836458005534e-14
0
LINE
5
351
100
AcDbEntity
8
0
100
AcDbLine
10
282.91209839291633
20
66.294169095516452
30
1.9336836458005534e-14
11
281.7146908614771
21
68.368095045790071
31
1.8936213650273215e-14
0
SPLINE
5
352
100
AcDbEntity
8
0
100
AcDbSpline
70
0
71
3
72
13
73
9
74
0
42
0.000000001
43
0.0000000001
44
0.0000000001
40
15
40
15
40
15
40
15
40
16
40
16
40
16
40
17
40
17
40
18
40
18
40
18
40
18
10
281.7146908614771
20
68.368095045790071
30
1.8936213650273215e-14
10
281.78923411503916
20
68.411374057823537
30
1.8940042415604793e-14
10
281.84170722564915
20
68.488737983314167
30
1.8936994169927623e-14
10
281.84170722564915
20
68.581131137859202
30
1.892567927182995e-14
10
281.84170722564915
20
68.719193339430561
30
1.8908771528506188e-14
10
281.729763154225
20
68.831137410854438
30
1.8881353138755604e-14
10
281.45363875108222
20
68.831137410854438
30
1.8847537652108076e-14
10
281.34169467965842
20
68.719193339430561
30
1.8847537652108079e-14
10
281.34169467965842
20
68.581131137859202
30
1.8864445395431841e-14
0
LINE
5
353
100
AcDbEntity
8
0
100
AcDbLine
10
281.34169467965842
20
68.581131137859202
30
1.8864445395431841e-14
11
278.95495405932411
21
68.581131137859202
31
1.8572153969323102e-14
0
SPLINE
5
354
100
AcDbEntity
8
0
100
AcDbSpline
70
0
71
3
72
14
73
10
74
0
42
0.000000001
43
0.0000000001
44
0.0000000001
40
19
40
19
40
19
40
19
40
20
40
20
40
20
40
21
40
21
40
21
40
22
40
22
40
22
40
22
10
278.95495405932411
20
68.581131137859202
30
1.8572153969323102e-14
10
278.95495405932411
20
68.719193339430561
30
1.8555246225999343e-14
10
278.84303151974706
20
68.831137410854438
30
1.8527830473139514e-14
10
278.70494778632923
20
68.831137410854438
30
1.8510920092925072e-14
10
278.56688558475781
20
68.831137410854438
30
1.8494012349601307e-14
10
278.45494151333367
20
68.719193339430561
30
1.8494012349601272e-14
10
278.45494151333367
20
68.581131137859202
30
1.8510920092925031e-14
10
278.45494151333367
20
68.488737983314167
30
1.8522234991022704e-14
10
278.50741462394342
20
68.411374057823537
30
1.853813544208981e-14
10
278.58195787750572
20
68.368095045790071
30
1.8552564508132837e-14
0
LINE
5
355
100
AcDbEntity
8
0
100
AcDbLine
10
278.58195787750572
20
68.368095045790071
30
1.8552564508132837e-14
11
277.38457187791334
21
66.294169095516452
31
1.8659909692625482e-14
0
SPLINE
5
356
100
AcDbEntity
8
0
100
AcDbSpline
70
0
71
3
72
14
73
10
74
0
42
0.000000001
43
0.0000000001
44
0.0000000001
40
23
40
23
40
23
40
23
40
24
40
24
40
24
40
25
40
25
40
25
40
26
40
26
40
26
40
26
10
277.38457187791334
20
66.294169095516452
30
1.8659909692625482e-14
10
277.34770935622117
20
66.315550219371801
30
1.8652776903216432e-14
10
277.30725101611625
20
66.331117744595772
30
1.8645915713551991e-14
10
277.26158196908989
20
66.331117744595772
30
1.8640322868325899e-14
10
277.12351976751853
20
66.331117744595772
30
1.8623415125002136e-14
10
277.01157569609472
20
66.219195205018707
30
1.8623412488111413e-14
10
277.01157569609472
20
66.08113300344732
30
1.8640320231435175e-14
10
277.01157569609472
20
65.94304927002915
30
1.8657230611649667e-14
10
277.12351976751853
20
65.831126730452084
30
1.8684646364509487e-14
10
277.26158196908989
20
65.831126730452084
30
1.8701554107833246e-14
0
SPLINE
5
357
100
AcDbEntity
8
0
100
AcDbSpline
70
0
71
3
72
8
73
4
74
0
42
0.000000001
43
0.0000000001
44
0.0000000001
40
0
40
0
40
0
40
0
40
1
40
1
40
1
40
1
10
277.26158196908989
20
65.831126730452084
30
1.8701554107833246e-14
10
277.30725101611625
20
65.831126730452084
30
1.8707146953059339e-14
10
277.34773088806787
20
65.846694255676056
30
1.8710197835627277e-14
10
277.38457187791334
20
65.868096911378174
30
1.8712088486276546e-14
0
SPLINE
5
358
100
AcDbEntity
8
0
100
AcDbSpline
70
0
71
3
72
14
73
10
74
0
42
0.000000001
43
0.0000000001
44
0.0000000001
40
2
40
2
40
2
40
2
40
3
40
3
40
3
40
4
40
4
40
4
40
5
40
5
40
5
40
5
10
278.58195787750572
20
63.79417096110457
30
1.9112708657118141e-14
10
278.50741462394342
20
63.750891949071104
30
1.9108879891786528e-14
10
278.45494151333367
20
63.673528023580474
30
1.911192813746374e-14
10
278.45494151333367
20
63.581134869035424
30
1.9123243035561409e-14
10
278.45494151333367
20
63.443051135617253
30
1.9140153415775898e-14
10
278.56688558475781
20
63.331128596040216
30
1.9167569168635753e-14
10
278.70494778632923
20
63.331128596040216
30
1.9184476911959515e-14
10
278.84303151974706
20
63.331128596040216
30
1.9201387292173963e-14
10
278.95495405932411
20
63.443051135617253
30
1.9201387292173966e-14
10
278.95495405932411
20
63.581134869035424
30
1.9184476911959477e-14
0
LINE
5
359
100
AcDbEntity
8
0
100
AcDbLine
10
277.38457187791334
20
65.868096911378174
30
1.8712088486276546e-14
11
278.58195787750572
21
63.79417096110457
31
1.9112708657118141e-14
0
LINE
5
360
100
AcDbEntity
8
0
100
AcDbLine
10
153.81474466744035
20
66.293891775263745
30
8.3031268347864264e-15
11
152.61733713600148
21
68.36781772553735
31
7.9025040270541411e-15
0
SPLINE
5
361
100
AcDbEntity
8
0
100
AcDbSpline
70
0
71
3
72
13
73
9
74
0
42
0.000000001
43
0.0000000001
44
0.0000000001
40
15
40
15
40
15
40
15
40
16
40
16
40
16
40
17
40
17
40
18
40
18
40
18
40
18
10
152.61733713600148
20
68.36781772553735
30
7.9025040270541411e-15
10
152.69188038956355
20
68.411096737570801
30
7.9063327923857255e-15
10
152.74435350017325
20
68.488460663061403
30
7.903284546708519e-15
10
152.74435350017325
20
68.580853817606453
30
7.8919696486108479e-15
10
152.74435350017325
20
68.71891601917784
30
7.8750619052870841e-15
10
152.63240942874941
20
68.830860090601703
30
7.8476435155365359e-15
10
152.35628502560664
20
68.830860090601703
30
7.8138280288890099e-15
10
152.2443409541828
20
68.71891601917784
30
7.8138280288890115e-15
10
152.2443409541828
20
68.580853817606453
30
7.8307357722127752e-15
0
LINE
5
362
100
AcDbEntity
8
0
100
AcDbLine
10
152.2443409541828
20
68.580853817606453
30
7.8307357722127752e-15
11
149.85760033384855
21
68.580853817606453
31
7.5384443461040379e-15
0
SPLINE
5
363
100
AcDbEntity
8
0
100
AcDbSpline
70
0
71
3
72
14
73
10
74
0
42
0.000000001
43
0.0000000001
44
0.0000000001
40
19
40
19
40
19
40
19
40
20
40
20
40
20
40
21
40
21
40
21
40
22
40
22
40
22
40
22
10
149.85760033384855
20
68.580853817606453
30
7.5384443461040379e-15
10
149.85760033384855
20
68.71891601917784
30
7.5215366027802742e-15
10
149.74567779427144
20
68.830860090601703
30
7.4941208499204507e-15
10
149.60759406085327
20
68.830860090601703
30
7.4772104697059621e-15
10
149.46953185928191
20
68.830860090601703
30
7.4603027263821999e-15
10
149.35758778785808
20
68.71891601917784
30
7.4603027263822015e-15
10
149.35758778785808
20
68.580853817606453
30
7.4772104697059653e-15
10
149.35758778785808
20
68.488460663061403
30
7.488525367803638e-15
10
149.41006089846778
20
68.411096737570801
30
7.504425818870742e-15
10
149.48460415202985
20
68.36781772553735
30
7.518854884913728e-15
0
LINE
5
364
100
AcDbEntity
8
0
100
AcDbLine
10
149.48460415202985
20
68.36781772553735
30
7.518854884913728e-15
11
148.28721815243773
21
66.293891775263745
31
7.6262000694064113e-15
0
SPLINE
5
365
100
AcDbEntity
8
0
100
AcDbSpline
70
0
71
3
72
14
73
10
74
0
42
0.000000001
43
0.0000000001
44
0.0000000001
40
23
40
23
40
23
40
23
40
24
40
24
40
24
40
25
40
25
40
25
40
26
40
26
40
26
40
26
10
148.28721815243773
20
66.293891775263745
30
7.6262000694064113e-15
10
148.25035563074556
20
66.315272899119037
30
7.6190672799973722e-15
10
148.20989729064064
20
66.330840424343037
30
7.6122060903329251e-15
10
148.1642282436143
20
66.330840424343037
30
7.6066132451068324e-15
10
148.02616604204295
20
66.330840424343037
30
7.5897055017830687e-15
10
147.91422197061911
20
66.218917884765958
30
7.589702864892347e-15
10
147.91422197061911
20
66.080855683194585
30
7.6066106082161092e-15
10
147.91422197061911
20
65.942771949776429
30
7.6235209884305947e-15
10
148.02616604204295
20
65.830849410199363
30
7.6509367412904165e-15
10
148.1642282436143
20
65.830849410199363
30
7.6678444846141803e-15
0
SPLINE
5
366
100
AcDbEntity
8
0
100
AcDbSpline
70
0
71
3
72
8
73
4
74
0
42
0.000000001
43
0.0000000001
44
0.0000000001
40
0
40
0
40
0
40
0
40
1
40
1
40
1
40
1
10
148.1642282436143
20
65.830849410199363
30
7.6678444846141803e-15
10
148.20989729064064
20
65.830849410199363
30
7.6734373298402714e-15
10
148.25037716259237
20
65.846416935423349
30
7.6764882124082044e-15
10
148.28721815243773
20
65.867819591125453
30
7.6783788630574783e-15
0
LINE
5
367
100
AcDbEntity
8
0
100
AcDbLine
10
148.28721815243773
20
65.867819591125453
30
7.6783788630574783e-15
11
149.48460415202985
21
63.793893640851813
31
8.078999033899042e-15
0
SPLINE
5
368
100
AcDbEntity
8
0
100
AcDbSpline
70
0
71
3
72
14
73
10
74
0
42
0.000000001
43
0.0000000001
44
0.0000000001
40
2
40
2
40
2
40
2
40
3
40
3
40
3
40
4
40
4
40
4
40
5
40
5
40
5
40
5
10
149.48460415202985
20
63.793893640851813
30
8.078999033899042e-15
10
149.41006089846778
20
63.750614628818383
30
8.0751702685674576e-15
10
149.35758778785808
20
63.673250703327739
30
8.0782185142446673e-15
10
149.35758778785808
20
63.58085754878271
30
8.0895334123423352e-15
10
149.35758778785808
20
63.442773815364539
30
8.1064437925568238e-15
10
149.46953185928191
20
63.330851275787467
30
8.1338595454166472e-15
10
149.60759406085327
20
63.330851275787467
30
8.150767288740411e-15
10
149.74567779427144
20
63.330851275787467
30
8.1676776689548996e-15
10
149.85760033384855
20
63.442773815364539
30
8.1676776689548948e-15
10
149.85760033384855
20
63.58085754878271
30
8.1507672887404079e-15
0
LINE
5
369
100
AcDbEntity
8
0
100
AcDbLine
10
149.85760033384855
20
63.58085754878271
30
8.1507672887404079e-15
11
152.2443409541828
21
63.58085754878271
31
8.4430587148491452e-15
0
SPLINE
5
370
100
AcDbEntity
8
0
100
AcDbSpline
70
0
71
3
72
13
73
9
74
0
42
0.000000001
43
0.0000000001
44
0.0000000001
40
6
40
6
40
6
40
6
40
7
40
7
40
8
40
8
40
8
40
9
40
9
40
9
40
9
10
152.2443409541828
20
63.58085754878271
30
8.4430587148491452e-15
10
152.2443409541828
20
63.442773815364539
30
8.4599690950636321e-15
10
152.35628502560664
20
63.330851275787467
30
8.4873848479234572e-15
10
152.63240942874941
20
63.330851275787467
30
8.5212003345709847e-15
10
152.74435350017325
20
63.442773815364539
30
8.5212029714617048e-15
10
152.74435350017325
20
63.58085754878271
30
8.5042925912472178e-15
10
152.74435350017325
20
63.673250703327739
30
8.4929776931495499e-15
10
152.69188038956355
20
63.750593096971606
30
8.4770798789731643e-15
10
152.61733713600148
20
63.793872109005036
30
8.4626508129301799e-15
0
SPLINE
5
371
100
AcDbEntity
8
0
100
AcDbSpline
70
0
71
3
72
17
73
13
74
0
42
0.000000001
43
0.0000000001
44
0.0000000001
40
10
40
10
40
10
40
10
40
11
40
11
40
11
40
12
40
12
40
12
40
13
40
13
40
13
40
14
40
14
40
14
40
14
10
153.81472313559362
20
65.86779805927867
30
8.3553056284374934e-15
10
153.8515856572858
20
65.846416935423349
30
8.3624384178465341e-15
10
153.89206552923744
20
65.830849410199363
30
8.3693022444017075e-15
10
153.93773457626378
20
65.830849410199363
30
8.3748950896277986e-15
10
154.07579677783522
20
65.830849410199363
30
8.3918028329515624e-15
10
154.18771931741225
20
65.942771949776429
30
8.3918028329515608e-15
10
154.18771931741225
20
66.080855683194585
30
8.3748924527370754e-15
10
154.18771931741225
20
66.218917884765958
30
8.3579847094133132e-15
10
154.07579677783522
20
66.330840424343037
30
8.3305715934442145e-15
10
153.93773457626378
20
66.330840424343037
30
8.3136638501204508e-15
10
153.89206552923744
20
66.330840424343037
30
8.3080710048943596e-15
10
153.8515856572858
20
66.315272899119037
30
8.3050201223264267e-15
10
153.81474466744035
20
66.293891775263745
30
8.3031268347864264e-15
0
LINE
5
372
100
AcDbEntity
8
0
100
AcDbLine
10
152.61733713600148
20
63.793872109005036
30
8.4626508129301799e-15
11
153.81472313559362
21
65.86779805927867
31
8.3553056284374934e-15
0
CIRCLE
5
373
100
AcDbEntity
8
0
100
AcDbCircle
10
-79.439125630102438
20
55.581134388949152
30
0
40
1.3499999999999983
210
0
220
0
230
1
0
CIRCLE
5
374
100
AcDbEntity
8
0
100
AcDbCircle
10
10.658229448926482
20
55.58085568319445
30
-3.0547338008813863e-17
40
1.3499999999999979
210
0
220
0
230
1
0
CIRCLE
5
375
100
AcDbEntity
8
0
100
AcDbCircle
10
140.55097064401568
20
55.580855683194585
30
8.3748924527370754e-15
40
1.3500000000000032
210
0
220
0
230
1
0
CIRCLE
5
376
100
AcDbEntity
8
0
100
AcDbCircle
10
269.64832436949121
20
55.58113300344732
30
1.940860207595614e-14
40
1.3500000000000136
210
0
220
0
230
1
0
CIRCLE
5
377
100
AcDbEntity
8
0
100
AcDbCircle
10
140.65822941642924
20
-75.778086578490885
30
0
40
1.349999999999997
210
0
220
0
230
1
0
CIRCLE
5
378
100
AcDbEntity
8
0
100
AcDbCircle
10
269.64832436949212
20
-75.778363898743578
30
0
40
1.3499999999999981
210
0
220
0
230
1
0
CIRCLE
5
379
100
AcDbEntity
8
0
100
AcDbCircle
10
10.658229449073991
20
-75.778086578344102
30
0
40
1.3500000000000023
210
0
220
0
230
1
0
CIRCLE
5
380
100
AcDbEntity
8
0
100
AcDbCircle
10
-79.439124276401586
20
-75.778363898596837
30
0
40
1.3499999999999979
210
0
220
0
230
1
0
LINE
5
381
100
AcDbEntity
8
0
100
AcDbLine
10
-16.173502901142758
20
115.48405848404303
30
0
11
66.210344135176598
21
97.972838092933316
31
0
0
LINE
5
382
100
AcDbEntity
8
0
100
AcDbLine
10
231.39338905614221
20
211.73613199695393
30
0
11
175.74338364470745
21
211.73613199695393
31
0
0
LINE
5
383
100
AcDbEntity
8
0
100
AcDbLine
10
78.15885777663361
20
193.3636100288908
30
0
11
81.756573106650563
21
176.4377736298959
31
0
0
SPLINE
5
384
100
AcDbEntity
8
0
100
AcDbSpline
70
0
71
3
72
8
73
4
74
0
42
0.000000001
43
0.0000000001
44
0.0000000001
40
8
40
8
40
8
40
8
40
9
40
9
40
9
40
9
10
260.87836795773359
20
195.94861589439998
30
0
10
260.87836795773359
20
196.77702249567739
30
0
10
260.2068248647264
20
197.44858568148788
30
0
10
259.37841826382243
20
197.44861046733723
30
0
0
LINE
5
385
100
AcDbEntity
8
0
100
AcDbLine
10
56.282356924518581
20
159.78286923427484
30
0
11
59.932700400285427
21
176.9564264184325
31
0
0
SPLINE
5
386
100
AcDbEntity
8
0
100
AcDbSpline
70
0
71
3
72
8
73
4
74
0
42
0.000000001
43
0.0000000001
44
0.0000000001
40
22
40
22
40
22
40
22
40
23
40
23
40
23
40
23
10
244.84866807078919
20
177.39899908052169
30
0
10
244.98654262072634
20
177.39902053437379
30
0
10
245.09832340601452
20
177.287257141287
30
0
10
245.09832340601452
20
177.14938258968147
30
0
0
SPLINE
5
387
100
AcDbEntity
8
0
100
AcDbSpline
70
0
71
3
72
8
73
4
74
0
42
0.000000001
43
0.0000000001
44
0.0000000001
40
16
40
16
40
16
40
16
40
17
40
17
40
17
40
17
10
237.06586796368669
20
191.18588297342768
30
0
10
237.06586796368669
20
192.01434826746259
30
0
10
236.39433867152619
20
192.68599147558177
30
0
10
235.56587338940892
20
192.68613200171643
30
0
0
SPLINE
5
388
100
AcDbEntity
8
0
100
AcDbSpline
70
0
71
3
72
8
73
4
74
0
42
0.000000001
43
0.0000000001
44
0.0000000001
40
14
40
14
40
14
40
14
40
15
40
15
40
15
40
15
10
237.31123301641901
20
173.63661082516364
30
0
10
237.17572020505622
20
173.63661572331659
30
0
10
237.06586796368669
20
173.74647193540167
30
0
10
237.06586796368669
20
173.88198474685305
30
0
0
LINE
5
389
100
AcDbEntity
8
0
100
AcDbLine
10
155.69338008933582
20
211.3775836843285
30
0
11
79.314211114467582
21
195.14269987044764
31
0
0
LINE
5
390
100
AcDbEntity
8
0
100
AcDbLine
10
-5.8866150891822775
20
213.23651414447252
30
0
11
-22.936629495998329
21
213.23651414447252
31
0
0
LINE
5
391
100
AcDbEntity
8
0
100
AcDbLine
10
239.83569282519909
20
173.63651957776256
30
0
11
237.31123301641901
21
173.63661082516364
31
0
0
LWPOLYLINE
5
392
100
AcDbEntity
8
0
100
AcDbPolyline
90
8
70
1
43
0.0
10
59.15787572420065
20
236.08113300217241
10
-92.939124275799372
20
236.08113300219668
42
0.41421356237314705
10
-94.939124275299235
20
234.08113300269716
10
-94.939130226315385
20
156.90218904798402
10
-85.441630241911241
20
156.90218572316547
10
-85.441624290895078
20
224.57945425322407
42
-0.41421356237286611
10
-83.44162429139584
20
226.57945425272487
10
59.158375708604169
20
226.57945425283759
0
LINE
5
393
100
AcDbEntity
8
0
100
AcDbLine
10
192.18159215703673
20
134.5361284558698
30
0
11
220.78613384367901
21
134.5361284558698
31
0
0
SPLINE
5
394
100
AcDbEntity
8
0
100
AcDbSpline
70
0
71
3
72
8
73
4
74
0
42
0.000000001
43
0.0000000001
44
0.0000000001
40
10
40
10
40
10
40
10
40
11
40
11
40
11
40
11
10
256.95615867146319
20
197.448682941111
30
0
10
256.81795815209387
20
197.44868707605855
30
0
10
256.70592668816039
20
197.56072189201475
30
0
10
256.70592668816039
20
197.69892241144319
30
0
0
LINE
5
395
100
AcDbEntity
8
0
100
AcDbLine
10
56.981976760300903
20
140.16816347048569
30
0
11
60.629799817808788
21
157.32983169787636
31
0
0
LINE
5
396
100
AcDbEntity
8
0
100
AcDbLine
10
81.368972997467225
20
155.35426158855864
30
0
11
84.966646369495805
21
138.42852652618578
31
0
0
SPLINE
5
397
100
AcDbEntity
8
0
100
AcDbSpline
70
0
71
3
72
8
73
4
74
0
42
0.000000001
43
0.0000000001
44
0.0000000001
40
31
40
31
40
31
40
31
40
32
40
32
40
32
40
32
10
60.629799817808788
20
157.32983169787636
30
0
10
60.773370452423279
20
158.00527882335763
30
0
10
60.342199021295222
20
158.66922380380464
30
0
10
59.666751771981751
20
158.81279385583116
30
0
0
LINE
5
398
100
AcDbEntity
8
0
100
AcDbLine
10
263.64833238710844
20
178.39861047344021
30
0
11
261.12448675019232
21
178.39873430697821
31
0
0
LINE
5
399
100
AcDbEntity
8
0
100
AcDbLine
10
69.561086963010638
20
176.44123311893316
30
0
11
73.209801890964542
21
193.60709214831175
31
0
0
SPLINE
5
400
100
AcDbEntity
8
0
100
AcDbSpline
70
0
71
3
72
14
73
10
74
0
42
0.000000001
43
0.0000000001
44
0.0000000001
40
19
40
19
40
19
40
19
40
20
40
20
40
20
40
21
40
21
40
21
40
22
40
22
40
22
40
22
10
149.85760033384855
20
233.58085381760645
30
7.5384443461040379e-15
10
149.85760033384855
20
233.71891601917784
30
7.5215366027802742e-15
10
149.74567779427144
20
233.83086009060173
30
7.4941208499204507e-15
10
149.60759406085327
20
233.83086009060173
30
7.4772104697059621e-15
10
149.46953185928191
20
233.83086009060173
30
7.4603027263821999e-15
10
149.35758778785808
20
233.71891601917784
30
7.4603027263822015e-15
10
149.35758778785808
20
233.58085381760645
30
7.4772104697059653e-15
10
149.35758778785808
20
233.4884606630614
30
7.488525367803638e-15
10
149.41006089846778
20
233.4110967375708
30
7.504425818870742e-15
10
149.48460415202985
20
233.36781772553735
30
7.518854884913728e-15
0
LINE
5
401
100
AcDbEntity
8
0
100
AcDbLine
10
237.06586796368669
20
173.88198474685305
30
0
11
237.06586796368669
21
191.18588297342768
31
0
0
LINE
5
402
100
AcDbEntity
8
0
100
AcDbLine
10
241.33563318071822
20
155.08651059862589
30
0
11
241.33563318071822
21
172.13652500544197
31
0
0
LINE
5
403
100
AcDbEntity
8
0
100
AcDbLine
10
60.226375709563548
20
177.14714163530158
30
0
11
68.07814897309278
21
175.47820116549309
31
0
0
LINE
5
404
100
AcDbEntity
8
0
100
AcDbLine
10
235.56587338940892
20
192.68613200171643
30
0
11
233.144713349668
21
192.68654268429404
31
0
0
SPLINE
5
405
100
AcDbEntity
8
0
100
AcDbSpline
70
0
71
3
72
8
73
4
74
0
42
0.000000001
43
0.0000000001
44
0.0000000001
40
36
40
36
40
36
40
36
40
37
40
37
40
37
40
37
10
81.077024008837512
20
155.54385571368965
30
0
10
81.209998456765788
20
155.57212016872452
30
0
10
81.340708432041851
20
155.48723601301998
30
0
10
81.368972997467225
20
155.35426158855864
30
0
0
LINE
5
406
100
AcDbEntity
8
0
100
AcDbLine
10
238.15620812516048
20
196.44862849662377
30
0
11
240.5825448042327
21
196.44909831186925
31
0
0
SPLINE
5
407
100
AcDbEntity
8
0
100
AcDbSpline
70
0
71
3
72
8
73
4
74
0
42
0.000000001
43
0.0000000001
44
0.0000000001
40
30
40
30
40
30
40
30
40
31
40
31
40
31
40
31
10
81.756573106650563
20
176.4377736298959
30
0
10
81.784827301171873
20
176.30484875113672
30
0
10
81.699974815513414
20
176.17418733306272
30
0
10
81.567049889625295
20
176.14593336025865
30
0
0
LINE
5
408
100
AcDbEntity
8
0
100
AcDbLine
10
259.37841826382243
20
197.44861046733723
30
0
11
256.95615867146319
21
197.448682941111
31
0
0
SPLINE
5
409
100
AcDbEntity
8
0
100
AcDbSpline
70
0
71
3
72
17
73
13
74
0
42
0.000000001
43
0.0000000001
44
0.0000000001
40
10
40
10
40
10
40
10
40
11
40
11
40
11
40
12
40
12
40
12
40
13
40
13
40
13
40
14
40
14
40
14
40
14
10
148.39447692485129
20
78.934971045425044
30
0
10
148.3576144031592
20
78.956352169280393
30
0
10
148.3171345312075
20
78.971919694504393
30
0
10
148.27146548418108
20
78.971919694504393
30
0
10
148.13340328260972
20
78.971919694504393
30
0
10
148.02148074303267
20
78.859997154927299
30
0
10
148.02148074303267
20
78.721913421509129
30
0
10
148.02148074303267
20
78.58385121993777
30
0
10
148.13340328260972
20
78.471928680360719
30
0
10
148.27146548418108
20
78.471928680360719
30
0
10
148.3171345312075
20
78.471928680360719
30
0
10
148.3576144031592
20
78.487496205584677
30
0
10
148.39445539300448
20
78.508877329440026
30
0
0
SPLINE
5
410
100
AcDbEntity
8
0
100
AcDbSpline
70
0
71
3
72
8
73
4
74
0
42
0.000000001
43
0.0000000001
44
0.0000000001
40
18
40
18
40
18
40
18
40
19
40
19
40
19
40
19
10
240.5825448042327
20
196.44909831186925
30
0
10
240.71831141030049
20
196.44912460056173
30
0
10
240.82838593420871
20
196.33907138848605
30
0
10
240.82838593420871
20
196.20330477987196
30
0
0
LINE
5
411
100
AcDbEntity
8
0
100
AcDbLine
10
-70.764373353399051
20
172.38569659409069
30
0
11
-70.764373353399051
21
154.83405239982037
31
0
0
LINE
5
412
100
AcDbEntity
8
0
100
AcDbLine
10
72.802638746875857
20
172.74949309160604
30
0
11
76.347534243298952
21
156.07208775754464
31
0
0
SPLINE
5
413
100
AcDbEntity
8
0
100
AcDbSpline
70
0
71
3
72
13
73
9
74
0
42
0.000000001
43
0.0000000001
44
0.0000000001
40
6
40
6
40
6
40
6
40
7
40
7
40
8
40
8
40
8
40
9
40
9
40
9
40
9
10
152.2443409541828
20
228.58085754878272
30
8.4430587148491452e-15
10
152.2443409541828
20
228.44277381536455
30
8.4599690950636321e-15
10
152.35628502560664
20
228.3308512757875
30
8.4873848479234572e-15
10
152.63240942874941
20
228.3308512757875
30
8.5212003345709847e-15
10
152.74435350017325
20
228.44277381536455
30
8.5212029714617048e-15
10
152.74435350017325
20
228.58085754878272
30
8.5042925912472178e-15
10
152.74435350017325
20
228.67325070332777
30
8.4929776931495499e-15
10
152.69188038956355
20
228.75059309697161
30
8.4770798789731643e-15
10
152.61733713600148
20
228.79387210900504
30
8.4626508129301799e-15
0
LINE
5
414
100
AcDbEntity
8
0
100
AcDbLine
10
72.246752963106132
20
195.0900573466854
30
0
11
-4.3866205149045001
21
211.37898325436743
31
0
0
LWPOLYLINE
5
415
100
AcDbEntity
8
0
100
AcDbPolyline
90
8
70
1
43
0.0
10
-84.439124275298212
20
223.58113300269514
10
-84.439124275298212
20
86.221636102506977
42
0.41421356237310281
10
-82.439124275298212
20
84.221636102506977
10
272.64832436824173
20
84.221636102506977
42
0.41421356237310802
10
274.64832436824179
20
86.221636102506963
10
274.64832436824179
20
223.58113300269514
42
0.41421356237318868
10
272.64832436873968
20
225.58113300219793
10
-82.439124275798349
20
225.58113300219793
42
0.41421356237352164
0
SPLINE
5
416
100
AcDbEntity
8
0
100
AcDbSpline
70
0
71
3
72
14
73
10
74
0
42
0.000000001
43
0.0000000001
44
0.0000000001
40
2
40
2
40
2
40
2
40
3
40
3
40
3
40
4
40
4
40
4
40
5
40
5
40
5
40
5
10
152.72459590841507
20
81.008875463851922
30
0
10
152.79913916197708
20
81.052154475885345
30
0
10
152.85161227258692
20
81.129518401375975
30
0
10
152.85161227258692
20
81.221911555921054
30
0
10
152.85161227258692
20
81.359995289339196
30
0
10
152.739668201163
20
81.471917828916247
30
0
10
152.6016059995917
20
81.471917828916247
30
0
10
152.4635222661735
20
81.471917828916247
30
0
10
152.35159972659642
20
81.359995289339196
30
0
10
152.35159972659642
20
81.221911555921054
30
0
0
SPLINE
5
417
100
AcDbEntity
8
0
100
AcDbSpline
70
0
71
3
72
8
73
4
74
0
42
0.000000001
43
0.0000000001
44
0.0000000001
40
21
40
21
40
21
40
21
40
22
40
22
40
22
40
22
10
66.210344135176612
20
97.972838092933316
30
0
10
66.885790937613137
20
97.829267499358991
30
0
10
67.549735752716742
20
98.260438244997516
30
0
10
67.693306538188281
20
98.935885006645705
30
0
0
SPLINE
5
418
100
AcDbEntity
8
0
100
AcDbSpline
70
0
71
3
72
13
73
9
74
0
42
0.000000001
43
0.0000000001
44
0.0000000001
40
6
40
6
40
6
40
6
40
7
40
7
40
8
40
8
40
8
40
9
40
9
40
9
40
9
10
-1.0351408610931612
20
81.221911556067766
30
0
10
-1.0351408610931612
20
81.359995289485937
30
0
10
-1.1470849325169974
20
81.471917829063017
30
0
10
-1.4232093356597719
20
81.471917829063017
30
0
10
-1.5351534070836093
20
81.359995289485937
30
0
10
-1.5351534070836093
20
81.221911556067766
30
0
10
-1.5351534070836093
20
81.129518401522745
30
0
10
-1.4826802964738983
20
81.05217600787887
30
0
10
-1.4081370429118034
20
81.008896995845433
30
0
0
LINE
5
419
100
AcDbEntity
8
0
100
AcDbLine
10
84.684772963261693
20
116.84834074734688
30
0
11
88.229672302394249
21
100.17091733477804
31
0
0
LINE
5
420
100
AcDbEntity
8
0
100
AcDbLine
10
-1.4081370430593121
20
228.79387210900489
30
-3.1062204939219404e-16
11
-2.60552304265146
21
230.86779805927853
31
-5.6639371725070165e-17
0
SPLINE
5
421
100
AcDbEntity
8
0
100
AcDbSpline
70
0
71
3
72
14
73
10
74
0
42
0.000000001
43
0.0000000001
44
0.0000000001
40
19
40
19
40
19
40
19
40
20
40
20
40
20
40
21
40
21
40
21
40
22
40
22
40
22
40
22
10
1.3515997590936357
20
233.58085381760631
30
2.7561413330937109e-16
10
1.3515997590936357
20
233.7189160191777
30
2.9252187663313567e-16
10
1.4635222986706897
20
233.83086009060156
30
3.0623107150841018e-16
10
1.6016060320888603
20
233.83086009060156
30
3.0623107150841018e-16
10
1.7396682336602476
20
233.83086009060156
30
3.0623107150841018e-16
10
1.8516123050840827
20
233.7189160191777
30
2.9252187663313567e-16
10
1.8516123050840827
20
233.58085381760631
30
2.7561413330937109e-16
10
1.8516123050840827
20
233.48846066306126
30
2.6429923521169922e-16
10
1.7991391944743729
20
233.41109673757069
30
2.5482488683954511e-16
10
1.7245959409122791
20
233.36781772553721
30
2.4952473648384351e-16
0
LINE
5
422
100
AcDbEntity
8
0
100
AcDbLine
10
-45.354124200680417
20
116.73644942525378
30
0
11
-45.354124200680417
21
134.2848759051665
31
0
0
SPLINE
5
423
100
AcDbEntity
8
0
100
AcDbSpline
70
0
71
3
72
13
73
9
74
0
42
0.000000001
43
0.0000000001
44
0.0000000001
40
6
40
6
40
6
40
6
40
7
40
7
40
8
40
8
40
8
40
9
40
9
40
9
40
9
10
-91.13249458656874
20
81.221634235815046
30
0
10
-91.13249458656874
20
81.359717969233216
30
0
10
-91.244438657992575
20
81.471640508810253
30
0
10
-91.520563061135363
20
81.471640508810253
30
0
10
-91.632507132559482
20
81.359717969233216
30
0
10
-91.632507132559482
20
81.221634235815046
30
0
10
-91.632507132559482
20
81.12924108127001
30
0
10
-91.580034021949473
20
81.051898687626149
30
0
10
-91.505490768387403
20
81.008619675592698
30
0
0
LINE
5
424
100
AcDbEntity
8
0
100
AcDbLine
10
62.33706120150579
20
119.54940396099877
30
0
11
65.985889296140073
21
136.71575612899329
31
0
0
LWPOLYLINE
5
425
100
AcDbEntity
8
0
100
AcDbPolyline
90
8
70
1
43
0.0
10
65.158229432824285
20
73.7216361026789
10
65.158229432824285
20
83.223314852007988
10
-83.441624291248331
20
83.223314852125469
42
-0.41421356237286611
10
-85.441624290747569
20
85.22331485162627
10
-85.441624290747569
20
135.90122692823968
10
-94.939124275151727
20
135.90122360342113
10
-94.939124275151727
20
75.721636102153198
42
0.41421356237314705
10
-92.939124275651864
20
73.721636102653633
0
SPLINE
5
426
100
AcDbEntity
8
0
100
AcDbSpline
70
0
71
3
72
8
73
4
74
0
42
0.000000001
43
0.0000000001
44
0.0000000001
40
23
40
23
40
23
40
23
40
24
40
24
40
24
40
24
10
71.34202231075156
20
116.10172584714721
30
0
10
71.48559327690532
20
116.77717345883615
30
0
10
71.054422002327129
20
117.44111918229876
30
0
10
70.3789743683908
20
117.58469004378884
30
0
0
SPLINE
5
427
100
AcDbEntity
8
0
100
AcDbSpline
70
0
71
3
72
8
73
4
74
0
42
0.000000001
43
0.0000000001
44
0.0000000001
40
0
40
0
40
0
40
0
40
1
40
1
40
1
40
1
10
3.0449718493278444
20
230.83084941019922
30
-6.1164276207849003e-17
10
2.9993028023015023
20
230.83084941019922
30
-6.1164276207849003e-17
10
2.9588229303498159
20
230.84641693542321
30
-5.9257804214229557e-17
10
2.9219819405044256
20
230.86781959112531
30
-5.6636734834345388e-17
0
LINE
5
428
100
AcDbEntity
8
0
100
AcDbLine
10
-73.429111647546549
20
115.48612846063233
30
0
11
-46.604445165301904
21
115.48612846063233
31
0
0
SPLINE
5
429
100
AcDbEntity
8
0
100
AcDbSpline
70
0
71
3
72
14
73
10
74
0
42
0.000000001
43
0.0000000001
44
0.0000000001
40
2
40
2
40
2
40
2
40
3
40
3
40
3
40
4
40
4
40
4
40
5
40
5
40
5
40
5
10
-88.372757784563589
20
228.79417096110444
30
-3.1058545056548332e-16
10
-88.298214531001207
20
228.75089194907099
30
-3.1588560092118689e-16
10
-88.245741420391511
20
228.67352802358033
30
-3.2535994929334494e-16
10
-88.245741420391511
20
228.58113486903531
30
-3.3667484739101682e-16
10
-88.245741420391511
20
228.44305113561714
30
-3.5358522760550419e-16
10
-88.357685491815658
20
228.33112859604006
30
-3.6729178559004998e-16
10
-88.495747693387045
20
228.33112859604006
30
-3.6729178559004998e-16
10
-88.633831426804875
20
228.33112859604006
30
-3.6729178559004998e-16
10
-88.745753966381926
20
228.44305113561714
30
-3.5358522760550419e-16
10
-88.745753966381926
20
228.58113486903531
30
-3.3667484739101682e-16
0
LINE
5
430
100
AcDbEntity
8
0
100
AcDbLine
10
-2.6055445743507333
20
78.508877329586738
30
0
11
-1.4081370429118034
21
76.434951379313119
31
0
0
LINE
5
431
100
AcDbEntity
8
0
100
AcDbLine
10
236.65592313278881
20
214.99861588963745
30
0
11
236.65592313278881
21
197.94862301466949
31
0
0
SPLINE
5
432
100
AcDbEntity
8
0
100
AcDbSpline
70
0
71
3
72
14
73
10
74
0
42
0.000000001
43
0.0000000001
44
0.0000000001
40
2
40
2
40
2
40
2
40
3
40
3
40
3
40
4
40
4
40
4
40
5
40
5
40
5
40
5
10
1.7245959410597878
20
81.008875463998663
30
0
10
1.7991391946218815
20
81.052154476032086
30
0
10
1.8516123052315914
20
81.129518401522745
30
0
10
1.8516123052315914
20
81.221911556067766
30
0
10
1.8516123052315914
20
81.359995289485937
30
0
10
1.7396682338077563
20
81.471917829063017
30
0
10
1.601606032236369
20
81.471917829063017
30
0
10
1.4635222988181984
20
81.471917829063017
30
0
10
1.3515997592411444
20
81.359995289485937
30
0
10
1.3515997592411444
20
81.221911556067766
30
0
0
LWPOLYLINE
5
433
100
AcDbEntity
8
0
100
AcDbPolyline
90
8
70
1
43
0.0
10
86.158229432677658
20
73.721636102506949
10
86.158229432677658
20
83.223314851978714
10
273.65006958914296
20
83.223314851978714
42
0.41421356237309764
10
275.6500695891429
20
85.223314851978685
10
275.6500695891429
20
135.9012236598119
10
285.14832436824173
20
135.90122360327439
10
285.14832436824173
20
75.721636102506949
42
-0.41421356237310025
10
283.14832436824179
20
73.721636102506949
0
LINE
5
434
100
AcDbEntity
8
0
100
AcDbLine
10
-13.466723288585492
20
134.23217680683109
30
0
11
-17.13654971769872
21
116.96702078621712
31
0
0
LINE
5
435
100
AcDbEntity
8
0
100
AcDbLine
10
256.70592668816039
20
197.69892241144319
30
0
11
256.70592668816039
21
214.99861588963745
31
0
0
SPLINE
5
436
100
AcDbEntity
8
0
100
AcDbSpline
70
0
71
3
72
8
73
4
74
0
42
0.000000001
43
0.0000000001
44
0.0000000001
40
46
40
46
40
46
40
46
40
47
40
47
40
47
40
47
10
88.229672302394249
20
100.17091733477804
30
0
10
88.401909826868916
20
99.360604305158063
30
0
10
89.198424320852581
20
98.843341817220875
30
0
10
90.008737398779658
20
99.015579114435297
30
0
0
SPLINE
5
437
100
AcDbEntity
8
0
100
AcDbSpline
70
0
71
3
72
13
73
9
74
0
42
0.000000001
43
0.0000000001
44
0.0000000001
40
15
40
15
40
15
40
15
40
16
40
16
40
16
40
17
40
17
40
18
40
18
40
18
40
18
10
-91.505490768534912
20
233.36809504578994
30
2.4955869841982552e-16
10
-91.580034022096982
20
233.41137405782342
30
2.5485884877552909e-16
10
-91.632507132706991
20
233.48873798331402
30
2.6433319714768714e-16
10
-91.632507132706991
20
233.58113113785907
30
2.7564809524535901e-16
10
-91.632507132706991
20
233.71919333943043
30
2.9255583856911964e-16
10
-91.520563061282871
20
233.8311374108543
30
3.0626503344439613e-16
10
-91.244438658140083
20
233.8311374108543
30
3.0626503344439613e-16
10
-91.132494586716248
20
233.71919333943043
30
2.9255583856911964e-16
10
-91.132494586716248
20
233.58113113785907
30
2.7564809524535901e-16
0
CIRCLE
5
438
100
AcDbEntity
8
0
100
AcDbCircle
10
140.65822941642924
20
89.221913421509115
30
0
40
1.349999999999997
210
0
220
0
230
1
0
LINE
5
439
100
AcDbEntity
8
0
100
AcDbLine
10
-88.372757784416081
20
76.434674059060399
30
0
11
-87.175371784823625
21
78.508600009334017
31
0
0
LINE
5
440
100
AcDbEntity
8
0
100
AcDbLine
10
-74.938860148416609
20
153.08652501020444
30
0
11
-74.929127753670784
21
116.98612303491009
31
0
0
SPLINE
5
441
100
AcDbEntity
8
0
100
AcDbSpline
70
0
71
3
72
8
73
4
74
0
42
0.000000001
43
0.0000000001
44
0.0000000001
40
0
40
0
40
0
40
0
40
1
40
1
40
1
40
1
10
167.24573422080951
20
115.43279440947671
30
0
10
168.05605911527022
20
115.60503395803444
30
0
10
168.57332904737061
20
116.40156034997943
30
0
10
168.40108836914919
20
117.21188500432277
30
0
0
SPLINE
5
442
100
AcDbEntity
8
0
100
AcDbSpline
70
0
71
3
72
14
73
10
74
0
42
0.000000001
43
0.0000000001
44
0.0000000001
40
23
40
23
40
23
40
23
40
24
40
24
40
24
40
25
40
25
40
25
40
26
40
26
40
26
40
26
10
-87.175371784971134
20
231.29416909551634
30
-4.4239792472963906e-18
10
-87.138509263278962
20
231.31555021937169
30
-1.8055467581330543e-18
10
-87.098050923174071
20
231.33111774459564
30
1.0092523548441968e-19
10
-87.052381876147706
20
231.33111774459564
30
1.0092523548441968e-19
10
-86.914319674576348
20
231.33111774459564
30
1.0092523548441968e-19
10
-86.802375603152512
20
231.21919520501859
30
-1.3605632749065314e-17
10
-86.802375603152512
20
231.08113300344718
30
-3.0513376072827915e-17
10
-86.802375603152512
20
230.94304927002901
30
-4.7423756287317266e-17
10
-86.914319674576348
20
230.83112673045196
30
-6.1130314271865027e-17
10
-87.052381876147706
20
230.83112673045196
30
-6.1130314271865027e-17
0
SPLINE
5
443
100
AcDbEntity
8
0
100
AcDbSpline
70
0
71
3
72
14
73
10
74
0
42
0.000000001
43
0.0000000001
44
0.0000000001
40
19
40
19
40
19
40
19
40
20
40
20
40
20
40
21
40
21
40
21
40
22
40
22
40
22
40
22
10
-88.745753966381926
20
233.58113113785907
30
2.7564809524535901e-16
10
-88.745753966381926
20
233.71919333943043
30
2.9255583856911964e-16
10
-88.633831426804875
20
233.8311374108543
30
3.0626503344439613e-16
10
-88.495747693387045
20
233.8311374108543
30
3.0626503344439613e-16
10
-88.357685491815658
20
233.8311374108543
30
3.0626503344439613e-16
10
-88.245741420391511
20
233.71919333943043
30
2.9255583856911964e-16
10
-88.245741420391511
20
233.58113113785907
30
2.7564809524535901e-16
10
-88.245741420391511
20
233.48873798331402
30
2.6433319714768714e-16
10
-88.298214531001207
20
233.41137405782342
30
2.5485884877552909e-16
10
-88.372757784563589
20
233.36809504578994
30
2.4955869841982552e-16
0
LINE
5
444
100
AcDbEntity
8
0
100
AcDbLine
10
-88.372757784563589
20
233.36809504578994
30
2.4955869841982552e-16
11
-87.175371784971134
21
231.29416909551634
31
-4.4239792472963906e-18
0
SPLINE
5
445
100
AcDbEntity
8
0
100
AcDbSpline
70
0
71
3
72
14
73
10
74
0
42
0.000000001
43
0.0000000001
44
0.0000000001
40
23
40
23
40
23
40
23
40
24
40
24
40
24
40
25
40
25
40
25
40
26
40
26
40
26
40
26
10
-87.175371784823625
20
78.508600009334017
30
0
10
-87.138509263131454
20
78.487218885478683
30
0
10
-87.098050923026562
20
78.471651360254697
30
0
10
-87.052381876000197
20
78.471651360254697
30
0
10
-86.914319674428839
20
78.471651360254697
30
0
10
-86.802375603005004
20
78.583573899831762
30
0
10
-86.802375603005004
20
78.721636101403163
30
0
10
-86.802375603005004
20
78.859719834821334
30
0
10
-86.914319674428839
20
78.971642374398385
30
0
10
-87.052381876000197
20
78.971642374398385
30
0
0
LINE
5
446
100
AcDbEntity
8
0
100
AcDbLine
10
149.96485910626208
20
76.221915287097275
30
0
11
152.35159972659642
21
76.221915287097275
31
0
0
SPLINE
5
447
100
AcDbEntity
8
0
100
AcDbSpline
70
0
71
3
72
13
73
9
74
0
42
0.000000001
43
0.0000000001
44
0.0000000001
40
15
40
15
40
15
40
15
40
16
40
16
40
16
40
17
40
17
40
18
40
18
40
18
40
18
10
-1.4081370430593121
20
233.36781772553721
30
2.4952473648384351e-16
10
-1.482680296621407
20
233.41109673757069
30
2.5482488683954511e-16
10
-1.5351534072311179
20
233.48846066306126
30
2.6429923521169922e-16
10
-1.5351534072311179
20
233.58085381760631
30
2.7561413330937109e-16
10
-1.5351534072311179
20
233.7189160191777
30
2.9252187663313567e-16
10
-1.4232093358072806
20
233.83086009060156
30
3.0623107150841018e-16
10
-1.1470849326645061
20
233.83086009060156
30
3.0623107150841018e-16
10
-1.0351408612406698
20
233.7189160191777
30
2.9252187663313567e-16
10
-1.0351408612406698
20
233.58085381760631
30
2.7561413330937109e-16
0
LINE
5
448
100
AcDbEntity
8
0
100
AcDbLine
10
-91.505490768534912
20
228.79414942925763
30
-3.105880874562081e-16
11
-92.702876768127027
21
230.86807537953126
31
-5.6605409789086189e-17
0
SPLINE
5
449
100
AcDbEntity
8
0
100
AcDbSpline
70
0
71
3
72
8
73
4
74
0
42
0.000000001
43
0.0000000001
44
0.0000000001
40
17
40
17
40
17
40
17
40
18
40
18
40
18
40
18
10
-13.71285842185085
20
134.53613222512655
30
0
10
-13.55282667827904
20
134.53613028396515
30
0
10
-13.433450781510421
20
134.38871146506148
30
0
10
-13.466723288585492
20
134.23217680683109
30
0
0
LINE
5
450
100
AcDbEntity
8
0
100
AcDbLine
10
152.61733713600148
20
228.79387210900504
30
8.4626508129301799e-15
11
153.81472313559362
21
230.8677980592787
31
8.3553056284374934e-15
0
SPLINE
5
451
100
AcDbEntity
8
0
100
AcDbSpline
70
0
71
3
72
14
73
10
74
0
42
0.000000001
43
0.0000000001
44
0.0000000001
40
23
40
23
40
23
40
23
40
24
40
24
40
24
40
25
40
25
40
25
40
26
40
26
40
26
40
26
10
2.9219819406519343
20
78.508877329586738
30
0
10
2.9588444623441079
20
78.487496205731432
30
0
10
2.9993028024490109
20
78.471928680507432
30
0
10
3.044971849475353
20
78.471928680507432
30
0
10
3.1830340510467403
20
78.471928680507432
30
0
10
3.2949781224705776
20
78.583851220084512
30
0
10
3.2949781224705776
20
78.721913421655898
30
0
10
3.2949781224705776
20
78.859997155074041
30
0
10
3.1830340510467403
20
78.971919694651106
30
0
10
3.044971849475353
20
78.971919694651106
30
0
0
SPLINE
5
452
100
AcDbEntity
8
0
100
AcDbSpline
70
0
71
3
72
14
73
10
74
0
42
0.000000001
43
0.0000000001
44
0.0000000001
40
23
40
23
40
23
40
23
40
24
40
24
40
24
40
25
40
25
40
25
40
26
40
26
40
26
40
26
10
148.28721815243773
20
231.29389177526375
30
7.6262000694064113e-15
10
148.25035563074556
20
231.31527289911904
30
7.6190672799973722e-15
10
148.20989729064064
20
231.33084042434305
30
7.6122060903329251e-15
10
148.1642282436143
20
231.33084042434305
30
7.6066132451068324e-15
10
148.02616604204295
20
231.33084042434305
30
7.5897055017830687e-15
10
147.91422197061911
20
231.21891788476597
30
7.589702864892347e-15
10
147.91422197061911
20
231.08085568319461
30
7.6066106082161092e-15
10
147.91422197061911
20
230.94277194977644
30
7.6235209884305947e-15
10
148.02616604204295
20
230.83084941019936
30
7.6509367412904165e-15
10
148.1642282436143
20
230.83084941019936
30
7.6678444846141803e-15
0
LINE
5
453
100
AcDbEntity
8
0
100
AcDbLine
10
-92.702898299826614
20
78.508600009334017
30
0
11
-91.505490768387403
21
76.434674059060399
31
0
0
SPLINE
5
454
100
AcDbEntity
8
0
100
AcDbSpline
70
0
71
3
72
13
73
9
74
0
42
0.000000001
43
0.0000000001
44
0.0000000001
40
15
40
15
40
15
40
15
40
16
40
16
40
16
40
17
40
17
40
18
40
18
40
18
40
18
10
149.59186292444352
20
76.434951379166378
30
0
10
149.51731967088139
20
76.391672367132941
30
0
10
149.46484656027167
20
76.314308441642282
30
0
10
149.46484656027167
20
76.221915287097275
30
0
10
149.46484656027167
20
76.083853085525845
30
0
10
149.5767906316955
20
75.97190901410201
30
0
10
149.8529150348383
20
75.97190901410201
30
0
10
149.96485910626208
20
76.083853085525845
30
0
10
149.96485910626208
20
76.221915287097275
30
0
0
SPLINE
5
455
100
AcDbEntity
8
0
100
AcDbSpline
70
0
71
3
72
8
73
4
74
0
42
0.000000001
43
0.0000000001
44
0.0000000001
40
15
40
15
40
15
40
15
40
16
40
16
40
16
40
16
10
-45.354124200680417
20
134.2848759051665
30
0
10
-45.354124200680417
20
134.42385241431398
30
0
10
-45.241460585890209
20
134.53651466251881
30
0
10
-45.102484076753299
20
134.53651297675361
30
0
0
LINE
5
456
100
AcDbEntity
8
0
100
AcDbLine
10
168.40108836914919
20
117.21188500432277
30
0
11
164.78358795724401
21
134.2308017965106
31
0
0
SPLINE
5
457
100
AcDbEntity
8
0
100
AcDbSpline
70
0
71
3
72
8
73
4
74
0
42
0.000000001
43
0.0000000001
44
0.0000000001
40
42
40
42
40
42
40
42
40
43
40
43
40
43
40
43
10
-4.3866205149044983
20
211.73651957019473
30
0
10
-4.3866205149044983
20
212.56494369840013
30
0
10
-5.0581909609797737
20
213.23651414447252
30
0
10
-5.8866150891822775
20
213.23651414447252
30
0
0
CIRCLE
5
458
100
AcDbEntity
8
0
100
AcDbCircle
10
140.55097064401568
20
220.58085568319459
30
8.3748924527370754e-15
40
1.3500000000000032
210
0
220
0
230
1
0
SPLINE
5
459
100
AcDbEntity
8
0
100
AcDbSpline
70
0
71
3
72
8
73
4
74
0
42
0.000000001
43
0.0000000001
44
0.0000000001
40
20
40
20
40
20
40
20
40
21
40
21
40
21
40
21
10
240.82838593420871
20
178.89836810035732
30
0
10
240.82838593420871
20
178.06998172057467
30
0
10
241.49999413873107
20
177.39847801294846
30
0
10
242.32838050848656
20
177.39860691330995
30
0
0
SPLINE
5
460
100
AcDbEntity
8
0
100
AcDbSpline
70
0
71
3
72
8
73
4
74
0
42
0.000000001
43
0.0000000001
44
0.0000000001
40
9
40
9
40
9
40
9
40
10
40
10
40
10
40
10
10
-73.438865574138831
20
154.58651958448223
30
0
10
-74.26730337910783
20
154.58651958448223
30
0
10
-74.938860148416609
20
153.91494128333019
30
0
10
-74.938860148416609
20
153.08652501020444
30
0
0
LINE
5
461
100
AcDbEntity
8
0
100
AcDbLine
10
153.92198190800718
20
78.934949513578303
30
0
11
152.72459590841507
21
81.008875463851922
31
0
0
LINE
5
462
100
AcDbEntity
8
0
100
AcDbLine
10
-1.0351408610931612
20
76.221915287244016
30
0
11
1.3515997592411444
21
76.221915287244016
31
0
0
SPLINE
5
463
100
AcDbEntity
8
0
100
AcDbSpline
70
0
71
3
72
8
73
4
74
0
42
0.000000001
43
0.0000000001
44
0.0000000001
40
19
40
19
40
19
40
19
40
20
40
20
40
20
40
20
10
-17.13654971769872
20
116.96702078621712
30
0
10
-17.28012053008856
20
116.29157399771125
30
0
10
-16.848949734750779
20
115.62762908424226
30
0
10
-16.173502901142758
20
115.48405848404303
30
0
0
LINE
5
464
100
AcDbEntity
8
0
100
AcDbLine
10
93.445128813676888
20
120.24392416666103
30
0
11
85.840127221647577
21
118.62743078457314
31
0
0
SPLINE
5
465
100
AcDbEntity
8
0
100
AcDbSpline
70
0
71
3
72
8
73
4
74
0
42
0.000000001
43
0.0000000001
44
0.0000000001
40
38
40
38
40
38
40
38
40
39
40
39
40
39
40
39
10
84.966646369495805
20
138.42852652618578
30
0
10
85.13888589690697
20
137.61820265662499
30
0
10
85.935410083319226
20
137.10093240472747
30
0
10
86.745734325735384
20
137.27317017797606
30
0
0
SPLINE
5
466
100
AcDbEntity
8
0
100
AcDbSpline
70
0
71
3
72
8
73
4
74
0
42
0.000000001
43
0.0000000001
44
0.0000000001
40
0
40
0
40
0
40
0
40
1
40
1
40
1
40
1
10
-87.052381876147706
20
230.83112673045196
30
-6.1130314271865027e-17
10
-87.098050923174071
20
230.83112673045196
30
-6.1130314271865027e-17
10
-87.138530795125746
20
230.84669425567594
30
-5.9223842278247553e-17
10
-87.175371784971134
20
230.86809691137805
30
-5.6602772898361412e-17
0
CIRCLE
5
467
100
AcDbEntity
8
0
100
AcDbCircle
10
10.658229448926482
20
220.58085568319444
30
-3.0547338008813863e-17
40
1.3499999999999979
210
0
220
0
230
1
0
SPLINE
5
468
100
AcDbEntity
8
0
100
AcDbSpline
70
0
71
3
72
13
73
9
74
0
42
0.000000001
43
0.0000000001
44
0.0000000001
40
6
40
6
40
6
40
6
40
7
40
7
40
8
40
8
40
8
40
9
40
9
40
9
40
9
10
-91.132494586716248
20
228.58113486903531
30
-3.3667484739101682e-16
10
-91.132494586716248
20
228.44305113561714
30
-3.5358522760550419e-16
10
-91.244438658140083
20
228.33112859604006
30
-3.6729178559004998e-16
10
-91.520563061282871
20
228.33112859604006
30
-3.6729178559004998e-16
10
-91.632507132706991
20
228.44305113561714
30
-3.5358522760550419e-16
10
-91.632507132706991
20
228.58113486903531
30
-3.3667484739101682e-16
10
-91.632507132706991
20
228.67352802358033
30
-3.2535994929334494e-16
10
-91.580034022096982
20
228.75087041722421
30
-3.1588823781191167e-16
10
-91.505490768534912
20
228.79414942925763
30
-3.105880874562081e-16
0
SPLINE
5
469
100
AcDbEntity
8
0
100
AcDbSpline
70
0
71
3
72
8
73
4
74
0
42
0.000000001
43
0.0000000001
44
0.0000000001
40
13
40
13
40
13
40
13
40
14
40
14
40
14
40
14
10
-46.604445165301904
20
115.48612846063233
30
0
10
-45.913911964147616
20
115.48612846063233
30
0
10
-45.354124200680417
20
116.04591622410048
30
0
10
-45.354124200680417
20
116.73644942525378
30
0
0
LINE
5
470
100
AcDbEntity
8
0
100
AcDbLine
10
-91.132494586716248
20
233.58113113785907
30
2.7564809524535901e-16
11
-88.745753966381926
21
233.58113113785907
31
2.7564809524535901e-16
0
SPLINE
5
471
100
AcDbEntity
8
0
100
AcDbSpline
70
0
71
3
72
8
73
4
74
0
42
0.000000001
43
0.0000000001
44
0.0000000001
40
0
40
0
40
0
40
0
40
1
40
1
40
1
40
1
10
3.044971849475353
20
78.971919694651106
30
0
10
2.9993028024490109
20
78.971919694651106
30
0
10
2.9588229304973246
20
78.956352169427134
30
0
10
2.9219819406519343
20
78.934949513725016
30
0
0
SPLINE
5
472
100
AcDbEntity
8
0
100
AcDbSpline
70
0
71
3
72
8
73
4
74
0
42
0.000000001
43
0.0000000001
44
0.0000000001
40
40
40
40
40
40
40
40
40
41
40
41
40
41
40
41
10
89.695373930056306
20
137.90012829022379
30
0
10
89.828775775841351
20
137.92848340495712
30
0
10
89.959905774928814
20
137.84332646326686
30
0
10
89.9882613293004
20
137.70992471092828
30
0
0
LINE
5
473
100
AcDbEntity
8
0
100
AcDbLine
10
222.2861499498035
20
136.03614456199438
30
0
11
222.2861499498035
21
153.3378051388211
31
0
0
SPLINE
5
474
100
AcDbEntity
8
0
100
AcDbSpline
70
0
71
3
72
8
73
4
74
0
42
0.000000001
43
0.0000000001
44
0.0000000001
40
12
40
12
40
12
40
12
40
13
40
13
40
13
40
13
10
256.70592668816039
20
214.99861588963745
30
0
10
256.70592668816039
20
215.82705190955085
30
0
10
256.03434660194921
20
216.4986319957633
30
0
10
255.20591058203587
20
216.4986319957633
30
0
0
LINE
5
475
100
AcDbEntity
8
0
100
AcDbLine
10
1.3515997590936357
20
228.58085754878257
30
-3.3670880932699882e-16
11
-1.0351408612406698
21
228.58085754878257
31
-3.3670880932699882e-16
0
LINE
5
476
100
AcDbEntity
8
0
100
AcDbLine
10
-4.3866205149045001
20
211.37898325436743
30
0
11
-4.3866205149044983
21
211.73651957019473
31
0
0
SPLINE
5
477
100
AcDbEntity
8
0
100
AcDbSpline
70
0
71
3
72
8
73
4
74
0
42
0.000000001
43
0.0000000001
44
0.0000000001
40
11
40
11
40
11
40
11
40
12
40
12
40
12
40
12
10
-74.929127753670784
20
116.98612303491011
30
0
10
-74.929127753670784
20
116.15770676178819
30
0
10
-74.257549452514908
20
115.48612846063233
30
0
10
-73.429111647546549
20
115.48612846063233
30
0
0
SPLINE
5
478
100
AcDbEntity
8
0
100
AcDbSpline
70
0
71
3
72
17
73
13
74
0
42
0.000000001
43
0.0000000001
44
0.0000000001
40
10
40
10
40
10
40
10
40
11
40
11
40
11
40
12
40
12
40
12
40
13
40
13
40
13
40
14
40
14
40
14
40
14
10
-2.60552304265146
20
230.86779805927853
30
-5.6639371725070165e-17
10
-2.6423855643436323
20
230.84641693542321
30
-5.9257804214229557e-17
10
-2.6828654362953186
20
230.83084941019922
30
-6.1164276207849003e-17
10
-2.7285344833216607
20
230.83084941019922
30
-6.1164276207849003e-17
10
-2.866596684893048
20
230.83084941019922
30
-6.1164276207849003e-17
10
-2.978519224470102
20
230.94277194977627
30
-4.745771822329927e-17
10
-2.978519224470102
20
231.08085568319444
30
-3.0547338008813863e-17
10
-2.978519224470102
20
231.2189178847658
30
-1.3639594685051262e-17
10
-2.866596684893048
20
231.33084042434291
30
6.6963299498471429e-20
10
-2.7285344833216607
20
231.33084042434291
30
6.6963299498471429e-20
10
-2.6828654362953186
20
231.33084042434291
30
6.6963299498471429e-20
10
-2.6423855643436323
20
231.3152728991189
30
-1.8395086941209747e-18
10
-2.6055445744982419
20
231.2938917752636
30
-4.4579411832783945e-18
0
LINE
5
479
100
AcDbEntity
8
0
100
AcDbLine
10
67.693306538188281
20
98.935885006645705
30
0
11
71.34202231075156
21
116.10172584714721
31
0
0
SPLINE
5
480
100
AcDbEntity
8
0
100
AcDbSpline
70
0
71
3
72
8
73
4
74
0
42
0.000000001
43
0.0000000001
44
0.0000000001
40
8
40
8
40
8
40
8
40
9
40
9
40
9
40
9
10
222.2861499498035
20
153.3378051388211
30
0
10
222.2861499498035
20
153.4754224771919
30
0
10
222.39771279662961
20
153.58698234070135
30
0
10
222.5353301349503
20
153.58697866060484
30
0
0
SPLINE
5
481
100
AcDbEntity
8
0
100
AcDbSpline
70
0
71
3
72
8
73
4
74
0
42
0.000000001
43
0.0000000001
44
0.0000000001
40
12
40
12
40
12
40
12
40
13
40
13
40
13
40
13
10
208.49831798981734
20
130.77363201719456
30
0
10
207.66989386161384
20
130.77363201719456
30
0
10
206.99832341553955
20
130.10206157111895
30
0
10
206.99832341553955
20
129.27363744291677
30
0
0
LINE
5
482
100
AcDbEntity
8
0
100
AcDbLine
10
-87.175371784971134
20
230.86809691137805
30
-5.6602772898361412e-17
11
-88.372757784563589
21
228.79417096110444
31
-3.1058545056548332e-16
0
LINE
5
483
100
AcDbEntity
8
0
100
AcDbLine
10
263.64833238710844
20
130.77363201719456
30
0
11
246.3436788841679
21
130.77363201719456
31
0
0
SPLINE
5
484
100
AcDbEntity
8
0
100
AcDbSpline
70
0
71
3
72
13
73
9
74
0
42
0.000000001
43
0.0000000001
44
0.0000000001
40
15
40
15
40
15
40
15
40
16
40
16
40
16
40
17
40
17
40
18
40
18
40
18
40
18
10
-1.4081370429118034
20
76.434951379313119
30
0
10
-1.4826802964738983
20
76.391672367279682
30
0
10
-1.5351534070836093
20
76.314308441789066
30
0
10
-1.5351534070836093
20
76.221915287244016
30
0
10
-1.5351534070836093
20
76.083853085672629
30
0
10
-1.4232093356597719
20
75.97190901424878
30
0
10
-1.1470849325169974
20
75.97190901424878
30
0
10
-1.0351408610931612
20
76.083853085672629
30
0
10
-1.0351408610931612
20
76.221915287244016
30
0
0
SPLINE
5
485
100
AcDbEntity
8
0
100
AcDbSpline
70
0
71
3
72
14
73
10
74
0
42
0.000000001
43
0.0000000001
44
0.0000000001
40
2
40
2
40
2
40
2
40
3
40
3
40
3
40
4
40
4
40
4
40
5
40
5
40
5
40
5
10
1.7245959409122791
20
228.79389364085168
30
-3.1061941250147124e-16
10
1.7991391944743729
20
228.75061462881825
30
-3.1591956285717087e-16
10
1.8516123050840827
20
228.6732507033276
30
-3.2539391122933089e-16
10
1.8516123050840827
20
228.58085754878257
30
-3.3670880932699882e-16
10
1.8516123050840827
20
228.4427738153644
30
-3.536191895414862e-16
10
1.7396682336602476
20
228.33085127578732
30
-3.673257475260379e-16
10
1.6016060320888603
20
228.33085127578732
30
-3.673257475260379e-16
10
1.4635222986706897
20
228.33085127578732
30
-3.673257475260379e-16
10
1.3515997590936357
20
228.4427738153644
30
-3.536191895414862e-16
10
1.3515997590936357
20
228.58085754878257
30
-3.3670880932699882e-16
0
SPLINE
5
486
100
AcDbEntity
8
0
100
AcDbSpline
70
0
71
3
72
14
73
10
74
0
42
0.000000001
43
0.0000000001
44
0.0000000001
40
19
40
19
40
19
40
19
40
20
40
20
40
20
40
21
40
21
40
21
40
22
40
22
40
22
40
22
10
-88.745753966234417
20
76.221637966991267
30
0
10
-88.745753966234417
20
76.083575765419909
30
0
10
-88.633831426657366
20
75.971631693996045
30
0
10
-88.495747693239537
20
75.971631693996045
30
0
10
-88.35768549166815
20
75.971631693996045
30
0
10
-88.245741420244002
20
76.083575765419909
30
0
10
-88.245741420244002
20
76.221637966991267
30
0
10
-88.245741420244002
20
76.314031121536317
30
0
10
-88.298214530853699
20
76.391395047026947
30
0
10
-88.372757784416081
20
76.434674059060399
30
0
0
SPLINE
5
487
100
AcDbEntity
8
0
100
AcDbSpline
70
0
71
3
72
13
73
9
74
0
42
0.000000001
43
0.0000000001
44
0.0000000001
40
15
40
15
40
15
40
15
40
16
40
16
40
16
40
17
40
17
40
18
40
18
40
18
40
18
10
-91.505490768387403
20
76.434674059060399
30
0
10
-91.580034021949473
20
76.391395047026947
30
0
10
-91.632507132559482
20
76.314031121536317
30
0
10
-91.632507132559482
20
76.221637966991267
30
0
10
-91.632507132559482
20
76.083575765419909
30
0
10
-91.520563061135363
20
75.971631693996045
30
0
10
-91.244438657992575
20
75.971631693996045
30
0
10
-91.13249458656874
20
76.083575765419909
30
0
10
-91.13249458656874
20
76.221637966991267
30
0
0
SPLINE
5
488
100
AcDbEntity
8
0
100
AcDbSpline
70
0
71
3
72
17
73
13
74
0
42
0.000000001
43
0.0000000001
44
0.0000000001
40
10
40
10
40
10
40
10
40
11
40
11
40
11
40
12
40
12
40
12
40
13
40
13
40
13
40
14
40
14
40
14
40
14
10
-92.702876767979518
20
78.934693725319079
30
0
10
-92.739739289671689
20
78.956074849174414
30
0
10
-92.780219161623378
20
78.971642374398385
30
0
10
-92.825888208650042
20
78.971642374398385
30
0
10
-92.963950410221443
20
78.971642374398385
30
0
10
-93.075872949798139
20
78.859719834821334
30
0
10
-93.075872949798139
20
78.721636101403163
30
0
10
-93.075872949798139
20
78.583573899831762
30
0
10
-92.963950410221443
20
78.471651360254697
30
0
10
-92.825888208650042
20
78.471651360254697
30
0
10
-92.780219161623378
20
78.471651360254697
30
0
10
-92.739739289671689
20
78.487218885478683
30
0
10
-92.702898299826614
20
78.508600009334017
30
0
0
LINE
5
489
100
AcDbEntity
8
0
100
AcDbLine
10
-91.505490768387403
20
81.008619675592698
30
0
11
-92.702876767979518
21
78.934693725319079
31
0
0
LINE
5
490
100
AcDbEntity
8
0
100
AcDbLine
10
255.20591058203587
20
216.4986319957633
30
0
11
238.15593923891331
21
216.4986319957633
31
0
0
LINE
5
491
100
AcDbEntity
8
0
100
AcDbLine
10
208.49831798981734
20
110.72362846182293
30
0
11
263.64833238710844
21
110.72362846182293
31
0
0
LINE
5
492
100
AcDbEntity
8
0
100
AcDbLine
10
-91.13249458656874
20
76.221637966991267
30
0
11
-88.745753966234417
21
76.221637966991267
31
0
0
LINE
5
493
100
AcDbEntity
8
0
100
AcDbLine
10
2.9219819405044256
20
230.86781959112531
30
-5.6636734834345388e-17
11
1.7245959409122791
21
228.79389364085168
31
-3.1061941250147124e-16
0
LINE
5
494
100
AcDbEntity
8
0
100
AcDbLine
10
225.80071863859541
20
130.77363201719456
30
0
11
208.49831798981734
21
130.77363201719456
31
0
0
SPLINE
5
495
100
AcDbEntity
8
0
100
AcDbSpline
70
0
71
3
72
8
73
4
74
0
42
0.000000001
43
0.0000000001
44
0.0000000001
40
2
40
2
40
2
40
2
40
3
40
3
40
3
40
3
10
164.78358795724401
20
134.2308017965106
30
0
10
164.75016496857671
20
134.3880438140111
30
0
10
164.8700814232291
20
134.5361284558698
30
0
10
165.03083635546759
20
134.5361284558698
30
0
0
SPLINE
5
496
100
AcDbEntity
8
0
100
AcDbSpline
70
0
71
3
72
8
73
4
74
0
42
0.000000001
43
0.0000000001
44
0.0000000001
40
0
40
0
40
0
40
0
40
1
40
1
40
1
40
1
10
-87.052381876000197
20
78.971642374398385
30
0
10
-87.098050923026562
20
78.971642374398385
30
0
10
-87.138530794978237
20
78.956074849174414
30
0
10
-87.175371784823625
20
78.934672193472295
30
0
0
LINE
5
497
100
AcDbEntity
8
0
100
AcDbLine
10
246.59833951213912
20
158.34860691807248
30
0
11
263.64831085526163
21
158.34860691807248
31
0
0
LINE
5
498
100
AcDbEntity
8
0
100
AcDbLine
10
232.89338363041992
20
192.93791503826753
30
0
11
232.89338363041992
21
210.23613742267614
31
0
0
LINE
5
499
100
AcDbEntity
8
0
100
AcDbLine
10
89.9882613293004
20
137.70992471092828
30
0
11
93.637746477853199
21
120.54052969318278
31
0
0
LINE
5
500
100
AcDbEntity
8
0
100
AcDbLine
10
-2.6055445744982419
20
231.2938917752636
30
-4.4579411832783945e-18
11
-1.4081370430593121
21
233.36781772553721
31
2.4952473648384351e-16
0
LINE
5
501
100
AcDbEntity
8
0
100
AcDbLine
10
1.3515997592411444
20
81.221911556067766
30
0
11
-1.0351408610931612
21
81.221911556067766
31
0
0
SPLINE
5
502
100
AcDbEntity
8
0
100
AcDbSpline
70
0
71
3
72
13
73
9
74
0
42
0.000000001
43
0.0000000001
44
0.0000000001
40
6
40
6
40
6
40
6
40
7
40
7
40
8
40
8
40
8
40
9
40
9
40
9
40
9
10
-1.0351408612406698
20
228.58085754878257
30
-3.3670880932699882e-16
10
-1.0351408612406698
20
228.4427738153644
30
-3.536191895414862e-16
10
-1.1470849326645061
20
228.33085127578732
30
-3.673257475260379e-16
10
-1.4232093358072806
20
228.33085127578732
30
-3.673257475260379e-16
10
-1.5351534072311179
20
228.4427738153644
30
-3.536191895414862e-16
10
-1.5351534072311179
20
228.58085754878257
30
-3.3670880932699882e-16
10
-1.5351534072311179
20
228.6732507033276
30
-3.2539391122933089e-16
10
-1.482680296621407
20
228.75059309697147
30
-3.1592219974789367e-16
10
-1.4081370430593121
20
228.79387210900489
30
-3.1062204939219404e-16
0
SPLINE
5
503
100
AcDbEntity
8
0
100
AcDbSpline
70
0
71
3
72
8
73
4
74
0
42
0.000000001
43
0.0000000001
44
0.0000000001
40
25
40
25
40
25
40
25
40
26
40
26
40
26
40
26
10
62.529444487884604
20
119.25315953071623
30
0
10
62.394513654634679
20
119.28183997165299
30
0
10
62.308380712316769
20
119.41447313800481
30
0
10
62.33706120150579
20
119.54940396099877
30
0
0
LINE
5
504
100
AcDbEntity
8
0
100
AcDbLine
10
-92.702898299974123
20
231.29416909551634
30
-4.4239792472963906e-18
11
-91.505490768534912
21
233.36809504578994
31
2.4955869841982552e-16
0
LINE
5
505
100
AcDbEntity
8
0
100
AcDbLine
10
1.7245959409122791
20
233.36781772553721
30
2.4952473648384351e-16
11
2.9219819405044256
21
231.2938917752636
31
-4.4579411832783945e-18
0
SPLINE
5
506
100
AcDbEntity
8
0
100
AcDbSpline
70
0
71
3
72
14
73
10
74
0
42
0.000000001
43
0.0000000001
44
0.0000000001
40
2
40
2
40
2
40
2
40
3
40
3
40
3
40
4
40
4
40
4
40
5
40
5
40
5
40
5
10
-88.372757784416081
20
81.0085981437459
30
0
10
-88.298214530853699
20
81.05187715577938
30
0
10
-88.245741420244002
20
81.12924108127001
30
0
10
-88.245741420244002
20
81.221634235815046
30
0
10
-88.245741420244002
20
81.359717969233216
30
0
10
-88.35768549166815
20
81.471640508810253
30
0
10
-88.495747693239537
20
81.471640508810253
30
0
10
-88.633831426657366
20
81.471640508810253
30
0
10
-88.745753966234417
20
81.359717969233216
30
0
10
-88.745753966234417
20
81.221634235815046
30
0
0
CIRCLE
5
507
100
AcDbEntity
8
0
100
AcDbCircle
10
269.64832436949121
20
220.58113300344732
30
1.940860207595614e-14
40
1.3500000000000136
210
0
220
0
230
1
0
LINE
5
508
100
AcDbEntity
8
0
100
AcDbLine
10
281.7146908614771
20
228.79414942925777
30
1.9496360436149246e-14
11
282.91207686106924
21
230.86807537953143
31
1.9389015251656563e-14
0
LINE
5
509
100
AcDbEntity
8
0
100
AcDbLine
10
281.34169467965927
20
81.221634235668319
30
0
11
278.95495405932496
21
81.221634235668319
31
0
0
SPLINE
5
510
100
AcDbEntity
8
0
100
AcDbSpline
70
0
71
3
72
8
73
4
74
0
42
0.000000001
43
0.0000000001
44
0.0000000001
40
6
40
6
40
6
40
6
40
7
40
7
40
7
40
7
10
246.09832696614862
20
148.32363743815426
30
0
10
246.09832696614862
20
149.15206156635645
30
0
10
245.42675652007304
20
149.82363201243206
30
0
10
244.59833239187091
20
149.82363201243206
30
0
0
SPLINE
5
511
100
AcDbEntity
8
0
100
AcDbSpline
70
0
71
3
72
14
73
10
74
0
42
0.000000001
43
0.0000000001
44
0.0000000001
40
23
40
23
40
23
40
23
40
24
40
24
40
24
40
25
40
25
40
25
40
26
40
26
40
26
40
26
10
2.9219819405044256
20
231.2938917752636
30
-4.4579411832783945e-18
10
2.9588444621965992
20
231.3152728991189
30
-1.8395086941209747e-18
10
2.9993028023015023
20
231.33084042434291
30
6.6963299498471429e-20
10
3.0449718493278444
20
231.33084042434291
30
6.6963299498471429e-20
10
3.1830340508992316
20
231.33084042434291
30
6.6963299498471429e-20
10
3.294978122323069
20
231.2189178847658
30
-1.3639594685051262e-17
10
3.294978122323069
20
231.08085568319444
30
-3.0547338008813863e-17
10
3.294978122323069
20
230.94277194977627
30
-4.745771822329927e-17
10
3.1830340508992316
20
230.83084941019922
30
-6.1164276207849003e-17
10
3.0449718493278444
20
230.83084941019922
30
-6.1164276207849003e-17
0
SPLINE
5
512
100
AcDbEntity
8
0
100
AcDbSpline
70
0
71
3
72
8
73
4
74
0
42
0.000000001
43
0.0000000001
44
0.0000000001
40
6
40
6
40
6
40
6
40
7
40
7
40
7
40
7
10
220.78613384367901
20
134.5361284558698
30
0
10
221.61456986359229
20
134.5361284558698
30
0
10
222.2861499498035
20
135.20770854208098
30
0
10
222.2861499498035
20
136.03614456199438
30
0
0
SPLINE
5
513
100
AcDbEntity
8
0
100
AcDbSpline
70
0
71
3
72
8
73
4
74
0
42
0.000000001
43
0.0000000001
44
0.0000000001
40
14
40
14
40
14
40
14
40
15
40
15
40
15
40
15
10
238.15593923891331
20
216.4986319957633
30
0
10
237.32750321899994
20
216.4986319957633
30
0
10
236.65592313278881
20
215.82705190955085
30
0
10
236.65592313278881
20
214.99861588963745
30
0
0
LWPOLYLINE
5
514
100
AcDbEntity
8
0
100
AcDbPolyline
90
8
70
1
43
0.0
10
273.65082438433802
20
226.57945425272501
42
-0.41421356237286611
10
275.65082438383729
20
224.57945425322421
10
275.65083033485342
20
156.90218572316559
10
285.14833031925752
20
156.90218904798417
10
285.14832436824145
20
234.08113300269724
42
0.41421356237314705
10
283.14832436874156
20
236.08113300219685
10
92.158324368741546
20
236.08113300216289
10
92.158824384338018
20
226.57945425284646
0
LINE
5
515
100
AcDbEntity
8
0
100
AcDbLine
10
222.5353301349503
20
153.58697866060484
30
0
11
239.83559849486659
21
153.58651602542102
31
0
0
SPLINE
5
516
100
AcDbEntity
8
0
100
AcDbSpline
70
0
71
3
72
14
73
10
74
0
42
0.000000001
43
0.0000000001
44
0.0000000001
40
2
40
2
40
2
40
2
40
3
40
3
40
3
40
4
40
4
40
4
40
5
40
5
40
5
40
5
10
281.71469086147795
20
81.008598143599187
30
0
10
281.78923411504007
20
81.051877155632639
30
0
10
281.84170722564977
20
81.129241081123268
30
0
10
281.84170722564977
20
81.221634235668319
30
0
10
281.84170722564977
20
81.359717969086489
30
0
10
281.72976315422596
20
81.47164050866354
30
0
10
281.59170095265461
20
81.47164050866354
30
0
10
281.45361721923638
20
81.47164050866354
30
0
10
281.34169467965927
20
81.359717969086489
30
0
10
281.34169467965927
20
81.221634235668319
30
0
0
SPLINE
5
517
100
AcDbEntity
8
0
100
AcDbSpline
70
0
71
3
72
13
73
9
74
0
42
0.000000001
43
0.0000000001
44
0.0000000001
40
6
40
6
40
6
40
6
40
7
40
7
40
8
40
8
40
8
40
9
40
9
40
9
40
9
10
278.95495405932496
20
81.221634235668319
30
0
10
278.95495405932496
20
81.359717969086489
30
0
10
278.84300998790127
20
81.47164050866354
30
0
10
278.56688558475838
20
81.47164050866354
30
0
10
278.45494151333457
20
81.359717969086489
30
0
10
278.45494151333457
20
81.221634235668319
30
0
10
278.45494151333457
20
81.129241081123268
30
0
10
278.50741462394427
20
81.051898687479422
30
0
10
278.5819578775064
20
81.008619675445956
30
0
0
LINE
5
518
100
AcDbEntity
8
0
100
AcDbLine
10
265.14832696138615
20
112.2236230361007
30
0
11
265.14832696138615
21
129.27363744291677
31
0
0
LINE
5
519
100
AcDbEntity
8
0
100
AcDbLine
10
278.95495405932411
20
228.5811348690354
30
1.9184476911959477e-14
11
281.34169467965842
21
228.5811348690354
31
1.9476768338068213e-14
0
SPLINE
5
520
100
AcDbEntity
8
0
100
AcDbSpline
70
0
71
3
72
13
73
9
74
0
42
0.000000001
43
0.0000000001
44
0.0000000001
40
6
40
6
40
6
40
6
40
7
40
7
40
8
40
8
40
8
40
9
40
9
40
9
40
9
10
281.34169467965842
20
228.5811348690354
30
1.9476768338068213e-14
10
281.34169467965842
20
228.44305113561722
30
1.9493678718282701e-14
10
281.45363875108222
20
228.33112859604023
30
1.9521094471142525e-14
10
281.729763154225
20
228.33112859604023
30
1.9554909957790049e-14
10
281.84170722564915
20
228.44305113561722
30
1.9554912594680813e-14
10
281.84170722564915
20
228.5811348690354
30
1.9538002214466328e-14
10
281.84170722564915
20
228.6735280235805
30
1.9526687316368655e-14
10
281.78923411503916
20
228.75087041722429
30
1.9510789502192232e-14
10
281.7146908614771
20
228.79414942925777
30
1.9496360436149246e-14
0
LINE
5
521
100
AcDbEntity
8
0
100
AcDbLine
10
206.99832341553955
20
129.27363744291677
30
0
11
206.99832341553955
21
112.2236230361007
31
0
0
SPLINE
5
522
100
AcDbEntity
8
0
100
AcDbSpline
70
0
71
3
72
8
73
4
74
0
42
0.000000001
43
0.0000000001
44
0.0000000001
40
2
40
2
40
2
40
2
40
3
40
3
40
3
40
3
10
263.64831085526163
20
158.34860691807248
30
0
10
264.47674687517508
20
158.34860691807248
30
0
10
265.14832696138615
20
159.02018700428107
30
0
10
265.14832696138615
20
159.84862302419447
30
0
0
SPLINE
5
523
100
AcDbEntity
8
0
100
AcDbSpline
70
0
71
3
72
14
73
10
74
0
42
0.000000001
43
0.0000000001
44
0.0000000001
40
2
40
2
40
2
40
2
40
3
40
3
40
3
40
4
40
4
40
4
40
5
40
5
40
5
40
5
10
278.58195787750572
20
228.79417096110458
30
1.9112708657118141e-14
10
278.50741462394342
20
228.7508919490711
30
1.9108879891786528e-14
10
278.45494151333367
20
228.6735280235805
30
1.911192813746374e-14
10
278.45494151333367
20
228.5811348690354
30
1.9123243035561409e-14
10
278.45494151333367
20
228.44305113561722
30
1.9140153415775898e-14
10
278.56688558475781
20
228.33112859604023
30
1.9167569168635753e-14
10
278.70494778632923
20
228.33112859604023
30
1.9184476911959515e-14
10
278.84303151974706
20
228.33112859604023
30
1.9201387292173963e-14
10
278.95495405932411
20
228.44305113561722
30
1.9201387292173966e-14
10
278.95495405932411
20
228.5811348690354
30
1.9184476911959477e-14
0
SPLINE
5
524
100
AcDbEntity
8
0
100
AcDbSpline
70
0
71
3
72
14
73
10
74
0
42
0.000000001
43
0.0000000001
44
0.0000000001
40
19
40
19
40
19
40
19
40
20
40
20
40
20
40
21
40
21
40
21
40
22
40
22
40
22
40
22
10
278.95495405932411
20
233.58113113785919
30
1.8572153969323102e-14
10
278.95495405932411
20
233.71919333943055
30
1.8555246225999343e-14
10
278.84303151974706
20
233.83113741085447
30
1.8527830473139514e-14
10
278.70494778632923
20
233.83113741085447
30
1.8510920092925072e-14
10
278.56688558475781
20
233.83113741085447
30
1.8494012349601307e-14
10
278.45494151333367
20
233.71919333943055
30
1.8494012349601272e-14
10
278.45494151333367
20
233.58113113785919
30
1.8510920092925031e-14
10
278.45494151333367
20
233.48873798331419
30
1.8522234991022704e-14
10
278.50741462394342
20
233.41137405782354
30
1.853813544208981e-14
10
278.58195787750572
20
233.36809504579008
30
1.8552564508132837e-14
0
SPLINE
5
525
100
AcDbEntity
8
0
100
AcDbSpline
70
0
71
3
72
8
73
4
74
0
42
0.000000001
43
0.0000000001
44
0.0000000001
40
0
40
0
40
0
40
0
40
1
40
1
40
1
40
1
10
245.09832340601452
20
159.84862302419447
30
0
10
245.09832340601452
20
159.02018700428107
30
0
10
245.76990349222569
20
158.34860691807248
30
0
10
246.59833951213912
20
158.34860691807248
30
0
0
SPLINE
5
526
100
AcDbEntity
8
0
100
AcDbSpline
70
0
71
3
72
14
73
10
74
0
42
0.000000001
43
0.0000000001
44
0.0000000001
40
19
40
19
40
19
40
19
40
20
40
20
40
20
40
21
40
21
40
21
40
22
40
22
40
22
40
22
10
281.34169467965927
20
76.22163796684454
30
0
10
281.34169467965927
20
76.083575765273139
30
0
10
281.45361721923638
20
75.971631693849304
30
0
10
281.59170095265461
20
75.971631693849304
30
0
10
281.72976315422596
20
75.971631693849304
30
0
10
281.84170722564977
20
76.083575765273139
30
0
10
281.84170722564977
20
76.22163796684454
30
0
10
281.84170722564977
20
76.314031121389576
30
0
10
281.78923411504007
20
76.391395046880206
30
0
10
281.71469086147795
20
76.434674058913686
30
0
0
SPLINE
5
527
100
AcDbEntity
8
0
100
AcDbSpline
70
0
71
3
72
14
73
10
74
0
42
0.000000001
43
0.0000000001
44
0.0000000001
40
23
40
23
40
23
40
23
40
24
40
24
40
24
40
25
40
25
40
25
40
26
40
26
40
26
40
26
10
282.91207686107009
20
78.50860000918729
30
0
10
282.94893938276232
20
78.487218885331941
30
0
10
282.98939772286718
20
78.471651360107984
30
0
10
283.0350667698936
20
78.471651360107984
30
0
10
283.17312897146496
20
78.471651360107984
30
0
10
283.28507304288877
20
78.583573899685035
30
0
10
283.28507304288877
20
78.721636101256422
30
0
10
283.28507304288877
20
78.859719834674593
30
0
10
283.17312897146496
20
78.971642374251658
30
0
10
283.0350667698936
20
78.971642374251658
30
0
0
SPLINE
5
528
100
AcDbEntity
8
0
100
AcDbSpline
70
0
71
3
72
8
73
4
74
0
42
0.000000001
43
0.0000000001
44
0.0000000001
40
4
40
4
40
4
40
4
40
5
40
5
40
5
40
5
10
246.3436788841679
20
130.77363201719456
30
0
10
246.20817476150387
20
130.77363201719456
30
0
10
246.09832696614862
20
130.88347981254969
30
0
10
246.09832696614862
20
131.01898393521384
30
0
0
SPLINE
5
529
100
AcDbEntity
8
0
100
AcDbSpline
70
0
71
3
72
8
73
4
74
0
42
0.000000001
43
0.0000000001
44
0.0000000001
40
10
40
10
40
10
40
10
40
11
40
11
40
11
40
11
10
239.83559849486659
20
153.58651602542102
30
0
10
240.66403828727348
20
153.58649387169604
30
0
10
241.33563318071822
20
154.25807080592386
30
0
10
241.33563318071822
20
155.08651059862589
30
0
0
LINE
5
530
100
AcDbEntity
8
0
100
AcDbLine
10
277.3845503460675
20
78.50860000918729
30
0
11
278.5819578775064
21
76.434674058913686
31
0
0
SPLINE
5
531
100
AcDbEntity
8
0
100
AcDbSpline
70
0
71
3
72
8
73
4
74
0
42
0.000000001
43
0.0000000001
44
0.0000000001
40
0
40
0
40
0
40
0
40
1
40
1
40
1
40
1
10
277.26158196908989
20
230.83112673045207
30
1.8701554107833246e-14
10
277.30725101611625
20
230.83112673045207
30
1.8707146953059339e-14
10
277.34773088806787
20
230.84669425567603
30
1.8710197835627277e-14
10
277.38457187791334
20
230.86809691137816
30
1.8712088486276546e-14
0
LINE
5
532
100
AcDbEntity
8
0
100
AcDbLine
10
278.58195787750572
20
233.36809504579008
30
1.8552564508132837e-14
11
277.38457187791334
21
231.29416909551645
31
1.8659909692625482e-14
0
SPLINE
5
533
100
AcDbEntity
8
0
100
AcDbSpline
70
0
71
3
72
8
73
4
74
0
42
0.000000001
43
0.0000000001
44
0.0000000001
40
20
40
20
40
20
40
20
40
21
40
21
40
21
40
21
10
232.89338363041992
20
210.23613742267614
30
0
10
232.89338363041992
20
211.0645615508777
30
0
10
232.22181318434437
20
211.73613199695393
30
0
10
231.39338905614221
20
211.73613199695393
30
0
0
SPLINE
5
534
100
AcDbEntity
8
0
100
AcDbSpline
70
0
71
3
72
17
73
13
74
0
42
0.000000001
43
0.0000000001
44
0.0000000001
40
10
40
10
40
10
40
10
40
11
40
11
40
11
40
12
40
12
40
12
40
13
40
13
40
13
40
14
40
14
40
14
40
14
10
282.91207686106924
20
230.86807537953143
30
1.9389015251656563e-14
10
282.94893938276141
20
230.84669425567603
30
1.9396148041065603e-14
10
282.98941925471303
20
230.83112673045207
30
1.9403011867620777e-14
10
283.03508830173973
20
230.83112673045207
30
1.9408604712846907e-14
10
283.17315050331109
20
230.83112673045207
30
1.9425512456170673e-14
10
283.28507304288786
20
230.94304927002918
30
1.9425512456170628e-14
10
283.28507304288786
20
231.08113300344735
30
1.940860207595614e-14
10
283.28507304288786
20
231.21919520501871
30
1.9391694332632381e-14
10
283.17315050331109
20
231.33111774459579
30
1.9364281216663322e-14
10
283.03508830173973
20
231.33111774459579
30
1.9347373473339559e-14
10
282.98941925471303
20
231.33111774459579
30
1.9341780628113426e-14
10
282.94893938276141
20
231.3155502193718
30
1.9338729745545491e-14
10
282.91209839291633
20
231.29416909551645
30
1.9336836458005534e-14
0
SPLINE
5
535
100
AcDbEntity
8
0
100
AcDbSpline
70
0
71
3
72
8
73
4
74
0
42
0.000000001
43
0.0000000001
44
0.0000000001
40
10
40
10
40
10
40
10
40
11
40
11
40
11
40
11
10
226.04832341077702
20
131.02123678937619
30
0
10
226.04832341077702
20
130.88448844971521
30
0
10
225.93746697825645
20
130.77363201719456
30
0
10
225.80071863859541
20
130.77363201719456
30
0
0
SPLINE
5
536
100
AcDbEntity
8
0
100
AcDbSpline
70
0
71
3
72
13
73
9
74
0
42
0.000000001
43
0.0000000001
44
0.0000000001
40
15
40
15
40
15
40
15
40
16
40
16
40
16
40
17
40
17
40
18
40
18
40
18
40
18
10
278.5819578775064
20
76.434674058913686
30
0
10
278.50741462394427
20
76.391395046880206
30
0
10
278.45494151333457
20
76.314031121389576
30
0
10
278.45494151333457
20
76.22163796684454
30
0
10
278.45494151333457
20
76.083575765273139
30
0
10
278.56688558475838
20
75.971631693849304
30
0
10
278.84300998790127
20
75.971631693849304
30
0
10
278.95495405932496
20
76.083575765273139
30
0
10
278.95495405932496
20
76.22163796684454
30
0
0
LINE
5
537
100
AcDbEntity
8
0
100
AcDbLine
10
226.04832341077702
20
148.32363743815426
30
0
11
226.04832341077702
21
131.02123678937619
31
0
0
SPLINE
5
538
100
AcDbEntity
8
0
100
AcDbSpline
70
0
71
3
72
8
73
4
74
0
42
0.000000001
43
0.0000000001
44
0.0000000001
40
0
40
0
40
0
40
0
40
1
40
1
40
1
40
1
10
263.64833238710844
20
110.72362846182293
30
0
10
264.47675651531057
20
110.72362846182293
30
0
10
265.14832696138615
20
111.39519890789853
30
0
10
265.14832696138615
20
112.2236230361007
30
0
0
LINE
5
539
100
AcDbEntity
8
0
100
AcDbLine
10
281.71469086147795
20
76.434674058913686
30
0
11
282.91207686107009
21
78.50860000918729
31
0
0
SPLINE
5
540
100
AcDbEntity
8
0
100
AcDbSpline
70
0
71
3
72
8
73
4
74
0
42
0.000000001
43
0.0000000001
44
0.0000000001
40
14
40
14
40
14
40
14
40
15
40
15
40
15
40
15
10
206.99832341553955
20
112.2236230361007
30
0
10
206.99832341553955
20
111.39519890789853
30
0
10
207.66989386161384
20
110.72362846182293
30
0
10
208.49831798981734
20
110.72362846182293
30
0
0
SPLINE
5
541
100
AcDbEntity
8
0
100
AcDbSpline
70
0
71
3
72
8
73
4
74
0
42
0.000000001
43
0.0000000001
44
0.0000000001
40
8
40
8
40
8
40
8
40
9
40
9
40
9
40
9
10
227.54831798505481
20
149.82363201243206
30
0
10
226.71989385685134
20
149.82363201243206
30
0
10
226.04832341077702
20
149.15206156635645
30
0
10
226.04832341077702
20
148.32363743815426
30
0
0
LINE
5
542
100
AcDbEntity
8
0
100
AcDbLine
10
282.91209839291633
20
231.29416909551645
30
1.9336836458005534e-14
11
281.7146908614771
21
233.36809504579008
31
1.8936213650273215e-14
0
LINE
5
543
100
AcDbEntity
8
0
100
AcDbLine
10
244.59833239187091
20
149.82363201243206
30
0
11
227.54831798505481
21
149.82363201243206
31
0
0
LINE
5
544
100
AcDbEntity
8
0
100
AcDbLine
10
282.91207686107009
20
78.934672193325525
30
0
11
281.71469086147795
21
81.008598143599187
31
0
0
SPLINE
5
545
100
AcDbEntity
8
0
100
AcDbSpline
70
0
71
3
72
14
73
10
74
0
42
0.000000001
43
0.0000000001
44
0.0000000001
40
23
40
23
40
23
40
23
40
24
40
24
40
24
40
25
40
25
40
25
40
26
40
26
40
26
40
26
10
277.38457187791334
20
231.29416909551645
30
1.8659909692625482e-14
10
277.34770935622117
20
231.3155502193718
30
1.8652776903216432e-14
10
277.30725101611625
20
231.33111774459579
30
1.8645915713551991e-14
10
277.26158196908989
20
231.33111774459579
30
1.8640322868325899e-14
10
277.12351976751853
20
231.33111774459579
30
1.8623415125002136e-14
10
277.01157569609472
20
231.21919520501871
30
1.8623412488111413e-14
10
277.01157569609472
20
231.08113300344735
30
1.8640320231435175e-14
10
277.01157569609472
20
230.94304927002918
30
1.8657230611649667e-14
10
277.12351976751853
20
230.83112673045207
30
1.8684646364509487e-14
10
277.26158196908989
20
230.83112673045207
30
1.8701554107833246e-14
0
LINE
5
546
100
AcDbEntity
8
0
100
AcDbLine
10
246.09832696614862
20
131.01898393521384
30
0
11
246.09832696614862
21
148.32363743815426
31
0
0
SPLINE
5
547
100
AcDbEntity
8
0
100
AcDbSpline
70
0
71
3
72
17
73
13
74
0
42
0.000000001
43
0.0000000001
44
0.0000000001
40
10
40
10
40
10
40
10
40
11
40
11
40
11
40
12
40
12
40
12
40
13
40
13
40
13
40
14
40
14
40
14
40
14
10
277.38457187791425
20
78.934693725172338
30
0
10
277.34770935622208
20
78.956074849027686
30
0
10
277.30722948427047
20
78.971642374251658
30
0
10
277.2615604372441
20
78.971642374251658
30
0
10
277.12349823567263
20
78.971642374251658
30
0
10
277.01157569609558
20
78.859719834674593
30
0
10
277.01157569609558
20
78.721636101256422
30
0
10
277.01157569609558
20
78.583573899685035
30
0
10
277.12349823567263
20
78.471651360107984
30
0
10
277.2615604372441
20
78.471651360107984
30
0
10
277.30722948427047
20
78.471651360107984
30
0
10
277.34770935622208
20
78.487218885331941
30
0
10
277.3845503460675
20
78.50860000918729
30
0
0
LINE
5
548
100
AcDbEntity
8
0
100
AcDbLine
10
278.5819578775064
20
81.008619675445956
30
0
11
277.38457187791425
21
78.934693725172338
31
0
0
LINE
5
549
100
AcDbEntity
8
0
100
AcDbLine
10
277.38457187791334
20
230.86809691137816
30
1.8712088486276546e-14
11
278.58195787750572
21
228.79417096110458
31
1.9112708657118141e-14
0
CIRCLE
5
550
100
AcDbEntity
8
0
100
AcDbCircle
10
269.64832436949212
20
89.221636101256422
30
0
40
1.3499999999999981
210
0
220
0
230
1
0
LINE
5
551
100
AcDbEntity
8
0
100
AcDbLine
10
281.34169467965842
20
233.58113113785919
30
1.8864445395431841e-14
11
278.95495405932411
21
233.58113113785919
31
1.8572153969323102e-14
0
LINE
5
552
100
AcDbEntity
8
0
100
AcDbLine
10
278.95495405932496
20
76.22163796684454
30
0
11
281.34169467965927
21
76.22163796684454
31
0
0
SPLINE
5
553
100
AcDbEntity
8
0
100
AcDbSpline
70
0
71
3
72
8
73
4
74
0
42
0.000000001
43
0.0000000001
44
0.0000000001
40
2
40
2
40
2
40
2
40
3
40
3
40
3
40
3
10
265.14832696138615
20
129.27363744291677
30
0
10
265.14832696138615
20
130.10206157111895
30
0
10
264.47675651531057
20
130.77363201719456
30
0
10
263.64833238710844
20
130.77363201719456
30
0
0
SPLINE
5
554
100
AcDbEntity
8
0
100
AcDbSpline
70
0
71
3
72
13
73
9
74
0
42
0.000000001
43
0.0000000001
44
0.0000000001
40
15
40
15
40
15
40
15
40
16
40
16
40
16
40
17
40
17
40
18
40
18
40
18
40
18
10
281.7146908614771
20
233.36809504579008
30
1.8936213650273215e-14
10
281.78923411503916
20
233.41137405782354
30
1.8940042415604793e-14
10
281.84170722564915
20
233.48873798331419
30
1.8936994169927623e-14
10
281.84170722564915
20
233.58113113785919
30
1.892567927182995e-14
10
281.84170722564915
20
233.71919333943055
30
1.8908771528506188e-14
10
281.729763154225
20
233.83113741085447
30
1.8881353138755604e-14
10
281.45363875108222
20
233.83113741085447
30
1.8847537652108076e-14
10
281.34169467965842
20
233.71919333943055
30
1.8847537652108079e-14
10
281.34169467965842
20
233.58113113785919
30
1.8864445395431841e-14
0
SPLINE
5
555
100
AcDbEntity
8
0
100
AcDbSpline
70
0
71
3
72
8
73
4
74
0
42
0.000000001
43
0.0000000001
44
0.0000000001
40
0
40
0
40
0
40
0
40
1
40
1
40
1
40
1
10
283.0350667698936
20
78.971642374251658
30
0
10
282.98939772286718
20
78.971642374251658
30
0
10
282.94891785091551
20
78.956074849027686
30
0
10
282.91207686107009
20
78.934672193325525
30
0
0
SPLINE
5
556
100
AcDbEntity
8
0
100
AcDbSpline
70
0
71
3
72
17
73
13
74
0
42
0.000000001
43
0.0000000001
44
0.0000000001
40
10
40
10
40
10
40
10
40
11
40
11
40
11
40
12
40
12
40
12
40
13
40
13
40
13
40
14
40
14
40
14
40
14
10
153.81472313559362
20
230.8677980592787
30
8.3553056284374934e-15
10
153.8515856572858
20
230.84641693542335
30
8.3624384178465341e-15
10
153.89206552923744
20
230.83084941019936
30
8.3693022444017075e-15
10
153.93773457626378
20
230.83084941019936
30
8.3748950896277986e-15
10
154.07579677783522
20
230.83084941019936
30
8.3918028329515624e-15
10
154.18771931741225
20
230.94277194977644
30
8.3918028329515608e-15
10
154.18771931741225
20
231.08085568319461
30
8.3748924527370754e-15
10
154.18771931741225
20
231.21891788476597
30
8.3579847094133132e-15
10
154.07579677783522
20
231.33084042434305
30
8.3305715934442145e-15
10
153.93773457626378
20
231.33084042434305
30
8.3136638501204508e-15
10
153.89206552923744
20
231.33084042434305
30
8.3080710048943596e-15
10
153.8515856572858
20
231.31527289911904
30
8.3050201223264267e-15
10
153.81474466744035
20
231.29389177526375
30
8.3031268347864264e-15
0
LINE
5
557
100
AcDbEntity
8
0
100
AcDbLine
10
65.022840852250752
20
138.1987204322391
30
0
11
57.178095053883325
21
139.86616800699585
31
0
0
SPLINE
5
558
100
AcDbEntity
8
0
100
AcDbSpline
70
0
71
3
72
8
73
4
74
0
42
0.000000001
43
0.0000000001
44
0.0000000001
40
3
40
3
40
3
40
3
40
4
40
4
40
4
40
4
10
-66.699117617110346
20
173.89130021396511
30
0
10
-66.699117617110346
20
173.75051322779441
30
0
10
-66.813241185498924
20
173.63637921313583
30
0
10
-66.954028171079599
20
173.63636632683091
30
0
0
SPLINE
5
559
100
AcDbEntity
8
0
100
AcDbSpline
70
0
71
3
72
8
73
4
74
0
42
0.000000001
43
0.0000000001
44
0.0000000001
40
6
40
6
40
6
40
6
40
7
40
7
40
7
40
7
10
261.12448675019232
20
178.39873430697821
30
0
10
260.98855714110766
20
178.398740976422
30
0
10
260.87836795773359
20
178.50893556640696
30
0
10
260.87836795773359
20
178.64486517565453
30
0
0
LINE
5
560
100
AcDbEntity
8
0
100
AcDbLine
10
-66.954028171079599
20
173.63636632683091
30
0
11
-69.514052388777884
21
173.63613200647893
31
0
0
SPLINE
5
561
100
AcDbEntity
8
0
100
AcDbSpline
70
0
71
3
72
8
73
4
74
0
42
0.000000001
43
0.0000000001
44
0.0000000001
40
39
40
39
40
39
40
39
40
40
40
40
40
40
40
40
10
73.209801890964542
20
193.60709214831175
30
0
10
73.353372785396886
20
194.28254029463741
30
0
10
72.922201101902701
20
194.94648641684154
30
0
10
72.246752963106132
20
195.0900573466854
30
0
0
SPLINE
5
562
100
AcDbEntity
8
0
100
AcDbSpline
70
0
71
3
72
8
73
4
74
0
42
0.000000001
43
0.0000000001
44
0.0000000001
40
42
40
42
40
42
40
42
40
43
40
43
40
43
40
43
10
93.637746477853199
20
120.54052969318278
30
0
10
93.666462001486494
20
120.40543442676947
30
0
10
93.580224106801566
20
120.2726395646317
30
0
10
93.445128813676888
20
120.24392416666103
30
0
0
LINE
5
563
100
AcDbEntity
8
0
100
AcDbLine
10
-24.43662407027611
20
211.73613199695393
30
0
11
-61.286303165391431
21
211.73612937284122
31
0
0
SPLINE
5
564
100
AcDbEntity
8
0
100
AcDbSpline
70
0
71
3
72
8
73
4
74
0
42
0.000000001
43
0.0000000001
44
0.0000000001
40
37
40
37
40
37
40
37
40
38
40
38
40
38
40
38
10
68.07814897309278
20
175.47820116549309
30
0
10
68.753584880896796
20
175.33463330082611
30
0
10
69.417518688472825
20
175.76579729825102
30
0
10
69.561086963010638
20
176.44123311893316
30
0
0
SPLINE
5
565
100
AcDbEntity
8
0
100
AcDbSpline
70
0
71
3
72
8
73
4
74
0
42
0.000000001
43
0.0000000001
44
0.0000000001
40
4
40
4
40
4
40
4
40
5
40
5
40
5
40
5
10
265.14832696138615
20
176.8985422995014
30
0
10
265.14832696138615
20
177.72697833365666
30
0
10
264.47676842026641
20
178.39856982588344
30
0
10
263.64833238710844
20
178.39861047344021
30
0
0
LINE
5
566
100
AcDbEntity
8
0
100
AcDbLine
10
165.03083635546759
20
134.5361284558698
30
0
11
189.44814573980548
21
134.5361284558698
31
0
0
LINE
5
567
100
AcDbEntity
8
0
100
AcDbLine
10
1.7245959410597878
20
76.434951379313119
30
0
11
2.9219819406519343
21
78.508877329586738
31
0
0
LINE
5
568
100
AcDbEntity
8
0
100
AcDbLine
10
152.2443409541828
20
233.58085381760645
30
7.8307357722127752e-15
11
149.85760033384855
21
233.58085381760645
31
7.5384443461040379e-15
0
LINE
5
569
100
AcDbEntity
8
0
100
AcDbLine
10
148.28721815243773
20
230.86781959112545
30
7.6783788630574783e-15
11
149.48460415202985
21
228.79389364085182
31
8.078999033899042e-15
0
LINE
5
570
100
AcDbEntity
8
0
100
AcDbLine
10
148.39445539300448
20
78.508877329440026
30
0
11
149.59186292444352
21
76.434951379166378
31
0
0
LINE
5
571
100
AcDbEntity
8
0
100
AcDbLine
10
149.48460415202985
20
233.36781772553735
30
7.518854884913728e-15
11
148.28721815243773
21
231.29389177526375
31
7.6262000694064113e-15
0
LINE
5
572
100
AcDbEntity
8
0
100
AcDbLine
10
245.09832340601452
20
177.14938258968147
30
0
11
245.09832340601452
21
159.84862302419447
31
0
0
SPLINE
5
573
100
AcDbEntity
8
0
100
AcDbSpline
70
0
71
3
72
8
73
4
74
0
42
0.000000001
43
0.0000000001
44
0.0000000001
40
0
40
0
40
0
40
0
40
1
40
1
40
1
40
1
10
148.1642282436143
20
230.83084941019936
30
7.6678444846141803e-15
10
148.20989729064064
20
230.83084941019936
30
7.6734373298402714e-15
10
148.25037716259237
20
230.84641693542335
30
7.6764882124082044e-15
10
148.28721815243773
20
230.86781959112545
30
7.6783788630574783e-15
0
LINE
5
574
100
AcDbEntity
8
0
100
AcDbLine
10
90.008737398779658
20
99.015579114435297
30
0
11
167.24573422080951
21
115.43279440947671
31
0
0
LINE
5
575
100
AcDbEntity
8
0
100
AcDbLine
10
-24.43662407027611
20
211.73651957019473
30
0
11
-24.43662407027611
21
211.73613199695393
31
0
0
LINE
5
576
100
AcDbEntity
8
0
100
AcDbLine
10
70.3789743683908
20
117.58469004378884
30
0
11
62.529444487884604
21
119.25315953071623
31
0
0
LINE
5
577
100
AcDbEntity
8
0
100
AcDbLine
10
-71.011475504077239
20
154.58691045619216
30
0
11
-73.438865574138831
21
154.58651958448223
31
0
0
LINE
5
578
100
AcDbEntity
8
0
100
AcDbLine
10
78.126624601998458
20
154.91673198674343
30
0
11
81.077024008837512
21
155.54385571368965
31
0
0
LINE
5
579
100
AcDbEntity
8
0
100
AcDbLine
10
260.87836795773359
20
178.64486517565453
30
0
11
260.87836795773359
21
195.94861589439998
31
0
0
LINE
5
580
100
AcDbEntity
8
0
100
AcDbLine
10
-87.175371784823625
20
78.934672193472295
30
0
11
-88.372757784416081
21
81.0085981437459
31
0
0
LINE
5
581
100
AcDbEntity
8
0
100
AcDbLine
10
-62.784985456692361
20
192.6866260088463
30
0
11
-65.448796652489207
21
192.68613200171643
31
0
0
LINE
5
582
100
AcDbEntity
8
0
100
AcDbLine
10
-1.4081370429118034
20
81.008896995845433
30
0
11
-2.6055230425039513
21
78.934971045571814
31
0
0
SPLINE
5
583
100
AcDbEntity
8
0
100
AcDbSpline
70
0
71
3
72
8
73
4
74
0
42
0.000000001
43
0.0000000001
44
0.0000000001
40
28
40
28
40
28
40
28
40
29
40
29
40
29
40
29
10
79.314211114467582
20
195.14269987044764
30
0
10
78.50388672023827
20
194.97046020656762
30
0
10
77.986617201353553
20
194.17393422939631
30
0
10
78.15885777663361
20
193.3636100288908
30
0
0
SPLINE
5
584
100
AcDbEntity
8
0
100
AcDbSpline
70
0
71
3
72
8
73
4
74
0
42
0.000000001
43
0.0000000001
44
0.0000000001
40
33
40
33
40
33
40
33
40
34
40
34
40
34
40
34
10
56.471238266861761
20
159.49201794128805
30
0
10
56.338763737203344
20
159.52017613592747
30
0
10
56.254198664740628
20
159.65039471846333
30
0
10
56.282356924518581
20
159.78286923427484
30
0
0
SPLINE
5
585
100
AcDbEntity
8
0
100
AcDbSpline
70
0
71
3
72
8
73
4
74
0
42
0.000000001
43
0.0000000001
44
0.0000000001
40
5
40
5
40
5
40
5
40
6
40
6
40
6
40
6
10
-69.514052388777884
20
173.63613200647893
30
0
10
-70.204604101433119
20
173.63606879991923
30
0
10
-70.764373353399051
20
173.07624830963962
30
0
10
-70.764373353399051
20
172.38569659409069
30
0
0
SPLINE
5
586
100
AcDbEntity
8
0
100
AcDbSpline
70
0
71
3
72
8
73
4
74
0
42
0.000000001
43
0.0000000001
44
0.0000000001
40
32
40
32
40
32
40
32
40
33
40
33
40
33
40
33
10
73.957994469306783
20
174.52858399193289
30
0
10
73.147669189060153
20
174.35634459982268
30
0
10
72.630398650277328
20
173.55981822210799
30
0
10
72.802638746875857
20
172.74949309160604
30
0
0
SPLINE
5
587
100
AcDbEntity
8
0
100
AcDbSpline
70
0
71
3
72
8
73
4
74
0
42
0.000000001
43
0.0000000001
44
0.0000000001
40
18
40
18
40
18
40
18
40
19
40
19
40
19
40
19
10
233.144713349668
20
192.68654268429404
30
0
10
233.00590088305501
20
192.68656622997725
30
0
10
232.89338363041992
20
192.79910256965761
30
0
10
232.89338363041992
20
192.93791503826753
30
0
0
SPLINE
5
588
100
AcDbEntity
8
0
100
AcDbSpline
70
0
71
3
72
14
73
10
74
0
42
0.000000001
43
0.0000000001
44
0.0000000001
40
19
40
19
40
19
40
19
40
20
40
20
40
20
40
21
40
21
40
21
40
22
40
22
40
22
40
22
10
152.35159972659642
20
76.221915287097275
30
0
10
152.35159972659642
20
76.083853085525845
30
0
10
152.4635222661735
20
75.97190901410201
30
0
10
152.6016059995917
20
75.97190901410201
30
0
10
152.739668201163
20
75.97190901410201
30
0
10
152.85161227258692
20
76.083853085525845
30
0
10
152.85161227258692
20
76.221915287097275
30
0
10
152.85161227258692
20
76.314308441642282
30
0
10
152.79913916197708
20
76.391672367132941
30
0
10
152.72459590841507
20
76.434951379166378
30
0
0
LINE
5
589
100
AcDbEntity
8
0
100
AcDbLine
10
59.666751771981751
20
158.81279385583116
30
0
11
56.471238266861761
21
159.49201794128805
31
0
0
SPLINE
5
590
100
AcDbEntity
8
0
100
AcDbSpline
70
0
71
3
72
13
73
9
74
0
42
0.000000001
43
0.0000000001
44
0.0000000001
40
6
40
6
40
6
40
6
40
7
40
7
40
8
40
8
40
8
40
9
40
9
40
9
40
9
10
149.96485910626208
20
81.221911555921054
30
0
10
149.96485910626208
20
81.359995289339196
30
0
10
149.8529150348383
20
81.471917828916247
30
0
10
149.5767906316955
20
81.471917828916247
30
0
10
149.46484656027167
20
81.359995289339196
30
0
10
149.46484656027167
20
81.221911555921054
30
0
10
149.46484656027167
20
81.129518401375975
30
0
10
149.51731967088139
20
81.052176007732157
30
0
10
149.59186292444352
20
81.008896995698692
30
0
0
LINE
5
591
100
AcDbEntity
8
0
100
AcDbLine
10
189.44814573980548
20
134.5361284558698
30
0
11
192.18159215703673
21
134.5361284558698
31
0
0
CIRCLE
5
592
100
AcDbEntity
8
0
100
AcDbCircle
10
-79.439125630102438
20
220.58113438894912
30
0
40
1.3499999999999983
210
0
220
0
230
1
0
LINE
5
593
100
AcDbEntity
8
0
100
AcDbLine
10
175.74338364470745
20
211.73613199695393
30
0
11
175.74338364470745
21
211.73651957019473
31
0
0
LINE
5
594
100
AcDbEntity
8
0
100
AcDbLine
10
86.745734325735384
20
137.27317017797606
30
0
11
89.695373930056306
21
137.90012829022379
31
0
0
SPLINE
5
595
100
AcDbEntity
8
0
100
AcDbSpline
70
0
71
3
72
8
73
4
74
0
42
0.000000001
43
0.0000000001
44
0.0000000001
40
44
40
44
40
44
40
44
40
45
40
45
40
45
40
45
10
-22.936629495998329
20
213.23651414447252
30
0
10
-23.765053624200839
20
213.23651414447252
30
0
10
-24.43662407027611
20
212.56494369837188
30
0
10
-24.43662407027611
20
211.73651957019473
30
0
0
LINE
5
596
100
AcDbEntity
8
0
100
AcDbLine
10
242.32838050848656
20
177.39860691330995
30
0
11
244.84866807078919
21
177.39899908052169
31
0
0
LINE
5
597
100
AcDbEntity
8
0
100
AcDbLine
10
-62.536624060751116
20
210.48580838844453
30
0
11
-62.536624060751116
21
192.93503346799
31
0
0
SPLINE
5
598
100
AcDbEntity
8
0
100
AcDbSpline
70
0
71
3
72
8
73
4
74
0
42
0.000000001
43
0.0000000001
44
0.0000000001
40
25
40
25
40
25
40
25
40
26
40
26
40
26
40
26
10
157.19337466361361
20
213.23651414447252
30
0
10
156.36495053541009
20
213.23651414447252
30
0
10
155.69338008933582
20
212.56494369840013
30
0
10
155.69338008933582
20
211.73651957019473
30
0
0
SPLINE
5
599
100
AcDbEntity
8
0
100
AcDbSpline
70
0
71
3
72
14
73
10
74
0
42
0.000000001
43
0.0000000001
44
0.0000000001
40
23
40
23
40
23
40
23
40
24
40
24
40
24
40
25
40
25
40
25
40
26
40
26
40
26
40
26
10
153.92198190800718
20
78.508877329440026
30
0
10
153.95884442969938
20
78.487496205584677
30
0
10
153.99930276980427
20
78.471928680360719
30
0
10
154.04497181683058
20
78.471928680360719
30
0
10
154.183034018402
20
78.471928680360719
30
0
10
154.29497808982578
20
78.58385121993777
30
0
10
154.29497808982578
20
78.721913421509129
30
0
10
154.29497808982578
20
78.859997154927299
30
0
10
154.183034018402
20
78.971919694504393
30
0
10
154.04497181683058
20
78.971919694504393
30
0
0
LINE
5
600
100
AcDbEntity
8
0
100
AcDbLine
10
149.59186292444352
20
81.008896995698692
30
0
11
148.39447692485129
21
78.934971045425044
31
0
0
LINE
5
601
100
AcDbEntity
8
0
100
AcDbLine
10
265.14832696138615
20
159.84862302419447
30
0
11
265.14832696138615
21
176.8985422995014
31
0
0
LINE
5
602
100
AcDbEntity
8
0
100
AcDbLine
10
152.35159972659642
20
81.221911555921054
30
0
11
149.96485910626208
21
81.221911555921054
31
0
0
SPLINE
5
603
100
AcDbEntity
8
0
100
AcDbSpline
70
0
71
3
72
8
73
4
74
0
42
0.000000001
43
0.0000000001
44
0.0000000001
40
7
40
7
40
7
40
7
40
8
40
8
40
8
40
8
10
-70.764373353399051
20
154.83405239982037
30
0
10
-70.764373353399051
20
154.69757521264887
30
0
10
-70.874998318673633
20
154.58693243249894
30
0
10
-71.011475504077239
20
154.58691045619216
30
0
0
LINE
5
604
100
AcDbEntity
8
0
100
AcDbLine
10
2.9219819406519343
20
78.934949513725016
30
0
11
1.7245959410597878
21
81.008875463998663
31
0
0
SPLINE
5
605
100
AcDbEntity
8
0
100
AcDbSpline
70
0
71
3
72
8
73
4
74
0
42
0.000000001
43
0.0000000001
44
0.0000000001
40
47
40
47
40
47
40
47
40
48
40
48
40
48
40
48
10
-61.286303165391431
20
211.73612937284122
30
0
10
-61.976836342695989
20
211.73612932366783
30
0
10
-62.536624060751116
20
211.17634156574974
30
0
10
-62.536624060751116
20
210.48580838844453
30
0
0
LINE
5
606
100
AcDbEntity
8
0
100
AcDbLine
10
-1.0351408612406698
20
233.58085381760631
30
2.7561413330937109e-16
11
1.3515997590936357
21
233.58085381760631
31
2.7561413330937109e-16
0
SPLINE
5
607
100
AcDbEntity
8
0
100
AcDbSpline
70
0
71
3
72
8
73
4
74
0
42
0.000000001
43
0.0000000001
44
0.0000000001
40
35
40
35
40
35
40
35
40
36
40
36
40
36
40
36
10
59.932700400285427
20
176.9564264184325
30
0
10
59.961132055418069
20
177.09018716135833
30
0
10
60.092614961651087
20
177.17557326698429
30
0
10
60.226375709563548
20
177.14714163530158
30
0
0
SPLINE
5
608
100
AcDbEntity
8
0
100
AcDbSpline
70
0
71
3
72
8
73
4
74
0
42
0.000000001
43
0.0000000001
44
0.0000000001
40
34
40
34
40
34
40
34
40
35
40
35
40
35
40
35
10
76.347534243298952
20
156.07208775754464
30
0
10
76.519774231844039
20
155.26176313539924
30
0
10
77.316299775618205
20
154.74449295904512
30
0
10
78.126624601998458
20
154.91673198674343
30
0
0
SPLINE
5
609
100
AcDbEntity
8
0
100
AcDbSpline
70
0
71
3
72
8
73
4
74
0
42
0.000000001
43
0.0000000001
44
0.0000000001
40
23
40
23
40
23
40
23
40
24
40
24
40
24
40
24
10
175.74338364470745
20
211.73651957019473
30
0
10
175.74338364470745
20
212.56494369837188
30
0
10
175.07181319863182
20
213.23651414447252
30
0
10
174.24338907042969
20
213.23651414447252
30
0
0
CIRCLE
5
610
100
AcDbEntity
8
0
100
AcDbCircle
10
10.658229449073991
20
89.221913421655898
30
0
40
1.3500000000000023
210
0
220
0
230
1
0
SPLINE
5
611
100
AcDbEntity
8
0
100
AcDbSpline
70
0
71
3
72
17
73
13
74
0
42
0.000000001
43
0.0000000001
44
0.0000000001
40
10
40
10
40
10
40
10
40
11
40
11
40
11
40
12
40
12
40
12
40
13
40
13
40
13
40
14
40
14
40
14
40
14
10
-92.702876768127027
20
230.86807537953126
30
-5.6605409789086189e-17
10
-92.739739289819198
20
230.84669425567594
30
-5.9223842278247553e-17
10
-92.780219161770887
20
230.83112673045196
30
-6.1130314271865027e-17
10
-92.825888208797551
20
230.83112673045196
30
-6.1130314271865027e-17
10
-92.963950410368952
20
230.83112673045196
30
-6.1130314271865027e-17
10
-93.075872949945648
20
230.94304927002901
30
-4.7423756287317266e-17
10
-93.075872949945648
20
231.08113300344718
30
-3.0513376072827915e-17
10
-93.075872949945648
20
231.21919520501859
30
-1.3605632749065314e-17
10
-92.963950410368952
20
231.33111774459564
30
1.0092523548441968e-19
10
-92.825888208797551
20
231.33111774459564
30
1.0092523548441968e-19
10
-92.780219161770887
20
231.33111774459564
30
1.0092523548441968e-19
10
-92.739739289819198
20
231.31555021937169
30
-1.8055467581330543e-18
10
-92.702898299974123
20
231.29416909551634
30
-4.4239792472963906e-18
0
LINE
5
612
100
AcDbEntity
8
0
100
AcDbLine
10
-88.745753966381926
20
228.58113486903531
30
-3.3667484739101682e-16
11
-91.132494586716248
21
228.58113486903531
31
-3.3667484739101682e-16
0
CIRCLE
5
613
100
AcDbEntity
8
0
100
AcDbCircle
10
-79.439124276401586
20
89.221636101403163
30
0
40
1.3499999999999979
210
0
220
0
230
1
0
SPLINE
5
614
100
AcDbEntity
8
0
100
AcDbSpline
70
0
71
3
72
8
73
4
74
0
42
0.000000001
43
0.0000000001
44
0.0000000001
40
29
40
29
40
29
40
29
40
30
40
30
40
30
40
30
10
57.178095053883325
20
139.86616800699585
30
0
10
57.040544718869384
20
139.89540515226841
30
0
10
56.952739553894958
20
140.03061314846616
30
0
10
56.981976760300903
20
140.16816347048569
30
0
0
LINE
5
615
100
AcDbEntity
8
0
100
AcDbLine
10
153.81474466744035
20
231.29389177526375
30
8.3031268347864264e-15
11
152.61733713600148
21
233.36781772553735
31
7.9025040270541411e-15
0
SPLINE
5
616
100
AcDbEntity
8
0
100
AcDbSpline
70
0
71
3
72
8
73
4
74
0
42
0.000000001
43
0.0000000001
44
0.0000000001
40
44
40
44
40
44
40
44
40
45
40
45
40
45
40
45
10
85.840127221647577
20
118.62743078457314
30
0
10
85.029802765450654
20
118.45519096253867
30
0
10
84.512533015663408
20
117.65866517685552
30
0
10
84.684772963261693
20
116.84834074734688
30
0
0
LINE
5
617
100
AcDbEntity
8
0
100
AcDbLine
10
152.72459590841507
20
76.434951379166378
30
0
11
153.92198190800718
21
78.508877329440026
31
0
0
SPLINE
5
618
100
AcDbEntity
8
0
100
AcDbSpline
70
0
71
3
72
8
73
4
74
0
42
0.000000001
43
0.0000000001
44
0.0000000001
40
16
40
16
40
16
40
16
40
17
40
17
40
17
40
17
10
236.65592313278881
20
197.94862301466949
30
0
10
236.65592313278881
20
197.12008547341779
30
0
10
237.3276705994424
20
196.44846806565226
30
0
10
238.15620812516048
20
196.44862849662377
30
0
0
SPLINE
5
619
100
AcDbEntity
8
0
100
AcDbSpline
70
0
71
3
72
17
73
13
74
0
42
0.000000001
43
0.0000000001
44
0.0000000001
40
10
40
10
40
10
40
10
40
11
40
11
40
11
40
12
40
12
40
12
40
13
40
13
40
13
40
14
40
14
40
14
40
14
10
-2.6055230425039513
20
78.934971045571814
30
0
10
-2.6423855641961236
20
78.956352169427134
30
0
10
-2.6828654361478099
20
78.971919694651106
30
0
10
-2.728534483174152
20
78.971919694651106
30
0
10
-2.8665966847455393
20
78.971919694651106
30
0
10
-2.9785192243225933
20
78.859997155074041
30
0
10
-2.9785192243225933
20
78.721913421655898
30
0
10
-2.9785192243225933
20
78.583851220084512
30
0
10
-2.8665966847455393
20
78.471928680507432
30
0
10
-2.728534483174152
20
78.471928680507432
30
0
10
-2.6828654361478099
20
78.471928680507432
30
0
10
-2.6423855641961236
20
78.487496205731432
30
0
10
-2.6055445743507333
20
78.508877329586738
30
0
0
SPLINE
5
620
100
AcDbEntity
8
0
100
AcDbSpline
70
0
71
3
72
13
73
9
74
0
42
0.000000001
43
0.0000000001
44
0.0000000001
40
15
40
15
40
15
40
15
40
16
40
16
40
16
40
17
40
17
40
18
40
18
40
18
40
18
10
152.61733713600148
20
233.36781772553735
30
7.9025040270541411e-15
10
152.69188038956355
20
233.4110967375708
30
7.9063327923857255e-15
10
152.74435350017325
20
233.4884606630614
30
7.903284546708519e-15
10
152.74435350017325
20
233.58085381760645
30
7.8919696486108479e-15
10
152.74435350017325
20
233.71891601917784
30
7.8750619052870841e-15
10
152.63240942874941
20
233.83086009060173
30
7.8476435155365359e-15
10
152.35628502560664
20
233.83086009060173
30
7.8138280288890099e-15
10
152.2443409541828
20
233.71891601917784
30
7.8138280288890115e-15
10
152.2443409541828
20
233.58085381760645
30
7.8307357722127752e-15
0
LINE
5
621
100
AcDbEntity
8
0
100
AcDbLine
10
149.85760033384855
20
228.58085754878272
30
8.1507672887404079e-15
11
152.2443409541828
21
228.58085754878272
31
8.4430587148491452e-15
0
LINE
5
622
100
AcDbEntity
8
0
100
AcDbLine
10
81.567049889625295
20
176.14593336025865
30
0
11
73.957994469306783
21
174.52858399193289
31
0
0
SPLINE
5
623
100
AcDbEntity
8
0
100
AcDbSpline
70
0
71
3
72
8
73
4
74
0
42
0.000000001
43
0.0000000001
44
0.0000000001
40
1
40
1
40
1
40
1
40
2
40
2
40
2
40
2
10
-65.448796652489207
20
192.68613200171643
30
0
10
-66.139367358441987
20
192.68600393451516
30
0
10
-66.699117617110346
20
192.12614985983183
30
0
10
-66.699117617110346
20
191.43557914200471
30
0
0
SPLINE
5
624
100
AcDbEntity
8
0
100
AcDbSpline
70
0
71
3
72
8
73
4
74
0
42
0.000000001
43
0.0000000001
44
0.0000000001
40
12
40
12
40
12
40
12
40
13
40
13
40
13
40
13
10
241.33563318071822
20
172.13652500544197
30
0
10
241.33563318071822
20
172.96492795982306
30
0
10
240.66409577903858
20
173.63648963487384
30
0
10
239.83569282519909
20
173.63651957776256
30
0
0
SPLINE
5
625
100
AcDbEntity
8
0
100
AcDbSpline
70
0
71
3
72
8
73
4
74
0
42
0.000000001
43
0.0000000001
44
0.0000000001
40
0
40
0
40
0
40
0
40
1
40
1
40
1
40
1
10
154.04497181683058
20
78.971919694504393
30
0
10
153.99930276980427
20
78.971919694504393
30
0
10
153.9588228978526
20
78.956352169280393
30
0
10
153.92198190800718
20
78.934949513578303
30
0
0
SPLINE
5
626
100
AcDbEntity
8
0
100
AcDbSpline
70
0
71
3
72
8
73
4
74
0
42
0.000000001
43
0.0000000001
44
0.0000000001
40
27
40
27
40
27
40
27
40
28
40
28
40
28
40
28
10
65.985889296140073
20
136.71575612899329
30
0
10
66.129460452856293
20
137.39120396414495
30
0
10
65.698288826713664
20
138.05514993093342
30
0
10
65.022840852250752
20
138.1987204322391
30
0
0
SPLINE
5
627
100
AcDbEntity
8
0
100
AcDbSpline
70
0
71
3
72
14
73
10
74
0
42
0.000000001
43
0.0000000001
44
0.0000000001
40
2
40
2
40
2
40
2
40
3
40
3
40
3
40
4
40
4
40
4
40
5
40
5
40
5
40
5
10
149.48460415202985
20
228.79389364085182
30
8.078999033899042e-15
10
149.41006089846778
20
228.75061462881837
30
8.0751702685674576e-15
10
149.35758778785808
20
228.67325070332777
30
8.0782185142446673e-15
10
149.35758778785808
20
228.58085754878272
30
8.0895334123423352e-15
10
149.35758778785808
20
228.44277381536455
30
8.1064437925568238e-15
10
149.46953185928191
20
228.3308512757875
30
8.1338595454166472e-15
10
149.60759406085327
20
228.3308512757875
30
8.150767288740411e-15
10
149.74567779427144
20
228.3308512757875
30
8.1676776689548996e-15
10
149.85760033384855
20
228.44277381536455
30
8.1676776689548948e-15
10
149.85760033384855
20
228.58085754878272
30
8.1507672887404079e-15
0
SPLINE
5
628
100
AcDbEntity
8
0
100
AcDbSpline
70
0
71
3
72
8
73
4
74
0
42
0.000000001
43
0.0000000001
44
0.0000000001
40
49
40
49
40
49
40
49
40
50
40
50
40
50
40
50
10
-62.536624060751116
20
192.93503346799
30
0
10
-62.536624060751116
20
192.79785980432388
30
0
10
-62.647811795385103
20
192.68665144787406
30
0
10
-62.784985456692361
20
192.6866260088463
30
0
0
LINE
5
629
100
AcDbEntity
8
0
100
AcDbLine
10
155.69338008933582
20
211.73651957019473
30
0
11
155.69338008933582
21
211.3775836843285
31
0
0
LINE
5
630
100
AcDbEntity
8
0
100
AcDbLine
10
174.24338907042969
20
213.23651414447252
30
0
11
157.19337466361361
21
213.23651414447252
31
0
0
LINE
5
631
100
AcDbEntity
8
0
100
AcDbLine
10
-88.745753966234417
20
81.221634235815046
30
0
11
-91.13249458656874
21
81.221634235815046
31
0
0
LINE
5
632
100
AcDbEntity
8
0
100
AcDbLine
10
240.82838593420871
20
196.20330477987196
30
0
11
240.82838593420871
21
178.89836810035732
31
0
0
SPLINE
5
633
100
AcDbEntity
8
0
100
AcDbSpline
70
0
71
3
72
14
73
10
74
0
42
0.000000001
43
0.0000000001
44
0.0000000001
40
19
40
19
40
19
40
19
40
20
40
20
40
20
40
21
40
21
40
21
40
22
40
22
40
22
40
22
10
1.3515997592411444
20
76.221915287244016
30
0
10
1.3515997592411444
20
76.083853085672629
30
0
10
1.4635222988181984
20
75.97190901424878
30
0
10
1.601606032236369
20
75.97190901424878
30
0
10
1.7396682338077563
20
75.97190901424878
30
0
10
1.8516123052315914
20
76.083853085672629
30
0
10
1.8516123052315914
20
76.221915287244016
30
0
10
1.8516123052315914
20
76.314308441789066
30
0
10
1.7991391946218815
20
76.391672367279682
30
0
10
1.7245959410597878
20
76.434951379313119
30
0
0
LINE
5
634
100
AcDbEntity
8
0
100
AcDbLine
10
-45.102484076753299
20
134.53651297675361
30
0
11
-13.712858421850855
21
134.53613222512655
31
0
0
LINE
5
635
100
AcDbEntity
8
0
100
AcDbLine
10
-66.699117617110346
20
191.43557914200471
30
0
11
-66.699117617110346
21
173.89130021396511
31
0
0
CIRCLE
5
636
100
AcDbEntity
8
0
100
AcDbCircle
10
10.658229448926482
20
248.58085568319444
30
-3.0547338008813863e-17
40
1.3499999999999979
210
0
220
0
230
1
0
CIRCLE
5
637
100
AcDbEntity
8
0
100
AcDbCircle
10
10.658229448926482
20
275.58085568319444
30
-3.0547338008813863e-17
40
1.3499999999999979
210
0
220
0
230
1
0
ENDSEC
0
SECTION
2
OBJECTS
0
DICTIONARY
5
C
100
AcDbDictionary
3
ACAD_GROUP
350
D
3
ACAD_MLINESTYLE
350
17
0
DICTIONARY
5
D
100
AcDbDictionary
0
DICTIONARY
5
1A
330
C
100
AcDbDictionary
0
DICTIONARY
5
17
100
AcDbDictionary
0
ENDSEC
0
EOF
